<svg xmlns="http://www.w3.org/2000/svg" width="24" height="22" fill="none" viewBox="0 0 24 22"><path fill="#1B0F0F" d="M23.966 12.359L19.435.98a.471.471 0 0 0-.612-.264L.44 8.037a.462.462 0 0 0-.189.15.466.466 0 0 0-.251.409v12.25c0 .26.21.47.471.47h19.787c.26 0 .472-.21.472-.47v-6.69l2.973-1.185a.471.471 0 0 0 .263-.612zm-4.179 8.015H.942V9.067h18.845v11.307zM7.861 8.127l7.888-3.143c.704.74 1.68 1.16 2.701 1.164l.787 1.98H7.861zm12.869 5.016V8.596a.471.471 0 0 0-.472-.471h-.007l-.998-2.508a.39.39 0 0 0-.04-.059.465.465 0 0 0-.491-.363 2.817 2.817 0 0 1-2.47-1.063.467.467 0 0 0-.605-.106.533.533 0 0 0-.066.012L5.95 7.873a.465.465 0 0 0-.259.252H2.766l15.968-6.358 4.183 10.504-2.187.872z"/><path fill="#1B0F0F" d="M2.221 17.194c.915.27 1.63.985 1.902 1.9.06.199.243.335.451.335a.434.434 0 0 0 .073-.01c.021.006.043.01.065.013h11.307a.414.414 0 0 0 .057-.012.439.439 0 0 0 .53-.322v-.003a2.817 2.817 0 0 1 1.902-1.902.465.465 0 0 0 .324-.518.457.457 0 0 0 .013-.07v-3.769a.435.435 0 0 0-.014-.07.465.465 0 0 0-.323-.518 2.814 2.814 0 0 1-1.901-1.902.465.465 0 0 0-.522-.323.456.456 0 0 0-.066-.014H4.712a.453.453 0 0 0-.07.014.465.465 0 0 0-.519.324 2.817 2.817 0 0 1-1.902 1.901.465.465 0 0 0-.323.518.473.473 0 0 0-.013.07v3.77a.433.433 0 0 0 .013.065c-.039.23.1.454.323.523zm.606-4.167a3.739 3.739 0 0 0 2.076-2.075h10.924a3.74 3.74 0 0 0 2.076 2.075v3.387a3.743 3.743 0 0 0-2.076 2.076H4.903a3.743 3.743 0 0 0-2.076-2.076v-3.387z"/><path fill="#1B0F0F" d="M10.364 17.547a2.827 2.827 0 100-5.653 2.827 2.827 0 000 5.653zm0-4.71a1.885 1.885 0 110 3.768 1.885 1.885 0 010-3.769zM5.183 15.427a.707.707 0 100-1.413.707.707 0 000 1.413zm0-.942a.236.236 0 110 .471.236.236 0 010-.471zM15.546 15.427a.707.707 0 100-1.413.707.707 0 000 1.413zm0-.942a.236.236 0 110 .471.236.236 0 010-.471z"/></svg>