<svg xmlns="http://www.w3.org/2000/svg" width="21" height="20" fill="none" viewBox="0 0 21 20"><path fill="#1B0F0F" d="M10.5 0C4.98 0 .5 4.48.5 10s4.48 10 10 10 10-4.48 10-10-4.48-10-10-10zm.88 15.76v.36c0 .48-.39.88-.88.88-.48 0-.88-.39-.88-.88v-.42c-.63-.15-1.93-.61-2.69-2.1-.23-.44-.01-.99.45-1.18l.07-.03c.41-.17.87 0 1.08.39.32.61.95 1.37 2.12 1.37.93 0 1.98-.48 1.98-1.61 0-.96-.7-1.46-2.28-2.03C9.25 10.12 7 9.48 7 7.2c0-.1.01-2.4 2.62-2.96v-.36c0-.49.4-.88.88-.88s.88.39.88.88v.37c1.07.19 1.75.76 2.16 1.3.34.44.16 1.08-.36 1.3-.36.15-.78.03-1.02-.28-.28-.38-.78-.77-1.6-.77-.7 0-1.81.37-1.81 1.39 0 .95.86 1.31 2.64 1.9 2.4.83 3.01 2.05 3.01 3.45 0 2.63-2.5 3.13-3.02 3.22z"/></svg>