<svg xmlns="http://www.w3.org/2000/svg" width="29" height="28" fill="none" viewBox="0 0 29 28"><path fill="#F90" d="M23.74 22.534c-10.421 4.96-16.888.81-21.028-1.71-.257-.159-.692.037-.314.471 1.38 1.672 5.9 5.703 11.799 5.703 5.904 0 9.416-3.221 9.856-3.783.436-.558.128-.865-.313-.68zm2.927-1.616c-.28-.364-1.702-.432-2.597-.322-.896.106-2.241.654-2.124.983.06.123.182.068.798.012.617-.061 2.347-.28 2.707.192.362.474-.552 2.733-.718 3.098-.162.364.061.458.364.215.299-.242.84-.87 1.202-1.76.36-.893.58-2.14.367-2.418z"/><path fill="#1B1B1B" fill-rule="evenodd" d="M16.733 12.414c0 1.302.033 2.387-.625 3.542-.531.94-1.372 1.518-2.312 1.518-1.282 0-2.029-.977-2.029-2.42 0-2.847 2.55-3.363 4.966-3.363v.723zm3.368 8.142a.697.697 0 0 1-.79.08c-1.108-.921-1.305-1.349-1.916-2.227-1.832 1.87-3.129 2.428-5.506 2.428-2.81 0-4.998-1.733-4.998-5.205 0-2.71 1.47-4.557 3.56-5.459 1.814-.798 4.346-.94 6.282-1.16v-.432c0-.794.06-1.734-.404-2.42-.41-.615-1.189-.869-1.875-.869-1.273 0-2.41.653-2.687 2.006-.056.3-.277.597-.578.611l-3.241-.348c-.273-.06-.573-.282-.498-.7.747-3.927 4.293-5.111 7.47-5.111 1.625 0 3.748.432 5.03 1.663 1.626 1.517 1.471 3.542 1.471 5.746v5.205c0 1.564.648 2.25 1.259 3.096.216.3.263.662-.01.888-.68.568-1.893 1.625-2.56 2.217l-.01-.01" clip-rule="evenodd"/><path fill="#F90" d="M23.74 22.534c-10.421 4.96-16.888.81-21.028-1.71-.257-.159-.692.037-.314.471 1.38 1.672 5.9 5.703 11.799 5.703 5.904 0 9.416-3.221 9.856-3.783.436-.558.128-.865-.313-.68zm2.927-1.616c-.28-.364-1.702-.432-2.597-.322-.896.106-2.241.654-2.124.983.06.123.182.068.798.012.617-.061 2.347-.28 2.707.192.362.474-.552 2.733-.718 3.098-.162.364.061.458.364.215.299-.242.84-.87 1.202-1.76.36-.893.58-2.14.367-2.418z"/><path fill="#1B1B1B" fill-rule="evenodd" d="M16.733 12.414c0 1.302.033 2.387-.625 3.542-.531.94-1.372 1.518-2.312 1.518-1.282 0-2.029-.977-2.029-2.42 0-2.847 2.55-3.363 4.966-3.363v.723zm3.368 8.142a.697.697 0 0 1-.79.08c-1.108-.921-1.305-1.349-1.916-2.227-1.832 1.87-3.129 2.428-5.506 2.428-2.81 0-4.998-1.733-4.998-5.205 0-2.71 1.47-4.557 3.56-5.459 1.814-.798 4.346-.94 6.282-1.16v-.432c0-.794.06-1.734-.404-2.42-.41-.615-1.189-.869-1.875-.869-1.273 0-2.41.653-2.687 2.006-.056.3-.277.597-.578.611l-3.241-.348c-.273-.06-.573-.282-.498-.7.747-3.927 4.293-5.111 7.47-5.111 1.625 0 3.748.432 5.03 1.663 1.626 1.517 1.471 3.542 1.471 5.746v5.205c0 1.564.648 2.25 1.259 3.096.216.3.263.662-.01.888-.68.568-1.893 1.625-2.56 2.217l-.01-.01" clip-rule="evenodd"/></svg>