<svg xmlns="http://www.w3.org/2000/svg" width="29" height="28" fill="none" viewBox="0 0 29 28"><path fill="#E53238" d="M5.273 10.548c-1.755 0-3.218.915-3.218 3.675 0 2.186.983 3.563 3.263 3.563 2.684 0 2.856-2.171 2.856-2.171h-1.3s-.279 1.169-1.635 1.169c-1.104 0-1.899-.916-1.899-2.2h4.97v-.807c0-1.27-.657-3.23-3.037-3.23zm-.045 1.03c1.051 0 1.768.79 1.768 1.976H3.369c0-1.258.936-1.976 1.859-1.976z"/><path fill="#0064D2" d="M8.31 7.875V16.4c0 .484-.029 1.163-.029 1.163h1.24s.045-.488.045-.934c0 0 .613 1.178 2.28 1.178 1.754 0 2.945-1.496 2.945-3.64 0-1.994-1.094-3.598-2.943-3.598-1.731 0-2.27 1.148-2.27 1.148V7.875H8.31zm3.218 3.748c1.191 0 1.949 1.086 1.949 2.544 0 1.563-.875 2.586-1.94 2.586-1.272 0-1.958-1.22-1.958-2.572 0-1.26.615-2.558 1.949-2.558z"/><path fill="#F5AF02" d="M17.873 10.548c-2.641 0-2.81 1.776-2.81 2.06h1.314s.069-1.037 1.405-1.037c.868 0 1.541.488 1.541 1.427v.334h-1.54c-2.047 0-3.129.735-3.129 2.227 0 1.468 1 2.267 2.35 2.267 1.841 0 2.434-1.25 2.434-1.25 0 .498.031.987.031.987h1.169s-.046-.607-.046-.995v-3.356c0-2.201-1.445-2.664-2.72-2.664zm1.45 3.786v.445c0 .581-.292 2.026-2.01 2.026-.94 0-1.344-.577-1.344-1.246 0-1.217 1.358-1.225 3.354-1.225z"/><path fill="#86B817" d="M19.885 10.826h1.479l2.122 5.223 2.118-5.223h1.34l-3.858 9.299h-1.405l1.113-2.592-2.91-6.707z"/></svg>