<svg xmlns="http://www.w3.org/2000/svg" width="29" height="28" fill="none" viewBox="0 0 29 28"><path fill="#E65300" d="M22.637 18.105l-.746 2.4a3.06 3.06 0 0 1-2.921 2.151h-5.717a1.536 1.536 0 0 1-1.536-1.536v-6.45h4.138c1.086 0 1.967.88 1.967 1.967v.506c0 .15.122.272.272.272h.848c.15 0 .273-.122.273-.272V9.698a.272.272 0 0 0-.273-.272h-.848a.272.272 0 0 0-.272.272v.793c0 1.086-.88 1.967-1.967 1.967h-4.138V6.005c0-.849.688-1.536 1.536-1.536h5.429a2.54 2.54 0 0 1 2.54 2.54v1.53c0 .15.122.273.272.273h.992c.142 0 .26-.11.272-.251l.418-5.258a.628.628 0 0 0-.626-.678H5.309a.433.433 0 0 0-.434.434v.976c0 .24.194.434.434.434H6.41c.849 0 1.537.688 1.537 1.536V21.12c0 .848-.688 1.536-1.537 1.536h-1.1a.433.433 0 0 0-.434.434v.977c0 .239.194.433.434.433h17.38a.628.628 0 0 0 .62-.535l.857-5.74a.272.272 0 0 0-.269-.312h-1a.272.272 0 0 0-.26.192z"/></svg>