<svg xmlns="http://www.w3.org/2000/svg" width="29" height="28" fill="none" viewBox="0 0 29 28"><path fill="#F0EFEB" d="M26.75 14c0 2.335-.654 4.517-1.788 6.375a12.298 12.298 0 0 1-5.992 5.034 12.217 12.217 0 0 1-4.47.841 12.219 12.219 0 0 1-7.451-2.526 12.31 12.31 0 0 1-3.012-3.349A12.193 12.193 0 0 1 2.25 14c0-6.765 5.485-12.25 12.25-12.25 2.956 0 5.668 1.047 7.785 2.792A12.224 12.224 0 0 1 26.75 14z"/><path fill="#F36306" d="M18.97 13.439v11.97a12.217 12.217 0 0 1-4.47.841c-1.578 0-3.086-.298-4.47-.84V13.438l2.91-1.68v11.964l1.56.901 1.56-.9V11.757l2.91 1.68z"/><path fill="#F36306" d="M24.962 9.979v10.396a12.298 12.298 0 0 1-3.01 3.348V11.717L14.5 7.415l-7.452 4.302v12.007a12.31 12.31 0 0 1-3.01-3.349V9.979L14.5 3.939l10.462 6.04z"/></svg>