<svg xmlns="http://www.w3.org/2000/svg" width="33" height="32" fill="none" viewBox="0 0 33 32"><path fill="#38AE0E" d="M23.956 0c5.44 0 8.544 3.072 8.544 8.528v14.944c0 5.424-3.088 8.528-8.528 8.528H9.028C3.572 32 .5 28.896.5 23.472V8.528C.5 3.072 3.572 0 9.028 0h14.928zm-7.472 8.816c-.736 0-1.328.592-1.328 1.328v4.512h-4.528c-.352 0-.688.144-.944.384-.24.256-.384.59-.384.944 0 .736.592 1.328 1.328 1.344h4.528v4.528c0 .736.592 1.328 1.328 1.328.736 0 1.328-.592 1.328-1.328v-4.528h4.544a1.349 1.349 0 0 0 1.328-1.344c0-.736-.592-1.328-1.328-1.328h-4.544v-4.512c0-.736-.592-1.328-1.328-1.328z"/></svg>