<svg xmlns="http://www.w3.org/2000/svg" width="121" height="120" fill="none" viewBox="0 0 121 120"><g clip-path="url(#clip0_1082:22777)"><path fill="#EEE" d="M100.907 40.286a22.7 22.7 0 0 0-6.73-4.632c-6.568-2.974-11.732-8.299-14.634-14.898C74.172 8.542 61.971.01 47.775 0 29.186-.014 13.752 14.804 13.053 33.38c-.3 7.95 2.075 15.332 6.297 21.32 5.362 7.605 6.755 17.293 3.99 26.177-3.93 12.623-2.56 24.586 4.915 32.061 13.099 13.099 39.981 7.454 60.044-12.608 20.061-20.063 25.706-46.945 12.608-60.044z"/><path fill="#3CC" d="M111.787 76.257v-6.743c0-.647-.525-1.172-1.172-1.172h-4.677a16.985 16.985 0 0 0-1.629-3.932l3.307-3.308c.457-.458.457-1.2 0-1.657l-4.768-4.768a1.172 1.172 0 0 0-1.657 0l-3.308 3.307a17.024 17.024 0 0 0-3.932-1.629v-4.677c0-.647-.525-1.172-1.172-1.172h-6.743c-.648 0-1.172.525-1.172 1.172v4.677a16.99 16.99 0 0 0-3.933 1.629l-3.308-3.307a1.172 1.172 0 0 0-1.657 0L71.2 59.445a1.172 1.172 0 0 0 0 1.657l3.306 3.308a17.029 17.029 0 0 0-1.629 3.932H68.2c-.647 0-1.172.525-1.172 1.172v6.743c0 .647.525 1.172 1.172 1.172h4.677c.38 1.39.931 2.708 1.63 3.932l-3.308 3.308a1.172 1.172 0 0 0 0 1.657l4.768 4.768a1.17 1.17 0 0 0 1.657 0l3.308-3.306a17.029 17.029 0 0 0 3.933 1.628v4.677c0 .647.524 1.172 1.172 1.172h6.743c.647 0 1.172-.525 1.172-1.172v-4.677a16.94 16.94 0 0 0 3.932-1.629l3.308 3.307a1.172 1.172 0 0 0 1.657 0l4.768-4.768c.457-.457.457-1.2 0-1.657l-3.307-3.308a17.034 17.034 0 0 0 1.629-3.932h4.677c.647 0 1.172-.525 1.172-1.172zm-22.38 5.418a8.789 8.789 0 1 1 0-17.578 8.789 8.789 0 0 1 0 17.578zm-20.278 19.35v-4.688c0-.647-.525-1.171-1.172-1.171h-3.354a13.168 13.168 0 0 0-1.26-3.043l2.371-2.373c.457-.458.457-1.2 0-1.657l-3.315-3.315a1.172 1.172 0 0 0-1.657 0l-2.373 2.372a13.164 13.164 0 0 0-3.043-1.26v-3.355c0-.647-.525-1.172-1.172-1.172h-4.688c-.647 0-1.172.525-1.172 1.172v3.355c-1.075.294-2.095.72-3.043 1.26l-2.372-2.372a1.172 1.172 0 0 0-1.657 0l-3.315 3.315a1.172 1.172 0 0 0 0 1.657l2.372 2.373c-.54.947-.966 1.967-1.26 3.043h-3.355c-.647 0-1.172.524-1.172 1.172v4.687c0 .648.525 1.172 1.172 1.172h3.354a13.14 13.14 0 0 0 1.26 3.043l-2.371 2.373a1.172 1.172 0 0 0 0 1.657l3.315 3.315c.457.457 1.2.457 1.657 0l2.372-2.372c.948.54 1.968.966 3.044 1.26v3.355c0 .647.524 1.172 1.171 1.172h4.688c.647 0 1.172-.525 1.172-1.172v-3.355a13.149 13.149 0 0 0 3.043-1.26l2.373 2.372c.457.457 1.2.457 1.657 0l3.315-3.315c.457-.458.457-1.2 0-1.657l-2.372-2.373a13.14 13.14 0 0 0 1.26-3.043h3.355c.647 0 1.172-.524 1.172-1.172zm-17.319 4.667a7.011 7.011 0 1 1 0-14.022 7.011 7.011 0 0 1 0 14.022zm17.245-54.211v-9.805c0-.647-.525-1.172-1.172-1.172h-6.648a22.745 22.745 0 0 0-2.178-5.258l4.7-4.702a1.17 1.17 0 0 0 0-1.657l-6.933-6.933a1.172 1.172 0 0 0-1.657 0l-4.702 4.7a22.76 22.76 0 0 0-5.258-2.177v-6.649c0-.647-.525-1.171-1.172-1.171H34.23c-.647 0-1.172.524-1.172 1.171v6.649a22.746 22.746 0 0 0-5.257 2.177l-4.702-4.7a1.172 1.172 0 0 0-1.657 0l-6.934 6.933a1.172 1.172 0 0 0 0 1.657l4.7 4.702a22.757 22.757 0 0 0-2.177 5.258h-6.648c-.647 0-1.172.525-1.172 1.172v9.805c0 .648.525 1.172 1.172 1.172h6.648a22.751 22.751 0 0 0 2.178 5.258l-4.7 4.702a1.172 1.172 0 0 0 0 1.657l6.933 6.933a1.17 1.17 0 0 0 1.657 0l4.702-4.7a22.71 22.71 0 0 0 5.258 2.177v6.649c0 .647.524 1.172 1.172 1.172h9.804c.648 0 1.172-.525 1.172-1.172V68.68a22.75 22.75 0 0 0 5.258-2.177l4.702 4.7a1.17 1.17 0 0 0 1.657 0l6.934-6.933c.457-.458.457-1.2 0-1.657l-4.7-4.702a22.76 22.76 0 0 0 2.177-5.258h6.648c.647 0 1.172-.525 1.172-1.172zm-29.922 8.356c-7.323 0-13.258-5.936-13.258-13.259 0-7.322 5.936-13.258 13.258-13.258 7.322 0 13.258 5.936 13.258 13.258 0 7.323-5.936 13.259-13.258 13.259z" opacity=".1"/><path fill="#3CC" d="M111.787 69.929v-6.743c0-.647-.525-1.172-1.172-1.172h-4.677a16.985 16.985 0 0 0-1.629-3.932l3.307-3.308c.457-.458.457-1.2 0-1.657l-4.768-4.768a1.172 1.172 0 0 0-1.657 0l-3.308 3.306a17.023 17.023 0 0 0-3.932-1.628v-4.678c0-.647-.525-1.171-1.172-1.171h-6.743c-.648 0-1.172.524-1.172 1.172v4.677a17 17 0 0 0-3.933 1.628l-3.308-3.306a1.172 1.172 0 0 0-1.657 0L71.2 53.117a1.172 1.172 0 0 0 0 1.657l3.306 3.308a17.027 17.027 0 0 0-1.629 3.932H68.2c-.647 0-1.172.525-1.172 1.172v6.743c0 .647.525 1.172 1.172 1.172h4.677c.38 1.39.931 2.707 1.63 3.932l-3.308 3.308a1.172 1.172 0 0 0 0 1.657l4.768 4.768c.458.457 1.2.458 1.657 0l3.308-3.307a17.028 17.028 0 0 0 3.933 1.63v4.676c0 .647.524 1.172 1.172 1.172h6.743c.647 0 1.172-.525 1.172-1.172v-4.677a16.94 16.94 0 0 0 3.932-1.629l3.308 3.307a1.172 1.172 0 0 0 1.657 0l4.768-4.768c.457-.457.457-1.2 0-1.657l-3.307-3.308a17.033 17.033 0 0 0 1.629-3.932h4.677c.647 0 1.172-.525 1.172-1.172zm-22.38 5.417a8.789 8.789 0 1 1 8.79-8.789 8.789 8.789 0 0 1-8.79 8.79z"/><path fill="#3CC" d="M92.779 90.109h-6.743a2.346 2.346 0 0 1-2.344-2.344V83.96a18.26 18.26 0 0 1-2.548-1.055l-2.692 2.691a2.328 2.328 0 0 1-1.657.686 2.328 2.328 0 0 1-1.658-.687l-4.767-4.767a2.328 2.328 0 0 1-.687-1.657c0-.626.244-1.215.686-1.657l2.692-2.693a18.259 18.259 0 0 1-1.056-2.547H68.2a2.346 2.346 0 0 1-2.343-2.344v-6.743a2.346 2.346 0 0 1 2.343-2.344h3.806c.287-.873.64-1.726 1.056-2.547l-2.692-2.693a2.347 2.347 0 0 1 0-3.314l4.769-4.768a2.346 2.346 0 0 1 3.314 0l2.692 2.691a18.224 18.224 0 0 1 2.548-1.055V45.35a2.346 2.346 0 0 1 2.344-2.344h6.743a2.346 2.346 0 0 1 2.343 2.344v3.806c.874.286 1.726.64 2.548 1.055l2.692-2.691a2.348 2.348 0 0 1 3.315 0l4.767 4.768c.914.914.914 2.4 0 3.315l-2.691 2.691a18.31 18.31 0 0 1 1.056 2.548h3.806a2.346 2.346 0 0 1 2.343 2.344v6.743a2.346 2.346 0 0 1-2.343 2.344h-3.806c-.287.874-.64 1.726-1.056 2.547l2.691 2.693c.443.442.687 1.03.687 1.657 0 .626-.244 1.214-.687 1.657l-4.768 4.767a2.327 2.327 0 0 1-1.657.687 2.328 2.328 0 0 1-1.657-.686l-2.692-2.691a18.24 18.24 0 0 1-2.548 1.055v3.806a2.346 2.346 0 0 1-2.343 2.344zm-11.847-9.821c.198 0 .398.05.58.153a15.86 15.86 0 0 0 3.66 1.517c.51.14.864.602.864 1.13v4.677h6.743v-4.677c0-.528.353-.991.862-1.13a15.834 15.834 0 0 0 3.662-1.517 1.172 1.172 0 0 1 1.408.19l3.308 3.306 4.768-4.767-3.307-3.308a1.173 1.173 0 0 1-.189-1.41 15.889 15.889 0 0 0 1.517-3.66 1.17 1.17 0 0 1 1.13-.863h4.677v-6.743h-4.677a1.17 1.17 0 0 1-1.13-.863 15.912 15.912 0 0 0-1.517-3.662 1.171 1.171 0 0 1 .19-1.408l3.306-3.308-4.767-4.768-3.308 3.307c-.374.373-.95.45-1.409.19a15.861 15.861 0 0 0-3.661-1.517 1.172 1.172 0 0 1-.863-1.13v-4.678h-6.743v4.677c0 .528-.353.992-.863 1.13a15.91 15.91 0 0 0-3.661 1.517 1.172 1.172 0 0 1-1.409-.19l-3.307-3.306-4.768 4.768 3.306 3.308c.373.373.451.95.19 1.408a15.867 15.867 0 0 0-1.517 3.662c-.14.51-.602.863-1.13.863H68.2v6.743h4.677c.528 0 .99.353 1.13.862a15.87 15.87 0 0 0 1.517 3.662 1.172 1.172 0 0 1-.19 1.409l-3.306 3.308 4.768 4.767 3.307-3.306a1.17 1.17 0 0 1 .829-.343zm8.475-3.77c-5.492 0-9.96-4.468-9.96-9.96 0-5.493 4.468-9.961 9.96-9.961 5.493 0 9.961 4.468 9.961 9.96a9.95 9.95 0 0 1-.447 2.959 1.171 1.171 0 1 1-2.238-.696 7.623 7.623 0 0 0-7.276-9.88c-4.2 0-7.617 3.417-7.617 7.618 0 4.2 3.417 7.617 7.617 7.617.837 0 1.663-.137 2.456-.407a1.171 1.171 0 1 1 .756 2.218 9.948 9.948 0 0 1-3.212.533z"/><path fill="#EEE" d="M69.127 94.697V90.01c0-.647-.525-1.171-1.172-1.171h-3.354a13.164 13.164 0 0 0-1.26-3.044l2.371-2.372c.457-.458.457-1.2 0-1.657l-3.315-3.315a1.172 1.172 0 0 0-1.657 0l-2.373 2.372a13.165 13.165 0 0 0-3.043-1.26v-3.355c0-.647-.524-1.172-1.172-1.172h-4.688c-.647 0-1.171.525-1.171 1.172v3.354c-1.076.295-2.096.72-3.044 1.26l-2.372-2.371a1.172 1.172 0 0 0-1.657 0l-3.315 3.315a1.172 1.172 0 0 0 0 1.657l2.372 2.372c-.54.948-.966 1.968-1.26 3.044h-3.355c-.647 0-1.172.524-1.172 1.171v4.688c0 .647.525 1.172 1.172 1.172h3.355c.294 1.076.72 2.096 1.26 3.043l-2.372 2.373a1.172 1.172 0 0 0 0 1.657l3.315 3.315c.458.457 1.2.457 1.657 0l2.372-2.372c.948.54 1.968.966 3.044 1.26v3.355c0 .647.524 1.172 1.172 1.172h4.687c.648 0 1.172-.525 1.172-1.172v-3.355a13.15 13.15 0 0 0 3.043-1.26l2.373 2.372c.457.457 1.2.457 1.657 0l3.315-3.315c.457-.458.457-1.2 0-1.657l-2.372-2.373c.54-.947.966-1.967 1.26-3.043h3.355c.647 0 1.172-.525 1.172-1.172zm-17.319 4.667a7.011 7.011 0 1 1 0-14.022 7.011 7.011 0 0 1 0 14.022z"/><path fill="#3CC" d="M54.153 110.843h-4.688a2.346 2.346 0 0 1-2.344-2.343v-2.49a14.191 14.191 0 0 1-1.654-.685l-1.761 1.761c-.914.913-2.4.913-3.314-.001l-3.315-3.315a2.347 2.347 0 0 1 0-3.314l1.76-1.761a14.335 14.335 0 0 1-.685-1.654h-2.49a2.346 2.346 0 0 1-2.344-2.344v-4.688a2.346 2.346 0 0 1 2.344-2.343h2.49a14.2 14.2 0 0 1 .685-1.655l-1.76-1.76a2.346 2.346 0 0 1 0-3.315l3.314-3.315a2.347 2.347 0 0 1 3.315 0l1.76 1.76c.538-.263 1.09-.492 1.655-.685v-2.49a2.346 2.346 0 0 1 2.343-2.343h4.688a2.346 2.346 0 0 1 2.344 2.344v2.49c.565.192 1.117.421 1.654.684l1.761-1.76a2.347 2.347 0 0 1 3.315 0l3.315 3.315c.913.913.913 2.4 0 3.314l-1.76 1.761c.262.537.49 1.09.684 1.655h2.49a2.346 2.346 0 0 1 2.344 2.343v4.688a2.346 2.346 0 0 1-2.344 2.344h-2.49a14.35 14.35 0 0 1-.685 1.654l1.76 1.761a2.348 2.348 0 0 1 0 3.315l-3.314 3.315a2.348 2.348 0 0 1-3.315 0l-1.761-1.761c-.537.263-1.09.492-1.654.685v2.49a2.345 2.345 0 0 1-2.343 2.343zm-8.903-8.13c.199 0 .398.051.58.154.873.497 1.806.884 2.772 1.148.51.14.863.602.863 1.13v3.354h4.688v-3.354c0-.528.353-.991.862-1.13.967-.264 1.9-.651 2.773-1.148a1.172 1.172 0 0 1 1.408.189l2.372 2.372 3.315-3.315-2.371-2.373a1.172 1.172 0 0 1-.19-1.408c.498-.873.884-1.806 1.148-2.772.14-.51.602-.863 1.13-.863h3.355v-4.688h-3.354a1.17 1.17 0 0 1-1.13-.862 12 12 0 0 0-1.149-2.773 1.172 1.172 0 0 1 .19-1.408l2.371-2.373-3.315-3.314-2.372 2.371c-.373.373-.95.45-1.409.19a11.994 11.994 0 0 0-2.772-1.148 1.172 1.172 0 0 1-.863-1.13v-3.355h-4.688v3.354c0 .528-.353.992-.862 1.13a12.03 12.03 0 0 0-2.772 1.149 1.171 1.171 0 0 1-1.409-.19l-2.371-2.37-3.315 3.314 2.371 2.373c.373.373.45.95.19 1.408a12.015 12.015 0 0 0-1.148 2.773 1.17 1.17 0 0 1-1.13.862h-3.355v4.688h3.354c.528 0 .991.353 1.13.863.265.966.651 1.899 1.149 2.772a1.172 1.172 0 0 1-.19 1.409l-2.371 2.372 3.315 3.315 2.372-2.371c.226-.226.526-.344.83-.344zm6.559-2.177c-4.512 0-8.183-3.67-8.183-8.183 0-4.512 3.67-8.183 8.183-8.183 4.512 0 8.182 3.671 8.182 8.183 0 4.512-3.67 8.183-8.182 8.183zm0-14.022c-3.22 0-5.84 2.62-5.84 5.84a5.846 5.846 0 0 0 5.84 5.838c3.22 0 5.839-2.62 5.839-5.839 0-3.22-2.62-5.839-5.84-5.839z"/><path fill="#EEE" d="M69.055 45.153v-9.805c0-.647-.525-1.172-1.172-1.172h-6.648a22.743 22.743 0 0 0-2.178-5.258l4.7-4.702a1.17 1.17 0 0 0 0-1.657l-6.933-6.933a1.172 1.172 0 0 0-1.657 0l-4.702 4.7a22.76 22.76 0 0 0-5.258-2.177V11.5c0-.647-.525-1.171-1.172-1.171H34.23c-.647 0-1.172.524-1.172 1.171v6.649a22.746 22.746 0 0 0-5.257 2.177l-4.702-4.7a1.172 1.172 0 0 0-1.657 0l-6.934 6.933a1.172 1.172 0 0 0 0 1.657l4.7 4.702a22.751 22.751 0 0 0-2.177 5.258h-6.648c-.647 0-1.172.525-1.172 1.172v9.805c0 .647.525 1.172 1.172 1.172h6.648a22.754 22.754 0 0 0 2.178 5.258l-4.7 4.702a1.172 1.172 0 0 0 0 1.657l6.933 6.933c.457.457 1.2.458 1.657 0l4.702-4.7c1.637.932 3.4 1.669 5.258 2.177v6.649a1.17 1.17 0 0 0 1.172 1.171h9.804a1.17 1.17 0 0 0 1.172-1.171v-6.649a22.758 22.758 0 0 0 5.258-2.177l4.702 4.7a1.17 1.17 0 0 0 1.657 0l6.934-6.933c.457-.458.457-1.2 0-1.657l-4.7-4.702a22.763 22.763 0 0 0 2.177-5.258h6.648c.647 0 1.172-.525 1.172-1.172zm-29.922 8.355c-7.323 0-13.258-5.935-13.258-13.258 0-7.322 5.936-13.258 13.258-13.258 7.322 0 13.258 5.936 13.258 13.258 0 7.323-5.936 13.258-13.258 13.258z"/><path fill="#3CC" d="M44.035 71.344h-9.804A2.346 2.346 0 0 1 31.886 69v-5.772a23.934 23.934 0 0 1-3.877-1.605l-4.082 4.08a2.347 2.347 0 0 1-3.315 0L13.68 58.77a2.346 2.346 0 0 1 0-3.314l4.08-4.082a23.965 23.965 0 0 1-1.606-3.877h-5.771a2.346 2.346 0 0 1-2.344-2.344v-9.805a2.346 2.346 0 0 1 2.344-2.344h5.771a23.96 23.96 0 0 1 1.606-3.877l-4.08-4.082a2.347 2.347 0 0 1 0-3.315l6.933-6.933a2.347 2.347 0 0 1 3.314 0l4.082 4.08a23.934 23.934 0 0 1 3.877-1.605V11.5a2.346 2.346 0 0 1 2.344-2.343h9.805A2.346 2.346 0 0 1 46.38 11.5v5.772a23.96 23.96 0 0 1 3.877 1.606l4.082-4.08a2.347 2.347 0 0 1 3.314 0l6.933 6.933c.914.914.914 2.4 0 3.314l-4.08 4.082a23.944 23.944 0 0 1 1.606 3.877h5.771a2.346 2.346 0 0 1 2.344 2.344v9.805a2.346 2.346 0 0 1-2.344 2.344h-5.771a23.965 23.965 0 0 1-1.606 3.877l4.08 4.082c.914.914.914 2.4 0 3.314l-6.933 6.934a2.327 2.327 0 0 1-1.657.686 2.328 2.328 0 0 1-1.657-.686l-4.082-4.08a23.937 23.937 0 0 1-3.877 1.605v5.772a2.346 2.346 0 0 1-2.343 2.343zM27.801 59.003c.199 0 .398.05.58.153 1.57.895 3.248 1.59 4.987 2.066.509.14.862.602.862 1.13V69h9.805v-6.648c0-.528.354-.991.863-1.13a21.585 21.585 0 0 0 4.987-2.066 1.173 1.173 0 0 1 1.408.19l4.702 4.7 6.933-6.933-4.7-4.702a1.172 1.172 0 0 1-.19-1.408 21.607 21.607 0 0 0 2.066-4.987 1.17 1.17 0 0 1 1.13-.863h6.648v-9.805h-6.648a1.17 1.17 0 0 1-1.13-.863 21.602 21.602 0 0 0-2.066-4.987 1.172 1.172 0 0 1 .19-1.408l4.7-4.702-6.933-6.933-4.702 4.7c-.374.373-.95.45-1.409.19a21.603 21.603 0 0 0-4.986-2.066 1.172 1.172 0 0 1-.863-1.13V11.5H34.23v6.649c0 .528-.353.99-.862 1.13a21.596 21.596 0 0 0-4.987 2.065 1.172 1.172 0 0 1-1.409-.19l-4.702-4.7-6.933 6.934 4.7 4.702c.374.373.451.95.19 1.408a21.602 21.602 0 0 0-2.065 4.987c-.14.51-.602.863-1.13.863h-6.65v9.805h6.65c.527 0 .99.353 1.13.863a21.607 21.607 0 0 0 2.065 4.987 1.172 1.172 0 0 1-.19 1.408l-4.7 4.702 6.933 6.933 4.702-4.7c.226-.226.526-.343.83-.343zm11.332-4.323a14.46 14.46 0 0 1-6.93-1.77 1.172 1.172 0 1 1 1.128-2.055 12.096 12.096 0 0 0 5.802 1.482c6.665 0 12.086-5.422 12.086-12.087 0-6.664-5.421-12.086-12.086-12.086-6.664 0-12.086 5.422-12.086 12.086 0 1.88.421 3.683 1.253 5.36a1.172 1.172 0 1 1-2.1 1.04 14.286 14.286 0 0 1-1.497-6.4c0-7.956 6.474-14.43 14.43-14.43 7.957 0 14.43 6.474 14.43 14.43 0 7.957-6.473 14.43-14.43 14.43zm50.273-30c-1.709 0-3.1-1.39-3.1-3.099 0-1.709 1.391-3.1 3.1-3.1 1.71 0 3.1 1.391 3.1 3.1 0 1.71-1.39 3.1-3.1 3.1zm0-3.855a.757.757 0 1 0 .002 1.514.757.757 0 0 0-.002-1.514zm0 91.045c-1.709 0-3.1-1.39-3.1-3.099 0-1.709 1.391-3.1 3.1-3.1 1.71 0 3.1 1.391 3.1 3.1a3.103 3.103 0 0 1-3.1 3.099zm0-3.855a.757.757 0 1 0 .002 1.513.757.757 0 0 0-.002-1.513zM51.81 11.5c-1.709 0-3.1-1.39-3.1-3.1 0-1.709 1.392-3.1 3.1-3.1 1.71 0 3.1 1.391 3.1 3.1 0 1.71-1.39 3.1-3.1 3.1zm0-3.855a.757.757 0 1 0 .003 1.513.757.757 0 0 0-.003-1.513zm25.817 25.87c-.3 0-.6-.115-.828-.344l-2.647-2.646a1.171 1.171 0 0 1 0-1.657l2.647-2.647a1.172 1.172 0 0 1 1.657 0l2.646 2.647a1.171 1.171 0 0 1 0 1.657l-2.646 2.646a1.168 1.168 0 0 1-.829.344zm-.99-3.819l.99.99.99-.99-.99-.989-.99.99zm-62.379 52.39c-.31 0-.609-.124-.829-.344l-2.646-2.646a1.171 1.171 0 0 1 0-1.657l2.646-2.647a1.172 1.172 0 0 1 1.658 0l2.646 2.647a1.171 1.171 0 0 1 0 1.657l-2.646 2.647c-.22.22-.518.343-.829.343zm-.99-3.819l.99.99.99-.99-.99-.99-.99.99z"/></g><defs><clipPath id="clip0_1082:22777"><path fill="#fff" d="M0 0h120v120H0z" transform="translate(.5)"/></clipPath></defs></svg>