<svg xmlns="http://www.w3.org/2000/svg" width="29" height="28" fill="none" viewBox="0 0 29 28"><path fill="#1B1B1B" d="M19.189 26.202c-1.32 0-2.465-.846-2.785-2.127L14.5 16.46l-1.904 7.616a2.867 2.867 0 0 1-2.785 2.175 2.867 2.867 0 0 1-2.785-2.175L2.336 5.32a2.852 2.852 0 0 1 .324-2.174 2.852 2.852 0 0 1 1.766-1.308 2.851 2.851 0 0 1 2.173.323 2.853 2.853 0 0 1 1.308 1.766l1.904 7.616 1.904-7.616A2.867 2.867 0 0 1 14.5 1.75c1.32 0 2.465.895 2.785 2.175l1.904 7.616 1.904-7.616a2.853 2.853 0 0 1 1.308-1.766 2.852 2.852 0 0 1 2.173-.323c.744.186 1.371.65 1.766 1.308.394.658.51 1.43.323 2.174l-4.689 18.756c-.32 1.28-1.465 2.127-2.785 2.127zM14.5 12.782c.33 0 .616.225.696.544l2.6 10.401a1.435 1.435 0 0 0 2.785 0l4.69-18.757a1.426 1.426 0 0 0-.162-1.086 1.426 1.426 0 0 0-.883-.654 1.426 1.426 0 0 0-1.086.161c-.33.198-.562.511-.655.883l-2.6 10.401a.718.718 0 0 1-1.392 0l-2.6-10.4A1.433 1.433 0 0 0 14.5 3.186c-.66 0-1.232.447-1.393 1.087l-2.6 10.401a.718.718 0 0 1-1.392 0l-2.6-10.4a1.426 1.426 0 0 0-.655-.884 1.426 1.426 0 0 0-1.086-.161 1.426 1.426 0 0 0-.883.654A1.426 1.426 0 0 0 3.73 4.97l4.688 18.757a1.435 1.435 0 0 0 2.786 0l2.6-10.401a.718.718 0 0 1 .696-.544z"/></svg>