<svg xmlns="http://www.w3.org/2000/svg" width="29" height="28" fill="none" viewBox="0 0 29 28"><g clip-path="url(#clip0_1944:71370)"><path fill="#1B1B1B" d="M17.71 8.561c0 .57.091 1.43-1.254 1.918-.417.15-.698.423-.698.423 0-1.357.206-1.847.761-2.138.427-.224 1.191-.203 1.191-.203zm-5.066 1.555l-1.498 5.804L9.9 11.17c-.336-1.4-.91-2.123-2.119-2.123-1.197 0-1.779.708-2.119 2.123l-1.245 4.75-1.498-5.804C2.675 8.947 1.543 8.442.5 8.573L3.369 19.42s.946.068 1.42-.173c.622-.317.918-.562 1.294-2.038.336-1.315 1.274-5.18 1.362-5.455.208-.654.485-.604.674 0 .086.276 1.026 4.14 1.361 5.455.376 1.476.673 1.72 1.295 2.038.473.241 1.42.173 1.42.173l2.868-10.847c-1.068-.134-2.18.391-2.419 1.543zm5.065.228s-.179.278-.588.506c-.263.147-.516.247-.787.377-.662.318-.576.61-.576 1.54v6.653s.724.092 1.197-.15c.61-.31.75-.61.755-1.959v-6.967zm7.151 3.679l3.64-5.414s-1.536-.261-2.297.431c-.582.53-1.068 1.293-2.37 3.17-.02.033-.274.462-.572 0-1.281-1.847-1.785-2.637-2.37-3.17-.761-.692-2.297-.43-2.297-.43l3.64 5.413-3.63 5.397s1.6.202 2.36-.49c.503-.458.77-.892 2.297-3.095.298-.46.55-.033.572 0 1.286 1.854 1.716 2.54 2.325 3.094.76.693 2.333.49 2.333.49l-3.631-5.396z"/></g><defs><clipPath id="clip0_1944:71370"><path fill="#fff" d="M0 0h28v28H0z" transform="translate(.5)"/></clipPath></defs></svg>