<svg xmlns="http://www.w3.org/2000/svg" width="29" height="28" fill="none" viewBox="0 0 29 28"><g clip-path="url(#clip0_1944:71351)"><path fill="#9B5C8F" d="M3.099 5.25H25.89a2.606 2.606 0 0 1 2.61 2.603v8.678a2.606 2.606 0 0 1-2.61 2.604h-8.173l1.122 2.74-4.934-2.74H3.11A2.606 2.606 0 0 1 .5 16.53V7.853A2.596 2.596 0 0 1 3.1 5.25z"/><path fill="#fff" d="M2.092 7.623c.16-.216.399-.33.717-.352.58-.045.91.227.99.817.353 2.373.74 4.383 1.15 6.03l2.493-4.735c.228-.432.512-.659.854-.681.5-.034.808.283.933.953.284 1.51.649 2.793 1.081 3.883.296-2.884.797-4.961 1.503-6.244.17-.318.42-.477.75-.5a.99.99 0 0 1 .718.227.89.89 0 0 1 .353.647.983.983 0 0 1-.114.545c-.444.818-.808 2.192-1.104 4.099-.285 1.85-.387 3.292-.319 4.325.023.284-.022.534-.136.75a.733.733 0 0 1-.604.409c-.295.022-.603-.114-.899-.42-1.058-1.08-1.9-2.691-2.515-4.837a212.634 212.634 0 0 0-1.64 3.27c-.67 1.283-1.24 1.941-1.718 1.975-.307.023-.569-.238-.797-.783-.58-1.488-1.206-4.36-1.878-8.617a.965.965 0 0 1 .182-.761zm24.46 1.782c-.409-.715-1.012-1.146-1.82-1.317a2.994 2.994 0 0 0-.615-.068c-1.093 0-1.98.568-2.675 1.703a6.005 6.005 0 0 0-.887 3.202c0 .874.182 1.623.546 2.248.41.715 1.013 1.147 1.821 1.317.216.045.421.068.615.068 1.104 0 1.992-.568 2.675-1.703a6.073 6.073 0 0 0 .887-3.213c.012-.885-.182-1.623-.546-2.237zM25.12 12.55c-.16.75-.444 1.306-.865 1.68-.33.296-.638.42-.922.364-.273-.057-.501-.295-.672-.738a2.875 2.875 0 0 1-.205-1.033c0-.284.023-.568.08-.829.102-.466.296-.92.603-1.351.376-.556.774-.783 1.184-.704.273.057.5.295.672.738.136.352.204.704.204 1.033 0 .295-.022.58-.08.84zm-5.691-3.145c-.41-.715-1.025-1.146-1.821-1.317a2.994 2.994 0 0 0-.615-.068c-1.093 0-1.98.568-2.675 1.703a6.004 6.004 0 0 0-.888 3.202c0 .874.182 1.623.547 2.248.41.715 1.013 1.147 1.82 1.317.217.045.422.068.616.068 1.104 0 1.991-.568 2.674-1.703a6.072 6.072 0 0 0 .888-3.213c0-.885-.182-1.623-.546-2.237zm-1.446 3.145c-.16.75-.444 1.306-.865 1.68-.33.296-.637.42-.922.364-.273-.057-.5-.295-.671-.738a2.875 2.875 0 0 1-.205-1.033c0-.284.023-.568.08-.829a3.64 3.64 0 0 1 .603-1.351c.375-.556.774-.783 1.184-.704.273.057.5.295.671.738.137.352.205.704.205 1.033.011.295-.023.58-.08.84z"/></g><defs><clipPath id="clip0_1944:71351"><path fill="#fff" d="M0 0h28v28H0z" transform="translate(.5)"/></clipPath></defs></svg>