<svg xmlns="http://www.w3.org/2000/svg" width="24" height="11" fill="none" viewBox="0 0 24 11"><path fill="#001E6C" d="M4.57 5.012V2.59H3.408v2.422H.986v1.162h2.422V8.61H4.57V6.174h2.436V5.012H4.57zm8.945.42c.798-.504 1.204-1.218 1.204-2.142 0-.882-.294-1.568-.896-2.044-.588-.49-1.302-.728-2.142-.728-.826 0-1.54.238-2.142.728-.588.476-.882 1.162-.882 2.044 0 .924.406 1.638 1.204 2.142-.952.49-1.526 1.33-1.526 2.38 0 .896.308 1.596.938 2.114.63.504 1.428.756 2.408.756.994 0 1.792-.252 2.422-.756.63-.518.938-1.218.938-2.114 0-1.05-.574-1.89-1.526-2.38zM11.68 1.764c1.008 0 1.736.532 1.736 1.554 0 .994-.77 1.568-1.736 1.568s-1.736-.574-1.736-1.568c0-1.022.742-1.554 1.736-1.554zm0 7.672c-1.232 0-2.058-.602-2.058-1.708 0-1.078.826-1.694 2.058-1.694 1.246 0 2.072.616 2.072 1.694 0 1.106-.826 1.708-2.072 1.708zM22.34 7.42V4.648h-1.3V7.42h-3.598L20.955.7h-1.4l-3.514 6.72v1.218h4.998V10.5h1.302V8.638h1.19V7.42h-1.19z"/></svg>