<svg xmlns="http://www.w3.org/2000/svg" width="455" height="456" fill="none" viewBox="0 0 455 456"><path fill="#EBEBEB" d="M455 348.484H0v.228h455v-.228zm-45.591 14.641H379.27v.228h30.139v-.228zm-107.999 2.477h-7.908v.227h7.908v-.227zm76.95-10.918h-17.463v.227h17.463v-.227zm-291.319 1.527H47.74v.227h39.3v-.227zm13.869 0h-5.76v.227h5.76v-.227zm103.976 3.84h-85.248v.227h85.248v-.227zm10.784-52.152H39.958a5.2 5.2 0 0 1-5.187-5.196V55.701a5.196 5.196 0 0 1 5.187-5.15H215.67a5.195 5.195 0 0 1 5.196 5.196v246.956a5.195 5.195 0 0 1-5.196 5.196zM39.958 50.733a4.968 4.968 0 0 0-4.96 4.968v247.002a4.97 4.97 0 0 0 4.96 4.968H215.67a4.975 4.975 0 0 0 4.969-4.968V55.701a4.982 4.982 0 0 0-4.969-4.968H39.958zm372.554 257.166H236.791a5.206 5.206 0 0 1-5.196-5.196V55.701a5.206 5.206 0 0 1 5.196-5.15h175.721a5.198 5.198 0 0 1 5.178 5.15v247.002a5.194 5.194 0 0 1-5.178 5.196zM236.791 50.733a4.98 4.98 0 0 0-4.969 4.968v247.002a4.98 4.98 0 0 0 4.969 4.968h175.721a4.975 4.975 0 0 0 4.969-4.968V55.701a4.982 4.982 0 0 0-4.969-4.968H236.791z"/><path fill="#F0F0F0" d="M238.902 349.148h133.06V154.072h-133.06v195.076z"/><path fill="#E0E0E0" d="M243.607 196.242h123.651v-36.027H243.607v36.027z"/><path fill="#EBEBEB" d="M360.233 196.242h7.025v-30.194h-7.025v30.194zm-33.962 0h7.026v-30.194h-7.026v30.194zm-43.683-1.193l6.923 1.193 5.129-29.755-6.923-1.193-5.129 29.755zm68.945 1.193h7.025v-26.217h-7.025v26.217zm-16.143 0h7.025v-26.217h-7.025v26.217zm-40.759 0h7.025v-26.217h-7.025v26.217zm16.739-1.536l6.858 1.524 5.688-25.592-6.858-1.524-5.688 25.592zm34.084 1.536h3.513v-31.695h-3.513v31.695zm-41.778 0h3.513v-31.695h-3.513v31.695z"/><path fill="#E0E0E0" d="M367.267 201.949H243.616v36.027h123.651v-36.027z"/><path fill="#EBEBEB" d="M250.641 207.781h-7.025v30.194h7.025v-30.194zm33.961 0h-7.025v30.194h7.025v-30.194zm38.557-.759l-6.923 1.193 5.129 29.755 6.923-1.194-5.129-29.754zm-63.818 4.736h-7.025v26.217h7.025v-26.217zm16.143 0h-7.025v26.217h7.025v-26.217zm40.75 0h-7.025v26.217h7.025v-26.217zm-22.402-.915l-6.858 1.524 5.688 25.593 6.858-1.524-5.688-25.593zm-28.421-4.566h-3.513v31.696h3.513v-31.696zm41.787 0h-3.513v31.696h3.513v-31.696zm53.035 31.7h7.025v-30.194h-7.025v30.194zm-8.7 0h7.025v-26.218h-7.025v26.218zm-16.143 0h7.025v-26.218h-7.025v26.218zm10.064 0h3.513v-31.696h-3.513v31.696z"/><path fill="#E0E0E0" d="M243.607 279.715h123.651v-36.027H243.607v36.027z"/><path fill="#EBEBEB" d="M289.262 279.715h7.025v-30.194h-7.025v30.194zm-43.674-1.201l6.923 1.193 5.129-29.755-6.923-1.193-5.129 29.755zm68.935 1.201h7.026v-26.217h-7.026v26.217zm-16.134 0h7.025v-26.217h-7.025v26.217zm-40.759 0h7.025v-26.217h-7.025v26.217zm16.739-1.536l6.858 1.524 5.688-25.593-6.858-1.524-5.688 25.593zm34.084 1.536h3.513V248.02h-3.513v31.695zm-41.777 0h3.512V248.02h-3.512v31.695zm59.729-1.205l6.923 1.193 5.129-29.755-6.923-1.193-5.129 29.755zm12.042 1.205h7.025v-26.217h-7.025v26.217zm16.735-1.544l6.858 1.524 5.688-25.592-6.858-1.524-5.688 25.592zm-7.699 1.544h3.513V248.02h-3.513v31.695z"/><path fill="#E0E0E0" d="M394.922 154.074h-22.96V349.67h22.96V154.074z"/><path fill="#E6E6E6" d="M91.227 122.622s-1.037-6.843 3.95-11.229c4.987-4.386 4.55-6.998 3.13-7.344-1.42-.346-2.73 4.05-4.941 5.26 0 0-.064-6.261 2.166-8.563 2.23-2.302 3.394-8.19 1.274-8.345-2.12-.154-2.339 3.531-2.73 6.106-.392 2.576-2.803 6.188-2.803 6.188s-.464-5.596-1.902-7.898c-1.438-2.303 2.393-7.572.91-9.874-1.483-2.302-4.113 2.084-3.895 7.025.219 4.942 3.513 10.201 2.73 15.361 0 0-1.447-3.64-2.73-3.949-1.283-.31-2.62-2.73-3.494-3.64-.874-.91-1.975 2.184 0 5.032s7.025 10.483 6.252 16.653l2.083-.783z"/><path fill="#E6E6E6" d="M94.212 119.512l1.63 10.255a5.206 5.206 0 0 1-5.151 6.034h-1.739a5.202 5.202 0 0 1-5.15-6.034l1.629-10.255h8.781z"/><path fill="#E0E0E0" d="M69.488 137.957H185.03v-5.933H69.488v5.933z"/><path fill="#EBEBEB" d="M174.629 132.016h5.087V110.13h-5.087v21.886zm-24.616 0h5.087V110.13h-5.087v21.886zm-31.654-.868l5.013.864 3.717-21.568-5.013-.864-3.717 21.568zm49.955.868h5.086v-19.001h-5.086v19.001zm-11.694 0h5.087v-19.001h-5.087v19.001zm-29.538 0h5.086v-19.001h-5.086v19.001zm12.127-1.112l4.966 1.104 4.122-18.548-4.966-1.104-4.122 18.548zm24.7 1.119h2.548v-22.968h-2.548v22.968zm-30.276 0h2.548v-22.968h-2.548v22.968z"/><path fill="#E0E0E0" d="M185.03 176.34H69.487v5.933H185.03v-5.933z"/><path fill="#EBEBEB" d="M79.889 154.453h-5.087v21.886h5.087v-21.886zm24.615 0h-5.087v21.886h5.087v-21.886zm27.948-.548l-5.013.865 3.717 21.567 5.013-.864-3.717-21.568zm-46.257 3.435h-5.087v19.001h5.087V157.34zm11.703 0H92.81v19.001h5.087V157.34zm29.529 0h-5.087v19.001h5.087V157.34zm-16.227-.666l-4.966 1.103 4.122 18.549 4.966-1.104-4.122-18.548zm-20.591-3.311H88.06v22.969h2.548v-22.969zm30.275 0h-2.548v22.969h2.548v-22.969zm53.062 5.653H149.14v17.126h24.806v-17.126z"/><path fill="#F5F5F5" d="M227.5 389.579c97.445 0 176.44-4.612 176.44-10.301s-78.995-10.301-176.44-10.301-176.44 4.612-176.44 10.301 78.995 10.301 176.44 10.301z"/><path fill="#001E6C" d="M237.037 272.59s2.875-6.27-.41-12.458c-3.285-6.188-4.24-7.644-2.138-8.909 2.102-1.265 3.057 4.941 3.057 4.941a13.92 13.92 0 0 0 .301-8.745c-1.456-4.477-2.366-11.766-.383-12.549 1.984-.782.383 9.1 2.112 12.458a28.895 28.895 0 0 0 1.692-7.343c.237-3.64-.136-9.337 1.438-10.811 1.574-1.474 2.575-.446 1.037 7.48a83.16 83.16 0 0 0-1.537 14.387s3.412-10.41 5.705-10.711c2.293-.3 2.284 3.067.328 5.988-1.957 2.921-5.742 8.19-6.37 10.856 0 0 3.74-7.835 7.116-5.46 3.376 2.376-2.939 7.135-5.742 8.846-2.803 1.71-4.768 12.421-4.768 12.421l-1.438-.391z"/><path fill="#000" d="M237.037 272.59s2.875-6.27-.41-12.458c-3.285-6.188-4.24-7.644-2.138-8.909 2.102-1.265 3.057 4.941 3.057 4.941a13.92 13.92 0 0 0 .301-8.745c-1.456-4.477-2.366-11.766-.383-12.549 1.984-.782.383 9.1 2.112 12.458a28.895 28.895 0 0 0 1.692-7.343c.237-3.64-.136-9.337 1.438-10.811 1.574-1.474 2.575-.446 1.037 7.48a83.16 83.16 0 0 0-1.537 14.387s3.412-10.41 5.705-10.711c2.293-.3 2.284 3.067.328 5.988-1.957 2.921-5.742 8.19-6.37 10.856 0 0 3.74-7.835 7.116-5.46 3.376 2.376-2.939 7.135-5.742 8.846-2.803 1.71-4.768 12.421-4.768 12.421l-1.438-.391z" opacity=".2"/><path fill="#001E6C" d="M239.33 275.158s-2.803-6.315.555-12.449c3.358-6.133 4.332-7.58 2.257-8.881-2.075-1.301-3.121 4.905-3.121 4.905a14.01 14.01 0 0 1-.201-8.764c1.511-4.449 2.512-11.729.537-12.539-1.974-.81-.491 9.1-2.266 12.43a29.254 29.254 0 0 1-1.601-7.371c-.191-3.594.245-9.327-1.302-10.829-1.547-1.501-2.575-.491-1.128 7.471a83.674 83.674 0 0 1 1.365 14.406s-3.294-10.465-5.578-10.802c-2.284-.337-2.321 3.03-.401 5.988 1.92 2.957 5.642 8.244 6.234 10.92 0 0-3.64-7.89-7.053-5.533-3.412 2.357 2.849 7.171 5.642 8.918 2.794 1.747 4.605 12.494 4.605 12.494l1.456-.364z"/><path fill="#263238" d="M226.39 270.652h23.141l-1.875 16.562h-19.392l-1.874-16.562z"/><path fill="#001E6C" d="M194.822 286.086h86.714c0 3.513-2.512 6.37-5.688 6.561-9.318.464-23.66 2.093-28.21 7.79-8.481 10.61-7.653 60.669 2.494 69.305 3.185 2.73 12.467 8.081 12.467 8.081H213.75s8.663-5.46 11.675-8.081c10.101-8.708 10.392-58.74 1.875-69.305-4.368-5.46-17.8-7.18-26.818-7.726-3.185-.2-5.66-3.112-5.66-6.625z"/><path fill="#fff" d="M194.822 286.086h86.714c0 3.513-2.512 6.37-5.688 6.561-9.318.464-23.66 2.093-28.21 7.79-8.481 10.61-7.653 60.669 2.494 69.305 3.185 2.73 12.467 8.081 12.467 8.081H213.75s8.663-5.46 11.675-8.081c10.101-8.708 10.392-58.74 1.875-69.305-4.368-5.46-17.8-7.18-26.818-7.726-3.185-.2-5.66-3.112-5.66-6.625z" opacity=".7"/><path fill="#000" d="M270.789 292.992c-8.809.783-19.365 2.73-23.142 7.444a19.284 19.284 0 0 0-2.866 5.46H230.23a19.44 19.44 0 0 0-2.912-5.46c-3.795-4.714-14.442-6.652-23.078-7.444h66.549z" opacity=".2"/><path fill="#263238" d="M162.116 377.822h-8.736l-4.932-40.377h12.03l1.638 40.377zm-88.451 0h8.745l4.932-40.377h-12.03l-1.647 40.377zm123.787 0h-8.736l-4.933-40.377h12.031l1.638 40.377zm-88.452 0h8.745l4.932-40.377h-12.03L109 377.822z"/><path fill="#fff" d="M197.452 377.822h-8.736l-4.933-40.377h12.031l1.638 40.377zm-88.452 0h8.745l4.932-40.377h-12.03L109 377.822z" opacity=".2"/><path fill="#001E6C" d="M187.678 287.807c.537-6.698 5.724-11.83 11.939-11.83h-27.7c-6.215 0-11.402 5.141-11.948 11.83l-2.73 33.833h27.7l2.739-33.833z"/><path fill="#fff" d="M187.678 287.807c.537-6.698 5.724-11.83 11.939-11.83h-27.7c-6.215 0-11.402 5.141-11.948 11.83l-2.73 33.833h27.7l2.739-33.833z" opacity=".4"/><path fill="#000" d="M187.678 287.807c.537-6.698 5.724-11.83 11.939-11.83h-27.7c-6.215 0-11.402 5.141-11.948 11.83l-2.73 33.833h27.7l2.739-33.833z" opacity=".2"/><path fill="#001E6C" d="M69.524 246.273h85.968c3.458 0 6.597 3.031 7.016 6.762l10.01 88.27H74.056l-10.01-88.27c-.428-3.731 2.029-6.762 5.478-6.762z"/><path fill="#fff" d="M69.524 246.273h85.968c3.458 0 6.597 3.031 7.016 6.762l10.01 88.27H74.056l-10.01-88.27c-.428-3.731 2.029-6.762 5.478-6.762z" opacity=".4"/><path fill="#000" d="M93.093 341.277H74.056l-10.01-88.27c-.428-3.731 2.029-6.761 5.46-6.761h6.543c3.448 0 6.597 3.03 7.016 6.761l10.028 88.27z" opacity=".2"/><path fill="#001E6C" d="M100.1 341.175l-3.449-42.679a3.95 3.95 0 0 0-3.267-3.685l-1.42-.191a5.288 5.288 0 0 1-4.386-4.941l-.627-7.781a5.306 5.306 0 0 1 5.023-5.933h-31.85a5.296 5.296 0 0 0-3.805 1.871 5.305 5.305 0 0 0-1.219 4.062l.628 7.781a5.297 5.297 0 0 0 4.387 4.941l1.42.191a3.942 3.942 0 0 1 3.267 3.685l3.448 42.679a5.76 5.76 0 0 0 5.551 5.46h31.85a5.758 5.758 0 0 1-5.551-5.46z"/><path fill="#001E6C" d="M211.921 275.965h-12.303c-6.216 0-11.403 5.141-11.94 11.83l-2.73 33.834h-65.975l-2.73-33.834c-.537-6.698-5.724-11.83-11.939-11.83H91.983a5.296 5.296 0 0 0-3.805 1.871 5.307 5.307 0 0 0-1.218 4.062l.628 7.781a5.287 5.287 0 0 0 4.386 4.941l1.42.191a3.95 3.95 0 0 1 3.266 3.685l3.449 42.679a5.756 5.756 0 0 0 5.542 5.46h92.602a5.756 5.756 0 0 0 5.541-5.46l3.449-42.679a3.951 3.951 0 0 1 3.267-3.685l1.42-.191a5.288 5.288 0 0 0 4.386-4.941l.628-7.781a5.303 5.303 0 0 0-5.023-5.933z"/><path fill="#fff" d="M100.1 341.175l-3.449-42.679a3.95 3.95 0 0 0-3.267-3.685l-1.42-.191a5.288 5.288 0 0 1-4.386-4.941l-.627-7.781a5.306 5.306 0 0 1 5.023-5.933h-31.85a5.296 5.296 0 0 0-3.805 1.871 5.305 5.305 0 0 0-1.219 4.062l.628 7.781a5.297 5.297 0 0 0 4.387 4.941l1.42.191a3.942 3.942 0 0 1 3.267 3.685l3.448 42.679a5.76 5.76 0 0 0 5.551 5.46h31.85a5.758 5.758 0 0 1-5.551-5.46z" opacity=".4"/><path fill="#fff" d="M211.921 275.965h-12.303c-6.216 0-11.403 5.141-11.94 11.83l-2.73 33.834h-65.975l-2.73-33.834c-.537-6.698-5.724-11.83-11.939-11.83H91.983a5.296 5.296 0 0 0-3.805 1.871 5.307 5.307 0 0 0-1.218 4.062l.628 7.781a5.287 5.287 0 0 0 4.386 4.941l1.42.191a3.95 3.95 0 0 1 3.266 3.685l3.449 42.679a5.756 5.756 0 0 0 5.542 5.46h92.602a5.756 5.756 0 0 0 5.541-5.46l3.449-42.679a3.951 3.951 0 0 1 3.267-3.685l1.42-.191a5.288 5.288 0 0 0 4.386-4.941l.628-7.781a5.303 5.303 0 0 0-5.023-5.933z" opacity=".5"/><path fill="#001E6C" d="M313.95 145.472h-.4l.054-.455c.1 0 9.801.973 13.186-15.416 3.312-16.089 5.724-27.709 21.685-24.652 14.97 2.867 20.075-17.6 20.075-17.808l.446.109c-.046.2-4.55 18.409-17.727 18.418a15.092 15.092 0 0 1-2.93-.291c-14.806-2.839-17.554 6.88-21.158 24.297-3.057 14.906-11.338 15.798-13.231 15.798z"/><path fill="#001E6C" d="M315.369 147.33a8.587 8.587 0 0 1-1.11-.064l.073-.445c.109 0 10.865 1.61 15.343-12.795.782-2.539 1.41-4.896 2.011-7.18 2.83-10.711 4.695-17.79 18.091-17.79 16.844 0 22.276-6.935 25.589-18.118l.428.127c-3.977 13.45-11.03 18.446-26.017 18.446-13.077 0-14.779 6.561-17.627 17.481-.601 2.284-1.229 4.65-2.02 7.198-3.759 11.985-11.812 13.14-14.761 13.14z"/><path fill="#001E6C" d="M317.89 150.092a17.136 17.136 0 0 1-3.067-.246l.091-.445c.101 0 10.129 1.983 14.779-5.642a46.712 46.712 0 0 0 3.249-7.481c3.43-9.154 7.698-20.566 21.193-21.23 18.719-.91 25.253-5.323 29.12-19.583l.446.118c-4.377 16.007-12.658 19.11-29.575 19.92-13.195.655-17.399 11.903-20.784 20.93a46.76 46.76 0 0 1-3.285 7.553c-3.14 5.214-8.7 6.106-12.167 6.106z"/><path fill="#263238" d="M339.23 109.045c-.51-.227-1.074-.3-1.547-.473a6.312 6.312 0 0 1-1.374-.664 5.745 5.745 0 0 1-1.138-.91.493.493 0 0 0-.464-.109.322.322 0 0 0-.227.176.327.327 0 0 0 0 .288l2.984 6.242a3.987 3.987 0 0 0-1.983 0c-1.429.392-2.248 1.438-1.82 2.339.427.901 1.929 1.32 3.348.91 1.42-.409 2.239-1.438 1.82-2.339a1.471 1.471 0 0 0-.309-.409l-2.73-5.897.228.127c.506.24 1.037.423 1.583.546.564.119 1.074.128 1.574.283.506.152.987.375 1.429.664a5.16 5.16 0 0 0-1.374-.774zm25.37-.675c-.627-.282-1.319-.373-1.901-.583a8.576 8.576 0 0 1-1.702-.819 7.551 7.551 0 0 1-1.402-1.11.636.636 0 0 0-.573-.136.416.416 0 0 0-.165.08.409.409 0 0 0-.108.502l3.64 7.69a4.857 4.857 0 0 0-2.448 0c-1.765.473-2.73 1.765-2.238 2.875.491 1.11 2.366 1.629 4.122 1.147 1.756-.483 2.73-1.766 2.239-2.885a1.963 1.963 0 0 0-.383-.5l-3.348-7.28.282.145c.622.304 1.279.53 1.956.674.683.154 1.32.163 1.929.364a6.383 6.383 0 0 1 1.766.809 6.372 6.372 0 0 0-1.666-.973zm-40.276 29.33c-.382-.173-.801-.227-1.156-.355a5.115 5.115 0 0 1-1.865-1.156.38.38 0 0 0-.355-.081.243.243 0 0 0-.188.239c0 .037.008.073.024.106l2.221 4.65a2.938 2.938 0 0 0-1.484 0c-1.055.292-1.665 1.074-1.347 1.748.319.673 1.429.973 2.494.691 1.065-.282 1.665-1.074 1.347-1.747a1.029 1.029 0 0 0-.228-.3l-2.029-4.396.173.101c.378.176.775.31 1.183.4.418.091.801.1 1.174.218.377.11.736.275 1.064.492a4.106 4.106 0 0 0-1.028-.61z"/><path fill="#E4897B" d="M245.518 179.96l-4.55-2.73a6.491 6.491 0 0 0-1.22-1.657c-.655-.546-9.382-1.101-9.627-.91-.246.192.082 6.37.537 6.634.455.264 7.325.373 8.008.355a2.39 2.39 0 0 0 1.274-.491l4.231 3.121 1.347-4.322z"/><path fill="#263238" d="M285.74 187.186c-7.144 1.547-21.54 2.884-23.342 2.038-1.801-.846-18.518-10.556-18.518-10.556l-3.24 3.758s13.141 11.166 21.595 14.224c8.454 3.057 28.21 2.62 28.21 2.62s2.857-2.802 2.357-6.579c-.501-3.776-7.062-5.505-7.062-5.505z"/><path fill="#E4897B" d="M360.005 362.795l9.191 8.29 7.89-.946-10.62-11.666-6.461 4.322zm-130.712.166l-10.174 7.052-7.699-1.929 12.012-10.229 5.861 5.106zM332.15 165.59l-4.814-2.038a6.226 6.226 0 0 1-2.002 0c-.81-.2-6.27-6.798-6.279-7.089-.009-.291 5.069-3.567 5.56-3.385.491.182 4.505 5.578 4.887 6.133.236.389.356.837.346 1.292l4.895 1.556-2.593 3.531z"/><path fill="#001E6C" d="M372.49 361.661l-7.28 7.043s-52.68-42.024-53.544-49.058c-.865-7.034 0-44.508 0-44.508s-7.034 8.235-17.918 20.457c-17.472 19.647-44.854 49.586-68.841 72.199l-8.454-5.86c60.842-75.931 80.207-116.544 80.207-116.544l2.503-19.11 34.962-3.167s8.408 22.022 6.133 38.375c-2.275 16.353-10.92 46.783-10.01 52.916.91 6.134 42.242 47.257 42.242 47.257z"/><path fill="#263238" d="M368.604 369.649h8.727a.617.617 0 0 1 .61.491l1.42 6.37a1.068 1.068 0 0 1-.819 1.256.966.966 0 0 1-.228 0c-2.83-.046-4.887-.219-8.426-.219-2.184 0-8.773.228-11.83.228-3.058 0-3.404-2.976-2.175-3.249 5.542-1.21 9.709-2.884 11.484-4.468a1.718 1.718 0 0 1 1.237-.409zm-155.664-3.458l7.899 3.713a.637.637 0 0 1 .346.71l-1.447 6.37a1.066 1.066 0 0 1-.475.655c-.118.073-.25.122-.387.143a1.04 1.04 0 0 1-.412-.016l-.219-.073c-2.539-1.246-4.322-2.275-7.535-3.785-1.974-.91-8.035-3.531-10.765-4.814-2.73-1.283-1.82-4.15-.582-3.868 5.523 1.265 10.01 1.52 12.294.838a1.815 1.815 0 0 1 1.283.127z"/><path fill="#000" d="M297.625 231.457l38.138-4.277.509 4.541-38.684 3.858.037-4.122z"/><path fill="#001E6C" d="M323.266 226.519l-1.365.153.902 8.058 1.366-.153-.903-8.058zm-19.295 2.172l-1.365.153.902 8.057 1.366-.152-.903-8.058z"/><path fill="#fff" d="M314.91 228.722l-7.054.79.57 5.082 7.054-.79-.57-5.082z"/><path fill="#263238" d="M297.679 232.078c-4.068-29.557-11.939-44.89-11.939-44.89 18.018-6.953 40.641-10.493 40.641-10.493 6.297 16.135 8.763 39.203 9.591 51.561l-38.293 3.822z"/><path fill="#E4897B" d="M313.176 179.261c-1.956 3.995-9.891 5.969-9.891 5.969s-5.196.565-4.796-1.292c2.584-1.547 3.413-3.367 3.322-5.232a8.94 8.94 0 0 0-.91-3.14.755.755 0 0 1-.064-.127c-.273-.564-.601-1.129-.91-1.666l6.579-10.546c.464 4.049 1.72 10.637 4.45 14.141a6.453 6.453 0 0 0 2.22 1.893z"/><path fill="#000" d="M310.947 177.329c-.182.382-.391.628-.628.692-3.64 1.001-6.989-.601-9.409-2.494a.839.839 0 0 1-.064-.127c-.273-.564-.601-1.129-.91-1.666l6.579-10.546c.446 4.049 1.702 10.637 4.432 14.141z" opacity=".2"/><path fill="#263238" d="M326.371 176.694s17.136-1.501 17.381-3.822c.246-2.32-14.405-8.008-14.405-8.008l2.521-4.259s15.006 3.986 20.766 8.527c5.76 4.541 3.258 11.166-22.377 20.093 0 0-6.87-5.906-3.886-12.531z"/><path fill="#000" d="M313.104 258.548l-1.429 16.589s-7.034 8.236-17.918 20.457c11.548-18.646 14.669-31.486 14.669-31.486-3.767-5.032-4.158-13.077-4.158-13.077l8.836 7.517z" opacity=".3"/><path fill="#fff" d="M310.847 218.187c5.81 0 10.519-5.105 10.519-11.402 0-6.297-4.709-11.402-10.519-11.402-5.81 0-10.52 5.105-10.52 11.402 0 6.297 4.71 11.402 10.52 11.402z"/><path fill="#001E6C" d="M315.406 203.939c-.655-.528-1.447-.846-2.066-1.274a9.8 9.8 0 0 1-1.747-1.492 8.7 8.7 0 0 1-1.31-1.738.767.767 0 0 0-.637-.337.495.495 0 0 0-.395.174.49.49 0 0 0-.106.418l1.957 10.219a5.997 5.997 0 0 0-2.912-.71c-2.221 0-3.804 1.238-3.531 2.73.273 1.492 2.302 2.648 4.55 2.63 2.247-.018 3.804-1.238 3.531-2.73a1.984 1.984 0 0 0-.301-.719l-1.701-9.61c.091.091.182.182.282.264a10.935 10.935 0 0 0 2.102 1.402c.764.4 1.51.591 2.175 1.019a7.906 7.906 0 0 1 1.82 1.511 7.732 7.732 0 0 0-1.711-1.757zm1.056-5.905a1.383 1.383 0 0 1-.974-.555c-7.562-8.263-4.15-33.261-4.004-34.325l.455.063c0 .264-3.531 25.854 3.886 33.962.309.327.564.455.773.373 2.293-.91 1.693-19.793 1.438-27.846-.137-4.405-.146-5.033-.046-5.205.383-.665 2.794-1.82 3.276-2.075l.201.409a12.248 12.248 0 0 0-3.076 1.884c-.046.218 0 2.421.1 4.978.418 13.167.664 27.3-1.72 28.273a.717.717 0 0 1-.309.064z"/><path fill="#000" d="M316.462 198.034a1.383 1.383 0 0 1-.974-.555c-7.562-8.263-4.15-33.261-4.004-34.325l.455.063c0 .264-3.531 25.854 3.886 33.962.309.327.564.455.773.373 2.293-.91 1.693-19.793 1.438-27.846-.137-4.405-.146-5.033-.046-5.205.383-.665 2.794-1.82 3.276-2.075l.201.409a12.248 12.248 0 0 0-3.076 1.884c-.046.218 0 2.421.1 4.978.418 13.167.664 27.3-1.72 28.273a.717.717 0 0 1-.309.064z" opacity=".2"/><path fill="#001E6C" d="M316.765 157.684l2.372 5.744a.674.674 0 0 0 .88.366l11.851-4.895a.672.672 0 0 0 .365-.879l-2.372-5.745a.674.674 0 0 0-.88-.365l-11.851 4.894a.674.674 0 0 0-.365.88z"/><path fill="#fff" d="M316.765 157.684l2.372 5.744a.674.674 0 0 0 .88.366l11.851-4.895a.672.672 0 0 0 .365-.879l-2.372-5.745a.674.674 0 0 0-.88-.365l-11.851 4.894a.674.674 0 0 0-.365.88z" opacity=".4"/><path fill="#001E6C" d="M317.008 158.266l2.373 5.744a.673.673 0 0 0 .879.366l11.851-4.895a.673.673 0 0 0 .366-.879l-2.373-5.745a.673.673 0 0 0-.879-.365l-11.851 4.894a.674.674 0 0 0-.366.88z"/><path fill="#fff" d="M317.008 158.266l2.373 5.744a.673.673 0 0 0 .879.366l11.851-4.895a.673.673 0 0 0 .366-.879l-2.373-5.745a.673.673 0 0 0-.879-.365l-11.851 4.894a.674.674 0 0 0-.366.88z" opacity=".7"/><path fill="#001E6C" d="M317.723 157.885l2.526 6.115 11.447-4.728-2.525-6.114-11.448 4.727z"/><path fill="#000" d="M320.217 157.477l2.084 5.046 5.408-2.233-2.084-5.047-5.408 2.234z" opacity=".2"/><path fill="#fff" d="M327.06 159.792l.139.337.379-.156-.139-.337-.379.156zm-1.076-.238l.139.337 1.219-.504-.139-.336-1.219.503zm-1.047-.23l.138.336 2.061-.85-.138-.337-2.061.851zm.564-.934l.139.337 1.219-.504-.139-.337-1.219.504zm-1.083-.23l.139.336 2.061-.851-.139-.336-2.061.851zm-1.92.117l.139.336 3.743-1.545-.139-.337-3.743 1.546zm2.284-1.625l.139.336 1.22-.503-.139-.337-1.22.504z" opacity=".4"/><path fill="#fff" d="M325.195 157.376l.138.335.377-.156-.138-.335-.377.156z" opacity=".4"/><path fill="#fff" d="M327.655 156.508a.804.804 0 0 1 1.095.578.798.798 0 0 1-.781.961.796.796 0 0 1-.744-1.104.8.8 0 0 1 .43-.435z"/><path fill="#001E6C" d="M327.599 157.466l.087.21.732-.303-.087-.21-.732.303zm-.155-.352l.087.21.732-.302-.087-.21-.732.302z"/><path fill="#fff" d="M326.917 154.725a.797.797 0 0 1 .865.171.777.777 0 0 1 .234.56.8.8 0 0 1-.793.795.787.787 0 0 1-.561-.232.788.788 0 0 1-.002-1.122.811.811 0 0 1 .257-.172z"/><path fill="#001E6C" d="M326.817 155.525l.737-.3-.509-.182-.228.482z"/><path fill="#001E6C" d="M326.954 155.862l.737-.309-.501-.182-.236.491z"/><path fill="#fff" d="M329.001 159.747a.8.8 0 1 0-1.037-.436.802.802 0 0 0 .427.434.78.78 0 0 0 .61.002z"/><path fill="#001E6C" d="M328.364 159.274l.737-.309-.236.491-.501-.182zm-.136-.337l.737-.3-.237.482-.5-.182z"/><path fill="#263238" d="M313.704 156.265c1.766 3.058 1.311 6.634-1.019 7.981-2.33 1.347-5.642-.054-7.407-3.112-1.766-3.058-1.32-6.634 1.01-7.972 2.329-1.337 5.651.046 7.416 3.103z"/><path fill="#fff" d="M313.704 156.265c1.766 3.058 1.311 6.634-1.019 7.981-2.33 1.347-5.642-.054-7.407-3.112-1.766-3.058-1.32-6.634 1.01-7.972 2.329-1.337 5.651.046 7.416 3.103z" opacity=".2"/><path fill="#001E6C" d="M311.338 157.627c1.229 2.129.91 4.614-.71 5.551-1.619.937-3.922 0-5.15-2.166-1.229-2.166-.91-4.604.7-5.542 1.611-.937 3.932.037 5.16 2.157z"/><path fill="#263238" d="M304.986 147.144c3.385.683 6.37 7.362 4.004 13.213-2.366 5.852-11.884-9.309-11.884-9.309s5.724-4.341 7.88-3.904z"/><path fill="#E4897B" d="M300.5 174.729a8.736 8.736 0 0 0 10.292-2.476 9.698 9.698 0 0 0 2.303-6.779c0-.337-.055-.683-.1-1.028-1.001-6.316-5.797-15.47-13.114-15.407a9.482 9.482 0 0 0-8.059 4.507 9.475 9.475 0 0 0-.394 9.225c3.012 6.225 4.495 10.028 9.072 11.958z"/><path fill="#263238" d="M302.875 161.232c-.346.146-.828-.154-1.001-.682a.744.744 0 0 1-.054-.191.822.822 0 0 0 .91.5c.282-.118.391-.5.309-.91a.472.472 0 0 1 .045.1c.228.51.137 1.047-.209 1.183zm5.888-2.393c-.337.146-.828-.155-1.01-.683a1.273 1.273 0 0 1-.082-.263c.2.464.646.7.91.564.264-.137.4-.528.3-.965 0 .046 0 .091.064.146.255.482.155 1.028-.182 1.201z"/><path fill="#DE5753" d="M305.988 159.148a20.139 20.139 0 0 0 4.322 3.422 3.255 3.255 0 0 1-2.311 1.502l-2.011-4.924z"/><path fill="#263238" d="M308.899 154.708a.382.382 0 0 1-.148.105c-.057.022-.118.03-.179.022a2.653 2.653 0 0 0-2.293.646.336.336 0 0 1-.229.106.335.335 0 0 1-.236-.087.337.337 0 0 1-.085-.355.335.335 0 0 1 .067-.11 3.27 3.27 0 0 1 2.885-.855.328.328 0 0 1 .282.373.992.992 0 0 1-.064.155zm-9.163 3.966a.273.273 0 0 1-.191 0 .302.302 0 0 1-.105-.075.297.297 0 0 1-.067-.11.32.32 0 0 1 .017-.252 3.282 3.282 0 0 1 2.42-1.82.334.334 0 0 1 .13.008.322.322 0 0 1 .199.159.342.342 0 0 1-.04.363.348.348 0 0 1-.216.126 2.644 2.644 0 0 0-1.893 1.456.32.32 0 0 1-.254.145zm-6.907-5.815l.546.91c-.674.91.346 3.913 1.274 4.805 1.974 1.902 2.357 6.115 1.246 8.39 0 0-.527-.982-1.264-.345-.738.637 1.956 5.76 4.786 7.48 0 0-3.558-1.083-7.562-5.906-3.695-4.468-5.842-8.636-5.724-11.093l6.698-4.241z"/><path fill="#E4897B" d="M290.809 169.166a6.569 6.569 0 0 0 4.75 1.629c2.302-.155 2.684-2.402 1.41-4.177-1.155-1.565-3.749-3.431-5.751-2.384-2.002 1.046-2.002 3.494-.409 4.932z"/><path fill="#263238" d="M308.29 165.883c-.022.878.02 1.757.127 2.63l-.446.127c-2.02.564-3.139.155-3.776-.464a2.726 2.726 0 0 1-.655-1.101 2.893 2.893 0 0 1-.137-.719 9.817 9.817 0 0 0 4.195-.291 6.58 6.58 0 0 0 .692-.182z"/><path fill="#fff" d="M307.58 166.066v.783c-1.902.528-3.312.637-4.077.228a2.937 2.937 0 0 1-.136-.719 9.822 9.822 0 0 0 4.213-.292z"/><path fill="#DE5753" d="M307.971 168.641c-2.02.564-3.139.155-3.776-.464a6.736 6.736 0 0 1 2.366-.182 2.54 2.54 0 0 1 1.41.646z"/><path fill="#263238" d="M286.841 160.295c-1.411-1.174-2.73-4.15.573-8.918 3.304-4.769 12.74-8.818 16.781-7.735 4.04 1.083 3.74 6.661-1.711 10.073l1.711-2.52s-3.877 3.521-7.089 4.868a14.963 14.963 0 0 0 3.74-4.686s-6.052 4.268-9.473 5.46a8.26 8.26 0 0 0-4.532 3.458zm10.21 4.131c1.766 3.066 1.311 6.633-1.019 7.98-2.33 1.347-5.651 0-7.416-3.112-1.766-3.112-1.311-6.625 1.019-7.972 2.329-1.346 5.642.046 7.416 3.104z"/><path fill="#fff" d="M297.051 164.426c1.766 3.066 1.311 6.633-1.019 7.98-2.33 1.347-5.651 0-7.416-3.112-1.766-3.112-1.311-6.625 1.019-7.972 2.329-1.346 5.642.046 7.416 3.104z" opacity=".2"/><path fill="#001E6C" d="M291.609 164.071s-3.639-12.676 1.22-17.344c-.44.067-.869.196-1.274.382-.783.336-5.942 5.742-2.521 17.499l2.575-.537z"/><path fill="#000" d="M291.609 164.071s-3.639-12.676 1.22-17.344c-.44.067-.869.196-1.274.382-.783.336-5.942 5.742-2.521 17.499l2.575-.537z" opacity=".2"/><path fill="#001E6C" d="M302.356 189.905a7.164 7.164 0 0 1-4.076-1.256c-6.025-4.076-5.743-17.29-5.733-17.899a.256.256 0 0 1 .236-.219.214.214 0 0 1 .161.071.223.223 0 0 1 .058.166c0 .127-.283 13.568 5.532 17.499 5.815 3.931 12.558-3.085 12.631-3.148a.205.205 0 0 1 .073-.051.214.214 0 0 1 .173 0 .205.205 0 0 1 .073.051.228.228 0 0 1 0 .318c-.046.046-4.35 4.468-9.128 4.468z"/><path fill="#000" d="M302.356 189.905a7.164 7.164 0 0 1-4.076-1.256c-6.025-4.076-5.743-17.29-5.733-17.899a.256.256 0 0 1 .236-.219.214.214 0 0 1 .161.071.223.223 0 0 1 .058.166c0 .127-.283 13.568 5.532 17.499 5.815 3.931 12.558-3.085 12.631-3.148a.205.205 0 0 1 .073-.051.214.214 0 0 1 .173 0 .205.205 0 0 1 .073.051.228.228 0 0 1 0 .318c-.046.046-4.35 4.468-9.128 4.468z" opacity=".2"/><path fill="#001E6C" d="M294.676 165.8c1.229 2.12.91 4.605-.701 5.542-1.61.937-3.931 0-5.159-2.157-1.229-2.157-.91-4.614.71-5.551 1.619-.937 3.922.037 5.15 2.166z"/></svg>