<svg xmlns="http://www.w3.org/2000/svg" width="140" height="140" fill="none" viewBox="0 0 140 140"><g clip-path="url(#clip0_2900:6912)"><path fill="#F6F6FB" d="M103.026 26.552h17.669c5.332 0 9.655 4.323 9.655 9.655v65.173c0 5.332-4.323 9.655-9.655 9.655H96.557a4.859 4.859 0 0 0-3.862 1.931l-18.973 25.296a4.842 4.842 0 0 1-7.434 0l-18.973-25.296a4.858 4.858 0 0 0-3.862-1.931H19.315c-5.332 0-9.655-4.323-9.655-9.655V36.207c0-5.332 4.323-9.655 9.655-9.655h83.711z"/><path fill="#1B1B1B" d="M62.761 108.621a2.414 2.414 0 0 1-2.413-2.414v-4.828a2.414 2.414 0 0 1 4.827 0v4.828a2.414 2.414 0 0 1-2.413 2.414zm14.493 0a2.414 2.414 0 0 1-2.414-2.414v-4.828a2.414 2.414 0 0 1 4.827 0v4.828a2.414 2.414 0 0 1-2.413 2.414z"/><path fill="#7562BD" d="M31.39 14.483c-.549 0-1.08-.186-1.509-.529L17.812 4.3A2.415 2.415 0 0 1 20.83.529l12.07 9.655a2.414 2.414 0 0 1-1.51 4.299zm77.244 0a2.414 2.414 0 0 1-1.509-4.3L119.194.53a2.415 2.415 0 1 1 3.017 3.77l-12.069 9.655c-.428.343-.96.53-1.508.529zm-89.313 70a2.414 2.414 0 0 1-1.508-4.3l12.069-9.654a2.414 2.414 0 1 1 3.017 3.77l-12.07 9.655c-.427.343-.96.53-1.508.529zm101.381 0a2.41 2.41 0 0 1-1.508-.529L107.125 74.3a2.415 2.415 0 0 1 3.017-3.77l12.069 9.655a2.413 2.413 0 0 1-1.509 4.299zM26.561 41.035H19.32a2.414 2.414 0 0 1 0-4.828h7.241a2.414 2.414 0 0 1 0 4.828zm94.141 0h-7.241a2.414 2.414 0 0 1 0-4.828h7.241a2.414 2.414 0 0 1 0 4.828z"/><path fill="#646464" d="M84.493 79.655v14.483c0 4-3.242 7.241-7.242 7.241H62.77c-4 0-7.242-3.242-7.242-7.241V79.655h28.966z"/><path fill="#3CC" d="M103.795 33.793a33.629 33.629 0 0 1-10.717 24.645A28.118 28.118 0 0 0 84.485 79.1v5.383H55.519V79.51a29.12 29.12 0 0 0-8.737-21.217 33.566 33.566 0 0 1-10.428-27.59C38.023 12.733 53.519-.755 71.549.071c18.03.826 32.227 15.674 32.246 33.722z"/><path fill="#F6F6FB" d="M65.175 77.241a2.414 2.414 0 0 1-2.413-2.413v-7.242a2.414 2.414 0 0 1 4.827 0v7.242a2.414 2.414 0 0 1-2.413 2.413zm0-19.31a2.414 2.414 0 0 1-2.413-2.413v-2.414a2.414 2.414 0 0 1 4.827 0v2.413a2.414 2.414 0 0 1-2.413 2.414zm9.665 19.31a2.414 2.414 0 0 1-2.414-2.413v-7.242a2.414 2.414 0 0 1 4.827 0v7.242a2.414 2.414 0 0 1-2.413 2.413zm0-19.31a2.414 2.414 0 0 1-2.414-2.413v-2.414a2.414 2.414 0 0 1 4.827 0v2.413a2.414 2.414 0 0 1-2.413 2.414zM48.282 28.965a2.414 2.414 0 0 1-2.37-2.872C48.143 14.601 58.97 10.024 59.428 9.836A2.414 2.414 0 0 1 61.27 14.3c-.091.036-8.894 3.821-10.62 12.711a2.414 2.414 0 0 1-2.368 1.955z"/></g><defs><clipPath id="clip0_2900:6912"><path fill="#fff" d="M0 0h140v140H0z"/></clipPath></defs></svg>