<svg xmlns="http://www.w3.org/2000/svg" width="140" height="140" fill="none" viewBox="0 0 140 140"><g clip-path="url(#clip0_2900:63015)"><path fill="#7562BD" d="M38.44 51.893c-8.627-1.172-18.69 2.557-25.638 9.505L1.202 73a4.1 4.1 0 0 0 3.961 6.863c7.361-1.974 17.105-2.63 19.5-.801L38.44 51.893zm49.417 49.726L60.65 114.744c1.516 2.065 1.396 8.596-.37 20.554a4.092 4.092 0 0 0 2.212 4.262c1.58.799 3.491.49 4.743-.762l11.6-11.6c6.555-6.554 10.098-16.595 9.022-25.579z"/><path fill="#646464" d="M64.736 116.144c-9.57 5.162-10.788 5.452-12.238 6.438-1.625 1.044-3.713.812-5.105-.58L18.391 93c-1.334-1.334-1.624-3.481-.58-5.105.986-1.45 1.102-2.379 6.322-12.355l11.485-.116 29.003 29.002.115 11.718z"/><path fill="#646464" d="M64.74 116.144c-9.571 5.162-10.789 5.452-12.24 6.438-1.624 1.044-3.712.812-5.104-.58l-14.502-14.501L50.297 90.1l14.327 14.326.116 11.718z"/><path fill="#F8F8F8" d="M64.736 116.143L24.133 75.54C44.26 37.547 68.449 13.822 96.523 4.543l19.722 19.605 19.257 19.258c-9.28 27.958-32.946 52.32-70.766 72.737z"/><path fill="#F8F8F8" d="M64.736 116.144L44.492 95.9l71.753-71.752 19.257 19.257c-9.28 27.959-32.946 52.32-70.766 72.739z"/><path fill="#3CC" d="M103.598 36.793l-.174-.174c-8.005-8.004-20.998-8.005-29.003 0-8.004 8.005-8.004 20.998 0 29.002l.174.174c8.005 7.772 20.882 7.772 28.829-.174 7.947-7.946 7.947-20.824.174-28.828z"/><path fill="#7562BD" d="M135.502 43.405c-8.874-.638-18.386-4.814-26.101-12.413l-.174-.174c-7.773-7.772-12.124-17.344-12.704-26.276 2.669-.929 5.394-1.683 8.121-2.32 9.919-2.263 20.302-2.785 31.091-1.624 1.043.115 2.029.638 2.609 1.45.58.58.987 1.334 1.045 2.204 1.219 10.73.58 21.114-1.682 31.032-.638 2.727-1.334 5.395-2.205 8.12z"/><path fill="#7562BD" d="M135.508 43.405c-8.874-.638-18.387-4.814-26.102-12.413L138.35 2.049c.58.58.986 1.334 1.045 2.204 1.217 10.732.58 21.114-1.683 31.032-.637 2.727-1.334 5.395-2.204 8.121zm-71.469 36.66a3.866 3.866 0 0 0-1.16-2.553c-.697-.928-1.798-1.566-2.958-1.566-15.082-.116-18.446 5.22-19.316 6.09C15.49 107.153 15.2 119.509 15.2 120.785c.058 1.102.464 2.089 1.218 2.842.057.057.116.116.233.116.58.58 1.392.928 2.26.986 2.09.232 13.864-.058 39.096-25.29 5.686-5.684 6.091-10.963 6.033-19.373z"/><path fill="#7562BD" d="M64.045 80.065c.06 8.41-.347 13.689-6.032 19.373-25.232 25.232-37.007 25.522-39.094 25.29-.871-.058-1.683-.406-2.263-.986l46.23-46.23a3.87 3.87 0 0 1 1.16 2.553z"/></g><defs><clipPath id="clip0_2900:63015"><path fill="#fff" d="M0 0h140v140H0z"/></clipPath></defs></svg>