<svg xmlns="http://www.w3.org/2000/svg" width="140" height="140" fill="none" viewBox="0 0 140 140"><path fill="#EEE" d="M122.015 118.798H24.556c-5.892 0-10.67-4.777-10.67-10.668V10.67C13.887 4.776 18.664 0 24.557 0h97.46c5.892 0 10.67 4.777 10.67 10.67v97.46c-.001 5.891-4.778 10.668-10.671 10.668z"/><path fill="#F8F8F8" d="M29.078 72.314a6.988 6.988 0 0 1-6.988-6.988V15.19a6.988 6.988 0 0 1 6.988-6.987h88.417a6.988 6.988 0 0 1 6.988 6.987v50.137a6.987 6.987 0 0 1-6.988 6.987H29.077z"/><path fill="#3CC" d="M15.379 104.895h8.831v28.895h-8.83v-28.895z"/><path fill="#F8F8F8" d="M124.566 110.853c-7.142.17-22.463 4.22-30.5 5.026-3.668.368-7.26-2.826-10.346-3.191 4.901-1.381 16.214-.903 19.901-2.808 5.489-2.838-5.245-6.034-9.305-6.786-4.06-.753-15.707-.771-21.743-.82-6.037-.05-11.317-3.675-17.658-3.234-6.343.44-12.482 4.25-17.15 8.677-4.464.66-9.058.807-13.554.89v19.941c5.043-.096 12.132.926 18.423.828 5.918.372 14.922 1.117 20.567.749 5.646-.37 22.807 2.71 24.72 2.804 5.278.259 40.282-11.139 46.769-14.025 6.486-2.887-2.982-8.22-10.124-8.051z"/><path fill="#F8F8F8" d="M134.69 116.17c-6.486 2.886-41.49 14.283-46.768 14.025-1.914-.093-19.075-3.173-24.72-2.804-5.646.368-14.65-.377-20.568-.749-6.291.098-13.38-.924-18.423-.828v2.735c5.043-.097 12.132.926 18.423.827 5.918.372 14.922 1.118 20.567.749 5.646-.369 22.807 2.71 24.72 2.804 5.278.259 40.282-11.138 46.769-14.024 2.384-1.062 2.608-2.453 1.589-3.78-.352.37-.867.724-1.589 1.045z"/><path fill="#F6F6FB" d="M15.379 130.579h8.831v3.211h-8.83v-3.211z"/><path fill="#38AE0E" d="M15.379 140H3.28V98.685h12.1V140z"/><path fill="#38AE0E" d="M3.281 136.79H15.38V140H3.28v-3.21z"/><path fill="#3CC" d="M104.966 31.654L91.361 18.096c-.34-.34-.802-.53-1.283-.53h-6.61c0 5.646-4.576 10.224-10.223 10.224-5.647 0-10.224-4.578-10.224-10.225h-6.607a1.82 1.82 0 0 0-1.287.534l-13.53 13.555a.745.745 0 0 0 0 1.054l7.097 7.096a.746.746 0 0 0 1.055 0l5.912-5.91v28.312c0 .412.334.745.746.745h33.677a.745.745 0 0 0 .745-.745V33.819l5.986 5.985a.746.746 0 0 0 1.055 0l7.097-7.096a.747.747 0 0 0-.001-1.054z"/><path fill="#38AE0E" d="M83.464 17.565c0 5.647-4.577 10.224-10.224 10.224s-10.224-4.577-10.224-10.224h2.197a8.027 8.027 0 0 0 16.053 0h2.198z"/><path fill="#3CC" d="M81.267 17.565a8.027 8.027 0 0 1-16.053 0h16.053z"/><path fill="#38AE0E" d="M90.825 62.205v-1.452H55.656v1.452c0 .412.335.746.746.746h33.677a.746.746 0 0 0 .746-.746zm14.142-30.548l-1.026-1.028-8.148 8.148 1.026 1.027a.746.746 0 0 0 1.056 0l7.093-7.093a.745.745 0 0 0-.001-1.054zm-63.369 0l1.026-1.028 8.149 8.148-1.028 1.027a.745.745 0 0 1-1.054 0l-7.093-7.093a.745.745 0 0 1 0-1.054z"/><path fill="#B1B1B1" d="M100.53 85.135H46.04a3.099 3.099 0 0 1 0-6.197h54.49a3.1 3.1 0 0 1 0 6.197zm10.937 12.822H35.103a3.099 3.099 0 0 1 0-6.198h76.364a3.099 3.099 0 1 1 0 6.198z"/></svg>