<svg xmlns="http://www.w3.org/2000/svg" width="140" height="140" fill="none" viewBox="0 0 140 140"><g clip-path="url(#clip0_2900:19114)"><path fill="#7562BD" d="M69.996 0l34.074 17.536 34.215 17.393-34.215 17.535L69.996 70 35.923 52.464 1.707 34.93l34.216-17.393L69.996 0z"/><path fill="#F8F8F8" d="M112.627 64.012V48.187l-17.108 8.697v15.825l9.41-11.548 7.698 2.851z"/><path fill="#3CC" d="M69.996 70v70l68.289-34.929V34.929l-25.662 13.258-.57.285V63.87l-7.128-2.71-9.41 11.549V56.884L69.996 70z"/><path fill="#3CC" d="M69.996 140V70L35.923 52.464 1.707 34.93v70.142L69.997 140z"/><path fill="#F8F8F8" d="M27.367 21.813l68.147 35.07 16.538-8.41.57-.286-68.147-35.071-8.554 4.42-8.554 4.276z"/></g><defs><clipPath id="clip0_2900:19114"><path fill="#fff" d="M0 0h140v140H0z"/></clipPath></defs></svg>