<svg xmlns="http://www.w3.org/2000/svg" width="140" height="140" fill="none" viewBox="0 0 140 140"><path fill="#3CC" d="M2.734 55.66c0 15.473 12.543 28.015 28.015 28.015 15.472 0 28.015-12.542 28.015-28.014a27.897 27.897 0 0 0-6.29-17.686h.003l-21.728-27.85L9.125 37.83h.016a27.899 27.899 0 0 0-6.407 17.832z"/><path fill="#7562BD" d="M78.644 37.975h.002L56.92 10.125 43.832 26.893l8.647 11.083h-.002a27.896 27.896 0 0 1 6.29 17.686c0 10.745-6.052 20.076-14.932 24.775a27.89 27.89 0 0 0 13.084 3.24c15.472 0 28.015-12.543 28.015-28.015a27.898 27.898 0 0 0-6.29-17.686z"/><path fill="#F8F8F8" d="M104.812 37.975h.002l-21.727-27.85L70 26.893l8.647 11.083h-.002a27.896 27.896 0 0 1 6.29 17.686c0 10.745-6.052 20.076-14.932 24.775a27.89 27.89 0 0 0 13.084 3.24c15.472 0 28.015-12.543 28.015-28.015a27.903 27.903 0 0 0-6.29-17.686z"/><path fill="#646464" d="M130.973 37.975h.001l-21.727-27.85L96.16 26.893l8.647 11.083h-.002a27.896 27.896 0 0 1 6.289 17.686c0 10.745-6.051 20.076-14.93 24.775a27.892 27.892 0 0 0 13.083 3.24c15.472 0 28.015-12.543 28.015-28.015a27.902 27.902 0 0 0-6.289-17.686z"/><path fill="#7562BD" d="M29.003 110.734h3.495a2.881 2.881 0 0 1 2.879 2.878 2.734 2.734 0 0 0 5.468 0c0-4.603-3.744-8.347-8.347-8.347h-3.495c-4.602 0-8.347 3.744-8.347 8.347v10.649c0 4.603 3.745 8.348 8.347 8.348h3.495c4.603 0 8.347-3.745 8.347-8.348a2.734 2.734 0 0 0-5.468 0 2.882 2.882 0 0 1-2.879 2.879h-3.495a2.881 2.881 0 0 1-2.878-2.879v-10.649a2.881 2.881 0 0 1 2.878-2.878zm38.421-5.261a2.733 2.733 0 0 0-2.98.593l-5.814 5.814-5.814-5.814a2.733 2.733 0 0 0-4.668 1.933v21.875a2.735 2.735 0 0 0 5.47 0v-15.273l3.079 3.079a2.734 2.734 0 0 0 3.867 0l3.079-3.079v15.273a2.735 2.735 0 0 0 5.469 0v-21.875a2.733 2.733 0 0 0-1.688-2.526zm24.614.592l-5.814 5.815-5.814-5.814a2.734 2.734 0 1 0-3.867 3.867l6.946 6.946v12.995a2.735 2.735 0 0 0 5.47 0v-12.995l6.946-6.946a2.735 2.735 0 0 0-3.867-3.868zm26.47 0a2.736 2.736 0 0 0-3.867 0l-6.27 6.27v-4.336a2.734 2.734 0 1 0-5.469 0v21.875a2.736 2.736 0 0 0 5.469 0v-4.336l6.27 6.27a2.724 2.724 0 0 0 1.933.801 2.736 2.736 0 0 0 1.934-4.668l-9.004-9.004 9.004-9.004a2.735 2.735 0 0 0 0-3.868z"/></svg>