<svg xmlns="http://www.w3.org/2000/svg" width="140" height="140" fill="none" viewBox="0 0 140 140"><path fill="#7562BD" d="M56.986 96.552H24.134a2.414 2.414 0 0 1-2.414-2.414V36.207l-5.407 5.407a2.433 2.433 0 0 1-3.427 0L1.71 30.438a2.433 2.433 0 0 1 0-3.428L23.193 5.528a2.435 2.435 0 0 1 1.69-.7h51.606a2.436 2.436 0 0 1 1.69.7L99.662 27.01a2.433 2.433 0 0 1 0 3.428L88.486 41.614a2.433 2.433 0 0 1-3.428 0l-5.407-5.407V70L56.986 96.552z"/><path fill="#3CC" d="M137.416 128.414l-33.962 6.372a2.433 2.433 0 0 1-2.752-1.617l-6.566-19.721-6.565 19.721a2.432 2.432 0 0 1-2.752 1.617l-33.962-6.372a2.412 2.412 0 0 1-1.883-3.017l8.014-28.845 3.355-12.07h67.587l11.368 40.915a2.41 2.41 0 0 1-1.882 3.017z"/><path fill="#F8F8F8" d="M90.998 106.448a2.412 2.412 0 0 1-2.288-1.651l-8.207-24.62a2.417 2.417 0 1 1 4.586-1.528l8.207 24.62a2.416 2.416 0 0 1-2.298 3.179zM65.17 7.193c0 7.972-6.463 14.435-14.435 14.435S36.301 15.165 36.301 7.193c-.002-.793.07-1.585.217-2.365h28.434c.147.78.22 1.572.218 2.365zm54.31 113.497a6.034 6.034 0 1 0 0-12.068 6.034 6.034 0 0 0 0 12.068zM63.96 41.035a6.034 6.034 0 1 0 0-12.07 6.034 6.034 0 0 0 0 12.07z"/><path fill="#F8F8F8" d="M127.926 74.828v9.655H60.34v-9.655A4.842 4.842 0 0 1 65.167 70h57.931a4.842 4.842 0 0 1 4.828 4.828z"/></svg>