<svg xmlns="http://www.w3.org/2000/svg" width="140" height="140" fill="none" viewBox="0 0 140 140"><g clip-path="url(#clip0_2900:7228)"><path fill="#F8F8F8" d="M103.838 117.992a3.928 3.928 0 0 1-3.927 3.927H3.927A3.928 3.928 0 0 1 0 117.992V21.68a3.599 3.599 0 0 1 3.599-3.599h96.64a3.6 3.6 0 0 1 3.599 3.599v96.312z"/><path fill="#F8F8F8" d="M100.238 18.081h-7.441a3.599 3.599 0 0 1 3.599 3.599v100.239h3.513a3.927 3.927 0 0 0 3.927-3.927V21.68a3.598 3.598 0 0 0-3.598-3.599z"/><path fill="#7562BD" d="M79.023 106.914a6.482 6.482 0 0 1-9.166-.124l-1.419-1.458a.554.554 0 0 1 .01-.783l10.196-9.924a.553.553 0 0 0 0-.793l-10.195-9.924a.554.554 0 0 1-.01-.784l1.418-1.457a6.482 6.482 0 0 1 9.166-.124l9.64 9.383c.5.486.907 1.068 1.145 1.723a4.544 4.544 0 0 1-1.091 4.83l-9.694 9.435zM58.32 35.161H45.526a2.144 2.144 0 0 1-2.144-2.143V18.08h17.08v14.937c0 1.184-.96 2.143-2.144 2.143z"/><path fill="#7562BD" d="M54.234 18.081v14.937c0 1.184-.96 2.143-2.144 2.143h6.227c1.184 0 2.144-.96 2.144-2.143V18.08h-6.227zM20.1 102.696a2.111 2.111 0 0 1-2.112-2.112V84.579a2.111 2.111 0 1 1 4.223 0v16.005a2.112 2.112 0 0 1-2.111 2.112z"/><path fill="#7562BD" d="M26.848 90.78a2.103 2.103 0 0 1-1.483-.609l-5.268-5.202-5.268 5.202a2.112 2.112 0 0 1-2.967-3.004l6.751-6.667a2.11 2.11 0 0 1 2.968 0l6.751 6.667a2.111 2.111 0 0 1-1.484 3.614zm14.876 11.916a2.111 2.111 0 0 1-2.11-2.111V84.579a2.111 2.111 0 1 1 4.222 0v16.006a2.111 2.111 0 0 1-2.111 2.111z"/><path fill="#7562BD" d="M34.97 90.78a2.111 2.111 0 0 1-1.484-3.613l6.752-6.667a2.111 2.111 0 0 1 2.968 0l6.751 6.668a2.111 2.111 0 1 1-2.967 3.003l-5.268-5.202-5.268 5.203a2.104 2.104 0 0 1-1.483.609zm6.763 21.635H20.1a2.111 2.111 0 1 1 0-4.223h21.633a2.111 2.111 0 0 1 0 4.223z"/><path fill="#3CC" d="M106.556 41.7H75.127a1.4 1.4 0 0 1-1.4-1.4v-6.381a.71.71 0 0 0-1.204-.511L54.266 51.03c-.5.482-.5 1.282 0 1.764l18.258 17.623a.71.71 0 0 0 1.204-.511v-6.398a1.4 1.4 0 0 1 1.4-1.4h31.568c7.094 0 13.022 5.805 12.901 12.898-.118 6.89-5.759 12.458-12.676 12.458h-3.077v20.408h3.077c18.308 0 33.191-14.947 33.085-33.28-.106-18.256-15.193-32.892-33.45-32.892z"/><path fill="#3CC" d="M109.559 107.768V87.185c-.853.182-1.737.28-2.643.28h-3.076v20.408h3.076c.89 0 1.771-.036 2.643-.105z"/><path fill="#3CC" d="M106.553 41.7h-7.057c18.258 0 33.345 14.636 33.45 32.893.098 16.983-12.669 31.06-29.105 33.04v.24h3.076c18.308 0 33.191-14.948 33.086-33.28-.105-18.257-15.193-32.893-33.45-32.893z"/></g><defs><clipPath id="clip0_2900:7228"><path fill="#fff" d="M0 0h140v140H0z"/></clipPath></defs></svg>