<svg xmlns="http://www.w3.org/2000/svg" width="140" height="140" fill="none" viewBox="0 0 140 140"><g clip-path="url(#clip0_2900:63070)"><path fill="#3CC" d="M119.326 45.059H90.418v52.393h47.363V73.87l-5.524-19.091a13.462 13.462 0 0 0-12.931-9.72z"/><path fill="#F6F6FB" d="M130.868 73.628l-4.922-17.017a6.928 6.928 0 0 0-6.618-4.973H97v21.99h33.868z"/><path fill="#7562BD" d="M130.874 73.62H96.988V51.63l33.886 21.99z"/><path fill="#F6F6FB" d="M130.868 73.628l-4.922-17.017a6.928 6.928 0 0 0-6.618-4.973H97l33.868 21.99z"/><path fill="#7562BD" d="M8.75 18.755h72.92a8.75 8.75 0 0 1 8.75 8.75v69.944H0V27.505a8.749 8.749 0 0 1 8.75-8.75z"/><path fill="#F6F6FB" d="M59.26 18.77v23.12l-3.383-3.383-3.546 3.546-3.543-3.546-3.544 3.546-3.549-3.546-3.59 3.546-3.54-3.546-3.424 3.424V18.77h28.12z"/><path fill="#1B1B1B" d="M140 97.446v9.887H.012v-9.887h14.611A20.009 20.009 0 0 1 32.121 87.18c7.496 0 14.058 4.142 17.499 10.266h47.013c3.412-6.124 9.942-10.266 17.466-10.266 7.525 0 14.057 4.142 17.499 10.266H140z"/><path fill="#1B1B1B" d="M128.064 107.272c0 7.717-6.255 13.972-13.972 13.972s-13.967-6.255-13.967-13.972 6.253-13.973 13.967-13.973c7.72 0 13.972 6.256 13.972 13.973z"/><path fill="#646464" d="M119.717 107.272a5.615 5.615 0 0 1-11.229 0c0-3.1 2.514-5.611 5.617-5.611a5.61 5.61 0 0 1 5.612 5.611z"/><path fill="#1B1B1B" d="M46.082 107.272c0 7.717-6.259 13.972-13.973 13.972-7.717 0-13.972-6.255-13.972-13.972s6.255-13.973 13.972-13.973c7.714 0 13.973 6.256 13.973 13.973z"/><path fill="#646464" d="M37.725 107.272a5.61 5.61 0 0 1-5.611 5.611 5.612 5.612 0 1 1 0-11.222 5.61 5.61 0 0 1 5.611 5.611z"/></g><defs><clipPath id="clip0_2900:63070"><path fill="#fff" d="M0 0h140v140H0z"/></clipPath></defs></svg>