<svg xmlns="http://www.w3.org/2000/svg" width="140" height="140" fill="none" viewBox="0 0 140 140"><path fill="#95BF47" d="M111.273 31.822a1.209 1.209 0 0 0-1.088-1.015c-.455-.035-9.314-.171-9.314-.171s-7.406-7.186-8.123-7.928c-.718-.742-2.163-.507-2.716-.35l-3.724 1.151a25.909 25.909 0 0 0-1.782-4.375c-2.639-5.033-6.5-7.7-11.165-7.7-.322 0-.647.032-.97.06a11.221 11.221 0 0 0-.42-.483c-2.033-2.177-4.64-3.238-7.766-3.15-6.027.171-12.03 4.526-16.898 12.25-3.426 5.442-6.03 12.278-6.769 17.567l-11.9 3.692c-3.5 1.096-3.605 1.204-4.063 4.498-.35 2.491-9.485 73.181-9.485 73.181L91.698 132.3l33.204-8.253s-13.541-91.595-13.629-92.225zm-28.815-7.119l-5.95 1.841c-.046-3.052-.41-7.301-1.83-10.969 4.574.875 6.828 6.041 7.78 9.128zm-9.954 3.08L59.71 31.745c1.24-4.732 3.58-9.45 6.458-12.534a12.887 12.887 0 0 1 4.343-3.15c1.67 3.465 2.03 8.393 1.992 11.722zm-8.215-15.904a6.153 6.153 0 0 1 3.626.949 17.478 17.478 0 0 0-4.68 3.646c-3.828 4.106-6.761 10.476-7.937 16.636l-10.5 3.255c2.072-9.688 10.188-24.22 19.491-24.486z"/><path fill="#5E8E3E" d="M110.186 30.8c-.455-.035-9.313-.171-9.313-.171s-7.406-7.179-8.124-7.92a1.82 1.82 0 0 0-1.05-.473V132.3l33.201-8.253s-13.538-91.595-13.625-92.225a1.207 1.207 0 0 0-1.089-1.022z"/><path fill="#fff" d="M73.304 47.88l-3.85 14.427a21.902 21.902 0 0 0-9.4-1.635c-7.48.473-7.56 5.188-7.484 6.37.406 6.454 17.381 7.865 18.333 22.974.753 11.9-6.3 20.024-16.474 20.668-12.201.77-18.921-6.43-18.921-6.43l2.586-11.004S44.85 98.35 50.26 98a4.78 4.78 0 0 0 4.69-5.12c-.532-8.418-14.35-7.921-15.228-21.753-.735-11.637 6.909-23.429 23.772-24.5 6.482-.406 9.81 1.253 9.81 1.253z"/></svg>