<svg xmlns="http://www.w3.org/2000/svg" width="100" height="100" fill="none" viewBox="0 0 100 100"><g clip-path="url(#clip0_1269:30298)"><path fill="#3CC" d="M53.535 26.392v12.44h5.115a3.354 3.354 0 0 0 3.354-3.354v-5.732a3.355 3.355 0 0 0-3.354-3.354h-5.115zm-29.315 0v12.44h-5.115a3.354 3.354 0 0 1-3.355-3.354v-5.732a3.355 3.355 0 0 1 3.355-3.354h5.114z"/><path fill="#7562BD" d="M83.159.063H70.232a4.389 4.389 0 0 0-4.388 4.389v12.693a4.389 4.389 0 0 0 4.388 4.389c1.433 0 1.644.268 2.104.704h8.098c.47-.446.738-.704 2.186-.704h.627v-.001a4.389 4.389 0 0 0 4.297-4.388V4.451A4.389 4.389 0 0 0 83.159.063z"/><path fill="#3CC" d="M95.614.063H82.47a4.389 4.389 0 0 1 4.388 4.389v12.693a4.388 4.388 0 0 1-4.296 4.388v.002l.06-.001h12.993a4.389 4.389 0 0 0 4.389-4.389V4.451a4.389 4.389 0 0 0-4.39-4.388z"/><path fill="#F6F6FB" d="M93.243 9.005H80.075a1.509 1.509 0 1 1 0-3.018h13.168a1.509 1.509 0 1 1 0 3.018zm-19.039 0h-1.605a1.509 1.509 0 1 1 0-3.018h1.605a1.509 1.509 0 1 1 0 3.018zm19.039 7.088H72.6a1.509 1.509 0 1 1 0-3.018h20.644a1.509 1.509 0 0 1 0 3.018zM50.842 61.465a4.394 4.394 0 0 1-3.564-4.315V45.08h-16.8v12.07a4.404 4.404 0 0 1-3.564 4.315l4.15 5.57h15.628s4.47-5.508 4.15-5.57z"/><path fill="#F6F6FB" d="M76.548 95.02v-7.173c0-12.442-8.83-23.134-21.049-25.485-1.196-.23-33.243 0-33.243 0C10.037 64.713 1.207 75.405 1.207 87.847v7.172h75.34z"/><path fill="#F6F6FB" d="M54.254 61.01H11.23a4.632 4.632 0 0 0-4.625 4.884L8.23 95.847h49.023l1.626-29.953a4.632 4.632 0 0 0-4.625-4.883z"/><path fill="#3CC" d="M66.528 61.01H53.383c2.657 0 4.77 2.23 4.625 4.884l-1.626 29.953h13.146l1.626-29.953a4.632 4.632 0 0 0-4.626-4.883z"/><path fill="#3CC" d="M65.043 96.692v-2.476l-.528-.768H3.245a3.245 3.245 0 1 0 0 6.49H61.8a3.245 3.245 0 0 0 3.243-3.246z"/><path fill="#3CC" d="M74.51 93.448h-9.996v3.244a3.245 3.245 0 0 1-3.244 3.245h13.24a3.245 3.245 0 0 0 0-6.49zm-31.585 0a10.752 10.752 0 0 1 2.815-7.237 9.169 9.169 0 0 0 2.34-6.13 9.2 9.2 0 0 0-4.664-8.008.791.791 0 0 0-1.185.685v6.847c0 1.147-.93 2.078-2.078 2.078h-2.555a2.078 2.078 0 0 1-2.078-2.078v-6.847a.791.791 0 0 0-1.184-.685 9.2 9.2 0 0 0-4.664 8.007 9.16 9.16 0 0 0 2.34 6.13l.04.046a10.752 10.752 0 0 1 2.775 7.192h8.098z"/><path fill="#F6F6FB" d="M41.287 50.428c3.346-2.941 5.188-7.26 5.264-11.738l-.055-21.628c-.011-2.67-.629-5.205-1.817-7.486a17.306 17.306 0 0 0-5.91-1.084c-8.634.134-16.437 6.732-16.398 16.246l.014 3.19.048 10.709c.112 4.377 1.947 8.583 5.242 11.43 1.948 1.684 4.474 3.207 7.623 3.911 2.402-.842 4.39-2.143 5.989-3.55z"/><path fill="#F6F6FB" d="M55.303 24.597c-.031-7.557-5.012-13.26-11.425-15.292 1.367 2.311 2.17 5.031 2.183 8.049l.053 21.142c-.074 4.378-1.874 8.6-5.146 11.475-1.747 1.536-3.968 2.945-6.699 3.742 1.425.415 2.987.664 4.693.676 4.908-.076 8.615-2.103 11.249-4.418 3.271-2.875 5.071-7.097 5.146-11.475l-.054-13.899z"/><path fill="#1B1B1B" d="M38.304 19.227h1.144c1.551.006 3.082-.282 4.56-.756a8.352 8.352 0 0 1 2.492-.401l-.003-1.008c-.012-2.965-.773-5.765-2.233-8.234l.003.001a16.119 16.119 0 0 0-1.97-2.661l-1.318-.445H31.37c-7.112 0-12.878 5.766-12.878 12.878v8.51c0 1.25.791 2.364 1.972 2.775l3.172 1.104a1.704 1.704 0 0 0 2.265-1.612l-.007-6.001c-.012-2.919 2.315-5.295 5.199-5.307h.063a8.35 8.35 0 0 1 2.589.4c1.477.475 3.008.763 4.56.757z"/><path fill="#646464" d="M54.24 12.44h-.169c-.936 0-1.696-.76-1.696-1.696a5.021 5.021 0 0 0-5.021-5.021H40.98c3.073 2.836 5.062 6.865 5.081 11.63l.002.733c.178-.01.355-.017.534-.016h.063c2.883.012 5.21 2.388 5.198 5.307l-.006 6.002a1.704 1.704 0 0 0 2.265 1.611l3.171-1.104a2.938 2.938 0 0 0 1.972-2.774v-9.65a5.02 5.02 0 0 0-5.02-5.022z"/><path fill="#3CC" d="M58.986 38.816v2.2a3.112 3.112 0 0 1-3.108 3.11h-9.29a1.509 1.509 0 1 0 0 3.017h9.29a6.134 6.134 0 0 0 6.127-6.127v-5.538c0 1.74-1.324 3.17-3.019 3.338z"/><path fill="#F6F6FB" d="M50.263 48.003h-3.787a2.616 2.616 0 1 1 0-5.232h3.787a2.616 2.616 0 1 1 0 5.232z"/><path fill="#3CC" d="M82.526 21.533H70.231a2.563 2.563 0 0 1 2.562 2.564v7.85c0 .997 1.313 1.36 1.826.505l5.8-9.673a2.563 2.563 0 0 1 2.107-1.244v-.002z"/></g><defs><clipPath id="clip0_1269:30298"><path fill="#fff" d="M0 0h100v100H0z"/></clipPath></defs></svg>