<svg xmlns="http://www.w3.org/2000/svg" width="140" height="140" fill="none" viewBox="0 0 140 140"><g clip-path="url(#clip0_2900:52903)"><path fill="#7562BD" d="M127.823 106.851c5.826-9.932 9.17-21.497 9.17-33.844 0-36.999-29.993-66.993-66.992-66.993-37 0-66.993 29.994-66.993 66.993 0 12.347 3.344 23.912 9.17 33.844h115.645z"/><path fill="#F6F6FB" d="M102.929 0h-56.49c-.316 0-.631.009-.945.025-2.05.88-6.959 3.983-6.959 13.517v7.404a5.58 5.58 0 0 1-5.574 5.574h-8.284c-8.88 0-11.778 4.74-12.628 6.854-.02.348-.033.698-.033 1.05v72.154a67.324 67.324 0 0 0 19.627 21.356V53.612c0-4.722 1.915-9.345 5.254-12.684l16.047-16.047a17.82 17.82 0 0 1 12.684-5.254h43.168V5.867A5.867 5.867 0 0 0 102.929 0z"/><path fill="#F6F6FB" d="M33.445 5.382A18.376 18.376 0 0 1 46.44 0s-7.612 1.652-7.612 13.542v7.403a5.866 5.866 0 0 1-5.866 5.866h-8.284c-11.256 0-12.661 7.612-12.661 7.612 0-4.874 1.936-9.548 5.382-12.994L33.445 5.382z"/><path fill="#7562BD" d="M89.38 10.089c-.648 0-1.173.525-1.173 1.172v7.195c0 .647.525 1.172 1.172 1.172h19.419v-9.54H89.379z"/><path fill="#7562BD" d="M97.798 14.858a4.77 4.77 0 0 1 4.769-4.77H89.375c-.647 0-1.172.526-1.172 1.173v7.195c0 .647.525 1.172 1.172 1.172h13.192a4.77 4.77 0 0 1-4.77-4.77z"/><path fill="#F6F6FB" d="M127.983 25.055a5.866 5.866 0 0 0-5.866-5.866h-56.49c-.316 0-.632.009-.946.025-2.049.88-6.958 3.982-6.958 13.517v7.403a5.58 5.58 0 0 1-5.574 5.574h-8.285c-8.88 0-11.777 4.741-12.628 6.854-.02.35-.033.699-.033 1.05v74.018C42.151 135.419 55.54 140 70 140c24.766 0 46.39-13.44 57.984-33.422V25.055z"/><path fill="#3CC" d="M46.938 90.905v18.819a7.15 7.15 0 0 0 7.15 7.149h51.018a7.15 7.15 0 0 0 7.15-7.149v-18.82a7.15 7.15 0 0 0-7.15-7.149H54.087a7.15 7.15 0 0 0-7.15 7.15z"/><path fill="#E8F4FC" d="M79.827 92.164a2.527 2.527 0 0 0-2.37-1.632h-.002a2.528 2.528 0 0 0-2.346 1.577l-.02.05-5.699 14.964a2.193 2.193 0 0 0 4.098 1.561l.882-2.315h6.13l.871 2.309a2.192 2.192 0 1 0 4.103-1.548l-5.647-14.966zm-3.787 9.82l1.41-3.7 1.396 3.7H76.04zm22.253 7.181a2.193 2.193 0 1 0 3.587-2.523l-4.83-6.866 4.078-5.788a2.193 2.193 0 0 0-3.585-2.526l-3.173 4.504-3.168-4.503a2.193 2.193 0 0 0-3.587 2.523l4.072 5.788-4.837 6.867a2.193 2.193 0 1 0 3.585 2.525l3.932-5.582 3.926 5.581zm-28.377-16.44c0-1.21-.981-2.192-2.192-2.192H59.34a2.193 2.193 0 1 0 0 4.385h1.982v12.986a2.193 2.193 0 1 0 4.385 0V94.918h2.016a2.193 2.193 0 0 0 2.192-2.193z"/><path fill="#BEC8F7" d="M60.591 58.522h38.003a2.193 2.193 0 0 0 0-4.385H60.591a2.193 2.193 0 1 0 0 4.385zm-10.719 8.434h59.445a2.193 2.193 0 1 0 0-4.385H49.872a2.193 2.193 0 1 0 0 4.385zm59.445 4.048H49.872a2.193 2.193 0 1 0 0 4.385h59.445a2.193 2.193 0 1 0 0-4.385z"/><path fill="#D3DCFB" d="M107.144 124.446h-7.729a2.193 2.193 0 0 0 0 4.386h7.729a2.192 2.192 0 0 0 0-4.386z"/><path fill="#3CC" d="M108.567 29.278c-.647 0-1.172.524-1.172 1.172v7.194c0 .647.524 1.172 1.172 1.172h19.418v-9.538h-19.418z"/><path fill="#3CC" d="M116.989 34.047a4.77 4.77 0 0 1 4.769-4.77h-13.191c-.647 0-1.172.525-1.172 1.172v7.195c0 .647.524 1.172 1.172 1.172h13.191a4.769 4.769 0 0 1-4.769-4.77z"/><path fill="#F6F6FB" d="M52.633 24.57a18.376 18.376 0 0 1 12.994-5.381s-7.612 1.652-7.612 13.541v7.404A5.866 5.866 0 0 1 52.149 46h-8.285c-11.255 0-12.66 7.612-12.66 7.612 0-4.874 1.935-9.548 5.382-12.994l16.047-16.047z"/></g><defs><clipPath id="clip0_2900:52903"><path fill="#fff" d="M0 0h140v140H0z"/></clipPath></defs></svg>