<svg xmlns="http://www.w3.org/2000/svg" width="488" height="487" fill="none" viewBox="0 0 488 487"><g clip-path="url(#clip0)"><path fill="#FCCF31" d="M299.563 456.498s-60.674-51.979-44.092-97.215c16.583-45.237-1.957-53.284 2.556-85.363 4.512-32.078 14.027-43.931 19.518-66.93 5.491-22.999 11.145-33.547 21.312-33.71 10.112-.163 25.063 9.569 26.748 36.863 1.686 27.295 22.454 24.685 30.5 61.005 8.047 36.319-26.531 67.474-20.387 109.883 6.143 42.464 13.918 74.434-36.155 75.467z"/><path fill="#FDCEA9" d="M299.509 456.443c-2.012-10.439-3.534-20.987-4.948-31.535a749.544 749.544 0 0 1-1.957-15.876 396.001 396.001 0 0 1-.87-7.938c-.272-2.664-.543-5.274-.815-7.938-2.012-21.205-3.371-42.518-3.752-63.832-.163-10.656-.163-21.313.164-32.024l.326-7.993c.108-2.664.272-5.328.435-7.992.163-2.664.272-5.328.543-7.993l.707-7.992c.598-5.328 1.087-10.602 1.903-15.931l.544-3.969.652-3.969c.489-2.61.87-5.274 1.414-7.884 2.12-10.439 4.784-20.878 8.807-30.719-2.881 10.276-4.784 20.715-6.198 31.209-.435 2.609-.652 5.274-.978 7.883l-.435 3.915-.327 3.969c-.217 2.664-.543 5.274-.652 7.884l-.544 7.938c-.217 5.274-.543 10.548-.706 15.876-.109 2.665-.218 5.274-.218 7.939l-.109 7.938-.054 7.938c-.054 2.664 0 5.274 0 7.938 0 2.664 0 5.274.054 7.938l.109 7.938c.435 21.205 1.305 42.41 2.555 63.614 1.305 21.259 2.773 42.409 4.35 63.668z"/><path fill="#FDCEA9" d="M282.329 220.691c.109 3.371.435 6.634.978 9.896a76.358 76.358 0 0 0 2.23 9.406c.434 1.522 1.087 2.99 1.576 4.513l.979 2.175c.272.761.652 1.413 1.033 2.12 1.359 2.827 3.207 5.383 5.056 7.938l-3.099-.87c.652-.272 1.468-.598 2.175-.924.761-.326 1.468-.707 2.229-1.087 1.468-.762 2.936-1.523 4.349-2.393a56.005 56.005 0 0 0 8.046-5.817 27.134 27.134 0 0 0 1.849-1.686c.598-.598 1.196-1.142 1.74-1.794a36.615 36.615 0 0 0 3.207-3.86c2.012-2.665 3.643-5.709 5.002-8.917-.109 1.74-.326 3.534-.815 5.274-.435 1.74-1.088 3.425-1.849 5.056-.38.816-.815 1.631-1.25 2.392-.49.762-.925 1.577-1.468 2.284-1.033 1.522-2.175 2.936-3.371 4.295-2.446 2.719-5.274 5.057-8.264 7.069a50.828 50.828 0 0 1-4.675 2.827c-.816.435-1.631.815-2.447 1.196-.87.381-1.631.761-2.61 1.087l-.054.055c-1.142.435-2.338 0-2.99-.924-2.066-2.828-4.023-5.818-5.382-9.08-.762-1.577-1.251-3.263-1.849-4.894-.435-1.685-.924-3.371-1.196-5.056-.652-3.426-.924-6.851-.761-10.276.054-.87.109-1.686.163-2.556.109-.87.163-1.685.326-2.555.272-1.577.598-3.263 1.142-4.894zm-6.416 65.844a53.569 53.569 0 0 0 2.447 7.013c.978 2.23 2.011 4.404 3.262 6.471l.978 1.522c.327.489.707.924 1.033 1.414.327.489.707.924 1.088 1.359.38.435.707.924 1.142 1.305l1.196 1.196c.38.38.869.707 1.304 1.087l.653.544c.217.163.489.326.707.489l1.359.925-.979-.381h1.686c.598 0 1.196-.054 1.848-.109 1.196-.108 2.447-.326 3.643-.543 2.446-.49 4.838-1.197 7.122-2.175 4.621-1.849 8.916-4.567 12.722-7.884 3.914-3.262 7.285-7.177 10.438-11.364 3.153-4.186 5.926-8.699 8.645-13.375a62.876 62.876 0 0 1-5.818 15.17c-2.609 4.784-5.871 9.352-9.895 13.266a43.066 43.066 0 0 1-14.081 9.243c-1.304.544-2.664.979-4.023 1.36a36.1 36.1 0 0 1-4.186.924c-1.414.217-2.827.38-4.295.435h-2.175c-.38 0-.707-.055-1.087-.055-.163 0-.381-.054-.544-.054l-.652-.109h-.109c-.326-.054-.652-.163-.87-.38-2.175-1.631-4.186-3.48-5.763-5.655a30.41 30.41 0 0 1-3.86-6.851c-.978-2.392-1.74-4.839-2.175-7.34a31.278 31.278 0 0 1-.761-7.448zm-5.11 69.322a47.289 47.289 0 0 0 4.186 6.96c1.577 2.175 3.262 4.186 5.111 6.035a35.537 35.537 0 0 0 5.98 4.785l1.631.978 1.686.816c.271.109.543.272.869.381l.87.326c.598.217 1.196.435 1.74.652l-1.468-.054.761-.272.816-.326c.543-.218 1.087-.49 1.685-.761a23.679 23.679 0 0 0 1.631-.87c.544-.327 1.088-.598 1.631-.925l1.577-.978c.544-.327 1.033-.707 1.522-1.088.489-.38 1.033-.707 1.522-1.087l1.468-1.196c3.915-3.154 7.449-6.851 10.602-10.82l2.283-3.045.598-.761.544-.816 1.033-1.631 1.087-1.631.544-.815.489-.87 1.903-3.371c.707-1.088 1.196-2.284 1.794-3.48l1.795-3.534c1.087-2.393 2.065-4.839 3.262-7.232-.381 2.61-.87 5.274-1.414 7.884l-1.087 3.861c-.381 1.304-.761 2.609-1.251 3.86l-1.522 3.751-.381.925-.435.924-.924 1.794-.924 1.795-.489.924-.544.87-2.229 3.48c-3.153 4.458-6.85 8.644-11.2 12.124l-1.631 1.305c-.543.435-1.142.816-1.685 1.196-.598.381-1.142.816-1.74 1.142l-1.794 1.033c-.598.381-1.25.653-1.849.979-.598.326-1.25.652-1.902.924l-1.958.816c-.326.108-.652.271-1.033.38-.38.109-.652.218-1.141.326l-.218.055c-.435.109-.87.054-1.25-.109l-2.121-.87-1.033-.435c-.326-.163-.652-.38-.978-.543-.653-.381-1.251-.762-1.903-1.142l-1.74-1.305c-2.283-1.794-4.349-3.861-6.034-6.144-1.686-2.284-3.154-4.73-4.295-7.286-1.088-2.555-1.958-5.219-2.447-7.884zm5.708 42.083a625.719 625.719 0 0 1 5.002 7.884c1.631 2.61 3.317 5.165 5.002 7.721 1.685 2.555 3.48 4.948 5.328 7.286a56.405 56.405 0 0 0 2.881 3.262l1.523 1.413 1.576 1.197-2.5-.272.434-.218c.164-.054.327-.163.49-.217.326-.163.707-.326 1.033-.49.707-.326 1.359-.761 2.066-1.141.652-.435 1.359-.816 2.011-1.251.653-.489 1.305-.87 1.958-1.359a46.884 46.884 0 0 0 7.067-6.47c2.121-2.447 4.078-5.057 5.654-7.938.925-1.414 1.523-2.936 2.338-4.404.435-.762.653-1.523.979-2.338.326-.762.652-1.577 1.033-2.393-.109 1.686-.218 3.48-.489 5.166-.327 1.685-.653 3.425-1.305 5.11-1.033 3.371-2.719 6.525-4.73 9.515-.544.707-1.033 1.468-1.577 2.175l-1.74 2.066c-.598.653-1.25 1.251-1.903 1.903-.652.653-1.359 1.196-2.011 1.794-.707.599-1.414 1.088-2.12 1.632-.707.543-1.468 1.033-2.229 1.522-.762.435-1.577.924-2.393 1.359-.38.218-.815.435-1.25.598-.218.109-.435.218-.652.272-.218.109-.435.163-.707.272l-.163.054c-.816.327-1.686.164-2.284-.38l-2.066-1.686-1.794-1.794c-1.087-1.25-2.175-2.501-3.044-3.86-1.903-2.664-3.48-5.383-4.893-8.21a86.615 86.615 0 0 1-3.752-8.645 107.452 107.452 0 0 1-1.522-4.459c-.489-1.631-.924-3.153-1.251-4.676z"/><path fill="#FCCF31" d="M340.61 467.263s-33.925-72.585-.38-107.11c33.544-34.526 20.007-49.478 37.187-76.935 17.234-27.403 30.717-34.362 45.125-53.066 14.407-18.704 23.867-26.044 33.109-22.02 9.297 4.023 18.866 19.138 9.243 44.747-9.623 25.609 10.33 31.807 2.827 68.344-7.503 36.537-51.649 50.674-63.392 91.996-11.744 41.376-17.724 73.835-63.719 54.044z"/><path fill="#FDCEA9" d="M340.665 467.209c2.446-10.385 5.382-20.607 8.372-30.883a1261.796 1261.796 0 0 1 4.676-15.278c.761-2.555 1.631-5.056 2.446-7.612.816-2.555 1.686-5.056 2.501-7.612 6.796-20.226 14.299-40.18 22.617-59.862 4.186-9.787 8.536-19.574 13.211-29.197 1.142-2.393 2.393-4.785 3.589-7.177 1.196-2.393 2.392-4.785 3.642-7.123 1.251-2.338 2.447-4.73 3.752-7.068l3.914-7.014c2.718-4.621 5.328-9.243 8.264-13.756l2.12-3.371 2.229-3.316c1.522-2.23 2.936-4.459 4.513-6.634 6.198-8.699 12.885-17.126 20.605-24.466-6.85 8.21-12.831 16.963-18.376 25.989-1.468 2.229-2.773 4.513-4.132 6.796l-2.012 3.426-1.903 3.479c-1.25 2.338-2.609 4.622-3.86 6.96l-3.751 7.014c-4.784 9.46-9.514 18.921-13.918 28.599l-3.316 7.231a291.4 291.4 0 0 0-3.208 7.286c-1.087 2.446-2.175 4.839-3.208 7.285l-3.153 7.286a1595.472 1595.472 0 0 0-23.65 59.156 4101.461 4101.461 0 0 0-21.964 59.862z"/><path fill="#FDCEA9" d="M421.346 244.669a66.644 66.644 0 0 0-3.154 9.46c-.869 3.154-1.413 6.362-1.794 9.515-.217 1.577-.272 3.208-.38 4.785v2.392c-.055.816 0 1.577.054 2.393.109 3.153.707 6.252 1.359 9.297l-2.446-2.066c.707.054 1.576.054 2.338.054.815 0 1.631 0 2.446-.054a50.35 50.35 0 0 0 4.947-.435 58.761 58.761 0 0 0 9.678-1.957c.815-.218 1.576-.49 2.338-.762.761-.271 1.522-.598 2.283-.924 1.522-.652 3.045-1.359 4.458-2.175 2.936-1.631 5.654-3.697 8.21-6.089-.816 1.522-1.74 3.045-2.882 4.458-1.087 1.414-2.392 2.719-3.751 3.861-.653.598-1.414 1.141-2.121 1.685-.761.489-1.467 1.033-2.283 1.522-1.522.925-3.153 1.795-4.839 2.502-3.316 1.468-6.85 2.446-10.438 3.044a45.52 45.52 0 0 1-5.382.653c-.925.054-1.795.108-2.719.108-.924 0-1.794 0-2.827-.054h-.109a2.606 2.606 0 0 1-2.337-2.066c-.707-3.48-1.305-6.959-1.197-10.494-.054-1.739.164-3.479.327-5.274.272-1.739.489-3.479.978-5.11.816-3.371 1.958-6.634 3.48-9.733.38-.761.815-1.522 1.196-2.283a29.27 29.27 0 0 1 1.359-2.175c1.033-1.414 2.066-2.828 3.208-4.078zm-32.729 57.524a57.467 57.467 0 0 0-.653 7.395 52.893 52.893 0 0 0 .327 7.231l.271 1.74c.109.598.218 1.142.381 1.74.109.598.272 1.142.435 1.685.163.544.272 1.142.489 1.686l.598 1.631c.218.544.49 1.033.707 1.522l.381.761c.108.272.271.49.435.707l.869 1.414-.761-.761c.163.054.435.217.707.326l.816.381c.543.217 1.141.435 1.685.652 1.142.435 2.338.761 3.534 1.033 2.392.544 4.893.87 7.339.979 4.948.217 9.95-.49 14.843-1.958 4.893-1.413 9.568-3.534 14.135-6.089 4.567-2.556 8.971-5.492 13.32-8.645-3.316 4.241-7.122 8.101-11.471 11.418-4.35 3.316-9.134 6.144-14.408 7.992a41.904 41.904 0 0 1-16.636 2.61c-1.414-.054-2.827-.217-4.241-.435-1.413-.217-2.827-.489-4.186-.924a40.182 40.182 0 0 1-4.078-1.359c-.652-.272-1.304-.599-1.957-.87a8.853 8.853 0 0 1-.978-.544c-.163-.109-.327-.163-.49-.272l-.543-.326-.109-.055c-.272-.163-.489-.434-.652-.706-1.305-2.393-2.393-4.948-2.936-7.558-.544-2.61-.816-5.22-.761-7.829.108-2.61.434-5.166.978-7.612.707-2.284 1.468-4.73 2.61-6.96zm-33.001 61.222c.109 2.773.435 5.437.978 8.101.544 2.61 1.251 5.165 2.175 7.612.87 2.447 2.12 4.73 3.534 6.851l1.087 1.577 1.196 1.468c.218.217.381.489.598.706l.653.653 1.359 1.305-1.305-.653.816.055h.87c.598 0 1.196 0 1.848-.055.598 0 1.251-.054 1.849-.108.598-.055 1.25-.055 1.848-.163l1.849-.272c.598-.055 1.25-.218 1.848-.327.598-.108 1.25-.217 1.849-.38l1.794-.489c4.838-1.251 9.568-3.154 14.081-5.492l3.316-1.849.816-.434.815-.544 1.631-1.033 1.631-1.033.816-.544.761-.598 3.153-2.284c1.087-.706 2.066-1.576 3.045-2.446l3.044-2.501c1.957-1.74 3.86-3.535 5.926-5.274a129.923 129.923 0 0 1-4.512 6.633l-2.61 3.099c-.87 1.033-1.74 2.066-2.718 2.99l-2.936 2.828-.761.707-.761.652-1.577 1.25-1.577 1.251-.815.652-.87.544-3.425 2.229c-4.676 2.773-9.786 5.057-15.114 6.47l-2.012.49c-.652.163-1.359.272-2.066.38-.707.109-1.359.272-2.066.327l-2.066.217c-.706.109-1.413.109-2.066.163-.706.055-1.413.055-2.12.055-.707 0-1.413 0-2.12-.055-.381-.054-.707-.054-1.088-.108-.38-.055-.706-.055-1.141-.164l-.218-.054c-.435-.054-.815-.326-1.141-.598l-1.468-1.631-.707-.816c-.218-.272-.435-.598-.653-.87a35.974 35.974 0 0 1-1.25-1.794l-1.087-1.903c-1.36-2.61-2.393-5.328-2.991-8.101a40.02 40.02 0 0 1-.924-8.428c0-2.827.272-5.6.979-8.264zm-12.015 40.833c.489 3.099.924 6.198 1.359 9.243.435 3.044.924 6.089 1.413 9.134.49 2.99 1.142 5.981 1.849 8.862.38 1.468.815 2.828 1.305 4.187l.815 1.957.924 1.74-2.12-1.305h1.033c.381 0 .761 0 1.142-.054.761 0 1.576-.109 2.337-.163.762-.109 1.577-.218 2.338-.327.761-.163 1.577-.271 2.338-.434 3.099-.653 6.144-1.686 9.079-2.991 2.882-1.359 5.763-2.936 8.373-4.893 1.413-.925 2.61-2.012 3.914-3.099.707-.49 1.251-1.142 1.849-1.686.652-.598 1.25-1.142 1.903-1.74-.816 1.523-1.577 3.045-2.556 4.513-1.033 1.414-2.011 2.882-3.262 4.132-2.337 2.664-5.164 4.839-8.209 6.742-3.045 1.903-6.415 3.262-9.84 4.241-1.74.435-3.48.816-5.274 1.088-.924.108-1.794.217-2.718.271-.435.055-.925.055-1.36.055h-.706c-.218 0-.49 0-.762-.055h-.163c-.87-.054-1.576-.543-1.957-1.305l-1.25-2.392a41.789 41.789 0 0 1-.87-2.392c-.489-1.577-.924-3.208-1.196-4.785-.653-3.208-.925-6.361-1.088-9.515a91.888 91.888 0 0 1 .163-9.46c.109-1.577.272-3.154.49-4.676.163-1.794.38-3.371.707-4.893z"/><path fill="#FBB03B" d="M312.176 440.132s59.152-22.509 59.097-61.058c-.108-38.549 15.876-39.528 21.149-64.919 5.274-25.391 1.414-36.918 3.534-55.676 2.12-18.758.761-28.273-6.741-31.209-7.503-2.881-21.258.326-29.848 20.389s-23.378 12.397-39.199 37.516c-15.821 25.12 1.468 58.014-14.57 88.244-15.984 30.285-30.391 52.251 6.578 66.713z"/><path fill="#FDCEA9" d="M312.231 440.078c6.741-15.659 13.428-31.263 20.007-46.868a1676.317 1676.317 0 0 0 18.974-47.194c1.468-3.969 2.99-7.938 4.404-11.907 1.468-3.969 2.881-7.992 4.295-11.962 1.359-4.023 2.773-7.992 4.077-12.015 1.305-4.024 2.556-8.047 3.806-12.071l1.74-6.089c.598-2.012 1.087-4.078 1.685-6.09l.816-3.045.761-3.099c.489-2.066 1.033-4.078 1.468-6.198 1.903-8.264 3.371-16.583 4.077-25.065.49 8.536-.326 17.072-1.468 25.554-.271 2.121-.652 4.241-1.033 6.362l-.543 3.153-.653 3.154c-.815 4.186-1.848 8.373-2.827 12.505l-1.631 6.198a200.977 200.977 0 0 1-1.74 6.144c-1.141 4.132-2.446 8.156-3.751 12.234-2.61 8.101-5.491 16.148-8.481 24.14a639.343 639.343 0 0 1-20.17 46.977l-2.773 5.763c-.924 1.903-1.849 3.86-2.827 5.709a733.878 733.878 0 0 1-5.818 11.363c-3.914 7.558-7.992 15.061-12.395 22.347z"/><path fill="#FDCEA9" d="M388.671 267.45c.054 1.36-.109 2.719-.326 4.078-.109.653-.272 1.359-.381 2.012-.163.652-.326 1.305-.489 2.012-.761 2.664-1.849 5.219-3.208 7.666-.652 1.25-1.468 2.392-2.283 3.534-.87 1.087-1.686 2.229-2.719 3.262-1.902 2.121-4.186 3.861-6.524 5.492-.978.652-2.283.598-3.153-.163l-.054-.055c-.653-.543-1.142-1.033-1.686-1.576a42.035 42.035 0 0 1-1.522-1.632c-.979-1.087-1.848-2.283-2.718-3.425a37.857 37.857 0 0 1-4.187-7.721c-1.141-2.718-1.739-5.654-1.957-8.536l-.054-2.175c.054-.707.109-1.468.217-2.175l.109-1.087.272-1.033c.163-.707.381-1.359.544-2.066.38 2.827.706 5.491 1.631 8.047.869 2.501 1.848 4.948 3.207 7.177 1.305 2.229 2.773 4.404 4.458 6.47a44.996 44.996 0 0 0 2.556 2.936c.435.489.87.924 1.359 1.414.435.435.978.924 1.359 1.25l-3.208-.217c2.012-1.36 4.023-2.773 5.818-4.513.489-.435.924-.816 1.359-1.305l1.305-1.305c.815-.979 1.685-1.849 2.392-2.882a48.548 48.548 0 0 0 4.349-6.361c1.251-2.338 2.447-4.676 3.534-7.123zm-12.994 51.272c-.543 1.957-1.413 3.806-2.337 5.546-.979 1.794-2.175 3.48-3.534 5.056-1.359 1.577-2.991 2.991-4.73 4.187-1.794 1.196-3.806 2.12-5.926 2.773a1.808 1.808 0 0 1-.925.054l-.163-.054-.543-.109-.435-.109c-.326-.054-.598-.163-.87-.271a20.98 20.98 0 0 1-1.686-.599 23.903 23.903 0 0 1-3.153-1.522c-1.033-.544-2.011-1.196-2.936-1.849-.924-.706-1.848-1.413-2.664-2.174-3.425-3.099-6.143-6.905-8.046-11.038-1.957-4.077-3.045-8.481-3.643-12.831a49.944 49.944 0 0 1 .109-13.049c.924 4.241 1.903 8.373 3.153 12.288 1.305 3.969 2.773 7.775 4.785 11.254 1.957 3.48 4.404 6.634 7.285 9.298a32.493 32.493 0 0 0 4.621 3.534c.816.489 1.686.979 2.501 1.414.435.217.87.38 1.305.598l.652.272.544.217h-1.087c1.685-.381 3.37-.87 4.947-1.685.435-.164.816-.435 1.196-.653.381-.217.816-.435 1.196-.707.381-.272.761-.489 1.142-.761l1.142-.815c1.468-1.142 2.881-2.447 4.24-3.806a43.755 43.755 0 0 0 3.86-4.459zm-14.896 53.555c-.979 1.958-2.338 3.752-3.806 5.383-1.522 1.631-3.208 3.154-5.111 4.459a25.448 25.448 0 0 1-6.198 3.099l-1.685.543c-.598.109-1.142.218-1.74.327l-.87.163-.869.054-1.795.109c-.434.054-.869-.109-1.196-.326l-.217-.109c-.326-.218-.544-.381-.761-.598-.272-.163-.435-.381-.707-.544l-1.305-1.142c-.435-.38-.815-.815-1.196-1.196-.38-.435-.761-.815-1.142-1.25l-1.087-1.305c-.326-.435-.652-.925-.979-1.36-.326-.489-.652-.924-.978-1.413l-.87-1.414c-2.283-3.86-3.914-8.047-5.056-12.342l-.707-3.262-.163-.816-.109-.815-.217-1.632-.163-1.631-.055-.815v-.816c-.054-1.087-.054-2.175-.054-3.262-.054-1.087.054-2.175.163-3.262.109-1.088.163-2.175.272-3.208a80.815 80.815 0 0 1 1.25-6.307c.272 2.12.435 4.241.653 6.361l.435 3.099c.163 1.033.217 2.066.489 3.099.381 2.012.707 4.078 1.25 6.036.435 2.011 1.088 3.914 1.686 5.872 1.305 3.806 2.936 7.503 4.947 10.928l.761 1.305c.272.435.544.816.816 1.251a38.676 38.676 0 0 0 1.74 2.392c.271.381.598.761.924 1.142.326.38.652.761.978 1.087.327.381.653.707.979 1.033l.489.49.435.38-1.413-.489h2.12l.707-.055c.489-.054.978-.108 1.468-.108l1.468-.272c1.903-.381 3.86-.979 5.708-1.849 1.849-.815 3.697-1.848 5.437-2.99 1.903-1.251 3.643-2.556 5.274-4.024zm-15.658 30.122c-.598 1.087-1.305 2.175-2.012 3.208-.707 1.033-1.468 2.011-2.229 3.045-1.576 1.957-3.207 3.86-5.002 5.6-1.794 1.794-3.697 3.48-5.817 4.948a29.55 29.55 0 0 1-3.371 2.12c-.598.326-1.25.598-1.848.924l-2.066.707c-.816.272-1.685.054-2.283-.435l-.164-.109c-.217-.163-.326-.326-.489-.435a2.736 2.736 0 0 0-.435-.38 10.318 10.318 0 0 1-.761-.816 38.994 38.994 0 0 1-1.414-1.685c-.924-1.142-1.685-2.393-2.446-3.643a31.648 31.648 0 0 1-3.262-8.101c-.652-2.828-1.033-5.709-.816-8.537.109-2.827.762-5.6 1.74-8.21.109.707.163 1.36.218 2.066.054.653.054 1.36.217 2.012.218 1.359.326 2.664.653 3.915.489 2.555 1.304 5.056 2.229 7.394.924 2.338 2.12 4.568 3.533 6.688.327.544.707 1.033 1.088 1.522l1.141 1.468c.381.49.816.979 1.197 1.414.217.218.434.435.598.652l.326.327.272.272-2.447-.599c.489-.163.924-.326 1.414-.434l1.468-.653a40.625 40.625 0 0 0 2.99-1.631 79.479 79.479 0 0 0 5.926-3.915c1.957-1.413 3.914-2.827 5.926-4.295 1.848-1.522 3.86-2.99 5.926-4.404z"/><path fill="#D1D4E5" d="M185.664 487c102.539 0 185.664-3.968 185.664-8.862 0-4.895-83.125-8.863-185.664-8.863C83.124 469.275 0 473.243 0 478.138 0 483.032 83.125 487 185.664 487z"/><path fill="#CABADD" d="M306.522 387.827l-30.282-52.468a26.508 26.508 0 0 0-22.997-13.266h-60.566c-9.459 0-18.213 5.056-22.997 13.266l-30.282 52.468a26.58 26.58 0 0 0 0 26.533l30.282 52.468a26.509 26.509 0 0 0 22.997 13.267h60.566c9.459 0 18.213-5.057 22.997-13.267l30.282-52.468a26.58 26.58 0 0 0 0-26.533zM222.96 433.39c-18.594 0-33.708-15.061-33.708-33.71s15.06-33.71 33.708-33.71c18.594 0 33.708 15.061 33.708 33.71s-15.114 33.71-33.708 33.71z"/><path fill="#BAAECC" d="M192.677 322.093c-9.459 0-18.213 5.057-22.997 13.267l-30.282 52.467a26.58 26.58 0 0 0 0 26.533l3.37 5.818s9.569-4.839 9.025-14.68c-.543-9.841 3.208-19.573 21.258-21.803 6.578-.815 12.504.925 18.539 3.48 4.947-12.451 17.126-21.259 31.316-21.259a33.572 33.572 0 0 1 25.77 12.016c6.687-18.486 8.59-43.932 5.11-55.893h-61.109v.054z"/><path fill="#DDDFF3" d="M345.667 387.827l-30.283-52.467a26.509 26.509 0 0 0-22.997-13.267h-60.565c-9.46 0-18.213 5.057-22.997 13.267l-30.283 52.467a26.58 26.58 0 0 0 0 26.533l30.283 52.468a26.509 26.509 0 0 0 22.997 13.267h60.565c9.46 0 18.213-5.057 22.997-13.267l30.283-52.468a26.58 26.58 0 0 0 0-26.533zm-83.563 45.563c-18.593 0-33.707-15.06-33.707-33.71 0-18.649 15.06-33.71 33.707-33.71 18.594 0 33.708 15.061 33.708 33.71 0 18.65-15.114 33.71-33.708 33.71z"/><path fill="#D1D4E5" d="M251.829 367.602c4.077-16.747 4.839-35.668 2.011-45.509h-22.018c-9.46 0-18.213 5.057-22.998 13.267l-28.053 48.553c14.462 2.283 27.129 14.68 47.626 15.767 0-15.006 9.84-27.783 23.432-32.078zm125.969 98.465s75.624 2.773 50.67 12.777c-24.955 10.005-84.595 7.232-104.005 8.102-19.409.815 7.558-10.929 7.558-10.929l45.777-9.95z"/><path fill="#F4F0E5" d="M14.625 160.014s69.535-28.926 198.277-22.999c0 0-42.624-12.179-64.588-11.092 0 0-12.233-20.063-32.729-17.018 0 0-15.984-19.247-49.91-11.092-33.925 8.156-33.707 32.84-33.707 32.84s-20.986 19.03-17.343 29.361z"/><path fill="url(#paint0_linear)" d="M212.902 137.015s-42.624-12.179-64.588-11.092c0 0-12.233-20.063-32.729-17.018 0 0-15.984-19.247-49.91-11.092-7.013 1.686-12.558 4.078-16.962 6.851 0 0 32.566-8.482 47.462 13.266 0 0 27.836-12.668 43.059 16.475l7.666 2.555c19.79-.978 41.863-1.087 66.002.055z"/><path fill="#F4F0E5" d="M284.558 38.168s-90.413-13.103-161.688 9.624c0 0 16.419-10.33 28.651-14.571 0 0 5.6-13.05 17.235-14.898 0 0 5.437-17.399 21.149-18.16 0 0 26.313-3.915 42.08 22.346-.055.055 27.999 5.71 52.573 15.66z"/><path fill="url(#paint1_linear)" d="M189.85.217c-3.262.164-6.089 1.034-8.481 2.338 0 0 18.267 5.71 23.976 15.605 0 0 16.582.761 22.562 16.311 32.838.272 56.651 3.752 56.651 3.752-24.574-9.95-52.628-15.605-52.628-15.605-15.82-26.315-42.08-22.4-42.08-22.4z"/><path fill="#F4F0E5" d="M488 149.302s-72.852-38.82-200.452-50.782c0 0 26.695-11.2 61.925-4.621 0 0 15.168-15.116 40.449-10.005 0 0 15.984-25.445 50.181-13.43 34.197 12.017 32.348 46.868 32.348 46.868s15.06 10.657 15.549 31.97z"/><path fill="url(#paint2_linear)" d="M472.397 117.332s1.848-34.906-32.349-46.867a57.98 57.98 0 0 0-7.013-2.012c.598.38 21.475 12.777 22.399 39.799 0 0 10.384 14.952 7.829 30.122C479.519 144.79 488 149.302 488 149.302c-.489-21.313-15.603-31.97-15.603-31.97z"/><path fill="#27363B" d="M384.92 443.938s4.784-1.25 6.904-2.501c2.121-1.25 7.666-1.033 10.874-1.142 3.207-.108 7.557 10.222 7.557 10.222s0 9.243 1.359 12.614c1.359 3.371 4.349 7.775 5.382 10.439 0 0-20.659 1.468-28.869.544l-3.207-30.176z"/><path fill="#000" d="M416.996 473.57c-1.033-2.664-4.023-7.068-5.382-10.439-1.359-3.371-1.359-12.614-1.359-12.614s-4.35-10.276-7.557-10.222c-6.089 4.133-6.905 7.721-6.905 7.721l-1.359 5.763-7.883 6.036 1.522 14.245c8.209.924 28.923-.49 28.923-.49zm-21.964-30.774s-1.087 1.033-2.718 1.414-1.523-.326-1.523-1.033c0-.707 2.392-1.033 3.045-1.577.652-.543 2.175.435 1.196 1.196zm-8.536 5.383s2.175-1.468 2.719-2.392c.543-.924 2.229-.435 2.283.87.054 1.25-5.219 2.501-5.002 1.522zm8.862-5.274s1.088-1.577 2.61-.598c1.413.979-3.371 1.251-2.61.598z"/><path fill="#27363B" d="M341.372 466.828l-5.491-10.765-7.394-7.503s-2.338-3.099-9.406-2.066c-7.013 1.033-14.787 7.231-14.787 7.231l-2.284 5.709-7.176 6.198-5.111 9.896 51.268 1.25.381-9.95z"/><path fill="#000" d="M341.045 476.887l.326-10.059-5.491-10.765-3.099-3.099-2.12 7.231-7.122 3.045-16.039 1.033s-5.98-.653-13.374 2.936l-4.349 8.427 51.268 1.251zm-20.714-26.479s-1.794 1.36-4.186 1.523c-2.392.163-2.175-.761-2.011-1.74.163-.979 3.697-1.033 4.73-1.74.978-.761 3.044 1.087 1.467 1.957zm-13.483 6.199s3.426-1.74 4.459-2.991c1.033-1.25 3.37-.217 3.153 1.686-.218 1.957-8.155 2.773-7.612 1.305zm13.919-5.981s1.903-2.066 3.914-.381c1.903 1.74-5.11 1.196-3.914.381z"/><path fill="#000" d="M289.777 475.636s-3.751 4.35 27.401 2.61c0 0 23.813.979 23.922-1.305.054-2.283-26.368-5.165-26.368-5.165l-24.955 3.86z"/><path fill="#0E296A" d="M358.334 467.1s22.073-55.947 67.578-73.346c0 0-2.664 21.041-10.275 27.675l-7.013 3.534 7.502-1.577s-14.896 20.498-49.474 43.279l-8.318.435z"/><path fill="#FCCF31" d="M358.497 477.159s31.098-47.248 91.011-46.705c0 0-55.727 14.137-84.976 50.293l-6.035-3.588zm2.175-11.092s-28.434-47.248 7.992-104.446c0 0-44.69 33.982-20.986 104.174l12.994.272z"/><path fill="#094492" d="M350.397 460.848s-18.703-61.494 57.466-95.421c0 0 .543 25.01-3.969 31.372l-2.936 2.99 4.023-1.903s-2.827 26.424-37.296 63.94l-17.288-.978z"/><path fill="#0B224F" d="M360.074 462.479c.108-3.698.489-7.286 1.087-10.875.598-3.588 1.305-7.068 2.229-10.547 1.794-6.906 4.35-13.593 7.34-20.063.761-1.631 1.522-3.208 2.392-4.785.761-1.631 1.685-3.153 2.555-4.73 1.794-3.099 3.643-6.198 5.654-9.189 3.969-6.035 8.319-11.853 12.777-17.779-6.035 4.295-11.417 9.46-16.202 15.224-2.392 2.827-4.567 5.926-6.633 9.08-2.011 3.153-3.805 6.47-5.436 9.841-3.154 6.796-5.491 14.082-6.579 21.531-.543 3.697-.815 7.503-.707 11.2.055 1.849.164 3.752.435 5.6.109.925.272 1.849.435 2.773.163.924.327 1.794.653 2.719z"/><path fill="#094492" d="M353.93 475.908s0-62.037-50.018-97.215c0 0-.598 71.009 35.557 97.868l14.461-.653z"/><path fill="#0B224F" d="M348.493 476.126c-1.576-6.579-3.751-12.94-6.034-19.193a341.721 341.721 0 0 0-7.557-18.595 291.454 291.454 0 0 0-8.808-18.051c-1.576-2.936-3.207-5.872-5.002-8.754-1.739-2.881-3.588-5.709-5.654-8.373 2.066 6.416 4.35 12.669 6.742 18.921 2.392 6.199 5.002 12.342 7.72 18.432 2.718 6.09 5.545 12.125 8.59 18.051 3.153 5.981 6.307 11.907 10.003 17.562z"/><path fill="#000" d="M335.772 474.984l6.632-9.026 2.501-10.928s2.882-4.73 9.678-5.709c6.796-.979 20.333-4.023 20.333-4.023s9.188 4.621 13.483 7.829c4.295 3.208 3.099 12.614 7.34 16.964 4.24 4.349 4.947 6.905 4.947 6.905s-33.653 5.926-54.857 4.839c-21.148-1.033-11.145-5.383-10.057-6.851z"/><path fill="#27363B" d="M359.367 457.911c-1.957 3.263-.979 5.057-3.371 8.101-2.392 3.045-17.832 5.764-17.832 5.764l-2.392 3.262c-1.088 1.468-11.091 5.763 10.112 6.851 21.203 1.087 54.856-4.839 54.856-4.839s-.706-2.556-4.947-6.905c-4.241-4.35-3.099-13.811-7.34-16.964-4.295-3.208-13.483-7.829-13.483-7.829-12.232 4.132-13.646 9.351-15.603 12.559z"/><path fill="#000" d="M385.844 463.784s-2.718-1.523-4.35-4.568c-1.631-3.044-.271-3.262 1.142-3.588 1.414-.326 3.371 4.187 4.948 5.111 1.522.924.326 4.621-1.74 3.045zm-15.604-13.811s4.187 3.426 6.307 4.024c2.175.598 2.175 4.186-.38 5.056-2.556.816-8.101-8.971-5.927-9.08zm15.549 14.517s3.752 1.305 2.664 4.785c-1.087 3.48-4.349-5.818-2.664-4.785z"/><path fill="#FAD3DB" d="M220.459 198.562l-3.914-17.942-23.705 4.187-2.881 17.453 9.569 6.415 16.147-2.664 4.784-7.449z"/><path fill="#F8ADB0" d="M182.021 166.538s-8.427 1.686-10.819-2.936c-2.392-4.622-4.023-12.016-3.534-14.354.49-2.338 1.686-2.447 5.383-2.773 3.642-.326 8.427 5.872 8.427 5.872l.543 14.191z"/><path fill="#FAD3DB" d="M168.103 148.052a5.06 5.06 0 0 0-.435 1.196c-.489 2.338 1.142 9.787 3.534 14.354.163.326.381.652.598.924.055 0 3.643.163 5.057.49 1.413.326-2.447-2.719-3.317-16.094.054 0-3.208-1.523-5.437-.87z"/><path fill="#F8ADB0" d="M221.818 165.994s8.482 1.414 10.711-3.262c2.229-4.676 3.697-12.125 3.153-14.463-.544-2.283-1.74-2.392-5.437-2.609-3.697-.218-8.264 6.144-8.264 6.144l-.163 14.19z"/><path fill="#FAD3DB" d="M235.736 148.324s-4.077-1.74-4.458-1.142c-.38.598-2.174 15.169-2.174 15.169s.598 2.773 3.533.435c2.175-4.675 3.643-12.179 3.099-14.462z"/><path fill="#F8ADB0" d="M179.738 146.366s-1.848 29.089.489 34.145c2.338 5.057 11.2 13.43 13.647 14.789 2.446 1.414 16.419.925 18.539-.272 2.12-1.196 13.211-9.569 13.7-16.528.49-6.96 2.121-27.295-.489-36.048-2.61-8.754-19.192-15.17-19.192-15.17l-26.911 4.404.217 14.68z"/><path fill="#FAD3DB" d="M221.71 156.044l-4.241 3.1s2.229-11.908 1.522-13.267c-.706-1.359-8.698-3.099-10.493-3.045-1.794 0-10.275.163-10.275.163l-8.318-8.645-.979 5.166s-4.512 8.808-4.675 9.678c-.163.87-2.991 17.725-2.991 17.725s1.033 11.581 2.23 13.429c1.25 1.849 11.471 10.439 12.667 10.929 1.196.489 12.505 0 14.407-.218 1.903-.217 11.091-10.113 12.233-12.179 1.142-2.066 2.229-11.2 2.012-12.831-.218-1.74-3.099-10.005-3.099-10.005z"/><path fill="#381427" d="M174.247 141.636s2.501 22.945 4.784 24.956c0 0 3.752-20.878 3.752-23.705 0-2.828-3.208-13.321-3.208-13.321l6.742-1.903 20.224-.272 20.768 9.515s3.861 10.222-.326 29.088c0 0-4.023-20.552-4.675-23.597-.653-3.099-8.21-7.612-8.21-7.612l-12.232-10.874-25.009 10.005-2.61 7.72z"/><path fill="#521C36" d="M219.535 154.957s14.027-11.418 15.331-15.387c1.36-3.915-3.044-16.855-6.687-17.235-3.642-.435-20.931-9.189-25.77-9.407-4.838-.163-12.559.598-13.863 2.338-1.305 1.74-3.48 7.612-3.48 7.612s-3.044-3.262-5.654-2.555c-2.61.707-13.592 8.319-13.048 10.33.543 2.066 4.403 10.168 6.361 12.288 1.957 2.066 6.959 5.437 9.025 4.839 2.066-.598 6.578-10.276 6.524-12.831-.055-2.556-2.012-4.568-2.012-4.568s4.784 1.414 6.742 3.752c1.957 2.338 4.295 6.307 6.252 5.926 1.957-.435 11.798-1.685 16.038-.217 4.241 1.468 5.437 3.099 6.633 4.893 1.196 1.849-3.643 8.972-2.392 10.222z"/><path fill="#42172E" d="M228.777 140.875c-.109-3.208-4.403-6.361-4.403-6.361s-6.198-1.903-12.179.163c-5.98 2.066-12.124 3.044-13.863 2.175-1.74-.816-4.893-7.123-12.777-7.558 0 0 1.088 5.655.925 6.688-.164 1.033-2.828 9.134-4.676 11.798 2.066-.598 6.578-10.276 6.524-12.831-.054-2.556-2.012-4.568-2.012-4.568s4.785 1.414 6.742 3.752c1.957 2.338 4.295 6.307 6.252 5.926 1.957-.435 11.798-1.685 16.039-.217 4.24 1.468 5.436 3.099 6.632 4.893 1.196 1.795-3.642 8.917-2.392 10.222 0 0 5.328-4.35 9.732-8.645h-1.849c-.108.054 1.414-2.229 1.305-5.437z"/><path fill="#003F88" d="M232.637 124.074s5.111-38.766-28.597-38.06h-1.305c-33.707-.706-28.597 38.06-28.597 38.06-5.491 1.631-4.349 3.969-4.349 3.969.978 4.676 32.892 6.471 32.892 6.471h1.305s31.913-1.795 32.892-6.471c.108 0 1.305-2.338-4.241-3.969z"/><path fill="#00296B" d="M204.094 134.514s31.914-1.795 32.893-6.471c0 0 1.196-2.338-4.35-3.969 0 0 5.111-38.766-28.597-38.06h-1.305c-33.707-.706-28.597 38.06-28.597 38.06-5.491 1.631-4.349 3.969-4.349 3.969.978 4.676 32.892 6.471 32.892 6.471s-48.333-8.863-14.244-8.21l-11.309-4.894s-.598-21.204 7.557-25.717c8.155-4.459 24.139-6.09 37.351 0 13.156 6.089 7.176 25.826 7.176 25.826l-10.928 4.73s14.571-.544 12.287 1.359c-2.174 2.012-26.477 6.906-26.477 6.906z"/><path fill="#fff" d="M217.36 115.429c-1.414 0-2.555-1.033-2.61-2.338l-.924-24.52c0-.544.163-1.088.544-1.578l.326-.38.435.163c2.718.87 5.219 2.12 7.394 3.806l.489.38-.326.544a.779.779 0 0 0-.109.38l-2.61 21.477c-.163 1.142-1.304 2.066-2.609 2.066zm-2.121-27.13v.217l.925 24.521c0 .544.543 1.033 1.196 1.033.598 0 1.142-.38 1.196-.924l2.61-21.477c0-.108.054-.217.054-.272-1.794-1.304-3.806-2.338-5.981-3.099zm3.262 39.418l-.163-1.359c2.936-.326 14.081-2.882 14.19-2.936l.326 1.359c-.489.055-11.417 2.556-14.353 2.936zm-29.031-12.288c-1.305 0-2.447-.924-2.61-2.174l-2.61-21.477c0-.109-.054-.217-.108-.38l-.327-.544.49-.38a24.41 24.41 0 0 1 7.394-3.807l.435-.163.326.38c.38.436.543.98.543 1.577l-.924 24.522c-.054 1.413-1.196 2.446-2.609 2.446zm-3.86-24.086c0 .109.054.218.054.272l2.61 21.476c.054.544.598.925 1.196.925.652 0 1.196-.435 1.196-1.033l.924-24.522v-.217a25.887 25.887 0 0 0-5.98 3.1zm2.718 36.374c-2.99-.326-13.864-2.827-14.353-2.936l.326-1.359c.109 0 11.308 2.555 14.19 2.936l-.163 1.359z"/><path fill="#2C2632" d="M112.106 445.189l-8.264 30.447s-1.305 5.655-5.545 5.601c-4.24 0-18.159-2.828-18.159-2.828s-1.522-3.751-3.208-5.654c-1.685-1.903-5.6-1.903-5.6-1.903l-5.436 4.404-33.98-5.22s-2.5-19.193 8.971-19.845c11.471-.653 30.935 1.196 37.894-10.983 6.905-12.233 33.327 5.981 33.327 5.981z"/><path fill="#251F2D" d="M105.744 445.461l-9.786 30.447s-12.994.87-14.516-3.479c-1.468-4.35-9.84-5.22-9.84-5.22l-7.992 1.849-31.914-4.513c-.109 3.099.217 5.491.217 5.491l33.98 5.22 5.437-4.404s3.914 0 5.6 1.903c1.685 1.957 3.207 5.654 3.207 5.654s13.973 2.828 18.159 2.828c4.24 0 5.545-5.601 5.545-5.601l8.047-29.686-6.144-.489z"/><path fill="#2C2632" d="M133.417 372.495l10.547 29.686s2.121 5.383-1.359 7.775c-3.479 2.393-16.527 8.047-16.527 8.047s-3.371-2.175-5.872-2.827c-2.447-.652-5.654 1.631-5.654 1.631l-1.958 6.742-30.88 15.061s-12.994-14.3-3.915-21.422c9.08-7.123 26.097-16.638 24.846-30.611-1.305-14.028 30.772-14.082 30.772-14.082z"/><path fill="#251F2D" d="M128.361 376.355l9.351 30.611s-10.221 8.101-13.918 5.437c-3.697-2.718-11.091 1.305-11.091 1.305l-5.491 6.035-28.815 14.463c1.686 2.61 3.317 4.404 3.317 4.404l30.88-15.061 1.958-6.742s3.207-2.229 5.654-1.631c2.446.652 5.871 2.827 5.871 2.827s13.103-5.6 16.528-8.047c3.48-2.392 1.359-7.775 1.359-7.775l-10.275-28.979-5.328 3.153z"/><path fill="#fff" d="M132.71 260.6s26.477-40.344 29.576-46.216c3.153-5.817 18.594-8.645 22.291-9.46h14.461l27.347-2.664s19.3 5.817 25.988 12.559c6.687 6.742 15.712 51.109 23.758 64.158s-30.065 19.302-43.929 16.148l-3.588-22.944-46.212-2.936-22.182 10.928-27.51-19.573z"/><path fill="#E0E0E0" d="M252.427 214.874c-3.588-3.589-10.873-6.96-16.799-9.298-1.468.381-2.882.598-4.078.544-6.252-.326-9.623 16.583-11.145 22.183-1.468 5.601-8.482 12.995-8.482 12.995s-11.471-2.338-16.582-6.253c-5.056-3.86-7.883-26.37-7.883-26.37l12.396 4.241 2.99-1.739 3.806 1.739s14.135-6.361 14.896-7.231c.762-.87 7.068-.815 7.068-.815h5.165a158.002 158.002 0 0 0-7.394-2.556l-27.347 2.664h-14.461c-.979.218-2.827.598-5.002 1.088l7.883 39.31 37.296 7.394s12.613 14.789 19.137 14.898c6.524.109 19.301 3.045 17.942.707-1.36-2.338-11.689-3.045-14.571-3.698-2.936-.652-1.359-2.936-2.664-7.394-1.359-4.458.435-16.583 1.577-18.812 1.142-2.229-2.99-.272-7.34-2.012-4.349-1.74-3.914 2.664-2.555 5.383 1.359 2.664-1.142 6.035-2.936 4.023-1.794-2.012-2.446-8.536-2.446-11.418 0-2.936 7.176-21.748 7.937-23.977.761-2.229 4.187 1.087 7.775 2.501 3.588 1.413 2.936 7.122 5.002 5.763 2.065-1.359 10.275 26.533 11.906 32.949 1.631 6.416 10.167 22.292 7.176 20.878-2.99-1.468 1.033 5.165 1.958 5.764.87.598 5.382 2.99-1.033 7.448-6.416 4.459-28.108 7.177-31.207 6.416-3.099-.761-5.274-18.377-4.839-19.628.435-1.25 4.839-2.175 4.839-2.175l-10.493-1.631-.435 8.537 2.827 17.942c13.918 3.153 52.03-3.154 43.929-16.148-8.101-13.104-17.071-57.525-23.813-64.212zm-93.24 64.538l25.39-19.247-7.285-53.556c-5.818 1.523-12.994 4.024-15.006 7.775-3.153 5.818-29.576 46.216-29.576 46.216l26.477 18.812zm-18.593-28.219c1.794-5.491 23.976-34.688 25.715-36.156 1.795-1.468 7.938-6.525 8.427-3.861.49 2.665 3.371 20.879 0 27.186-3.37 6.253-4.621 1.25-7.231 1.849-2.609.598-4.023-2.338-4.24-3.861-.218-1.522-2.12-.489-1.468 2.175.652 2.664-.979 17.942-3.751 21.205-2.773 3.262-4.024 5.817-5.818 4.73-1.794-1.087-9.623-7.068-9.623-4.73 0 2.338 5.6 8.862 5.6 8.862l1.631 4.241-11.743-8.319 2.446-2.229c.055-.054-1.739-5.6.055-11.092z"/><path fill="#F3F5F7" d="M232.474 222.159s-6.143 16.801-3.534 20.988c2.555 4.186 9.134 12.559 9.895 10.765.761-1.794-1.033-13.266-2.555-15.768-1.523-2.501 3.588.979 6.85 0 3.262-.978-3.588 6.471 0 25.011 0 0 .272 2.664 4.458 2.99 4.186.272 12.559 2.338 12.559 2.338s-11.145-.706-19.898 1.251c-8.754 1.957-16.311-18.051-16.311-18.051l-64.153 20.008-3.697-2.718s1.414-6.633 3.697-9.352c2.284-2.664 4.948-13.756 3.48-19.737-1.468-5.98 1.576 3.861 4.24 1.958 2.664-1.903-3.316 11.2-1.522 10.928 1.794-.272 12.504-6.905 12.559-23.053 0-16.148 10.601-.272 10.601-.272s9.134 16.094 31.262 2.066l12.015-22.727.054 13.375z"/><path fill="#00296B" d="M175.987 204.761s5.001 38.331 2.337 42.518c-2.664 4.186-15.82 12.831-17.343 17.942-1.468 5.057 0 54.48 0 54.48l68.449 22.401 12.504-13.539s.054-61.548-2.936-66.604c-2.99-5.057-16.147-13.43-14.353-20.607 1.794-7.177 15.549-33.329 12.831-36.537 0 0-3.86-3.208-6.252-2.338-2.392.87-10.439 33.764-14.625 35.559-4.186 1.794-24.792 1.196-25.988-.87-1.196-2.066-3.86-35.287-8.046-34.852-4.295.435-6.85.381-6.578 2.447z"/><path fill="#CB551E" d="M198.93 304.694s5.382-3.86 7.774-4.458c2.392-.598 14.353-1.196 16.147 0 1.794 1.196 2.284 1.577 6.089 1.903 3.806.326 12.777 2.61 12.777 2.61l-.381-16.257-45.125 4.893-6.252 11.364h8.971v-.055z"/><path fill="#00296B" d="M105.364 381.684s-6.035-80.741 8.753-94.171c14.788-13.429 57.846 19.519 57.846 19.519l36.318 25.99-41.048 11.689-30.282-16.148v24.195l-17.506 44.421-14.081-15.495z"/><path fill="#003F88" d="M187.458 338.948l-6.741-20.226-13.647-15.169c-11.688-8.102-41.21-26.697-52.953-15.985-.653.598-1.305 1.359-1.903 2.229 6.415.924 15.821-2.012 18.485-1.305 2.718.707 37.024 35.395 38.22 38.005 1.196 2.61-5.002 1.631-9.025 2.284-3.969.652-15.767-2.665-19.572-4.459-3.806-1.794-8.047-12.777-8.536-8.047-.435 4.731-6.741 34.091-6.741 34.091l-12.94 5.763-7.502 11.69c.163 3.806.326 7.014.489 9.352l6.796 1.794 9.405-6.09 9.46-4.295 6.252-15.876v-24.195l30.283 16.148 20.17-5.709z"/><path fill="#00296B" d="M128.089 351.943s4.73-25.718 4.567-29.306c-.163-3.589 8.536 6.579 14.516 8.373 5.98 1.794 16.908 1.685 21.693-.761 4.784-2.447 14.679 9.786 14.679 9.786l-16.311 4.676-30.282-16.148v24.195l-8.862-.815z"/><path fill="#00296B" d="M77.745 444.264s25.553-75.358 37.024-84.111c11.417-8.754 74.918-40.452 74.918-40.452l52.193 8.862s4.023 31.644-39.036 39.691c-43.059 8.047-58.553 12.777-63.229 22.183-4.73 9.406-29.576 63.886-29.576 63.886l-32.294-10.059z"/><path fill="#003F88" d="M241.88 328.563s0-21.476-.544-40.125h-25.498l-42.624 11.254s-11.363-15.604-11.363-18.323c0-2.718.924-10.765 1.794-13.701s11.961-14.082 15.93-18.541c3.969-4.458-2.61-36.211-2.61-36.211 1.196-4.893.381-6.307 2.61-8.047 2.283-1.794 7.013 8.047 7.013 8.047-1.141-6.035-2.555-10.819-4.132-10.602-4.186.435-6.741.435-6.524 2.501 0 0 5.002 38.332 2.338 42.518-2.664 4.187-15.821 12.832-17.343 17.943-.816 2.772-.761 18.921-.489 32.894 4.893 5.926 9.405 11.037 11.471 13.375 5.382 6.035 27.782-1.577 31.479-3.371 3.642-1.794 8.916-4.023 11.145-5.165 2.229-1.142 6.035-.653 10.33 1.74 4.24 2.392-15.223 17.181-15.223 17.181l-26.205-6.633s-5.491 4.947-8.916 8.917l3.914 1.25c-1.957.979-4.132 2.066-6.415 3.262 1.631 1.686 4.675 5.927 9.133 12.071 4.513 6.144.87 14.082 1.088 17.181.217 3.153-21.747 9.406-31.37 13.212-9.623 3.806-12.668-2.229-12.668-2.229-1.685 15.495-34.033 71.552-34.033 71.552l-23.16-5.546c-.599 1.686-1.143 3.154-1.578 4.404l13.049 9.461 19.246 1.794c5.654-12.397 23.921-52.305 27.89-60.189 4.73-9.406 20.17-14.136 63.229-22.183s39.036-39.691 39.036-39.691zm-4.404-123.802s-3.86-3.208-6.252-2.338c-.816.326-2.338 4.458-4.132 9.787 1.087-3.317 4.132-9.787 8.59-6.688 1.033.761 1.359 2.773 1.142 5.383.978-3.045 1.359-5.329.652-6.144z"/><path fill="#E0E0E0" d="M241.01 280.445c-.435-9.406-1.087-16.855-2.012-18.486-1.848-3.154-7.665-7.612-11.308-12.234 2.881 5.003 7.122 12.18 8.644 14.191 2.229 2.991-.326 11.201 4.676 16.529z"/><path fill="#00296B" d="M173.703 327.802l12.831 12.94c.87 12.941 5.382 16.964 2.229 20.335-3.153 3.371-23.324 5.818-34.523 11.853-11.2 5.981-14.353-2.882-14.788 3.86-.435 6.742-35.285 73.727-35.285 73.727l3.589 3.099 2.338.761s24.9-54.479 29.575-63.885c4.73-9.407 20.17-14.137 63.229-22.184s39.036-39.69 39.036-39.69l-52.193-8.863-16.038 8.047z"/><path fill="#CABADD" d="M77.745 200.03v13.919l12.776 10.331v13.864l29.196 3.643-5.383-26.913-36.589-14.844zm212.902 133.698s3.045 15.714-4.621 20.607l-34.958-20.607-18.05 4.459-2.175 30.774-18.92-2.882 6.416-46.269 48.006-3.48 24.302 17.398z"/><path fill="#CABADD" d="M252.971 385.272l-1.414 11.907s-32.512 12.016-46.593-16.583c-14.081-28.653 31.261 0 31.261 0l16.746 4.676zM56.379 255.597s20.279 26.37 59.749 16.584l75.408 70.41 11.906 7.721 1.577-30.611-90.685-62.255-57.955-1.849z"/><path fill="#DDDFF3" d="M129.557 249.127l86.118 63.995s20.605-23.325 53.823-7.177c33.164 16.148 17.506 40.832 17.506 40.832l-33.979-22.89-29.25 7.177-2.12 31.046 31.424 23.216s-23.432 19.737-50.126-6.742c0 0-20.877-23.76-7.829-44.421l-80.355-70.41s-31.37 17.508-61.87-11.2c0 0-12.993-12.56 0-32.297l21.095 19.737 24.683-2.664-1.795-19.845L77.8 200.085s18.594-21.096 43.712 4.458c0 0 19.246 17.399 8.046 44.584z"/><path fill="#CABADD" d="M196.972 299.203l-11.362-2.61s-19.518 9.787-9.569 13.375c9.949 3.589 16.093.218 19.898-2.936 2.828-2.283 4.893-3.697 5.818-4.241l-4.785-3.588z"/><path fill="#FAD3DB" d="M226.113 272.181s-24.193 9.515-34.36 11.744c-10.167 2.229-18.811 4.295-22.725 13.592-3.861 9.243 4.077 10.331 7.013 12.451 2.936 2.066 12.396-.163 15.712-4.947 3.316-4.785 7.992-9.189 13.266-9.08 5.273.108 20.387-.653 29.738-.381 9.352.326.218-13.375-2.935-18.377-3.154-5.002-5.709-5.002-5.709-5.002z"/><path fill="#F8ADB0" d="M221.601 273.921l.815 18.214s-19.409 1.305-24.356 3.806c0 0 1.196-1.523 3.044-2.447 1.849-.87-4.567.598-7.992 5.546s-7.992 8.536-9.514 8.971c-1.522.435 2.664-3.86 4.73-6.579 2.066-2.664-6.415 7.34-8.644 7.449-2.229.163-2.827-.761-2.066-2.066.761-1.359 3.86-3.154 4.784-4.785.87-1.631.598-3.153.598-3.153s-.544 1.957-2.12 3.534c-1.577 1.577-4.839 4.948-6.253 4.35-1.467-.544-.761-2.284.87-3.861 1.686-1.522 5.491-4.023 5.818-5.328.326-1.359-7.177 6.252-8.047 6.416-.815.163-2.283-.49-2.718-1.74-.435-1.251 6.741-4.676 7.72-6.362 1.033-1.685-7.34 4.894-8.644 4.296-.979-.49-.653-2.447.108-4.078-.217.435-.435.87-.652 1.359-3.86 9.243 4.078 10.331 7.013 12.451 2.936 2.066 12.396-.163 15.712-4.948 3.263-4.784 7.992-9.188 13.266-9.08 4.295.055 15.114-.435 24.03-.435l.87-19.519-3.044-3.479-5.328 1.468z"/><path fill="#fff" d="M228.668 272.181l3.589 22.944c13.918 3.154 52.029-3.153 43.928-16.148-1.631-2.664-3.316-6.633-5.056-11.309l-21.692 1.631c0-.054-9.841.87-20.769 2.882z"/><path fill="#E0E0E0" d="M261.887 268.375l-6.688.489c4.132.489 7.394.707 6.688-.489z"/><path fill="#E0E0E0" d="M276.185 278.977c-.163-.272-.38-.598-.543-.924-.055-.055-.055-.109-.109-.218-.163-.326-.381-.652-.544-1.033-.054-.054-.054-.109-.108-.163-.164-.381-.381-.707-.544-1.087 0-.055 0-.055-.055-.055-.163-.38-.38-.815-.543-1.25-.055-.055-.055-.163-.109-.218-.163-.435-.381-.87-.544-1.359 0-.054-.054-.109-.054-.109-.163-.435-.381-.924-.544-1.413 0-.055-.054-.055-.054-.109-.217-.49-.381-.979-.598-1.523 0-.054-.054-.108-.054-.217-.218-.544-.381-1.088-.598-1.631l-1.197.109c1.251 3.207 1.903 5.328.707 4.73-2.99-1.468 1.033 5.165 1.957 5.763.87.598 5.383 2.991-1.033 7.449-6.415 4.458-28.107 7.177-31.206 6.416-3.099-.762-5.274-18.378-4.839-19.628.435-1.251 4.839-2.175 4.839-2.175-3.099.435-6.796.979-10.656 1.685l-.272 5.22 2.827 17.942c13.864 3.1 51.975-3.153 43.874-16.202z"/><path fill="#fff" d="M232.691 267.668l-11.09 4.078 4.24 28.49 10.439-1.522-3.589-31.046z"/><path fill="#0E296A" d="M184.577 204.924l5.654-8.156 12.776 6.579-3.099 9.569-15.331-7.992z"/><path fill="#0E296A" d="M206.704 212.916l-5.6-9.569 22.019-9.569 3.316 8.482-10.764 3.751-8.971 6.905z"/><path fill="#FAD3DB" d="M122.217 286.861s-11.362 3.588-13.156 0c-1.795-3.589.652-11.146 6.578-12.234 5.926-1.087 9.569.544 11.961 4.567 2.338 3.97-4.132 7.286-5.383 7.667z"/><path fill="#F8ADB0" d="M127.6 279.14c-1.794-2.99-4.241-4.676-7.884-4.839h-1.413s5.6 1.088 5.545 5.111c-.054 4.023-5.763 5.6-9.568 6.089-3.752.435-5.763-1.141-5.818-1.196 0 .979.218 1.849.544 2.556 1.794 3.588 13.157 0 13.157 0 1.305-.381 7.774-3.697 5.437-7.721z"/><path fill="#00296B" d="M110.148 461.065l-40.993-15.604 4.186-10.494 43.059 13.049-6.252 13.049z"/><path fill="#fff" d="M209.107 269.565h-7.304c.099.131.198.228.33.326h6.643c.099-.065.231-.195.331-.326zm.892-1.598a6.381 6.381 0 0 0 .297-1.956l.033-6.978h-3.106l-.033 7.141c0 .652-.166 1.141-.463 1.5-.297.359-.727.522-1.256.522s-.958-.196-1.256-.555c-.297-.358-.462-.847-.462-1.5l.033-7.141h-3.107l-.033 6.978c0 .587.099 1.239.265 1.989.099.392.264.783.528 1.142h7.998c.231-.359.43-.718.562-1.142zm-5.916 2.837a9.435 9.435 0 0 0 1.587.131c.859 0 1.553-.131 2.181-.392.099-.032.198-.097.297-.13h-5.354c.364.163.794.293 1.289.391zm-16.623-1.239h-7.303c.099.131.198.228.33.326h6.643c.099-.065.231-.195.33-.326zm.893-1.598a6.381 6.381 0 0 0 .297-1.956l.033-6.978h-3.106l-.034 7.141c0 .652-.165 1.141-.462 1.5-.298.359-.727.522-1.256.522s-.958-.196-1.256-.555c-.297-.358-.463-.847-.463-1.5V259h-3.073l-.033 6.978c0 .587.099 1.239.264 1.989.1.392.265.783.529 1.142h7.998c.231-.359.429-.718.562-1.142zm-5.916 2.837a9.432 9.432 0 0 0 1.586.131c.86 0 1.554-.131 2.182-.392.099-.032.198-.097.297-.13h-5.354c.364.163.793.293 1.289.391zm15.962-1.239h-7.634c.099.131.231.228.363.326h6.907c.133-.065.232-.195.364-.326zm-6.411.881c.727.358 1.586.554 2.611.554.892 0 1.685-.163 2.379-.456.132-.066.231-.098.364-.164h-5.486a.25.25 0 0 0 .132.066zm7.27-3.098c0-1.011-.33-1.761-.991-2.283s-1.487-.88-2.413-1.076l-1.454-.293a2.586 2.586 0 0 1-1.057-.424.98.98 0 0 1-.463-.848c0-.391.132-.685.397-.913.264-.228.628-.326 1.057-.326.595 0 1.025.163 1.289.456.264.294.397.62.397.979v.065h3.04v-.098c0-.587-.165-1.174-.529-1.728-.363-.555-.892-.979-1.586-1.337-.694-.359-1.52-.522-2.512-.522-.859 0-1.586.13-2.28.424a3.39 3.39 0 0 0-1.553 1.206c-.364.522-.562 1.142-.562 1.859 0 1.109.363 1.891 1.09 2.381a7.105 7.105 0 0 0 2.347 1.01l1.421.261c.397.066.727.229.991.424.265.229.397.489.397.848 0 .391-.165.717-.463.946-.297.228-.727.358-1.222.358-.595 0-1.058-.163-1.355-.489-.298-.326-.463-.684-.463-1.108v-.131h-3.041v.131c0 .652.199 1.271.562 1.858.033.033.033.066.066.066h8.395c.33-.457.495-1.044.495-1.696zm15.5-2.185l1.784 2.446h1.586l1.785-2.413v3.913h2.941l.033-10.076h-2.346l-3.206 4.532-3.238-4.532h-2.446l.066 10.076h3.008l.033-3.946zm-3.04 4.402v.359h3.007v-.359h-3.007zm11.136.815h-2.941v.522h2.941v-.522zm-11.136.522h3.007v-.522h-3.007v.522zm11.169-1.337h-2.974v.326h2.974v-.326z"/></g><defs><linearGradient id="paint0_linear" x1="48.816" x2="212.56" y1="117.904" y2="115.395" gradientUnits="userSpaceOnUse"><stop stop-color="#F4F0E5" stop-opacity="0"/><stop offset=".158" stop-color="#E4E1D9" stop-opacity=".158"/><stop offset=".487" stop-color="#C9C8C4" stop-opacity=".487"/><stop offset=".778" stop-color="#B9B8B7" stop-opacity=".778"/><stop offset="1" stop-color="#B3B3B3"/></linearGradient><linearGradient id="paint1_linear" x1="180.463" x2="285.627" y1="15.042" y2="22.433" gradientUnits="userSpaceOnUse"><stop stop-color="#F4F0E5" stop-opacity="0"/><stop offset=".158" stop-color="#E4E1D9" stop-opacity=".158"/><stop offset=".487" stop-color="#C9C8C4" stop-opacity=".487"/><stop offset=".778" stop-color="#B9B8B7" stop-opacity=".778"/><stop offset="1" stop-color="#B3B3B3"/></linearGradient><linearGradient id="paint2_linear" x1="428.9" x2="492.156" y1="105.295" y2="112.437" gradientUnits="userSpaceOnUse"><stop stop-color="#F4F0E5" stop-opacity="0"/><stop offset=".158" stop-color="#E4E1D9" stop-opacity=".158"/><stop offset=".487" stop-color="#C9C8C4" stop-opacity=".487"/><stop offset=".778" stop-color="#B9B8B7" stop-opacity=".778"/><stop offset="1" stop-color="#B3B3B3"/></linearGradient><clipPath id="clip0"><path fill="#fff" d="M0 0h488v487H0z"/></clipPath></defs></svg>