<svg xmlns="http://www.w3.org/2000/svg" width="65" height="64" fill="none" viewBox="0 0 65 64"><g clip-path="url(#clip0)"><g clip-path="url(#clip1)"><path fill="#C72C41" d="M32.5 63.979c17.673 0 32-14.318 32-31.979C64.5 14.338 50.173.021 32.5.021 14.827.021.5 14.338.5 32c0 17.661 14.327 31.979 32 31.979z"/><path fill="#F7F8FB" d="M42.652 47.097l4.95-4.95-25.25-25.249-4.95 4.95 25.25 25.249z"/><path fill="#F7F8FB" d="M22.353 47.103l25.25-25.25-4.95-4.949-25.25 25.25 4.95 4.949z"/></g></g><defs><clipPath id="clip0"><path fill="#fff" d="M0 0h64v64H0z" transform="translate(.5)"/></clipPath><clipPath id="clip1"><path fill="#fff" d="M0 0h64v64H0z" transform="translate(.5)"/></clipPath></defs></svg>