<svg xmlns="http://www.w3.org/2000/svg" width="24" height="24" fill="none" viewBox="0 0 24 24"><path fill="#1B1B1B" d="M3.563 11.25c.567 0 1.08-.228 1.46-.593l2.08 1.04c-.01.085-.025.169-.025.256 0 1.163.946 2.11 2.11 2.11a2.112 2.112 0 0 0 2.109-2.11c0-.324-.08-.628-.212-.903l2.824-2.824c.275.132.579.211.903.211 1.164 0 2.11-.946 2.11-2.109a2.08 2.08 0 0 0-.105-.625l2.453-1.84c.335.224.736.356 1.168.356a2.112 2.112 0 0 0 2.109-2.11A2.112 2.112 0 0 0 20.437 0a2.111 2.111 0 0 0-2.109 2.11c0 .218.043.425.105.624l-2.453 1.84a2.095 2.095 0 0 0-1.168-.355 2.111 2.111 0 0 0-2.109 2.11c0 .324.08.628.212.903l-2.824 2.823a2.084 2.084 0 0 0-.903-.211 2.1 2.1 0 0 0-1.46.593l-2.082-1.04c.01-.086.026-.169.026-.256 0-1.163-.946-2.11-2.11-2.11a2.112 2.112 0 0 0-2.109 2.11c0 1.163.946 2.109 2.11 2.109z"/><path fill="#1B1B1B" d="M23.297 22.594h-.75V7.734a.703.703 0 0 0-.703-.703H19.03a.703.703 0 0 0-.703.703v14.86h-1.406v-10.64a.703.703 0 0 0-.703-.704h-2.813a.703.703 0 0 0-.703.703v10.64h-1.406v-5.015a.703.703 0 0 0-.703-.703H7.78a.703.703 0 0 0-.703.703v5.016H5.672v-7.828a.703.703 0 0 0-.703-.704H2.156a.703.703 0 0 0-.703.704v7.828h-.75a.703.703 0 1 0 0 1.406h22.594a.703.703 0 1 0 0-1.406z"/></svg>