<svg xmlns="http://www.w3.org/2000/svg" width="160" height="160" fill="none" viewBox="0 0 160 160"><g clip-path="url(#clip0_1214:24914)"><path fill="#fff" d="M159.867 75.99c-.431-2.082-1.081-4.549-2.64-7.056-1.391-2.238-3.424-4.121-5.913-5.55 3.178-2.553 5.221-6.464 5.221-10.848 0-7.673-6.242-13.915-13.915-13.915-1.613 0-3.155.29-4.597.797v-5.105c0-4.34-3.531-7.871-7.871-7.871H92.366c-4.34 0-7.871 3.53-7.871 7.87v5.512c0 1.108.23 2.163.645 3.12H72.105l-.4-.003-.001-.315v-3.848a4.379 4.379 0 0 0-.702-3.728 4.446 4.446 0 0 0-4.707-1.686H25.78a4.421 4.421 0 0 0-1.113-.143 4.471 4.471 0 0 0-3.575 1.81 4.405 4.405 0 0 0-.72 3.734v12.323A14.981 14.981 0 0 0 10.81 65.08c0 8.104 6.454 14.728 14.493 15.002v2.519c-1.996.495-3.833 1.23-5.316 2.145-2.319 1.436-4.146 3.403-5.361 5.708a12.121 12.121 0 0 0-3.39-.481c-3.192 0-6.322 1.235-8.585 3.382-.5.474-.964.997-1.38 1.554a6.383 6.383 0 0 0-.58 6.712 6.419 6.419 0 0 0 5.768 3.558l18.844-.014v6.82c0 4.34 3.53 7.871 7.87 7.871h17.882c2.504 5.56 8.096 9.317 14.409 9.317 6.313 0 11.905-3.756 14.408-9.317H91.12c4.022 6.46 7.43 11.694 7.467 11.752a4.295 4.295 0 0 0 4.329 1.887l25.333-4.384a4.292 4.292 0 0 0 3.394-5.418c-.007-.026-.487-1.689-1.253-4.283 3.059-1.08 5.257-4 5.257-7.424V83.731l17.914-.013a6.421 6.421 0 0 0 4.995-2.378 6.388 6.388 0 0 0 1.311-5.35z"/><path fill="#EFFAFA" d="M26.47 75.276c5.9-.49 10.284-5.671 9.793-11.57-.492-5.9-5.672-10.284-11.571-9.792-5.9.49-10.284 5.671-9.792 11.57.491 5.9 5.672 10.284 11.57 9.792z"/><path fill="#FFCF5C" d="M65.22 124.394c6.357 0 11.51-5.153 11.51-11.51 0-6.356-5.153-11.509-11.51-11.509-6.356 0-11.509 5.153-11.509 11.509 0 6.357 5.153 11.51 11.51 11.51z"/><path fill="#646464" d="M129.371 115.077h-98.28a1.74 1.74 0 0 1-1.739-1.739V48.49c0-.96.779-1.739 1.739-1.739h98.28c.96 0 1.739.778 1.739 1.739v64.848a1.74 1.74 0 0 1-1.739 1.739z"/><path fill="#EFFAFA" d="M124.837 50.587H32.823v60.47h92.014v-60.47zm3.471 33.704a2.224 2.224 0 0 1-2.221-2.22c0-1.225.997-2.222 2.221-2.222 1.225 0 2.221.997 2.221 2.221a2.223 2.223 0 0 1-2.221 2.222zm0-4.263a2.044 2.044 0 0 0-2.042 2.042c0 1.126.916 2.043 2.042 2.043a2.044 2.044 0 0 0 2.042-2.043 2.044 2.044 0 0 0-2.042-2.042z"/><path fill="#E40F0A" d="M116.921 106.88H40.435a.268.268 0 0 1-.268-.268V62.767a.269.269 0 0 1 .537 0v43.577h76.217c.148 0 .269.12.269.268a.269.269 0 0 1-.269.268z"/><path fill="#E40F0A" d="M48.474 106.58a.09.09 0 0 1-.09-.089V63.985a.09.09 0 0 1 .18 0v42.506a.09.09 0 0 1-.09.089zm10.474 0a.09.09 0 0 1-.09-.089V63.985a.09.09 0 0 1 .18 0v42.506a.09.09 0 0 1-.09.089zm10.475 0a.09.09 0 0 1-.09-.089V63.985a.09.09 0 0 1 .18 0v42.506a.09.09 0 0 1-.09.089zm10.473 0a.09.09 0 0 1-.09-.089V63.985a.09.09 0 0 1 .18 0v42.506a.09.09 0 0 1-.09.089z"/><path fill="#E40F0A" d="M79.896 106.58a.09.09 0 0 1-.09-.089V63.985a.09.09 0 0 1 .18 0v42.506a.09.09 0 0 1-.09.089zm10.475 0a.09.09 0 0 1-.09-.089V63.985a.09.09 0 0 1 .18 0v42.506a.09.09 0 0 1-.09.089zm10.474 0a.09.09 0 0 1-.09-.089V63.985a.09.09 0 1 1 .179 0v42.506a.09.09 0 0 1-.089.089zm10.474 0a.09.09 0 0 1-.089-.089V63.985a.09.09 0 1 1 .179 0v42.506a.09.09 0 0 1-.09.089z"/><path fill="#FFCF5C" d="M48.23 91.202a.179.179 0 0 1-.11-.32l21.192-16.443a.18.18 0 0 1 .212-.006l20.832 14.413 24.619-22.072a.18.18 0 0 1 .239.266L90.49 89.207a.178.178 0 0 1-.221.014L69.428 74.802 48.34 91.164a.176.176 0 0 1-.11.038z"/><path fill="#FFCF5C" d="M49.57 91.083a1.279 1.279 0 1 1-2.558 0 1.279 1.279 0 0 1 2.558 0zm19.761-14.889a1.279 1.279 0 1 0 0-2.557 1.279 1.279 0 0 0 0 2.557zM91.618 88.86a1.279 1.279 0 1 1-2.557 0 1.279 1.279 0 0 1 2.557 0zm24.542-21.983a1.278 1.278 0 1 1-2.557 0 1.278 1.278 0 0 1 2.557 0zm-3.624-12.149h-5.237v5.237h5.237v-5.237z"/><path fill="#E40F0A" d="M104.498 54.728h-5.237v5.237h5.237v-5.237z"/><path fill="#EFFAFA" d="M120.21 54.728h-5.237v5.237h5.237v-5.237z"/><path fill="#EFFAFA" d="M32.823 50.587v60.47l92.014-60.47s-92.014.183-92.014 0z" opacity=".25"/><path fill="#FFCF5C" d="M102.872 128.617a1.422 1.422 0 0 1-1.443-.629c-3.343-5.167-21.866-34.007-20.314-36.113 1.705-2.314 12.179 10.413 12.179 10.413S79.166 76.529 81.48 74.581c2.314-1.95 13.275 16.685 13.275 16.685s1.645-4.08 7.186-2.192c0 0 .856-2.046 3.776-2.436 2.74-.365 4.019 1.705 4.019 1.705s2.192-2.314 4.628-1.34c2.134.854 10.441 28.922 12.464 35.854a1.43 1.43 0 0 1-1.13 1.81l-22.826 3.95zm27.036-98.369H92.121a3.578 3.578 0 0 0-3.578 3.578v5.51a3.578 3.578 0 0 0 3.578 3.578H115.3l-2.032 7.064 6.216-7.064h10.424a3.578 3.578 0 0 0 3.577-3.577v-5.511a3.578 3.578 0 0 0-3.577-3.578z"/><path fill="#EFFAFA" d="M103.524 36.46a1.583 1.583 0 1 1-3.165 0 1.583 1.583 0 0 1 3.165 0zm9.379 0a1.583 1.583 0 1 1-3.166 0 1.583 1.583 0 0 1 3.166 0zm8.891 0a1.583 1.583 0 1 1-3.167-.001 1.583 1.583 0 0 1 3.167 0z"/><path fill="#646464" d="M68.996 45.654H29.17v20.279h39.826V45.654z" opacity=".08"/><path fill="#EFFAFA" d="M67.169 37.17H24.42v26.45h42.75V37.17z"/><path fill="#FFCF5C" d="M45.895 53.053a.14.14 0 0 1-.084-.027L24.338 37.282a.142.142 0 0 1 .168-.229l21.389 15.682 21.19-15.681a.142.142 0 1 1 .17.228L45.98 53.026a.146.146 0 0 1-.085.027z"/><path fill="#FFCF5C" d="M67.17 63.759a.143.143 0 0 1-.082-.026L48.733 50.867a.142.142 0 0 1-.034-.198.144.144 0 0 1 .198-.035L67.25 63.5a.143.143 0 0 1-.082.259zm-42.748 0a.142.142 0 0 1-.081-.26l18.522-12.866a.142.142 0 0 1 .162.234L24.502 63.733a.143.143 0 0 1-.08.026z"/><path fill="#EFFAFA" d="M153.314 78.936l-37.732.028c-1.756.001-2.788-2.005-1.74-3.414.266-.358.562-.692.886-.998 2-1.9 5.014-2.66 7.673-1.941 1.443.396 2.752 1.173 3.967 2.06.262-3.41 2.102-6.4 5.006-8.197 2.912-1.798 7.626-2.57 11.002-2.063 4.22.633 8.68 2.633 10.961 6.303 1.125 1.81 1.671 3.673 2.081 5.66.274 1.323-.752 2.561-2.104 2.562zm-109.37 21.436l-37.732.028c-1.756.001-2.788-2.005-1.74-3.414.266-.358.562-.693.886-.999 2-1.899 5.014-2.659 7.673-1.94 1.443.396 2.752 1.172 3.967 2.059.262-3.41 2.102-6.398 5.006-8.196 2.912-1.798 7.626-2.57 11.002-2.063 4.22.633 8.68 2.633 10.962 6.302 1.124 1.81 1.67 3.674 2.08 5.66.274 1.323-.752 2.562-2.104 2.563z"/><path fill="#E40F0A" d="M142.376 61.67a9.622 9.622 0 1 0 0-19.242 9.622 9.622 0 0 0 0 19.242z"/></g><defs><clipPath id="clip0_1214:24914"><path fill="#fff" d="M0 0h160v160H0z"/></clipPath></defs></svg>