<svg xmlns="http://www.w3.org/2000/svg" width="18" height="20" fill="none" viewBox="0 0 18 20"><path fill="#B1B1B1" d="M8.985 0c3.069 0 5.538 2.415 5.538 5.396v1.533c1.722.538 2.977 2.097 2.977 3.96v4.936c0 2.306-1.911 4.175-4.268 4.175H4.77C2.41 20 .5 18.13.5 15.825v-4.937c0-1.862 1.256-3.421 2.977-3.959V5.396C3.487 2.415 5.957 0 8.985 0zm.01 11.384a.875.875 0 0 0-.884.865v2.206c0 .487.396.874.884.874a.88.88 0 0 0 .894-.874v-2.206a.877.877 0 0 0-.894-.865zm.01-9.645c-2.063 0-3.74 1.63-3.75 3.637v1.338h7.49V5.396c0-2.017-1.677-3.657-3.74-3.657z"/></svg>