<svg xmlns="http://www.w3.org/2000/svg" width="36" height="36" fill="none" viewBox="0 0 36 36"><path fill="#646464" d="M2.25 33.75h31.5v-27H2.25v27zm28.688-2.25h-11.25a.562.562 0 1 1 0-1.125h11.25a.562.562 0 1 1 0 1.125zm0-3.375h-11.25a.562.562 0 1 1 0-1.125h11.25a.562.562 0 1 1 0 1.125zM4.5 9.562A.563.563 0 0 1 5.063 9h25.875a.562.562 0 0 1 .562.563v11.25a.562.562 0 0 1-.563.562H5.063a.563.563 0 0 1-.562-.563V9.563zm.563 14.063h6.75a.562.562 0 1 1 0 1.125h-6.75a.563.563 0 0 1 0-1.125zm0 3.375h11.25a.562.562 0 1 1 0 1.125H5.063a.563.563 0 0 1 0-1.125zm0 3.375h11.25a.562.562 0 1 1 0 1.125H5.063a.563.563 0 0 1 0-1.125z"/><path fill="#B1B1B1" d="M2.25 5.625h31.5V2.25H2.25v3.375zm28.688-2.25h1.125a.562.562 0 1 1 0 1.125h-1.126a.562.562 0 1 1 0-1.125zm-22.5 0a.562.562 0 1 1 0 1.125.562.562 0 0 1 0-1.125zm-2.25 0a.562.562 0 1 1 0 1.125.562.562 0 0 1 0-1.125zm-2.25 0a.562.562 0 1 1 0 1.125.562.562 0 0 1 0-1.125zM10.29 17.04a.563.563 0 0 1 .606-.125l2.468.988 3.113-3.113a.563.563 0 0 1 .71-.07l4.816 3.21 2.538-1.015a.563.563 0 0 1 .575.095l3.78 3.24h1.479V10.125H5.625V20.25H7.08l3.21-3.21zm11.648-4.665a1.687 1.687 0 1 1 0 3.375 1.687 1.687 0 0 1 0-3.375z"/><path fill="#646464" d="M21.938 14.625a.562.562 0 1 0 0-1.125.562.562 0 0 0 0 1.125zm.207 4.46a.563.563 0 0 1-.52-.055l-4.68-3.119-3.048 3.05a.563.563 0 0 1-.607.124l-2.468-.988L8.67 20.25h18.497l-2.524-2.164-2.497.999z"/></svg>