<svg xmlns="http://www.w3.org/2000/svg" width="36" height="36" fill="none" viewBox="0 0 36 36"><path fill="#646464" d="M25.245 23.46c1.005-.66 2.325.06 2.325 1.26v1.935c0 1.905-1.485 3.945-3.27 4.545l-4.785 1.59c-.84.285-2.205.285-3.03 0L11.7 31.2c-1.8-.6-3.27-2.64-3.27-4.545v-1.95c0-1.185 1.32-1.905 2.31-1.26l3.09 2.01c1.185.795 2.685 1.185 4.185 1.185 1.5 0 3-.39 4.185-1.185l3.045-1.995z"/><path fill="#646464" d="M29.97 9.69l-8.985-5.895c-1.62-1.065-4.29-1.065-5.91 0L6.045 9.69c-2.895 1.875-2.895 6.12 0 8.01l2.4 1.56 6.63 4.32c1.62 1.065 4.29 1.065 5.91 0l6.585-4.32 2.055-1.35v4.59c0 .615.51 1.125 1.125 1.125s1.125-.51 1.125-1.125v-7.38c.6-1.935-.015-4.185-1.905-5.43z"/></svg>