<svg xmlns="http://www.w3.org/2000/svg" width="36" height="36" fill="none" viewBox="0 0 36 36"><g fill="#1B1B1B" clip-path="url(#clip0_1193:38804)"><path d="M6.38 12.708a.703.703 0 1 0 0 1.406.703.703 0 0 0 0-1.406z"/><path d="M26.08 21.11a.702.702 0 0 0-.497-.207c-.007.002-.277-.013-.497.206l-.497.497-1.615-1.615C26.539 14.993 25.997 8.1 21.606 3.71c-4.945-4.946-12.95-4.947-17.896 0-4.946 4.945-4.947 12.95 0 17.896 4.379 4.38 11.27 4.942 16.28 1.368l1.616 1.616-.497.496a.704.704 0 0 0 0 .995L30 34.969a3.511 3.511 0 0 0 4.97 0 3.511 3.511 0 0 0 0-4.97l-8.889-8.89zm-3.48 2.485l-1.505-1.505a12.643 12.643 0 0 0 .995-.995l1.505 1.506-.995.994zM4.704 20.612a11.242 11.242 0 0 1 0-15.908 11.242 11.242 0 0 1 15.908 0c4.386 4.386 4.409 11.5 0 15.908-4.458 4.459-11.572 4.336-15.908 0zm20.88 1.989l1.988 1.988-2.983 2.983-1.988-1.988 2.982-2.983zm8.39 11.374a2.106 2.106 0 0 1-2.981 0l-5.41-5.409 2.983-2.982 5.409 5.41a2.106 2.106 0 0 1 0 2.981z"/><path d="M19.618 5.698a9.84 9.84 0 0 0-13.92 0c-3.837 3.838-3.837 10.082 0 13.92a9.837 9.837 0 0 0 13.92 0c3.837-3.838 3.838-10.082 0-13.92zm-.995 12.926a8.432 8.432 0 0 1-11.931 0c-3.289-3.29-3.289-8.642 0-11.932a8.435 8.435 0 0 1 11.932 0c3.29 3.29 3.289 8.642 0 11.932z"/><path d="M12.658 5.628a6.98 6.98 0 0 0-4.971 2.058 6.944 6.944 0 0 0-1.683 2.701.703.703 0 1 0 1.332.452A5.553 5.553 0 0 1 8.68 8.68a5.586 5.586 0 0 1 3.977-1.646.703.703 0 1 0 0-1.406z"/></g><defs><clipPath id="clip0_1193:38804"><path fill="#fff" d="M0 0h36v36H0z"/></clipPath></defs></svg>