<svg xmlns="http://www.w3.org/2000/svg" width="36" height="36" fill="none" viewBox="0 0 36 36"><path fill="#646464" d="M33.54 12.405l-.435-4.155c-.63-4.53-2.685-6.375-7.08-6.375H9.885c-4.41 0-6.45 1.845-7.095 6.42l-.405 4.125c-.15 1.605.285 3.165 1.23 4.38 1.14 1.485 2.895 2.325 4.845 2.325 1.89 0 3.705-.945 4.845-2.46 1.02 1.515 2.76 2.46 4.695 2.46 1.935 0 3.63-.9 4.665-2.4 1.155 1.485 2.94 2.4 4.8 2.4 1.995 0 3.795-.885 4.92-2.445.9-1.2 1.305-2.715 1.155-4.275zM17.025 24.99c-1.905.195-3.345 1.815-3.345 3.735v4.11c0 .405.33.735.735.735h7.155c.405 0 .735-.33.735-.735V29.25c.015-3.135-1.83-4.62-5.28-4.26z"/><path fill="#646464" d="M32.055 21.6v4.47c0 4.14-3.36 7.5-7.5 7.5a.736.736 0 0 1-.735-.735V29.25c0-1.92-.585-3.42-1.725-4.44-1.005-.915-2.37-1.365-4.065-1.365-.375 0-.75.015-1.155.06a5.228 5.228 0 0 0-4.695 5.22v4.11c0 .405-.33.735-.735.735-4.14 0-7.5-3.36-7.5-7.5v-4.44c0-1.05 1.035-1.755 2.01-1.41.405.135.81.24 1.23.3.18.03.375.06.555.06.24.03.48.045.72.045 1.74 0 3.45-.645 4.8-1.755A7.278 7.278 0 0 0 18 20.625c1.785 0 3.435-.615 4.725-1.725 1.35 1.095 3.03 1.725 4.74 1.725.27 0 .54-.015.795-.045.18-.015.345-.03.51-.06.465-.06.885-.195 1.305-.33.975-.33 1.98.39 1.98 1.41z"/></svg>