<svg xmlns="http://www.w3.org/2000/svg" width="36" height="36" fill="none" viewBox="0 0 36 36"><path fill="#646464" d="M31.757 0h-2.82v1.078c0 5.409-4.084 9.977-9.446 10.483-6.414.604-11.51-4.468-11.51-10.486V0H4.242a.703.703 0 0 0-.703.703V21.69h28.92V.703A.703.703 0 0 0 31.758 0zM3.54 35.297c0 .388.314.703.703.703h27.514a.703.703 0 0 0 .704-.703v-4.461H3.54v4.46z"/><path fill="#B1B1B1" d="M26.827 1.078V0h-1.593a.565.565 0 0 0-.564.564v.084c0 5.564-6.855 8.39-10.725 4.256a6.317 6.317 0 0 1-1.71-4.34A.564.564 0 0 0 11.67 0h-1.58v1.075c0 11.15 16.737 11.177 16.737.003zM3.54 23.799h28.92v4.927H3.54V23.8z"/></svg>