<svg xmlns="http://www.w3.org/2000/svg" width="36" height="37" fill="none" viewBox="0 0 36 37"><path fill="#8A8A8A" d="M13.5 16.625A4.123 4.123 0 0 1 9.375 12.5 4.123 4.123 0 0 1 13.5 8.375a4.123 4.123 0 0 1 4.125 4.125 4.123 4.123 0 0 1-4.125 4.125zm0-6a1.876 1.876 0 1 0 .001 3.751 1.876 1.876 0 0 0-.001-3.751z"/><path fill="#8A8A8A" d="M22.5 34.625h-9c-8.145 0-11.625-3.48-11.625-11.625v-9c0-8.145 3.48-11.625 11.625-11.625h6c.615 0 1.125.51 1.125 1.125s-.51 1.125-1.125 1.125h-6c-6.915 0-9.375 2.46-9.375 9.375v9c0 6.915 2.46 9.375 9.375 9.375h9c6.915 0 9.375-2.46 9.375-9.375v-7.5c0-.615.51-1.125 1.125-1.125s1.125.51 1.125 1.125V23c0 8.145-3.48 11.625-11.625 11.625z"/><path fill="#8A8A8A" d="M27 13.625c-.615 0-1.125-.51-1.125-1.125v-9c0-.45.27-.87.69-1.035.42-.165.9-.075 1.23.24l3 3a1.132 1.132 0 0 1 0 1.59 1.132 1.132 0 0 1-1.59 0l-1.08-1.08V12.5c0 .615-.51 1.125-1.125 1.125z"/><path fill="#8A8A8A" d="M24 7.625c-.285 0-.57-.105-.795-.33a1.132 1.132 0 0 1 0-1.59l3-3a1.132 1.132 0 0 1 1.59 0 1.132 1.132 0 0 1 0 1.59l-3 3c-.225.225-.51.33-.795.33zM4.006 30.05c-.36 0-.72-.18-.93-.495a1.13 1.13 0 0 1 .3-1.56l7.395-4.965c1.62-1.08 3.855-.96 5.325.285l.495.435c.75.645 2.025.645 2.76 0l6.24-5.355c1.59-1.365 4.095-1.365 5.7 0l2.445 2.1c.465.405.525 1.11.12 1.59a1.135 1.135 0 0 1-1.59.12l-2.445-2.1c-.75-.645-2.01-.645-2.76 0l-6.24 5.355c-1.59 1.365-4.095 1.365-5.7 0l-.495-.435c-.69-.585-1.83-.645-2.595-.12L4.65 29.87c-.21.12-.435.18-.645.18z"/></svg>