<svg xmlns="http://www.w3.org/2000/svg" width="172" height="50" viewBox="0 0 172 50"><path fill-opacity=".85" d="M171.722 44.988c0 2.769-2.21 5.012-4.945 5.012H4.951C2.218 50 0 47.757 0 44.988V5.018C0 2.252 2.218 0 4.951 0h161.825c2.736 0 4.945 2.25 4.945 5.019l.001 39.969z"/><path d="M37.79 24.718c-.038-4.187 3.394-6.224 3.55-6.319-1.943-2.862-4.956-3.253-6.014-3.284-2.53-.269-4.985 1.53-6.274 1.53-1.314 0-3.299-1.504-5.438-1.46-2.753.043-5.328 1.653-6.74 4.152-2.915 5.096-.741 12.585 2.051 16.704 1.397 2.018 3.03 4.27 5.166 4.19 2.09-.086 2.871-1.345 5.394-1.345 2.499 0 3.232 1.346 5.411 1.295 2.243-.036 3.656-2.026 5.004-4.062 1.614-2.312 2.263-4.59 2.288-4.706-.053-.018-4.357-1.677-4.399-6.695zm-4.117-12.313c1.124-1.42 1.893-3.351 1.68-5.311-1.627.072-3.662 1.136-4.834 2.525-1.037 1.224-1.963 3.23-1.724 5.116 1.828.137 3.705-.932 4.878-2.33zM68.04 39.944h-2.922l-1.6-5.078h-5.562l-1.524 5.078h-2.844l5.51-17.288h3.404l5.538 17.288zm-5.004-7.209l-1.447-4.514c-.153-.46-.44-1.547-.863-3.256h-.052c-.168.735-.44 1.82-.813 3.256l-1.421 4.514h4.596zm19.175.823c0 2.12-.567 3.796-1.702 5.026-1.016 1.095-2.278 1.642-3.784 1.642-1.626 0-2.794-.59-3.505-1.77h-.052v6.567h-2.742v-13.44c0-1.334-.035-2.701-.102-4.104h2.412l.153 1.975h.052c.914-1.488 2.302-2.231 4.165-2.231 1.456 0 2.671.58 3.644 1.743.975 1.164 1.461 2.694 1.461 4.592zm-2.794.101c0-1.213-.27-2.213-.813-3-.593-.821-1.389-1.232-2.387-1.232-.677 0-1.292.229-1.84.68-.551.454-.912 1.048-1.08 1.783a3.66 3.66 0 0 0-.127.844v2.079c0 .906.275 1.672.825 2.296.55.625 1.266.937 2.146.937 1.033 0 1.837-.403 2.412-1.205.576-.805.864-1.864.864-3.182zm16.991-.101c0 2.12-.567 3.796-1.703 5.026-1.015 1.095-2.277 1.642-3.783 1.642-1.626 0-2.794-.59-3.504-1.77h-.052v6.567h-2.742v-13.44c0-1.334-.035-2.701-.102-4.104h2.412l.153 1.975h.052c.913-1.488 2.301-2.231 4.165-2.231 1.455 0 2.67.58 3.645 1.743.972 1.164 1.459 2.694 1.459 4.592zm-2.794.101c0-1.213-.271-2.213-.814-3-.593-.821-1.387-1.232-2.386-1.232-.678 0-1.292.229-1.842.68-.55.454-.91 1.048-1.078 1.783a3.732 3.732 0 0 0-.127.844v2.079c0 .906.275 1.672.823 2.296.55.624 1.266.937 2.148.937 1.033 0 1.837-.403 2.412-1.205.576-.805.864-1.864.864-3.182zm18.667 1.436c0 1.47-.506 2.667-1.521 3.59-1.115 1.01-2.668 1.514-4.663 1.514-1.842 0-3.318-.359-4.436-1.077l.635-2.308a7.463 7.463 0 0 0 3.965 1.104c1.033 0 1.837-.237 2.414-.707.575-.47.862-1.101.862-1.889 0-.701-.237-1.292-.711-1.772-.472-.479-1.261-.924-2.362-1.336-2.997-1.129-4.494-2.783-4.494-4.957 0-1.421.524-2.587 1.575-3.493 1.047-.908 2.444-1.362 4.191-1.362 1.558 0 2.852.274 3.885.821l-.686 2.258c-.965-.53-2.055-.795-3.276-.795-.965 0-1.719.24-2.259.718a2.063 2.063 0 0 0-.685 1.566c0 .683.261 1.248.786 1.692.456.41 1.286.855 2.49 1.334 1.473.6 2.554 1.3 3.25 2.102.694.8 1.04 1.802 1.04 2.997zm9.067-5.54h-3.023v6.053c0 1.539.533 2.308 1.6 2.308.49 0 .897-.043 1.218-.129l.076 2.104c-.54.203-1.251.306-2.132.306-1.083 0-1.93-.334-2.541-1-.608-.668-.914-1.788-.914-3.36v-6.284h-1.801v-2.079h1.801v-2.282l2.693-.82v3.102h3.023v2.081zm13.639 4.052c0 1.916-.543 3.49-1.626 4.72-1.136 1.266-2.643 1.898-4.523 1.898-1.811 0-3.253-.607-4.328-1.82-1.075-1.214-1.613-2.745-1.613-4.591 0-1.932.553-3.514 1.663-4.744 1.108-1.232 2.602-1.847 4.482-1.847 1.811 0 3.268.606 4.368 1.82 1.052 1.18 1.577 2.7 1.577 4.564zm-2.845.09c0-1.15-.243-2.136-.736-2.958-.575-.995-1.397-1.491-2.462-1.491-1.102 0-1.94.497-2.515 1.491-.492.824-.736 1.825-.736 3.01 0 1.15.244 2.136.736 2.956.593.995 1.422 1.492 2.49 1.492 1.048 0 1.869-.507 2.462-1.518.506-.837.761-1.834.761-2.982zm11.759-3.783a4.719 4.719 0 0 0-.864-.076c-.965 0-1.711.367-2.236 1.104-.457.65-.686 1.47-.686 2.461v6.541h-2.741l.026-8.54c0-1.436-.035-2.745-.103-3.924h2.389l.1 2.385h.076c.289-.82.746-1.48 1.371-1.975.611-.445 1.271-.667 1.982-.667.254 0 .483.018.686.05v2.641zm12.265 3.203c0 .497-.032.915-.1 1.257h-8.227c.032 1.231.429 2.173 1.193 2.822.694.581 1.59.872 2.691.872 1.218 0 2.33-.196 3.329-.59l.43 1.923c-1.168.514-2.547.77-4.138.77-1.914 0-3.417-.569-4.51-1.705-1.091-1.137-1.637-2.663-1.637-4.578 0-1.88.508-3.445 1.525-4.693 1.065-1.333 2.505-2 4.316-2 1.779 0 3.125.667 4.04 2 .724 1.058 1.088 2.368 1.088 3.922zm-2.615-.718c.018-.82-.161-1.53-.532-2.129-.475-.77-1.204-1.155-2.186-1.155-.896 0-1.626.376-2.183 1.13-.456.598-.728 1.316-.811 2.153h5.712v.001zM62.129 12.027c0 1.529-.454 2.68-1.361 3.453-.84.713-2.034 1.07-3.58 1.07-.766 0-1.422-.034-1.972-.101V8.095a14.412 14.412 0 0 1 2.322-.177c1.473 0 2.583.323 3.332.97.838.732 1.259 1.777 1.259 3.139zm-1.421.037c0-.99-.26-1.75-.78-2.28-.52-.53-1.278-.794-2.278-.794a5.65 5.65 0 0 0-1.086.088v6.35c.166.027.47.039.911.039 1.032 0 1.828-.29 2.389-.87.56-.579.844-1.423.844-2.533zm8.957 1.298c0 .942-.266 1.714-.798 2.32-.559.621-1.298.932-2.222.932-.89 0-1.599-.298-2.127-.895-.528-.596-.791-1.349-.791-2.255 0-.949.271-1.727.816-2.33.546-.605 1.279-.907 2.203-.907.89 0 1.605.297 2.146.893.515.58.773 1.328.773 2.242zm-1.398.045c0-.566-.12-1.05-.361-1.454-.283-.489-.686-.733-1.21-.733-.54 0-.953.244-1.236.733-.241.404-.36.896-.36 1.478 0 .565.12 1.05.36 1.454.293.488.699.732 1.224.732.514 0 .918-.248 1.209-.745.25-.412.374-.9.374-1.465zm11.503-3.059l-1.897 6.123h-1.235l-.785-2.659c-.2-.664-.362-1.324-.488-1.978h-.024a14.59 14.59 0 0 1-.488 1.978l-.835 2.66H72.77l-1.784-6.124h1.386l.685 2.91c.166.69.302 1.345.412 1.966h.024c.1-.512.266-1.164.5-1.952l.861-2.923h1.099l.824 2.86c.2.698.362 1.37.486 2.017h.038c.09-.63.229-1.302.411-2.017l.736-2.86h1.324v-.001zm6.99 6.122h-1.35v-3.506c0-1.081-.406-1.622-1.222-1.622-.4 0-.723.149-.974.446a1.59 1.59 0 0 0-.374 1.05v3.632h-1.348v-4.373c0-.538-.017-1.12-.049-1.752h1.185l.063.957h.037c.157-.297.391-.543.699-.739a2.262 2.262 0 0 1 1.222-.344c.566 0 1.036.184 1.41.554.466.454.7 1.13.7 2.03v3.668zm3.717.002H89.13V7.54h1.347v8.933zm7.936-3.11c0 .942-.266 1.714-.798 2.32-.559.621-1.3.932-2.222.932-.891 0-1.6-.298-2.128-.895-.527-.596-.79-1.349-.79-2.255 0-.949.27-1.727.816-2.33.546-.605 1.279-.907 2.201-.907.891 0 1.605.297 2.148.893.515.58.773 1.328.773 2.242zm-1.4.045c0-.566-.12-1.05-.36-1.454-.282-.489-.686-.733-1.209-.733-.542 0-.954.244-1.236.733-.242.404-.361.896-.361 1.478 0 .565.12 1.05.361 1.454.292.488.699.732 1.224.732.514 0 .917-.248 1.207-.745.251-.412.375-.9.375-1.465zm7.924 3.068h-1.21l-.1-.706h-.038c-.414.563-1.004.845-1.771.845-.572 0-1.035-.186-1.384-.555-.316-.335-.474-.752-.474-1.247 0-.748.308-1.318.929-1.713.62-.395 1.493-.589 2.616-.58v-.114c0-.807-.42-1.21-1.26-1.21-.598 0-1.125.153-1.581.454l-.274-.894c.564-.352 1.26-.528 2.08-.528 1.585 0 2.38.844 2.38 2.533v2.255c0 .612.03 1.099.087 1.46zm-1.399-2.105v-.944c-1.487-.026-2.23.386-2.23 1.234 0 .32.084.559.258.719.174.16.395.239.659.239.296 0 .572-.095.824-.284a1.16 1.16 0 0 0 .489-.964zm9.059 2.102h-1.196l-.063-.983h-.037c-.382.748-1.033 1.122-1.948 1.122-.73 0-1.339-.29-1.821-.869-.483-.579-.723-1.331-.723-2.255 0-.99.261-1.794.786-2.407.508-.571 1.13-.857 1.871-.857.815 0 1.384.276 1.709.831h.025V7.54h1.35v7.284c0 .596.015 1.145.047 1.65zM111.2 13.89v-1.021c0-.177-.013-.32-.037-.429a1.55 1.55 0 0 0-.488-.825 1.315 1.315 0 0 0-.901-.334 1.38 1.38 0 0 0-1.186.606c-.287.404-.432.92-.432 1.55 0 .605.137 1.096.414 1.474.292.403.685.604 1.178.604.443 0 .796-.168 1.065-.504.26-.31.387-.685.387-1.121zm12.926-.528c0 .942-.266 1.714-.798 2.32-.559.621-1.297.932-2.222.932-.889 0-1.597-.298-2.127-.895-.528-.596-.791-1.349-.791-2.255 0-.949.271-1.727.816-2.33.546-.605 1.279-.907 2.204-.907.889 0 1.605.297 2.145.893.515.58.773 1.328.773 2.242zm-1.397.045c0-.566-.12-1.05-.361-1.454-.284-.489-.686-.733-1.21-.733-.541 0-.952.244-1.237.733-.241.404-.361.896-.361 1.478 0 .565.121 1.05.361 1.454.292.488.699.732 1.224.732.514 0 .919-.248 1.21-.745.248-.412.374-.9.374-1.465zm8.646 3.063h-1.347v-3.506c0-1.081-.406-1.622-1.223-1.622-.4 0-.723.149-.973.446a1.586 1.586 0 0 0-.374 1.05v3.632h-1.349v-4.373c0-.538-.016-1.12-.048-1.752h1.183l.063.957h.038c.158-.297.392-.543.698-.739a2.27 2.27 0 0 1 1.224-.344c.564 0 1.035.184 1.409.554.467.454.699 1.13.699 2.03v3.668zm9.072-5.101h-1.484v2.975c0 .756.263 1.134.786 1.134.241 0 .442-.021.6-.064l.035 1.033c-.266.101-.616.152-1.047.152-.532 0-.947-.164-1.246-.491-.301-.328-.451-.878-.451-1.651v-3.088h-.886v-1.02h.886V9.227l1.321-.403v1.524h1.485v1.021h.001zm7.137 5.103h-1.35v-3.481c0-1.098-.406-1.647-1.22-1.647-.626 0-1.053.318-1.287.955-.04.133-.063.297-.063.49v3.682h-1.347V7.54h1.347v3.69h.026c.424-.671 1.033-1.006 1.821-1.006.559 0 1.02.184 1.387.554.457.462.686 1.148.686 2.054v3.641zm7.361-3.352c0 .244-.018.449-.05.617h-4.043c.018.605.211 1.066.585 1.386.343.285.784.428 1.324.428a4.43 4.43 0 0 0 1.635-.29l.211.946c-.575.252-1.252.378-2.035.378-.939 0-1.679-.28-2.214-.838-.538-.558-.804-1.308-.804-2.248 0-.924.248-1.693.749-2.306.522-.655 1.228-.982 2.12-.982.872 0 1.534.327 1.982.982.361.52.54 1.163.54 1.926zm-1.286-.353c.01-.404-.079-.752-.261-1.045-.234-.378-.591-.568-1.073-.568-.44 0-.799.184-1.073.555a2.074 2.074 0 0 0-.4 1.058h2.807z"/></svg>