<svg xmlns="http://www.w3.org/2000/svg" width="455" height="356" fill="none" viewBox="0 0 455 356"><path fill="#7797C9" d="M298.985 349.541c37.316 0 67.566-1.735 67.566-3.875 0-2.14-30.25-3.875-67.566-3.875-37.315 0-67.565 1.735-67.565 3.875 0 2.14 30.25 3.875 67.565 3.875z"/><path fill="#F0979D" d="M239.578 334.858l2.072-4.085 12.331.448.277 3.637-5.796 10.043-10.429-8.026 1.545-2.017z"/><path fill="#E66971" d="M247.103 331.181l.514 9.476s3.208-1.818 6.944-5.166l-.514-5.364-6.944 1.054z"/><path fill="#264373" d="M238.838 334.726s3.618-.065 7.842 3.124c2.508 1.898 6.297-2.016 7.459-3.031.238-.211.554-.027.594.342l1.452 13.259h-36.7c-.422 0-.779-.448-.779-1.001v-2.794c0-.435.211-.818.528-.949l19.604-8.95z"/><path stroke="#fff" stroke-miterlimit="10" stroke-width=".395" d="M236.779 335.412l5.901 3.413m-8.475-2.095l5.901 3.413"/><path fill="#F0979D" d="M299.368 334.858l2.072-4.085 11.314-1.687 1.294 5.772-5.796 10.043-10.429-8.026 1.545-2.017z"/><path fill="#E66971" d="M308.121 330.918l-1.03 8.962s3.208-1.819 6.944-5.167l-1.03-4.573-4.884.778z"/><path fill="#264373" d="M298.628 334.726s3.618-.065 7.842 3.124c2.508 1.898 6.297-2.016 7.459-3.031.238-.211.554-.027.594.342l1.452 13.259h-36.7c-.423 0-.779-.448-.779-1.001v-2.794c0-.435.211-.818.528-.949l19.604-8.95z"/><path stroke="#fff" stroke-miterlimit="10" stroke-width=".395" d="M295.737 335.675l5.901 3.414m-8.475-2.096l5.901 3.414"/><path fill="#264373" d="M257.056 38.828c.502.698 1.189 1.45 1.954 1.752 1.716.686 3.895-.738 5.809-2.227 1.888-1.463 5.478.923 6.033 1.305l4.33 13.957-.343.185.132.25.132.25 4.343-2.332.04-.106c3.195-10.477 2.983-12.824 1.465-17.384-4.026-6.497-16.739-9.977-17.703-10.78-2.073-1.714-5.083-2.044-7.406-.633-4.462 2.701-3.617 8.764-1.069 12.81.448 1.226 1.188 2.28 2.283 2.953zm4.568-14.235c-3.313-.896-6.614.804-7.353 4.284.039-1.766.713-3.387 2.376-4.389 1.598-.949 3.472-.817 4.977.105zM277.057 52.6l-.938.501a4.716 4.716 0 0 1 1.901-1.16l-.963.66z"/><path fill="#D14C62" d="M241.875 174.447s-4.727 56.357-5.162 71.936c-.449 15.565 2.693 84.996 2.693 84.996l15.802.342s17.545-116.456 36.621-154.018l-49.954-3.256z"/><path stroke="#fff" stroke-miterlimit="10" stroke-width=".395" d="M265.69 177.413s-13.426 65.108-13.426 75.111c0 10.004-1.98 78.697-1.98 78.697m5.98-7.091h-17.03"/><path fill="#FF5C77" d="M245.188 174.526s7.565 46.907 18.641 80.147c8.951 26.86 32.476 77.945 32.476 77.945l18.337-.198-19.116-76.943a65.944 65.944 0 0 1-1.914-12.244c-.977-15.605 2.231-47.144 3.577-67.349l-52.001-1.358z"/><path stroke="#000D2B" stroke-miterlimit="10" stroke-width=".395" d="M280.066 175.317s-5.161 60.891-.528 70.367c4.634 9.476 27.235 86.578 27.235 86.578m5.663-6.814h-18.997M261.571 174.79l16.436 21.523"/><path fill="#F0979D" d="M268.212 85.774s.621-5.061-4.052-5.786c-4.687-.738-17.308-4.073-49.4 6.867 0 0-5.558-31.026-5.611-33.53-.145-6.537-2.218-15.011-7.274-19.493-.409-.369-.713 16.198-.898 25.042 0 0-4.277 44.508.938 48.976 5.214 4.468 71.486-6.827 66.297-22.076z"/><path fill="#264373" d="M227.67 82.268s48.608-12.139 48.08 1.964c-.528 14.102-71.288 40.528-77.202 32.646-9.4-12.507.897-55.315.897-55.315l11.618-5.18 3.393 29.088 13.214-3.203z"/><path fill="#203961" d="M231.037 110.104c2.812 3.374 30.377-3.704 33.4-8.304 0 0 .475-15.407-.7-15.723-11.96-3.229-32.7 24.027-32.7 24.027z"/><path fill="#264373" d="M284.503 76.482S309.15 79 310.708 99.375c1.558 20.376-11.182 84.061-11.182 84.061l-61.836 1.068 3.446-80.318a29.576 29.576 0 0 1 4.647-14.577c2.574-4.02 5.597-8.567 7.314-8.79l25.875-6.946 5.531 2.61z"/><path fill="#203961" d="M289.585 84.153c14.984-5.997 20.331 5.034 21.109 15.222 1.558 20.376-11.538 83.705-11.538 83.705l-61.123 1.779"/><path fill="#F0979D" d="M276.74 58.044l2.588 15.842-15.446 9.924-2.112-6.181 1.108-11.453 11.525-10.426s1.769 1.266 1.994 1.714c.224.474.343.58.343.58z"/><path fill="#000D2B" d="M274.403 55.764l-11.525 10.425-.818 6.814s10.468-2.874 10.825-11.52"/><path fill="#264373" d="M245.031 146.836l-13.743-43.045c-.766-2.386-2.495-4.31-4.74-5.285l-28.132-12.139c-.832-.356-1.69.461-1.399 1.344l13.888 42.176c.752 2.266 2.376 4.112 4.488 5.1l28.212 13.167c.832.395 1.716-.422 1.426-1.318z"/><path fill="#7FB7F4" d="M242.667 149.353l-13.742-43.045c-.766-2.386-2.496-4.31-4.74-5.285l-28.132-12.139c-.832-.356-1.69.462-1.4 1.345l13.888 42.175c.753 2.267 2.377 4.112 4.489 5.1l28.212 13.167c.831.395 1.716-.422 1.425-1.318z"/><path fill="#000D2B" d="M235.631 117.84l-10.35 3.071 13.083 5.285-2.733-8.356z"/><path fill="#F0979D" d="M225.162 125.419c1.518 1.357 33.255 36.257 49.519 40.541 4.739 1.252 8.251-2.86 10.72-7.144l16.356-31.671-21.795-16.883c-.159.237-11.539 19.559-14.166 29.259-.858 3.189-2.363 2.939-4.95 1.357l-19.882-12.244s.04-3.466-.409-4.784c-.845-2.491-4.832-5.838-4.832-5.838l1.73 5.298c.317.896 1.333 1.542-.278 1.726l-12.633-9.344s-1.149-.092-.066 1.147c1.095 1.239 2.27 2.543 2.125 2.636-.145.092-3.604-2.32-3.762-1.397-.146.922 2.812 3.163 2.693 3.255-.119.092-3.367-2.57-3.538-1.7-.185.87 2.27 2.543 2.389 2.873.119.343-2.667-1.793-2.785-1.331-.106.474 2.693 3.466 3.564 4.244z"/><path fill="#264373" d="M285.731 93.168s6.204-17.398 18.178-10.07c11.974 7.328 1.241 41.728-3.551 50.373-3.947 7.131-8.674 21.233-15.142 30.525-4.515 6.497-17.426 5.667-23.156.211l-24.924-23.763 5.901-11.243 20.726 8.923 21.968-44.956z"/><path fill="#F0979D" d="M275.526 51.902c.145.369.594.474.871.198.937-.923 2.812-2.175 3.472 1.476.911 4.968-4.29 4.125-4.7 4.784-.845 1.358-3.538 5.918-7.551 7.697-2.442 1.08-6.073 1.252-8.752-1.318-2.68-2.57-3.869-.804-2.746-28.218 0 0 1.227 2.36 2.983 2.966 1.756.606 4.581-1.832 6.588-2.386 1.623-.448 4.792-1.647 6.719 4.007.885 2.622 2.297 8.632 3.116 10.794z"/><path fill="#fff" d="M256.212 56.251s1.611.804 5.558.435c0 0-2.126 2.873-3.67 2.32-1.558-.567-1.888-2.755-1.888-2.755z"/><path fill="#E66971" d="M279.09 53.207l-2.746 2.069s1.029-4.995 2.746-2.07z"/><path fill="#000D2B" d="M259.434 50.439c0 .593.237 1.08.528 1.08.29 0 .528-.487.528-1.08 0-.593-.238-1.08-.528-1.08-.291 0-.528.487-.528 1.08zm-3.459-.527c0 .593.237 1.08.528 1.08.29 0 .528-.487.528-1.08 0-.593-.238-1.081-.528-1.081-.291 0-.528.488-.528 1.08zm7.92-4.139c.792.554-.449-1.937-1.518-2.2-1.07-.278-2.126.263-2.363 1.212 0-.013 1.993-.33 3.881.988zm-8.079-.263c1.122-.144 1.941.053 1.941.053-.146-.896-.977-1.515-1.954-1.542"/><path fill="#E66971" d="M257.598 49.885l-1.611 4.587c-.026.079.027.158.093.158l1.914.145c.066 0 .119-.053.119-.132l-.291-4.731c-.013-.119-.184-.145-.224-.027z"/><path fill="#fff" d="M278.43 69.075l-15.01 11.23.356 12.322 19.473-17.49-4.819-6.062zm-16.806 2.847l1.611 8.923-2.865 9.634-3.564-11.242 4.818-7.315z"/><path fill="#839EC9" d="M87.39 351.636c37.316 0 67.566-1.735 67.566-3.875 0-2.14-30.25-3.875-67.565-3.875-37.316 0-67.566 1.735-67.566 3.875 0 2.14 30.25 3.875 67.566 3.875z"/><path fill="#02192B" d="M128.183 99.613l20.713-30.696c1.056-1.516.409-7.143-.475-8.79-2.429-4.508-6.601-8.08-11.34-9.266-20.806-5.22-101.533 18.412-101.533 18.412s14.046 63.118 78.483 59.612"/><path stroke="#02192B" stroke-miterlimit="10" stroke-width=".401" d="M128.183 99.613l20.713-30.696c1.056-1.516.409-7.143-.475-8.79-2.429-4.508-6.601-8.08-11.34-9.266-20.806-5.22-101.533 18.412-101.533 18.412s14.046 63.118 78.483 59.612"/><path fill="#F0A7A5" d="M129.688 66.98a.388.388 0 0 1-.568.17c-.845-.526-2.983-1.541-4.528.673-1.558 2.24 1.307 4.6 2.548 5.47.357.25.607.645.7 1.094.29 1.383.845 6.51 1.109 11.031.224 3.928-2.812 12.468-2.812 12.468s14.112 5.536 15.696.725c0 0-3.406-12.982-2.231-16.132.027-.066 6.033 1.384 9.096-8.989 2.878-9.779-4.053-13.166-5.676-13.799-1.373-.514-7.869-3.703-13.334 7.289z"/><path fill="#02192B" stroke="#02192B" stroke-miterlimit="10" stroke-width=".401" d="M147.905 60.6s-10.587 12.508-18.799 6.26c0 0 5.703-14.84 18.799-6.26z"/><path fill="#02192B" d="M145.463 61.01c-2.336 2.253-4.779 4.375-7.419 6.273-1.069.777-2.31 1.819-3.617 2.148-1.175.303-2.601-.171-2.918-1.384-.237-.896.251-2.438.423-3.321.185-1.002-1.347-1.424-1.532-.422-.567 3.058-1.333 7.908 3.327 7.038 4.753-.896 9.558-6.023 12.872-9.226.726-.698-.396-1.819-1.136-1.107z"/><path fill="#F08884" d="M138.691 71.105a2.602 2.602 0 1 1-2.627 4.494 2.601 2.601 0 0 1-.937-3.558 2.61 2.61 0 0 1 3.564-.936z"/><path fill="#fff" d="M146.704 76.205l-5.584-1.291s.766 3.005 2.456 3.097c1.676.092 3.128-1.806 3.128-1.806z"/><path fill="#CD5671" d="M145.292 72.133l-.95 2.741 1.492.211a.368.368 0 0 0 .396-.487l-.938-2.465z"/><path fill="#02192B" d="M141.899 67.296c-.581.25.542-1.173 1.281-1.213.739-.04 1.36.448 1.386 1.081 0 .013-1.254-.461-2.667.132zm7.472.527c-.673-.303-1.465-.092-1.742.475 0 0 .871.026 1.782.606m-6.456 2.293c-.092.5.04.949.291.989.251.04.515-.33.594-.844.092-.5-.04-.949-.291-.988-.237-.04-.501.342-.594.843zm3.485.593c-.079.488.04.91.278.95.237.039.488-.317.567-.805.08-.487-.039-.91-.277-.949-.238-.026-.488.33-.568.804z"/><path fill="#CF4C48" d="M125.556 69.286s1.465-3.348 3.326 1.133l-3.326-1.133z"/><path fill="#fff" d="M127.351 72.594s-6.442 4.93-.475 10.412c.264.25.686.237.937-.026 1.294-1.331 4.462-5.483-.462-10.386z"/><path fill="#FF578C" d="M124.13 72.08l3.208 4.6 3.023-4.784-6.231.184z"/><path fill="#02192B" d="M139.826 82.532s-.937-.013-2.997-.501c-.488-.119-1.399-.435-2.231-.883-.475-.25-.963.303-.647.738 0 0 4.727 7.473 5.611 5.865.687-1.226-.634-4.152.264-5.22z"/><path fill="#FFB5AD" d="M129.12 322.1l-4.634 16.897s2.786 10.135 5.373 6.221c2.588-3.928 5.136-5.997 5.136-5.997l5.439-17.318-11.314.197z"/><path fill="#2D4A73" d="M136.209 339.142l15.697 8.949c.7.395.33 1.239-.568 1.225-7.247-.039-26.785-.237-31.921-.303-.62-.013-1.056-.461-.858-.896 1.083-2.425 4.779-11.624 5.201-11.69 0 0 3.67 5.917 5.809 5.324 1.835-.514 4.594-2.043 5.149-2.57.383-.356 1.082-.356 1.491-.039z"/><path stroke="#fff" stroke-linecap="round" stroke-miterlimit="10" stroke-width=".582" d="M139.391 340.17l-2.666 2.438m4.422-1.028l-2.667 2.425"/><path fill="#FFB5AD" d="M62.162 311.754l-6.39 15.71s-2.085 10.307 1.994 7.961c4.08-2.346 7.3-3.058 7.3-3.058l8.99-14.866-11.894-5.747z"/><path fill="#2D4A73" d="M66.188 332.855l10.007 15.038c.449.672-.264 1.252-1.056.844-6.456-3.282-23.816-12.231-28.383-14.59-.555-.29-.74-.884-.357-1.187 2.06-1.687 9.505-8.25 9.915-8.118 0 0 .607 6.932 2.785 7.367 1.875.369 5.017.237 5.756.013.488-.145 1.122.158 1.333.633z"/><path stroke="#fff" stroke-linecap="round" stroke-miterlimit="10" stroke-width=".582" d="M68.565 335.188l-3.472.988m4.422 1.068l-3.485.975"/><path stroke="#fff" stroke-miterlimit="10" stroke-width=".43" d="M86.493 317.751l-28.185-17.78m90.31 16.423l-35.406-.132" opacity=".5"/><path fill="#2D4A73" d="M112.711 145.636c-4.752 10.07-6.653 13.773-9.624 25.991-3.445 14.168-7.313 44.192-10.785 60.403-4.317 20.165-23.974 66.36-34.734 85.708.806 1.199 6.297 5.324 11.499 8.514 16.357-20.126 41.4-61.8 49.717-86.683 6.152-18.413 7.089-29.259 9.201-39.909.436-2.188 3.406-2.28 3.604-.052.766 8.659-.145 20.059-1.293 43.308-1.334 26.676-7.657 71.25-6.68 88.147 2.785 0 11.208.369 15.208.369 6.006-29.286 18.785-82.585 19.657-91.481 3.393-34.663 8.554-59.691-12.581-93.366-12.793.317-22.654-.738-33.189-.949z"/><path fill="#2D4A73" d="M113.952 145.636l42.417 24.488s-3.34-11.861-11.552-25.252l-30.865.764z"/><path fill="#fff" d="M141.411 96.792c-.053.08 3.564 3.453 3.776 4.125 1.333 4.35 4.119 8.053 5.439 17.068 2.006 13.628-1.07 20.719-5.73 27.506l-31.842.356s-6.64-42.28-2.112-50.557c0 0 14.416-2.65 16.938-2.425.013.013 13.544 10.662 13.531 3.927z"/><path fill="#FF6B99" d="M140.474 133.485l8.277 70.656 18.284 2.439-14.878-74.756s.858-4.046 0-11.295c-2.231-18.702-8.159-22.221-8.528-22.59-.37-.382-3.155 35.546-3.155 35.546z"/><path fill="#F995B4" d="M141.041 92.917l-.567 40.568 6.125-28.337-2.97-2.227 2.785-2.412-5.373-7.592z"/><path fill="#FF6B99" d="M137.517 133.485c-.185-.383-.951 70.643-.951 70.643s-32.555 3.229-41.453-9.74c0 0 12.357-47.948 14.575-52.402 2.231-4.442-1.109-30.367-1.109-30.367l13.175-18.517 15.763 40.383z"/><path fill="#F995B4" d="M128.051 88.476s5.373 22.221 9.281 45.193l-14.469-25.924 2.97-2.966-5.94-11.48 8.158-4.823z"/><path fill="#8EBFF4" d="M0 211.056l63.525 48.664 33.66-43.793-63.526-48.665L0 211.056z"/><path fill="#7AA4D1" d="M.003 211.05l63.525 48.664 11.212-14.587-63.525-48.665L.003 211.05z"/><path stroke="#8EBFF4" stroke-miterlimit="10" stroke-width="4.071" d="M49.198 201.927l8.95 6.854c3.763 2.886 9.163 2.174 12.054-1.582l6.865-8.936c2.89-3.756 2.178-9.147-1.585-12.033l-8.95-6.853c-3.763-2.887-9.162-2.175-12.053 1.581l-6.865 8.936c-2.891 3.756-2.178 9.147 1.584 12.033z"/><path fill="#fff" d="M20.525 208.82l2.455 1.885a1.072 1.072 0 0 0 1.505-.198l3.327-4.336a1.068 1.068 0 0 0-.198-1.502l-2.455-1.885a1.072 1.072 0 0 0-1.505.198l-3.327 4.336a1.08 1.08 0 0 0 .198 1.502zm35.169 26.94l2.456 1.884a1.073 1.073 0 0 0 1.504-.197l3.327-4.336a1.07 1.07 0 0 0-.198-1.503l-2.455-1.885a1.073 1.073 0 0 0-1.505.198l-3.327 4.336a1.071 1.071 0 0 0 .198 1.503z"/><path fill="#FFB5AD" d="M61.145 179.1c3.38-5.694 40.608-70.486 40.608-70.486l10.654 11.915c-2.324 8.87-34.285 58.61-35.5 59.744 0 0-.237 6.511-.448 6.207-.225-.303-4.08-4.402-4.396-4.178-.304.225-5.94 7.711-6.918 6.999-.977-.712 2.27-5.338 1.782-5.694-.488-.356-3.023 4.93-4.04 4.495-1.016-.449 1.783-5.694 1.255-5.773-.528-.092-2.495 5.021-3.234 4.626-.753-.395 1.782-5.694 1.557-5.997-.224-.303-2.178 4.811-3.234 4.626-.792-.145 1.056-5.034 1.914-6.484z"/><path fill="#FF9385" d="M86.756 164.905l13.663-49.977 7.512 15.156-21.175 34.821z"/><path fill="#FF6B99" d="M119.892 93.286c-1.175-1.304-9.835-.553-14.654 5.18-4.818 5.746-34.126 62.222-34.126 62.222l14.654 8.329s34.469-50.557 36.911-58.333c2.033-6.472.555-13.694-2.785-17.398z"/><path fill="#FF578C" d="M66.386 164.391l15.115 8.712c.7.409 1.598.171 2.007-.54a1.457 1.457 0 0 0-.541-2.004l-15.116-8.711a1.46 1.46 0 0 0-2.007.54 1.456 1.456 0 0 0 .542 2.003z"/><path fill="#FFB5AD" d="M182.547 94.235c2.957-11.453 6.389-24.949 6.574-34.333.158-7.96 1.148-20.126.383-22.38-.225-.645-6.905 5.18-7.776 9.82-.739 3.927-.594 10.135-.594 10.135s-8.858 22.392-12.449 28.995c-2.376 4.363-6.482 9.015-13.479 11.941-6.997 2.939.99.554.99.554l8.41 14.089s14.271-4.573 17.941-18.82z"/><path fill="#FF9385" d="M182.995 91.744c-2.679 19.111-20.726 22.854-20.726 22.854l-2.152-4.534c.013 0 9.109-.184 22.878-18.32z"/><path fill="#FF578C" d="M145.859 99.217s11.869-.369 18.918-9.634c7.05-9.266 12.806-26.478 12.806-26.478l12.607 4.257s-1.663 53.154-39.327 52.218l-5.004-20.363z"/><path fill="#FF6B99" d="M197.24 12.547v7.776c0 2.148 3.353 2.148 3.353 0v-7.776c-.013-2.148-3.353-2.148-3.353 0zm16.04 6.195l-5.954 5.904c-1.531 1.516.832 3.875 2.363 2.36l5.954-5.905c1.532-1.503-.832-3.875-2.363-2.36zm-23.934 5.218c-2.337-1.99-4.687-3.966-7.023-5.956-1.637-1.384-4.014.962-2.363 2.359 2.336 1.99 4.686 3.967 7.023 5.957 1.624 1.384 4-.975 2.363-2.36z"/><path fill="#00152B" d="M328.674 67.085c-.449-2.096 2.944-7.512 4.713-8.738 4.845-3.361 11.103-4.336 16.964-3.651 0 0 24.779 15.289-4.079 31.118-28.859 15.828 0 0 0 0"/><path fill="#00152B" d="M363.342 95.132s10.561-47.474-2.838-45.853c-13.4 1.621-9.347 8.923-9.347 8.923l5.28 1.212 4.872 37.734 2.033-2.016z"/><path fill="#F19D9B" d="M349.678 72.317a.505.505 0 0 0 .541.475c1.188-.106 3.895-.606 4.555 2.451.66 3.084-2.165 5.114-3.948 5.365-.514.078-1.702.29-2.019.698-.977 1.265-1.254 3.875-1.809 7.13-1.214 7.21 4.621 9.938 4.621 9.938s-17.69 10.702-18.324 1.595c0 0-.013-16.87-.119-16.95-1.571-1.318-7.234-1.436-4.766-13.68 2.284-11.335 10.482-11.269 12.581-11.084 1.783.17 7.868.013 8.687 14.062z"/><path fill="#00152B" d="M335.196 57.688s12.674 13.983 14.76 15.051c0-.013 6.125-18.979-14.76-15.051z"/><path fill="#EC5F5C" d="M353.506 76.258s-2.205-3.756-4.106 1.7l4.106-1.7z"/><path fill="#F7827E" d="M339.393 73.24a2.788 2.788 0 0 0-2.6 2.965 2.79 2.79 0 0 0 2.97 2.597 2.79 2.79 0 0 0 2.601-2.966 2.8 2.8 0 0 0-2.971-2.596zm-11.471 2.056a2.8 2.8 0 0 0 2.046-2.873 2.77 2.77 0 0 0-1.571-2.32s-.924 3.177-.475 5.193z"/><path fill="#fff" d="M330.126 73.662l4.422 1.726s-1.94 1.687-3.128.962c-1.202-.711-1.294-2.688-1.294-2.688z"/><path fill="#EC5F5C" d="M333.097 70.314l-.41 3.07-1.531-.513a.397.397 0 0 1-.145-.66l2.086-1.897z"/><path fill="#000" d="M338.43 68.693c.41.474.04-1.292-.594-1.647-.633-.356-1.412-.198-1.716.355 0 0 1.32.145 2.31 1.292zm-8.25-2.307c-.594.225.581-1.146 1.32-1.16.739-.013 1.333.502 1.346 1.134-.013 0-1.241-.514-2.666.026zm6.006 4.745c-.159.527-.502.883-.753.804-.251-.079-.33-.567-.171-1.094.158-.527.501-.883.752-.804.251.08.33.567.172 1.094zm-4.093-1.516c-.158.501-.475.844-.713.778-.237-.079-.316-.54-.158-1.041.158-.5.475-.844.713-.778.238.08.317.54.158 1.041zm1.096 13.417s5.373.54 8.013.132c2.654-.408-9.333 16.067-8.013-.132z"/><path fill="#7BA5C9" d="M371.606 353.995c30.556 0 55.327-1.422 55.327-3.176 0-1.754-24.771-3.176-55.327-3.176-30.557 0-55.328 1.422-55.328 3.176 0 1.754 24.771 3.176 55.328 3.176z"/><path fill="#F19B9B" d="M337.123 327.306l-1.927 13.668s-3.089 9.067-5.967 5.548c-2.865-3.505-5.717-5.364-5.717-5.364l-.937-14.208 14.548.356z"/><path fill="#F7827E" d="M329.598 327.82l-.501 18.584s9.082 1.357 5.703-4.705l1.98-12.89-7.182-.989z"/><path fill="#F19B9B" d="M382.866 326.252l4.264 13.628s3.248 2.833 4.41 2.768c2.125-.132 3.247-3.796 3.247-3.796l.357-12.6h-12.278z"/><path fill="#F7827E" d="M389.006 322.614l2.983 22.551s6.113 1.608 2.733-4.455l.739-17.344-6.455-.752z"/><path fill="#FF64A5" d="M322.575 341.092l-11.459 9.279c-.58.435-.171 1.173.674 1.173l16.924.132c.409 0 .779-.185.911-.462l1.281-2.609c.369-.751 1.108-.817 1.029-.013l.621 2.517c-.04.395 4.013.29 4.053-.079.224-2.241-.251-9.582-.647-11.625-.053-.29-.357-.527-.753-.58-.356-.052-.726.053-.95.264-1.149 1.107-4.792 4.428-6.746 3.756-1.307-.448-2.997-1.252-3.525-1.726-.37-.303-1.03-.317-1.413-.027zm72.371-2.715l6.508 10.887c.7 1.054.304 2.319-.95 3.071-2.033 1.212-3.697 3.624-4.977 3.664-2.31.066-5.914-2.373-8.013-3.282-1.413-.606-2.509-1.516-2.337-2.689l1.624-10.913c.026-.131.264-.184.369-.079l2.495 2.254c.819.738 3.037.646 3.578-.25.396-.633 1.32-2.663 1.32-2.663.093-.118.304-.105.383 0z"/><path fill="#285073" d="M360.424 146.678c5.254 9.278 8.04 16.066 11.05 27.862 3.498 13.68 41.413 129.372 43.063 154.242-4.317 1.042-32.99.884-35.71.739-8.673-24.831-30.641-105.465-34.35-121.109-.568-2.399-4.291-1.872-4 .58 2.112 17.858 13.492 93.101 19.168 120.581-2.27 1.147-35.129.896-37.743.567-2.838-30.643-17.941-146.625 4.845-184.214 10.39-1.436 23.103.435 33.677.752z"/><path stroke="#fff" stroke-miterlimit="10" stroke-width=".308" d="M328.08 149.999s-9.28 22.933-9.28 55.289 10.627 114.335 10.627 114.335m62.918 0l-37.07-170.692m-6.495.91s.317 29.641 13.637 27.308"/><path fill="#000" d="M326.866 150.592l42.892 32.251s1.795-17.397-5.835-31.684l-37.057-.567z" opacity=".21"/><path stroke="#fff" stroke-miterlimit="10" stroke-width=".308" d="M321.123 178.507c13.32 2.333 11.182-27.151 11.182-27.151m25.334 168.438h-37.043m92.74-.317l-38.258.317"/><path fill="#D14341" d="M373.177 202.27c0-.224.224-2.649.224-2.649l-1.095 3.479.871-.83zm-6.878 3.453l-.766.593s.792 1.45 1.136 1.331c0 0-.568-.685-.37-1.924z"/><path fill="#F19D9B" d="M336.253 131.969a241.308 241.308 0 0 0 3.234-6.827l-10.192-8.422c.185-2.557.291-4.797.238-6.168-.04-.87-.594-1.727-.713-1.661-2.31 1.226-9.729 23.948-11.195 27.256-.462 1.028-1.954.896-2.799.198l-24.871-21.747c-.634-.646-6.693-3.664-12.991-11.031-1.98 3.505 1.73 10.372 3.67 13.258 0 0 26.192 36.429 38.47 38.064 0 0 13.716-3.862 16.264-21.154 1.069.303 1.782.488 1.782.488 1.928-2.333 1.004-2.663-.897-2.254z"/><path fill="#F19D9B" d="M289.822 114.638s-6.31-9.174-7.406-9.49c-1.095-.329 2.363 6.089 1.373 6.155 0 0 4.792 3.084 6.033 3.335z"/><path fill="#FF6192" d="M333.058 97.372s-9.479-1.265-12.251 4.415c-2.786 5.668-8.951 31.026-8.951 31.026l-17.175-16.422-6.654 12.072s24.423 30.775 31.433 28.613c7.023-2.187 13.677-51.981 13.598-59.704z"/><path fill="#FF6192" d="M329.441 98.281c.303.739-8.647 22.024-8.278 29.22.37 7.262 5.334 19.467 4.938 20.561 0 0 5.637 4.441 36.753-.449 9.558-8.356 1.162-36.745-2.046-45.733 0 0-6.126-3.058-8.753-3.256-.013-.013-10.35 3.295-22.614-.343z"/><path fill="#fff" d="M405.006 196.418l-76.648 1.476c-1.597.027-2.931-1.344-2.957-3.084l-.845-51.467c-.026-1.74 1.254-3.163 2.852-3.189l76.648-1.477c1.597-.026 2.93 1.345 2.957 3.085l.845 51.467c.026 1.726-1.254 3.15-2.852 3.189z"/><path fill="#B6CCEB" d="M378.669 165.973l-14.429 14.88c-7.842-8.343-7.749-21.786.224-29.997 7.974-8.225 20.793-8.119 28.635.237 7.841 8.343 7.749 21.786-.225 29.997l-14.205-15.117z"/><path fill="#285073" d="M393.191 185.505c-7.974 8.224-20.793 8.119-28.634-.237l14.429-14.88 14.205 15.117z"/><path fill="#FF6192" d="M343.936 145.439h20.938c.792 0 1.439-.646 1.439-1.437v-.066a1.44 1.44 0 0 0-1.439-1.436h-20.938a1.44 1.44 0 0 0-1.439 1.436v.066c0 .791.647 1.437 1.439 1.437zm16.344 48.791h-15.209a1.148 1.148 0 0 1-1.148-1.146v-.053c0-.633.515-1.147 1.148-1.147h15.209c.633 0 1.148.514 1.148 1.147v.053c0 .632-.515 1.146-1.148 1.146z"/><path fill="#48838F" d="M369.943 165.96s6.482 3.005 1.465 21.338c-.264.975-.488 2.082-.29 3.057l1.122 7.882c.172.843.277 1.977-.436 2.451-.897.593-6.02 5.285-6.64 5.496-1.267.422.119-5.812-.092-9.094-.04-.58-.172 2.083-.251 3.242l-.159 2.557c-1.531-.698-1.505-3.637-1.742-4.639-.317-1.331-.053-2.175.092-2.504.7-1.45 2.033-4.336 2.231-6.933.119-1.529-.95-7.183-1.835-17.726l6.535-5.127z" opacity=".6"/><path fill="#F19D9B" d="M370.775 121.333c12.013 66.98 4.211 79.698 3.419 80.225-.99.659-6.588 5.799-7.274 6.023-1.386.462.132-6.365-.106-9.964-.039-.645-.198 2.281-.277 3.559l-.172 2.807c-1.676-.764-1.637-3.993-1.901-5.074-.356-1.45-.066-2.385.106-2.741.766-1.595 2.218-4.758 2.455-7.592.132-1.674-11.247-56.067-13.254-64.067-2.719-10.86.7-23.341 4.528-23.763 4.753-.527 11.472 15.038 12.476 20.587z"/><path fill="#FF6192" d="M379.197 184.701c-.488-2.056 2.099-41.134-6.627-66.689-3.908-11.427-9.518-17.806-14.271-17.279-3.828.422-7.247 12.903-4.528 23.763 2.007 7.987 6.205 43.665 9.716 61.892l15.71-1.687z"/><path stroke="#1E424D" stroke-miterlimit="10" stroke-width=".432" d="M333.414 69.945c-.555 2.992.594 5.694 2.574 6.063 1.967.356 4.013-1.766 4.555-4.745.554-2.992-.594-5.694-2.575-6.063-1.967-.369-4.013 1.766-4.554 4.745zm-7.076-2.135c-.502 2.702.541 5.166 2.323 5.496 1.782.33 3.631-1.595 4.132-4.31.502-2.702-.541-5.166-2.323-5.496-1.782-.316-3.631 1.608-4.132 4.31zm6.68 3.203l-.7-.172m7.895 1.951l11.947-.317"/></svg>