<svg xmlns="http://www.w3.org/2000/svg" width="68" height="68" fill="none" viewBox="0 0 68 68"><path fill="#351568" d="M0 0h68v68H0z"/><path fill="#fff" d="M45.25 47.438h-22.5a.944.944 0 0 1-.938-.938c0-.513.425-.938.938-.938h22.5c.513 0 .938.425.938.938a.944.944 0 0 1-.938.938zM26 29.475h-2c-.688 0-1.25.563-1.25 1.25V41.5c0 .688.563 1.25 1.25 1.25h2c.688 0 1.25-.563 1.25-1.25V30.725c0-.7-.563-1.25-1.25-1.25zm9-3.987h-2c-.688 0-1.25.562-1.25 1.25V41.5c0 .688.563 1.25 1.25 1.25h2c.688 0 1.25-.563 1.25-1.25V26.738c0-.688-.563-1.25-1.25-1.25zm9-3.988h-2c-.688 0-1.25.563-1.25 1.25V41.5c0 .688.563 1.25 1.25 1.25h2c.688 0 1.25-.563 1.25-1.25V22.75c0-.688-.563-1.25-1.25-1.25z"/><path fill="#fff" d="M48.25 47.438h-22.5a.944.944 0 0 1-.938-.938c0-.513.425-.938.938-.938h22.5c.513 0 .938.425.938.938a.944.944 0 0 1-.938.938zM29 29.475h-2c-.688 0-1.25.563-1.25 1.25V41.5c0 .688.563 1.25 1.25 1.25h2c.688 0 1.25-.563 1.25-1.25V30.725c0-.7-.563-1.25-1.25-1.25zm9-3.987h-2c-.688 0-1.25.562-1.25 1.25V41.5c0 .688.563 1.25 1.25 1.25h2c.688 0 1.25-.563 1.25-1.25V26.738c0-.688-.563-1.25-1.25-1.25zm9-3.988h-2c-.688 0-1.25.563-1.25 1.25V41.5c0 .688.563 1.25 1.25 1.25h2c.688 0 1.25-.563 1.25-1.25V22.75c0-.688-.563-1.25-1.25-1.25z"/></svg>