<svg xmlns="http://www.w3.org/2000/svg" width="14" height="14" fill="none" viewBox="0 0 14 14"><path d="M8.41 7l4.3-4.29a1.004 1.004 0 1 0-1.42-1.42L7 5.59l-4.29-4.3a1.004 1.004 0 0 0-1.42 1.42L5.59 7l-4.3 4.29a1 1 0 0 0 0 1.42.998.998 0 0 0 1.42 0L7 8.41l4.29 4.3a.998.998 0 0 0 1.42 0 .997.997 0 0 0 .219-1.095.998.998 0 0 0-.22-.325L8.41 7z"/><defs><linearGradient id="paint0_linear" x1="7" x2="7" y1=".996" y2="13.006" gradientUnits="userSpaceOnUse"><stop stop-color="#fff"/><stop offset="1" stop-color="#fff"/></linearGradient></defs></svg>