<svg xmlns="http://www.w3.org/2000/svg" width="368" height="368" fill="none" viewBox="0 0 368 368"><path fill="#351586" d="M161.272 135.203c1.281-.27 2.552-.554 3.813-.853 31.074-7.162 66.608-11.313 93.553 1.317 26.415 12.372 23.169 38.596 7.72 62.678-26.444 41.216-126.592 80.327-153.617 38.419-8.737-13.542 6.322-37.389-4.512-53.353-12.335-18.179-69.42-6.683-58.012-46.846 6.323-22.271 22.544-20.961 39.972-13.734 10.003 4.144 19.556 9.303 29.904 12.807 12.564 4.261 27.225 2.553 41.179-.435z"/><path fill="#fff" d="M161.272 135.203c1.281-.27 2.552-.554 3.813-.853 31.074-7.162 66.608-11.313 93.553 1.317 26.415 12.372 23.169 38.596 7.72 62.678-26.444 41.216-126.592 80.327-153.617 38.419-8.737-13.542 6.322-37.389-4.512-53.353-12.335-18.179-69.42-6.683-58.012-46.846 6.323-22.271 22.544-20.961 39.972-13.734 10.003 4.144 19.556 9.303 29.904 12.807 12.564 4.261 27.225 2.553 41.179-.435z" opacity=".9"/><path fill="#351586" d="M92.817 249.276h94.532v48.804a4.755 4.755 0 0 1-2.94 4.399 4.75 4.75 0 0 1-1.822.363H97.579a4.76 4.76 0 0 1-4.762-4.762v-48.804zm0 0h66.895l-8.229-10.532c-.905-1.156-3.142-2.091-5.004-2.091H86.318c-1.855 0-2.635.935-1.73 2.091l8.229 10.532z"/><path fill="#000" d="M92.817 249.276h66.895l-8.229-10.532c-.905-1.156-3.142-2.091-5.004-2.091H86.318c-1.855 0-2.635.935-1.73 2.091l8.229 10.532z" opacity=".2"/><path fill="#351586" d="M187.349 249.276h-66.888l8.228-6.867c.906-.736 3.143-1.362 5.005-1.362h60.153c1.863 0 2.635.611 1.73 1.362l-8.228 6.867z"/><path fill="#fff" d="M120.461 249.276h66.888v48.804a4.765 4.765 0 0 1-4.762 4.762h-57.364a4.755 4.755 0 0 1-4.4-2.94 4.764 4.764 0 0 1-.362-1.822v-48.804z" opacity=".2"/><path fill="#fff" d="M101.119 249.276v33.473l2.311-1.825 1.627 1.825 1.413-2.031 1.45 2.031 2.016-1.523 2.223 1.523v-33.473h-11.04z" opacity=".5"/><path stroke="#351586" stroke-miterlimit="10" d="M116.082 176.257l-11.886-9.98m18.046 15.154l-3.621-3.047"/><path fill="#351586" d="M157.85 202.319l39.214-49.01-52.212-43.836-34.592 39.692-5.152 9.929a2.771 2.771 0 0 0-.384 3.178c.182.334.43.628.73.862l47.104 39.553a3.903 3.903 0 0 0 5.292-.368z"/><path fill="#fff" d="M130.956 166.174l-5.645 9.089 2.275.494.772 2.105 1.509.088.699 1.803 1.848.537 1.42 2.26 5.645-9.09-8.523-7.286z" opacity=".5"/><path fill="#000" d="M195.356 151.874l-35.166 39.228-49.952-41.937 34.614-39.692 50.504 42.401z" opacity=".1"/><path fill="#351586" d="M195.357 151.874l-35.167 39.228 14.559 1.075 34.621-39.693-14.013-.61z"/><path fill="#000" d="M195.357 151.874l-35.167 39.228 14.559 1.075 34.621-39.693-14.013-.61z" opacity=".3"/><path fill="#351586" d="M130.846 108.854l-35.173 39.237 14.565 1.074 34.614-39.692-14.006-.619z"/><path fill="#000" d="M130.846 108.854l-35.173 39.237 14.565 1.074 34.614-39.692-14.006-.619z" opacity=".4"/><path fill="#000" d="M184.53 163.951l10.827-12.077-50.505-42.401-6.462 15.573 46.14 38.905z" opacity=".1"/><path fill="#000" d="M110.238 149.165l34.614-39.692-6.462 15.573-24.376 27.291-3.776-3.172z" opacity=".2"/><path fill="#263238" d="M207.552 78.016c.14.47 0 .934-.309 1.023-.309.088-.67-.221-.81-.692s0-.935.309-1.03c.309-.096.677.228.81.699z"/><path fill="#ED847E" d="M207.604 78.943a17.681 17.681 0 0 1-1.075 4.733 2.866 2.866 0 0 0 2.399-.243l-1.324-4.49z"/><path fill="#263238" d="M208.531 74.873a.292.292 0 0 0 .132-.162.28.28 0 0 0-.176-.368 2.872 2.872 0 0 0-2.635.302.29.29 0 0 0-.084.188.291.291 0 0 0 .234.307.293.293 0 0 0 .203-.031 2.299 2.299 0 0 1 2.09-.221.3.3 0 0 0 .236-.015z"/><path fill="#FFC3BD" d="M223.921 81.166c.324 3.9 1.288 11.04 3.591 12.689 0 0-.544 4.688-8.832 5.888-9.082 1.339-5.004-3.872-5.004-3.872 4.776-1.913 4.106-5.571 2.737-8.898l3.504-4.019c1.347-1.486 3.827-3.783 4.004-1.788z"/><path fill="#fff" d="M230.478 95.761c.736-.67-.736-3.349-1.641-3.724-2.37-.994-12.063 0-15.706 3.128a4.023 4.023 0 0 0-.287 3.452l17.634-2.856z"/><path fill="#351586" d="M261.346 292.493a1.98 1.98 0 0 1-1.531.045.602.602 0 0 1-.198-.663.671.671 0 0 1 .338-.456c.795-.464 2.76.147 2.841.176a.152.152 0 0 1 .07.044.147.147 0 0 1-.04.221 7.917 7.917 0 0 1-1.48.633zm-1.074-.898l-.17.074a.39.39 0 0 0-.198.265c-.052.265.051.346.081.368.353.25 1.553-.11 2.384-.53a4.819 4.819 0 0 0-2.097-.177z"/><path fill="#351586" d="M262.796 291.868a.13.13 0 0 1-.073 0c-.736-.147-2.275-1.067-2.356-1.759a.466.466 0 0 1 .332-.5.781.781 0 0 1 .647 0c.854.353 1.516 2.001 1.539 2.068a.133.133 0 0 1 0 .147.111.111 0 0 1-.089.044zm-1.913-2.009a.11.11 0 0 0-.067 0c-.169.073-.162.162-.154.198.044.413 1.089 1.156 1.832 1.428-.22-.478-.736-1.405-1.258-1.626a.489.489 0 0 0-.353 0zm-42.674 10.539c-.787 0-1.545-.11-1.803-.464a.543.543 0 0 1 0-.633.744.744 0 0 1 .456-.345c1.023-.273 3.173.949 3.261 1a.14.14 0 0 1 .063.062c.014.027.019.058.014.088a.141.141 0 0 1-.041.078.135.135 0 0 1-.08.037c-.617.116-1.243.175-1.87.177zm-.971-1.192a.806.806 0 0 0-.28.037.461.461 0 0 0-.287.198c-.103.184-.066.273 0 .324.287.398 1.84.405 2.944.243a6.533 6.533 0 0 0-2.377-.802z"/><path fill="#351586" d="M220.064 300.229h-.059c-.736-.331-2.208-1.664-2.098-2.355 0-.162.148-.368.545-.405a1.045 1.045 0 0 1 .802.25c.788.64.95 2.296.957 2.363a.13.13 0 0 1-.01.075.129.129 0 0 1-.049.057.135.135 0 0 1-.088.015zm-1.472-2.488h-.088c-.265 0-.28.133-.287.162-.067.42.934 1.472 1.685 1.921a3.36 3.36 0 0 0-.81-1.899.735.735 0 0 0-.5-.184z"/><path fill="#FFC3BD" d="M226.82 300.082h-6.145l-.611-14.22h6.146l.61 14.22zm43.167-9.708l-5.66 1.95-5.873-13.402 5.66-1.951 5.873 13.403z"/><path fill="#263238" d="M262.98 290.919l6.624-2.024a.534.534 0 0 1 .626.25l2.76 4.858a.903.903 0 0 1-.538 1.31c-2.318.669-3.474.875-6.373 1.766-1.789.545-6.293 2.252-8.832 2.76-2.54.508-3.357-1.921-2.37-2.355 4.416-1.951 6.226-4.166 7.279-5.888a1.51 1.51 0 0 1 .824-.677zm-42.261 8.449h6.705a.539.539 0 0 1 .333.12.537.537 0 0 1 .189.299l1.215 5.461a.886.886 0 0 1-.176.76.893.893 0 0 1-.707.33c-2.422-.037-5.888-.184-8.957-.184-3.555 0-5.049.198-9.223.198-2.517 0-3.216-2.546-2.163-2.782 4.806-1.052 7.154-1.163 11.305-3.724a2.89 2.89 0 0 1 1.479-.478z"/><path fill="#FFC3BD" d="M238.567 97.77c1.788 1.641 3.334 3.283 4.938 4.997a69.185 69.185 0 0 1 4.534 5.381 51.233 51.233 0 0 1 4.092 6.064 26.435 26.435 0 0 1 1.723 3.636c.125.346.25.677.353 1.053.121.379.221.765.302 1.155l.125.611.088.677a7.138 7.138 0 0 1 0 1.87 7.807 7.807 0 0 1-1.266 3.267 10.82 10.82 0 0 1-1.693 1.951 19.635 19.635 0 0 1-3.356 2.451 43.546 43.546 0 0 1-6.624 3.083 79.728 79.728 0 0 1-13.38 3.68l-1.288-4.416c3.996-1.729 8.044-3.599 11.776-5.593a44.58 44.58 0 0 0 5.233-3.224 11.707 11.707 0 0 0 1.906-1.693c.174-.186.32-.397.434-.625.059-.125 0-.111-.073.154-.052.494-.045.111-.162-.154a5.061 5.061 0 0 0-.17-.456 13.982 13.982 0 0 0-.228-.523 23.164 23.164 0 0 0-1.332-2.333 55.563 55.563 0 0 0-3.68-4.865 125.688 125.688 0 0 0-4.247-4.769c-1.464-1.568-3.003-3.151-4.416-4.608l6.411-6.771z"/><path fill="#FFC3BD" d="M228.8 132.531l-5.792 1.752 3.724 6.123s3.423-1.413 4.181-4.32l-2.113-3.555zm-8.133 3.923l2.282 5.049 3.746-1.089-3.724-6.131-2.304 2.171z"/><path fill="#351586" d="M224.995 99.433c-.552 5.888 11.901 15 11.901 15l11.99-8.206a25.234 25.234 0 0 0-8.832-9.384c-6.875-4.402-14.367-4.725-15.059 2.59z"/><path fill="#fff" d="M224.995 99.433c-.552 5.888 11.901 15 11.901 15l11.99-8.206a25.234 25.234 0 0 0-8.832-9.384c-6.875-4.402-14.367-4.725-15.059 2.59z" opacity=".3"/><path fill="#351586" d="M204.608 98.963s-5.38 8.257 7.397 52.55l32.487-4.799c-.456-4.489-5.888-24.074-6.072-45.485a7.665 7.665 0 0 0-2.405-5.514 7.644 7.644 0 0 0-5.647-2.074c-.942.052-1.914.118-2.878.214a121.048 121.048 0 0 0-13.807 2.038 62.316 62.316 0 0 0-9.075 3.07z"/><path fill="#fff" d="M204.608 98.963s-5.38 8.257 7.397 52.55l32.487-4.799c-.456-4.489-5.888-24.074-6.072-45.485a7.665 7.665 0 0 0-2.405-5.514 7.644 7.644 0 0 0-5.647-2.074c-.942.052-1.914.118-2.878.214a121.048 121.048 0 0 0-13.807 2.038 62.316 62.316 0 0 0-9.075 3.07z" opacity=".3"/><path fill="#000" d="M203.813 113.197l.111-.125 7.639.677c1.163 4.931-3.091 11.658-5.336 14.779a143.782 143.782 0 0 1-2.414-15.331zm16.251 172.673l.316 7.33h6.146l-.316-7.33h-6.146zm44.05-8.899l-5.66 1.951 3.032 6.911 5.66-1.951-3.032-6.911z" opacity=".2"/><path fill="#FFC3BD" d="M223.118 72.363c1.355 5.94 2.444 9.347.376 13.248-3.106 5.807-11.099 5.248-14.198-.169-2.789-4.88-4.541-13.77.493-17.774a8.324 8.324 0 0 1 7.971-1.36 8.313 8.313 0 0 1 5.358 6.055z"/><path fill="#263238" d="M211.188 78.185l-2.26 1.384.214-7.728a6.675 6.675 0 0 1-4.092-1.185c.817-.78 13.535-5.233 17.502-4.46.412-.17.912-.935.912-.935s.155.964-.515 1.332c.486-.095 1.7.14 2.039.854a2.66 2.66 0 0 0-1.686.096s4.416.67 2.849 6.793c-1.759 6.75-1.178 10.628-1.178 10.628s-3.282 2.54-6.138 2.068c-3.047-3.356-7.448-7.39-7.647-8.847z"/><path fill="#263238" d="M206.86 70.045c-3.584 0-4.872-1.751-5.792-3.223 2.576-.273 7.941-1.929 11.923-2.208 3.982-.28 8.346.463 7.029 2.208-1.318 1.744-13.16 3.223-13.16 3.223z"/><path fill="#263238" d="M207.648 68.448c-2.944-.412-5.815-3.187-3.607-5.844.817 1.95 6.33 1.722 10.245.905 5.152-1.074 8.722.663 6.897 4.173-1.001 1.921-13.535.766-13.535.766z"/><path fill="#FFC3BD" d="M214.367 76.426a6.91 6.91 0 0 1-.191 4.416c-.736 1.847-2.37 1.472-3.224-.125-.736-1.472-1.295-4.144-.044-5.476 1.251-1.332 2.929-.56 3.459 1.185z"/><path fill="#263238" d="M223.531 149.813s5.269 44.859 9.096 62.435c4.188 19.254 24.848 71.745 24.848 71.745l10.304-3.562s-13.248-39.523-16.766-66.439c-2.701-20.667-6.551-67.278-6.551-67.278l-20.931 3.099z"/><path fill="#351586" d="M254.84 280.696c-.052 0 2.112 4.416 2.112 4.416l12.034-3.909-1.413-3.591-12.733 3.084z"/><path fill="#000" d="M226.438 172.827c1.648 12.468 3.761 27.232 5.615 36.66 2.731-14.447 3.371-32.693-5.615-36.66z" opacity=".3"/><path fill="#263238" d="M212.005 151.513s-4.372 42.143-3.68 60.867c.692 19.475 9.789 79.4 9.789 79.4h10.399s-1.913-58.792-1.472-77.913c.508-20.851 8.324-65.806 8.324-65.806l-23.36 3.452z"/><path fill="#351586" d="M216.09 287.636c-.045 0 .588 4.313.588 4.313h12.652l.346-3.849-13.586-.464z"/><path fill="#FFC3BD" d="M209.988 109.311c-1.148 1.825-2.311 3.466-3.518 5.152-1.207 1.685-2.473 3.312-3.761 4.931a93.347 93.347 0 0 1-8.515 9.288c-.825.736-1.583 1.472-2.473 2.142l-.648.522-.324.258c-.118.096-.169.147-.412.324-.729.52-1.53.931-2.377 1.222a13.841 13.841 0 0 1-4.07.736 22.752 22.752 0 0 1-3.511-.155 44.182 44.182 0 0 1-12.328-3.489l1.273-4.416a81.05 81.05 0 0 0 11.349.545 22.608 22.608 0 0 0 2.503-.272 6.018 6.018 0 0 0 1.795-.56c.177-.095.273-.191.251-.213-.022-.022.095-.096.162-.162l.25-.228.493-.464c.662-.589 1.288-1.303 1.936-1.95 1.273-1.369 2.539-2.775 3.739-4.269 1.199-1.494 2.414-2.996 3.591-4.541 1.178-1.546 2.319-3.113 3.467-4.681 1.148-1.568 2.267-3.216 3.326-4.74l7.802 5.02z"/><path fill="#351586" d="M214.264 107.36c2.473 8.096-11.886 17.068-11.886 17.068l-9.333-11.886a52.071 52.071 0 0 1 7.728-10.812c6.352-6.911 11.607-.53 13.491 5.63z"/><path fill="#fff" d="M214.264 107.36c2.473 8.096-11.886 17.068-11.886 17.068l-9.333-11.886a52.071 52.071 0 0 1 7.728-10.812c6.352-6.911 11.607-.53 13.491 5.63z" opacity=".3"/><path fill="#FFC3BD" d="M171.488 126.099l-7.559-1.384.795 6.536s3.93 2.208 6.779-1.244l-.015-3.908zm-10.473.088l1.634 4.718 2.06.346-.795-6.536-2.899 1.472z"/></svg>