<svg xmlns="http://www.w3.org/2000/svg" width="11" height="17" viewBox="0 0 11 17"><path d="M5.5 15.437a.578.578 0 1 0 0-1.156.578.578 0 0 0 0 1.156z"/><path d="M8.835 0h-6.67A1.76 1.76 0 0 0 .408 1.757v13.486A1.76 1.76 0 0 0 2.165 17h6.67c.969 0 1.757-.788 1.757-1.757V1.757C10.592.788 9.804 0 8.835 0zM1.542 3.438h7.916v9.437H1.542V3.438zm.623-2.305h6.67c.344 0 .623.28.623.624v.548H1.542v-.548c0-.344.28-.624.623-.624zm6.67 14.734h-6.67a.624.624 0 0 1-.623-.624v-1.235h7.916v1.235c0 .344-.28.624-.623.624z"/></svg>