<svg xmlns="http://www.w3.org/2000/svg" width="20" height="20" viewBox="0 0 20 20"><path fill-rule="evenodd" d="M17.96 11.422c.339.171.6.441.784.711.359.558.33 1.242-.019 1.845l-.678 1.08a2.04 2.04 0 0 1-1.713.936c-.34 0-.717-.09-1.027-.27-.251-.153-.542-.207-.852-.207-.958 0-1.762.747-1.79 1.638 0 1.035-.891 1.845-2.005 1.845H9.343c-1.123 0-2.013-.81-2.013-1.845-.02-.891-.823-1.638-1.782-1.638-.32 0-.61.054-.852.207-.31.18-.697.27-1.026.27-.697 0-1.365-.36-1.723-.936l-.668-1.08c-.359-.585-.378-1.287-.02-1.845.155-.27.446-.54.775-.711.27-.126.445-.333.61-.576.484-.774.193-1.791-.63-2.25-.958-.513-1.268-1.656-.716-2.547l.649-1.062c.561-.891 1.762-1.206 2.73-.684.842.432 1.936.144 2.43-.621.155-.252.242-.522.223-.792-.02-.351.087-.684.27-.954.359-.558 1.008-.918 1.714-.936h1.366c.716 0 1.365.378 1.723.936.174.27.29.603.261.954-.02.27.068.54.223.792.494.765 1.588 1.053 2.44.621.958-.522 2.168-.207 2.72.684l.649 1.062c.561.891.252 2.034-.716 2.547-.823.459-1.114 1.476-.62 2.25.155.243.329.45.6.576zM7.262 9.966a2.497 2.497 0 0 0 2.513 2.496 2.474 2.474 0 0 0 2.487-2.496 2.482 2.482 0 0 0-2.487-2.504 2.504 2.504 0 0 0-2.513 2.504z" clip-rule="evenodd"/></svg>