<svg xmlns="http://www.w3.org/2000/svg" width="65" height="64" fill="none" viewBox="0 0 65 64"><g clip-path="url(#clip0)"><path fill="#F88F01" d="M63.17 47.994L40.562 6.434C36.93.32 28.075.311 24.438 6.434L1.83 47.994c-3.713 6.248.782 14.161 8.06 14.161h45.217c7.272 0 11.776-7.906 8.062-14.161zM32.5 54.655a3.755 3.755 0 0 1-3.75-3.75 3.755 3.755 0 0 1 3.75-3.75 3.755 3.755 0 0 1 3.75 3.75 3.755 3.755 0 0 1-3.75 3.75zm3.75-15a3.755 3.755 0 0 1-3.75 3.75 3.755 3.755 0 0 1-3.75-3.75v-18.75a3.755 3.755 0 0 1 3.75-3.75 3.755 3.755 0 0 1 3.75 3.75v18.75z"/></g><defs><clipPath id="clip0"><path fill="#fff" d="M0 0h64v64H0z" transform="translate(.5)"/></clipPath></defs></svg>