<svg xmlns="http://www.w3.org/2000/svg" width="40" height="41" fill="none" viewBox="0 0 40 41"><g clip-path="url(#clip0)"><path fill="#035397" d="M20 40.5c11.046 0 20-8.954 20-20S31.046.5 20 .5 0 9.454 0 20.5s8.954 20 20 20z"/><path fill="#fff" d="M25.86 13.469c0-3.231-2.63-5.86-5.86-5.86a5.866 5.866 0 0 0-5.86 5.86c0 3.23 2.63 5.86 5.86 5.86 3.23 0 5.86-2.63 5.86-5.86zM20 19.329c-5.816 0-10.547 4.73-10.547 10.546v1.098c0 .333.142.65.39.873 2.854 2.558 6.462 3.966 10.157 3.966 3.695 0 7.303-1.408 10.157-3.966.248-.222.39-.54.39-.873v-1.098c0-5.816-4.732-10.547-10.547-10.547z"/></g><defs><clipPath id="clip0"><path fill="#fff" d="M0 0h40v40H0z" transform="translate(0 .5)"/></clipPath></defs></svg>