<svg xmlns="http://www.w3.org/2000/svg" width="24" height="24" fill="#fff" viewBox="0 0 24 24"><path fill="current-color" d="M20.25 4.125a1.5 1.5 0 00-1.5-1.5h-.375V3.75a.75.75 0 01-.75.75h-.75a.75.75 0 00.75-.75V1.5a.75.75 0 10-1.5 0v1.125H14.25V3.75a.75.75 0 01-.75.75h-.75a.75.75 0 00.75-.75V1.5a.75.75 0 10-1.5 0v1.125H9.75V3.75A.75.75 0 019 4.5h-.75A.75.75 0 009 3.75V1.5a.75.75 0 10-1.5 0v1.125H5.625V3.75a.75.75 0 01-.75.75h-.75a.75.75 0 00.75-.75V1.5a.75.75 0 10-1.5 0v1.125H2.25a1.5 1.5 0 00-1.5 1.5v2.25h19.5v-2.25zM19.125 15a4.125 4.125 0 100 8.25 4.125 4.125 0 000-8.25zm0 4.875a.745.745 0 01-.271-.053l-1.37 1.096-.468-.586 1.37-1.096c-.005-.037-.011-.073-.011-.111 0-.277.152-.516.375-.646v-2.354h.75v2.354a.747.747 0 01-.375 1.396z"/><path fill="current-color" d="M2.25 21h12.375a4.876 4.876 0 0 1 2.625-6.375h-1.875v-2.25h2.25v2.113a4.865 4.865 0 0 1 1.5-.238c.388 0 .763.05 1.125.136V7.125H.75V19.5a1.5 1.5 0 0 0 1.5 1.5zM15.375 8.25h2.25v2.25h-2.25V8.25zm-4.125 0h2.25v2.25h-2.25V8.25zm0 4.125h2.25v2.25h-2.25v-2.25zm0 4.125h2.25v2.25h-2.25V16.5zM7.125 8.25h2.25v2.25h-2.25V8.25zm0 4.125h2.25v2.25h-2.25v-2.25zm0 4.125h2.25v2.25h-2.25V16.5zM3 8.25h2.25v2.25H3V8.25zm0 4.125h2.25v2.25H3v-2.25zM3 16.5h2.25v2.25H3V16.5z"/></svg>