<svg width="24" height="24" viewBox="0 0 24 24" fill="none" xmlns="http://www.w3.org/2000/svg">
<g clip-path="url(#clip0)">
<path d="M9.00024 10C11.7617 10 14.0002 7.76142 14.0002 5C14.0002 2.23858 11.7617 0 9.00024 0C6.23882 0 4.00024 2.23858 4.00024 5C4.00024 7.76142 6.23882 10 9.00024 10Z" fill="current-color"/>
<path d="M11.534 20.8C11.013 19.898 11.117 18.787 11.737 18C11.117 17.213 11.013 16.103 11.534 15.2L12.343 13.8C12.788 13.029 13.618 12.55 14.509 12.55C14.631 12.55 14.751 12.559 14.87 12.576C14.903 12.494 14.945 12.417 14.986 12.339C14.446 12.126 13.863 12 13.25 12H4.75C2.131 12 0 14.131 0 16.75V20.25C0 20.664 0.336 21 0.75 21H11.649L11.534 20.8Z" fill="current-color"/>
<path d="M21.7025 18.4691C21.7225 18.3141 21.7495 18.1601 21.7495 18.0001C21.7495 17.8391 21.7215 17.6861 21.7025 17.5311L22.6035 16.8491C22.8045 16.6971 22.8605 16.4191 22.7345 16.2001L21.9255 14.8001C21.7995 14.5821 21.5305 14.4911 21.2985 14.5891L20.2615 15.0261C20.0085 14.8331 19.7395 14.6631 19.4425 14.5391L19.3045 13.4381C19.2725 13.1881 19.0605 13.0001 18.8085 13.0001H17.1915C16.9395 13.0001 16.7265 13.1881 16.6955 13.4381L16.5575 14.5391C16.2605 14.6631 15.9905 14.8341 15.7385 15.0261L14.7015 14.5891C14.4695 14.4911 14.2005 14.5811 14.0745 14.8001L13.2655 16.2001C13.1395 16.4181 13.1955 16.6961 13.3965 16.8491L14.2975 17.5311C14.2775 17.6861 14.2505 17.8401 14.2505 18.0001C14.2505 18.1611 14.2785 18.3141 14.2975 18.4691L13.3965 19.1511C13.1955 19.3031 13.1395 19.5811 13.2655 19.8001L14.0745 21.2011C14.2005 21.4191 14.4695 21.5101 14.7015 21.4121L15.7385 20.9741C15.9915 21.1671 16.2605 21.3371 16.5575 21.4611L16.6955 22.5621C16.7265 22.8121 16.9385 23.0001 17.1905 23.0001H18.8075C19.0595 23.0001 19.2725 22.8121 19.3035 22.5621L19.4415 21.4611C19.7385 21.3371 20.0085 21.1661 20.2605 20.9741L21.2975 21.4111C21.5295 21.5091 21.7985 21.4191 21.9245 21.2001L22.7335 19.7991C22.8595 19.5811 22.8035 19.3031 22.6025 19.1501L21.7025 18.4691ZM17.9995 20.0001C16.8945 20.0001 15.9995 19.1051 15.9995 18.0001C15.9995 16.8951 16.8945 16.0001 17.9995 16.0001C19.1045 16.0001 19.9995 16.8951 19.9995 18.0001C19.9995 19.1051 19.1045 20.0001 17.9995 20.0001Z" fill="current-color"/>
</g>
<defs>
<clipPath id="clip0">
<rect width="24" height="24" fill="current-color"/>
</clipPath>
</defs>
</svg>
