<svg xmlns="http://www.w3.org/2000/svg" width="22" height="24" fill="#fff" viewBox="0 0 22 24"><path fill="current-color" d="M17.774 15.51a5.22 5.22 0 0 1-4.225 2.155h-2.434c-.84 0-1.557-.534-1.828-1.281-.335-.1-.663-.23-.983-.389a6.62 6.62 0 0 1-1.836-1.359 7.84 7.84 0 0 0-6.149 7.655v.49c0 .673.546 1.22 1.22 1.22H20.46a1.22 1.22 0 0 0 1.22-1.22v-.49a7.834 7.834 0 0 0-3.907-6.782z"/><path fill="current-color" d="M5.172 12.122c.524 0 .98-.29 1.217-.719l.019.05.005.016c.555 1.46 1.634 2.683 3.056 3.218.344-.547.953-.91 1.646-.91h2.434c.243 0 .47-.07.667-.18.333-.186.632-.658.787-.908.247-.4.438-.824.608-1.287.096.174.227.325.384.443v.597a2.449 2.449 0 0 1-2.446 2.445h-2.434a.833.833 0 0 0 0 1.667h2.434a4.117 4.117 0 0 0 4.113-4.112v-.597c.337-.254.555-.657.555-1.111V7.258c0-.464-.227-.874-.576-1.126C17.37 2.705 14.495 0 11 0 7.504 0 4.63 2.705 4.36 6.132c-.35.252-.577.662-.577 1.126v3.476c0 .769.625 1.388 1.389 1.388zM11 1.666a5.002 5.002 0 0 1 4.97 4.5 1.394 1.394 0 0 0-.39.483c-.786-2.052-2.54-3.48-4.58-3.48-2.083 0-3.81 1.478-4.577 3.471l-.003.009a1.393 1.393 0 0 0-.39-.483 5.002 5.002 0 0 1 4.97-4.5z"/></svg>