<svg xmlns="http://www.w3.org/2000/svg" width="24" height="24" fill="#fff" viewBox="0 0 24 24"><path fill="current-color" d="M19.078 14.11a.704.704 0 1 0 .001 1.407.704.704 0 0 0 0-1.408z"/><path fill="current-color" d="M23.297 4.266H7.09v2.109a.703.703 0 1 1-1.407 0v-2.11H.703A.703.703 0 0 0 0 4.97v4.218c0 .39.314.704.703.704 1.163 0 2.11.946 2.11 2.109s-.947 2.11-2.11 2.11a.703.703 0 0 0-.703.703v4.218c0 .389.314.703.703.703h4.922v-2.109a.703.703 0 1 1 1.406 0v2.11h16.266A.703.703 0 0 0 24 19.03V4.97a.703.703 0 0 0-.703-.703zM7.03 14.812a.703.703 0 1 1-1.406 0v-1.406a.703.703 0 1 1 1.406 0v1.406zm0-4.218a.703.703 0 1 1-1.406 0V9.188a.703.703 0 1 1 1.406 0v1.406zm4.313-1.406c0-1.164.946-2.11 2.11-2.11 1.162 0 2.108.946 2.108 2.11 0 1.163-.946 2.109-2.109 2.109a2.112 2.112 0 0 1-2.11-2.11zm1.72 7.616a.703.703 0 0 1-.196-.975l5.625-8.438a.703.703 0 1 1 1.17.78l-5.625 8.438a.704.704 0 0 1-.975.195zm6.014.118a2.112 2.112 0 0 1-2.11-2.11c0-1.163.947-2.109 2.11-2.109 1.163 0 2.11.946 2.11 2.11 0 1.163-.947 2.109-2.11 2.109z"/><path fill="current-color" d="M13.453 8.484a.704.704 0 1 0 .001 1.408.704.704 0 0 0 0-1.408z"/></svg>