<svg xmlns="http://www.w3.org/2000/svg" width="25" height="24" fill="#fff" viewBox="0 0 25 24"><path fill="current-color" d="M9.276 22.538v-3.68c0-.932.798-1.69 1.787-1.696h3.63c.994 0 1.799.76 1.799 1.696v3.67c0 .809.692 1.466 1.55 1.472h2.476a4.492 4.492 0 0 0 3.086-1.2 3.992 3.992 0 0 0 1.28-2.907V9.439c0-.881-.414-1.717-1.131-2.283L15.338.81C13.868-.3 11.766-.265 10.34.894L2.105 7.156C1.355 7.705.906 8.543.884 9.44v10.443C.884 22.156 2.838 24 5.249 24h2.42a1.6 1.6 0 0 0 1.104-.424c.293-.275.458-.648.458-1.038h.045z"/></svg>