<svg xmlns="http://www.w3.org/2000/svg" width="24" height="24" fill="#fff" viewBox="0 0 24 24"><g fill="current-color" clip-path="url(#clip0)"><path d="M9 10A5 5 0 109 0a5 5 0 000 10zM11.534 20.8a2.507 2.507 0 01.203-2.8 2.506 2.506 0 01-.203-2.8l.809-1.4a2.507 2.507 0 012.527-1.224c.033-.082.075-.159.116-.237A4.717 4.717 0 0013.25 12h-8.5A4.756 4.756 0 000 16.75v3.5c0 .414.336.75.75.75h10.899l-.115-.2z"/><path d="M21.702 18.469c.02-.155.047-.309.047-.469 0-.161-.028-.314-.047-.469l.901-.682a.5.5 0 0 0 .131-.649l-.809-1.4a.5.5 0 0 0-.627-.211l-1.037.437a3.715 3.715 0 0 0-.819-.487l-.138-1.101a.5.5 0 0 0-.496-.438h-1.617a.5.5 0 0 0-.496.438l-.138 1.101a3.731 3.731 0 0 0-.819.487l-1.037-.437a.5.5 0 0 0-.627.211l-.809 1.4a.5.5 0 0 0 .131.649l.901.682c-.02.155-.047.309-.047.469 0 .161.028.314.047.469l-.9.682a.5.5 0 0 0-.132.649l.81 1.401a.5.5 0 0 0 .626.211l1.037-.438c.253.193.522.363.82.487l.137 1.101c.031.25.243.438.495.438h1.617a.5.5 0 0 0 .496-.438l.138-1.101c.297-.124.567-.295.82-.487l1.036.437a.5.5 0 0 0 .627-.211l.81-1.401a.5.5 0 0 0-.132-.649l-.9-.681zM18 20a2 2 0 1 1 0-3.999 2 2 0 0 1 0 3.999z"/></g></svg>