<svg xmlns="http://www.w3.org/2000/svg" width="24" height="24" fill="#fff" viewBox="0 0 24 24"><path fill="current-color" fill-rule="evenodd" d="M22.613 13.896c.452.228.8.588 1.046.948.478.744.439 1.656-.026 2.46l-.903 1.44c-.478.768-1.369 1.248-2.285 1.248-.452 0-.956-.12-1.369-.36-.335-.204-.723-.276-1.136-.276-1.277 0-2.349.996-2.388 2.184 0 1.38-1.187 2.46-2.672 2.46h-1.756c-1.497 0-2.685-1.08-2.685-2.46-.025-1.188-1.097-2.184-2.375-2.184-.426 0-.813.072-1.136.276-.413.24-.93.36-1.368.36-.93 0-1.82-.48-2.298-1.248l-.89-1.44c-.478-.78-.504-1.716-.026-2.46.206-.36.593-.72 1.032-.948.362-.168.594-.444.814-.768.645-1.032.258-2.388-.84-3C.074 9.444-.338 7.92.397 6.732l.865-1.416c.749-1.188 2.35-1.608 3.64-.912 1.124.576 2.582.192 3.24-.828.207-.336.323-.696.297-1.056a2.062 2.062 0 0 1 .362-1.272C9.279.504 10.143.024 11.086 0h1.82c.955 0 1.82.504 2.298 1.248.232.36.387.804.348 1.272-.025.36.09.72.297 1.056.659 1.02 2.117 1.404 3.253.828 1.278-.696 2.892-.276 3.628.912l.865 1.416c.748 1.188.335 2.712-.956 3.396-1.097.612-1.484 1.968-.826 3 .207.324.439.6.8.768zM8.35 12.012c0 1.884 1.64 3.384 3.666 3.384 2.027 0 3.628-1.5 3.628-3.384s-1.601-3.396-3.628-3.396c-2.026 0-3.666 1.512-3.666 3.396z" clip-rule="evenodd"/></svg>