<svg xmlns="http://www.w3.org/2000/svg" width="25" height="25" fill="none" viewBox="0 0 25 25"><g clip-path="url(#clip0_1230:25694)"><path fill="#38AE0E" d="M.5 12.5c0 6.627 5.373 12 12 12s12-5.373 12-12-5.373-12-12-12-12 5.373-12 12z"/><path fill="#fff" d="M17 13.25h-3.75V17c0 .413-.338.75-.75.75a.752.752 0 0 1-.75-.75v-3.75H8a.752.752 0 0 1-.75-.75c0-.412.338-.75.75-.75h3.75V8c0-.412.338-.75.75-.75s.75.338.75.75v3.75H17c.413 0 .75.338.75.75s-.337.75-.75.75z"/></g><defs><clipPath id="clip0_1230:25694"><path fill="#fff" d="M0 0h24v24H0z" transform="translate(.5 .5)"/></clipPath></defs></svg>