<svg xmlns="http://www.w3.org/2000/svg" width="24" height="24" fill="none" viewBox="0 0 24 24"><path fill="#0D0229" d="M14.516 20a4 4 0 1 1-8 0 4 4 0 0 1 8 0z"/><path fill="#0D0229" d="M17.524 11.921c-3.39-.484-6.008-3.4-6.008-6.92 0-1.001.214-1.95.593-2.811A6.97 6.97 0 0 0 10.516 2c-3.86 0-7 3.14-7 7v2.788a6.705 6.705 0 0 1-2.388 5.133 1.752 1.752 0 0 0 1.138 3.08h16.5a1.752 1.752 0 0 0 1.128-3.089 6.696 6.696 0 0 1-2.37-4.99z"/><path fill="#0D0229" d="M23.516 5a5 5 0 1 1-10 0 5 5 0 0 1 10 0z"/></svg>