<svg xmlns="http://www.w3.org/2000/svg" width="360" height="360" fill="none" viewBox="0 0 360 360"><path fill="#EBEBEB" d="M299.326 79.864L297.8 77.38c-12.859-20.923-36.108-33.537-60.617-32.018a65.514 65.514 0 0 0-9.36 1.274c-22.284 4.709-41.674 21.355-49.68 42.667-4.723 12.535-6.048 26.964-15.019 36.915-11.671 12.96-31.493 13.356-48.917 12.823-17.424-.533-37.26-.079-48.88 12.917-7.28 8.143-9.591 19.72-9 30.621 1.555 28.865 21.923 54.677 47.829 67.508 25.906 12.83 56.405 13.982 84.758 8.337 39.716-7.92 77.487-29.621 100.188-63.151 22.702-33.531 28.419-79.215 10.224-115.409z"/><path fill="#1B0F0F" d="M334.556 330.73c0 .108-69.207.187-154.548.187-85.342 0-154.563-.079-154.563-.187s69.192-.187 154.563-.187c85.37 0 154.548.086 154.548.187zM107.431 66.492a23.04 23.04 0 0 1 5.199 14.731c-.036 3.039-.598 6.387 1.173 8.856 1.339 1.872 3.787 2.816 4.875 4.846 1.31 2.44.194 5.53 1 8.179 1.138 3.759 5.544 5.335 8.158 8.266a10.45 10.45 0 0 1 2.16 9.561 10.736 10.736 0 0 1-6.754 7.143 6.993 6.993 0 0 1-5.342-.087c-1.764-.878-2.88-2.685-3.744-4.449-1.735-3.471-16.978-22.227-17.842-26.014m.03-35.451c-6.235-1.008-12.24 3.132-14.854 8.878-2.613 5.746-2.7 12.24-2.88 18.576-.18 6.336-.64 12.902-3.859 18.331-2.045 3.449-5.213 6.48-5.71 10.447-.446 3.557 1.397 7.143.785 10.678-.533 3.082-2.88 5.76-2.786 8.878.115 3.758 3.981 6.588 7.733 6.688 3.75.101 7.264-1.864 10.21-4.197a39.24 39.24 0 0 0 11.21-14.249"/><path fill="#FFBE9D" d="M86.083 76.933A11.802 11.802 0 0 1 96.696 63.72c6.286-.604 11.88 4.083 12.823 10.332.828 5.48 1.534 11.01 1.512 13.018-.079 6.055-3.6 8.41-5.04 9.123a8.101 8.101 0 0 1-1.598.395v.044l1.339 6.955c.612 4.558-1.93 8.64-6.48 9.281-4.55.641-8.129-2.837-8.827-7.395l-4.342-28.54z"/><path fill="#1B0F0F" d="M108.281 76.703c-.101.144-.9-.281-1.923-.13-1.022.151-1.706.77-1.836.663-.129-.108 0-.288.317-.576a2.651 2.651 0 0 1 1.44-.72 2.519 2.519 0 0 1 1.555.259c.36.23.497.446.447.504zm-9.115 2.219c-.101.144-.9-.288-1.93-.137-1.03.151-1.7.778-1.829.67-.13-.108 0-.296.317-.576a2.65 2.65 0 0 1 1.44-.72 2.579 2.579 0 0 1 1.555.266c.353.223.497.432.447.497zm3.738 5.491a6.757 6.757 0 0 1 1.62-.54c.259-.065.497-.15.518-.338a1.34 1.34 0 0 0-.288-.72l-1.073-1.915c-1.49-2.679-2.606-4.896-2.498-4.961.108-.065 1.44 2.074 2.88 4.752.367.662.72 1.296 1.037 1.894.209.292.311.648.288 1.008a.657.657 0 0 1-.375.446c-.14.061-.288.105-.439.13a6.479 6.479 0 0 1-1.67.244z"/><path fill="#EB996E" d="M104.336 96.596s-3.909.9-9.295-1.354c0 0 2.326 5.004 9.662 3.226l-.367-1.872z"/><path fill="#1B0F0F" d="M98.64 76.236c-.058.295-1.102.31-2.283.634-1.18.324-2.11.784-2.304.561-.086-.108.043-.396.396-.72a4.119 4.119 0 0 1 3.492-.907c.475.108.699.295.699.432zm8.799-1.803c-.144.259-.886.122-1.735.23-.85.108-1.548.389-1.75.166-.086-.108 0-.353.274-.62a2.388 2.388 0 0 1 1.353-.59c.496-.06.999.033 1.44.267.346.194.483.417.418.547zm-10.498 5.81a.849.849 0 0 0 .972.72.819.819 0 0 0 .383-1.482.857.857 0 0 0-.635-.16.814.814 0 0 0-.72.922zm9.08-1.965a.86.86 0 0 0 .972.72.82.82 0 0 0 .383-1.482.856.856 0 0 0-.635-.16.82.82 0 0 0-.555.309.82.82 0 0 0-.165.613z"/><path fill="#EB996E" d="M104.515 86.401a1.265 1.265 0 0 0-1.497.62 1.311 1.311 0 0 0 .18 1.52 1.158 1.158 0 0 0 1.497.106c.278-.253.446-.604.468-.979a1.382 1.382 0 0 0-.23-.979.786.786 0 0 0-.915-.274"/><path fill="#1B0F0F" d="M108.721 69.12a9.278 9.278 0 0 0-3.946-5.543 10.296 10.296 0 0 0-5.515-1.937c-2-.086-3.952.623-5.43 1.973a5.645 5.645 0 0 0-1.67 3.924l.116-1.008a3.673 3.673 0 0 0 0 2.541c.165.44.367.886.54 1.325a5.688 5.688 0 0 0 2.692 2.93 3.7 3.7 0 0 0 1.8.44 2.16 2.16 0 0 0 1.635-.8 3.6 3.6 0 0 0 .389-2.577 6.155 6.155 0 0 0 1.965 2.16 2.161 2.161 0 0 0 2.708-.31c.59-.72.36-1.857 0-2.75a5.443 5.443 0 0 0 2.253 1.937 2.008 2.008 0 0 0 1.606.172 1.564 1.564 0 0 0 .835-1.08c.107-.458.114-.935.022-1.396z"/><path fill="#455A64" d="M103.515 71.038c-.065 0-.05-.857-.331-2.16a8.24 8.24 0 0 0-2.484-4.514 5.898 5.898 0 0 0-2.491-1.347 5.413 5.413 0 0 0-2.319-.057 6.686 6.686 0 0 0-2.001.828s.122-.18.439-.41a4.419 4.419 0 0 1 1.505-.678 5.384 5.384 0 0 1 2.455 0 6.1 6.1 0 0 1 2.664 1.44 8.054 8.054 0 0 1 2.498 4.745c.086.538.129 1.082.13 1.627.009.178-.013.356-.065.526z"/><path fill="#FFBE9D" d="M169.826 154.981l-27.684-10.98s-14.177-18.598-13.882-18.958l-9.957 10.901 14.472 19.577 33.545 7.862 5.76-1.598c-1.268-6.113-2.254-6.804-2.254-6.804z"/><path fill="#001E6C" d="M109.491 101.924l-3.772-1.44-16.287 2.067v2.88l-.468.057a33.385 33.385 0 0 0-9.972 3.874 17.022 17.022 0 0 0-7.92 17.33c.663 4.119 1.944 9.123 4.421 12.017 4.73 5.537 9.05-1.303 9.05-1.303s2.967 6.768 2.794 9.972c-.144 2.686-1.325 8.273-1.706 10.015a.526.526 0 0 0 .424.634l34.359 6.357.165-8.402-1.094-34.56-1.548-13.421s.05-6.408-8.446-6.077z"/><path fill="#001E6C" d="M117.41 105.77l13.104 18.928-10.548 12.845-2.556-31.773z"/><path fill="#1B0F0F" d="M120.24 145.599a8.213 8.213 0 0 1-.05-1.224c0-.85 0-1.966-.043-3.327a101.008 101.008 0 0 0-.785-10.922c-.54-4.248-1.368-8.043-1.995-10.8l-.763-3.24a8.556 8.556 0 0 1-.245-1.195c.164.374.294.762.389 1.159.223.72.526 1.85.871 3.218a88.175 88.175 0 0 1 2.117 10.8 84.75 84.75 0 0 1 .677 10.973c0 1.44-.036 2.549-.079 3.334.003.41-.028.819-.094 1.224z"/><path fill="#FAFAFA" d="M87.984 116.821c0 .058-.994.05-2.585.13a41.706 41.706 0 0 0-6.177.799 42.686 42.686 0 0 0-5.99 1.721c-1.498.554-2.398.964-2.427.907.184-.145.388-.264.604-.353.396-.216.987-.49 1.728-.799a33.54 33.54 0 0 1 12.24-2.535c.807 0 1.44 0 1.909.044.235-.008.471.021.698.086zm30.349 8.66a6.403 6.403 0 0 1-1.635.36c-2.662.388-5.359.48-8.042.273a6.489 6.489 0 0 1-1.656-.244 9.315 9.315 0 0 1 1.67 0h4.004c1.562 0 2.973-.159 3.996-.252a9.172 9.172 0 0 1 1.663-.137zm6.011-8.558a10.178 10.178 0 0 1-2.808 2.268 9.864 9.864 0 0 1-3.305 1.44c-.043-.1 1.44-.72 3.111-1.785 1.67-1.066 2.93-2.009 3.002-1.923zm-5.291-8.777a13.583 13.583 0 0 1-8.215 3.456c0-.115 1.98-.418 4.255-1.39s3.888-2.16 3.96-2.066zm.712 31.996a3.459 3.459 0 0 1-.677.353c-.454.216-1.109.482-1.944.792-2.17.78-4.41 1.349-6.689 1.699-2.279.352-4.587.48-6.89.382a23.755 23.755 0 0 1-2.088-.166 3.4 3.4 0 0 1-.756-.137c0-.064 1.094 0 2.88.044a42.34 42.34 0 0 0 13.485-2.074c1.642-.54 2.657-.95 2.679-.893zm.267 9.756s-.101.072-.31.18l-.921.404c-.792.374-1.966.864-3.435 1.44s-3.247 1.13-5.249 1.677a61.88 61.88 0 0 1-13.32 2.067 66.685 66.685 0 0 1-5.508 0c-1.57-.072-2.83-.188-3.7-.31l-1.001-.137a1.318 1.318 0 0 1-.346-.072 1.16 1.16 0 0 1 .353 0l1.008.065c.871.072 2.16.144 3.694.187 1.533.043 3.427 0 5.486-.072 2.06-.072 4.32-.331 6.674-.72a81.5 81.5 0 0 0 6.574-1.361 56.493 56.493 0 0 0 5.242-1.598c1.468-.526 2.664-.965 3.47-1.296l.936-.367c.114-.041.232-.07.353-.087z"/><path fill="#001E6C" d="M56.88 302.961l-3.895 17.59-7.106 13.024a1.859 1.859 0 0 0-.13 1.466 1.844 1.844 0 0 0 .98 1.098 1.838 1.838 0 0 0 1.684-.08c3.298-1.9 15.401-8.978 15.61-10.281.252-1.505 5.342-18.281 5.342-18.281l-12.485-4.536z"/><path fill="#fff" d="M46.728 336.141l17.59-11.52-.187.72a2.776 2.776 0 0 1-1.066 1.598c-1.44 1.03-5.45 3.795-14.594 9.137a1.849 1.849 0 0 1-1.742.065zm15.378-18.067a1.116 1.116 0 0 0-.64 1.347 1.073 1.073 0 0 0 1.325.648 1.184 1.184 0 0 0 .676-1.44 1.118 1.118 0 0 0-1.44-.526" opacity=".6"/><path fill="#1B0F0F" d="M52.603 329.472a5.761 5.761 0 0 0-1.202-1.735 5.58 5.58 0 0 0-1.923-.857c0-.05.252-.13.677-.086a2.878 2.878 0 0 1 1.498.662c.428.347.743.813.907 1.339.122.411.087.677.043.677zm-1.821 2.038c-.101.058-.526-.648-1.368-1.13-.538-.25-1.09-.464-1.656-.641a2.062 2.062 0 0 1 1.857.295c.958.555 1.268 1.455 1.167 1.476zm4.874-4.471a17.608 17.608 0 0 0-1.987-1.886 17.823 17.823 0 0 0-2.448-1.246 4.109 4.109 0 0 1 2.678.922 4.032 4.032 0 0 1 1.757 2.21zm1.634-5.251c-.072.094-.943-.547-2.16-.9-1.217-.352-2.318-.295-2.325-.417a4.588 4.588 0 0 1 4.514 1.317h-.029zm1.276-5.13a9.08 9.08 0 0 0-2.254-1 9.065 9.065 0 0 0-2.462 0c0-.044.223-.216.684-.353a4.018 4.018 0 0 1 3.542.72c.367.345.518.605.49.633zm-1.988-1.972c0-.229.05-.455.144-.663a4.602 4.602 0 0 1 .95-1.605 2.114 2.114 0 0 1 1.109-.764.77.77 0 0 1 .777.36c.133.269.16.576.08.864a2.616 2.616 0 0 1-2.794 1.8 3.038 3.038 0 0 1-2.513-2.246 1.082 1.082 0 0 1 .166-.864.722.722 0 0 1 .828-.194 2.63 2.63 0 0 1 1.008.885c.381.5.672 1.063.857 1.663.087.215.129.445.122.677a8.276 8.276 0 0 0-1.202-2.16 2.436 2.436 0 0 0-.893-.72.388.388 0 0 0-.454.108.721.721 0 0 0-.072.569 2.715 2.715 0 0 0 2.189 1.886 2.27 2.27 0 0 0 2.398-1.49.9.9 0 0 0 0-.605.401.401 0 0 0-.425-.201c-.375.103-.71.319-.958.619a7.391 7.391 0 0 0-1.317 2.081z"/><path fill="#1B0F0F" d="M56.405 304.869l-.843 4.032 12.737 2.117 1.066-3.521-12.506-4.536-.454 1.908z" opacity=".3"/><path fill="#001E6C" d="M113.76 309.471l-1.051 14.055s13.939 5.76 13.997 8.409l-27.36-1.058.72-21.975 13.694.569z"/><path fill="#fff" d="M104.321 322.015a1.119 1.119 0 0 0-.821 1.245 1.08 1.08 0 0 0 1.224.828 1.18 1.18 0 0 0 .864-1.324 1.118 1.118 0 0 0-1.368-.72m-4.859 8.834l.159-2.218 26.172 1.822s1.202.576 1.029 1.44l-27.36-1.044z" opacity=".6"/><path fill="#1B0F0F" d="M113.17 323.403c0 .137-.676.173-1.346.576-.67.404-1.044.951-1.166.893-.123-.058.108-.821.928-1.296.821-.475 1.62-.295 1.584-.173zm2.823 1.319c0 .137-.562.339-1.037.886-.475.547-.626 1.137-.763 1.13-.137-.007-.187-.77.418-1.44.604-.669 1.382-.72 1.382-.576zm1.496 3.476c-.122 0-.281-.655.086-1.368.368-.713 1.008-.986 1.059-.871.05.115-.346.49-.641 1.08-.295.59-.374 1.152-.504 1.159zm-4.448-8.02c-.058.115-.663-.094-1.44-.072-.778.021-1.354.237-1.44.122-.087-.115.518-.569 1.44-.583.921-.015 1.526.432 1.44.533z"/><path fill="#1B0F0F" d="M113.566 312.259l-.187 2.506-13.428-.648.094-2.894 13.521 1.036z" opacity=".3"/><path fill="#1B0F0F" d="M113.219 317.333a2.487 2.487 0 0 1-1.368-.058 6.02 6.02 0 0 1-1.44-.497 6.555 6.555 0 0 1-.77-.446 1.767 1.767 0 0 1-.403-.339.585.585 0 0 1 0-.72.712.712 0 0 1 .597-.28c.174.007.345.036.511.086.289.084.568.195.836.331.454.222.87.517 1.231.871.612.612.806 1.124.763 1.145-.043.022-.353-.389-.979-.9a5.806 5.806 0 0 0-1.195-.72 7.627 7.627 0 0 0-.778-.273c-.288-.087-.533-.094-.612 0-.079.093 0 .072 0 .158.086.095.186.178.295.245.231.161.472.307.72.439.415.229.852.417 1.303.562.439.101.87.233 1.289.396z"/><path fill="#1B0F0F" d="M113.04 317.52a2.26 2.26 0 0 1-.31-1.339 4.81 4.81 0 0 1 .245-1.49c.103-.282.231-.554.381-.814a1.15 1.15 0 0 1 .9-.662.657.657 0 0 1 .341.123.658.658 0 0 1 .221.287c.063.162.101.332.115.504a2.97 2.97 0 0 1 0 .922 3.139 3.139 0 0 1-.641 1.389c-.561.72-1.123.828-1.137.785-.015-.043.432-.309.871-.979a3.1 3.1 0 0 0 .482-1.267 2.84 2.84 0 0 0 0-.792c-.036-.288-.136-.533-.244-.504-.108.029-.375.201-.497.432-.141.23-.263.471-.367.72-.167.435-.274.89-.317 1.353-.094.807.029 1.332-.043 1.332zM85.478 157.895s-4.32.194-7.2 14.969c-2.88 14.774-24.833 134.489-24.833 134.489l15.92.144L99.36 193.679l-1.995 117.36 16.172 1.238s12.132-129.808 12.24-137.361c.144-9.418-5.264-18.943-5.264-18.943l-35.035 1.922z"/><path fill="#455A64" d="M107.359 156.637c.101 0-1.555 8.46-3.694 18.849-2.138 10.39-3.952 18.8-4.053 18.778-.101-.022 1.548-8.46 3.686-18.85 2.139-10.389 3.982-18.799 4.061-18.777zm2.476 2.11c0-.043.432-.173.929.266.141.128.253.285.327.461.075.175.111.364.105.555a1.277 1.277 0 0 1-.813 1.094 1.287 1.287 0 0 1-1.354-.18 1.344 1.344 0 0 1-.425-1.022c0-.663.447-.893.454-.85a2.04 2.04 0 0 0-.187.842 1.094 1.094 0 0 0 .381.764 1.023 1.023 0 0 0 .982.101 1.026 1.026 0 0 0 .617-.771 1.107 1.107 0 0 0-.274-.806c-.353-.411-.749-.396-.742-.454zm-.682 5.846c0-.043.447 0 .72.597a1.26 1.26 0 0 1-.05 1.066 1.265 1.265 0 0 1-1.807.348 1.267 1.267 0 0 1-.425-.528 1.249 1.249 0 0 1 .122-1.051c.339-.54.8-.526.785-.483-.014.044-.345.144-.554.605a1.064 1.064 0 0 0 0 .807.96.96 0 0 0 1.24.427.96.96 0 0 0 .373-.298c.135-.246.169-.536.093-.806-.209-.49-.533-.634-.497-.684zm-15.257-5.702c-.03.247-.092.49-.187.72a12 12 0 0 1-.842 1.908 13.989 13.989 0 0 1-11.074 7.294c-.692.06-1.389.06-2.08 0a2.881 2.881 0 0 1-.72-.116c0-.072 1.086.051 2.807-.165a14.608 14.608 0 0 0 10.872-7.164c.843-1.455 1.16-2.499 1.224-2.477zm30.974 10.503s-.187-.087-.482-.288a8.589 8.589 0 0 1-1.152-.994 12.235 12.235 0 0 1-3.521-9.137c.016-.506.081-1.01.194-1.504.079-.353.13-.54.159-.533.028.007-.087.784-.087 2.044a13.346 13.346 0 0 0 3.449 8.95c.842.929 1.476 1.404 1.44 1.462z"/><path fill="#FFBE9D" d="M180.72 169.81c.238-.576.173-.345-3.643-2.88 0 0 5.472 3.6 4.903 1.887a6.996 6.996 0 0 0-1.778-1.649c1.44.85 2.275.943 2.527.598.432-.598-2.7-2.88-4.19-3.91a35.806 35.806 0 0 0 4.276 2.628c.886.274.461-.763-.136-1.519-.598-.756-5.235-5.22-6.48-6.552a1.074 1.074 0 0 1-.378-.821 1.07 1.07 0 0 1 .378-.821c2.232-1.44 3.211-3.737 3.182-4.493a.816.816 0 0 0-.669-.684.809.809 0 0 0-.857.425 9.832 9.832 0 0 1-1.952 1.843 6.365 6.365 0 0 1-1.886 1.016c-.792.259-4.687.043-5.522-.382l-2.657 9.007s9.641 4.507 11.469 5.386c2.247 1.065 3.248 1.361 3.413.921z"/><path fill="#EB996E" d="M175.341 165.602c-.079.108 1.174 1.022 2.794 2.052 1.62 1.029 2.981 1.771 3.046 1.663.064-.108-1.188-1.03-2.801-2.052-1.613-1.023-2.967-1.8-3.039-1.663zm.908-1.766c-.072.108 1.21 1.159 2.88 2.354 1.67 1.196 3.053 2.081 3.125 1.98.072-.1-1.203-1.159-2.88-2.354-1.678-1.195-3.046-2.081-3.125-1.98zm.957-1.785c-.072.101 1.123 1.123 2.671 2.275 1.548 1.152 2.88 2.002 2.938 1.901.058-.101-1.116-1.123-2.664-2.275s-2.866-2.002-2.945-1.901z"/><path fill="#FFBE9D" d="M79.15 129.428l7.07.389c.5 1.974 1.17 3.901 2.001 5.76 5.695-9.878 10.08-23.119 11.203-28.44a43.619 43.619 0 0 0-.583-1.771 7.516 7.516 0 0 1 .087-2.995c.194-1.181.525-2.78.619-3.514.31-2.246.669-2.606 1.44-2.347 1.065.345-.439 6.314.432 6.444.475.065 1.044-1.98 1.217-3.658.172-1.677.921-6.833 1.476-7.2.813-.504 1.519.295 1.317 1.966-.201 1.67-.468 6.732.418 6.797.885.064 1.605-8.49 1.605-8.49s-.136-1.857.886-1.814c1.85.08.41 9.101.252 9.958-.115.59.85.72.936.058.086-.663.533-8.561 2.412-8.496 1.44.05-1.116 7.43-.302 9.144.813 1.713 1.375-5.81 2.757-5.71.511.043.893.144-.05 4.4a97.151 97.151 0 0 1-3.305 9.978c-2.16 11.808-11.8 49.58-26.863 42.668-8.424-3.867-12.362-23.04-12.362-23.04l7.336-.087z"/><path fill="#EB996E" d="M111.053 109.952a.979.979 0 0 1 .072-.259c.064-.187.144-.432.252-.72.237-.684.561-1.634.986-2.88a85.275 85.275 0 0 0 1.44-4.543c.259-.886.475-1.85.67-2.88.1-.518.194-1.051.259-1.598a6.142 6.142 0 0 0 0-.814c0-.28-.065-.511-.288-.518-.223-.007-.382.13-.54.367a4.412 4.412 0 0 0-.353.8c-.202.568-.36 1.173-.518 1.785-.159.612-.303 1.253-.49 1.9a2.969 2.969 0 0 1-.432.994.39.39 0 0 1-.194.122.33.33 0 0 1-.274-.064.928.928 0 0 1-.202-.267 2.051 2.051 0 0 1-.151-.554 17.777 17.777 0 0 1 .432-4.32c.123-.72.252-1.44.346-2.16.043-.367.086-.72.093-1.109.008-.389-.05-.8-.201-.864-.151-.065-.519.137-.72.44a4.357 4.357 0 0 0-.468 1.022 14.942 14.942 0 0 0-.555 2.304 43.641 43.641 0 0 0-.338 2.419c-.036.41-.079.82-.115 1.238l-.058.627a.91.91 0 0 1-.288.72.72.72 0 0 1-.849 0 .59.59 0 0 1-.26-.411.806.806 0 0 1 0-.23v-.151l.195-1.26c.122-.85.223-1.7.302-2.563a35.35 35.35 0 0 0 .159-2.607 8.647 8.647 0 0 0-.26-2.563.852.852 0 0 0-.36-.519.433.433 0 0 0-.482.159 2.356 2.356 0 0 0-.274 1.397 90.37 90.37 0 0 1-.583 4.99 25.03 25.03 0 0 1-.461 2.426c-.057.194-.115.396-.187.597a1.204 1.204 0 0 1-.41.619.427.427 0 0 1-.526-.115.858.858 0 0 1-.194-.324 2.933 2.933 0 0 1-.166-.619 24.051 24.051 0 0 1-.043-4.716c.106-.732.147-1.471.122-2.21a1.22 1.22 0 0 0-.403-.821.48.48 0 0 0-.374-.058 1.126 1.126 0 0 0-.195.087c-.064.057-.057 0-.1.122a9.806 9.806 0 0 0-.569 2.009c-.144.72-.267 1.375-.375 2.052-.108.677-.208 1.34-.295 2.002-.086.662-.129 1.31-.259 1.958a10.73 10.73 0 0 1-.504 1.857 3.494 3.494 0 0 1-.209.447c-.101.137-.158.309-.432.396a.357.357 0 0 1-.367-.159 1.066 1.066 0 0 1-.115-.266 2.803 2.803 0 0 1-.058-.475c0-1.231.166-2.355.231-3.442a8.674 8.674 0 0 0 0-1.562c0-.23-.108-.504-.238-.555a.665.665 0 0 0-.583 0c-.302.325-.49.74-.533 1.181-.108.44-.151.886-.23 1.31-.303 1.7-.62 3.169-.77 4.364a5.916 5.916 0 0 0 0 1.584c.1.432.251.821.33 1.123.08.302.159.518.21.72.026.077.045.157.057.238a.94.94 0 0 1-.101-.224l-.245-.72c-.1-.309-.252-.655-.374-1.13a5.759 5.759 0 0 1 0-1.627c.137-1.217.425-2.671.72-4.378.079-.424.122-.87.216-1.332a6.65 6.65 0 0 1 .194-.72c.072-.262.23-.492.447-.655a.901.901 0 0 1 .849 0 .967.967 0 0 1 .454.835c.05.542.05 1.086 0 1.628-.051 1.094-.223 2.239-.195 3.405.006.138.023.275.051.41 0 .137.101.195.086.166-.014-.029.137-.115.195-.23.071-.128.133-.26.187-.396.213-.584.37-1.187.468-1.8.122-.627.165-1.275.252-1.944.086-.67.173-1.332.281-2.016.108-.684.23-1.368.367-2.067a9.34 9.34 0 0 1 .605-2.124.711.711 0 0 1 .252-.28c.095-.053.197-.094.302-.123a.878.878 0 0 1 .72.108 1.55 1.55 0 0 1 .583 1.094c.054.392.054.79 0 1.181-.036.368-.072.72-.093 1.124a22.891 22.891 0 0 0 .043 4.608c.031.181.079.36.144.532.021.07.058.134.108.187h.036v.008c.09-.121.16-.254.209-.396.067-.178.124-.365.172-.562.195-.763.324-1.57.447-2.376.245-1.62.425-3.283.576-4.968v.036a2.782 2.782 0 0 1 .367-1.706.899.899 0 0 1 1.001-.296 1.297 1.297 0 0 1 .619.793c.231.885.325 1.8.281 2.714 0 .893-.079 1.771-.159 2.642a49.637 49.637 0 0 1-.309 2.578c-.065.432-.13.85-.195 1.274-.057.267-.043.274 0 .353a.302.302 0 0 0 .339 0c.086-.065.101-.187.122-.425l.051-.626.129-1.246c.087-.82.202-1.641.339-2.44.133-.803.325-1.595.576-2.37.13-.39.307-.765.525-1.115.119-.189.276-.35.461-.475a.796.796 0 0 1 .72-.109.848.848 0 0 1 .396.634c.03.203.042.407.036.612 0 .396-.05.778-.094 1.16-.1.72-.237 1.483-.367 2.21a18.152 18.152 0 0 0-.446 4.168c.02.151.059.299.115.44a.791.791 0 0 0 .094.144v-.051c.161-.26.28-.544.352-.842.188-.627.339-1.26.504-1.88a18.62 18.62 0 0 1 .54-1.82c.1-.297.23-.582.389-.85.086-.147.198-.276.331-.382a.601.601 0 0 1 .252-.13.907.907 0 0 1 .281 0 .557.557 0 0 1 .454.332c.06.15.092.312.093.475a5.64 5.64 0 0 1-.05.87c-.065.563-.173 1.095-.274 1.62-.208 1.03-.439 2.01-.72 2.881-.54 1.785-1.08 3.297-1.519 4.529-.439 1.231-.813 2.16-1.065 2.822-.123.302-.224.54-.296.72a1.573 1.573 0 0 1-.136.338z"/><path fill="#001E6C" d="M71.748 130.243c1.368 4.831 4.046 12.283 6.92 20.16a1.363 1.363 0 0 0 1.215.902 1.36 1.36 0 0 0 1.297-.779l7.042-14.897s-1.7-12.24-1.556-11.801c.144.439-14.53 1.584-14.53 1.584l-.388 4.831z"/><path fill="#FAFAFA" d="M87.617 127.844c0 .058-.879.317-2.268.85a32.026 32.026 0 0 0-5.227 2.548 32.815 32.815 0 0 0-4.68 3.456c-1.116.987-1.757 1.664-1.8 1.62-.044-.043.122-.201.396-.525.385-.45.794-.881 1.224-1.289a26.973 26.973 0 0 1 4.665-3.6 27.471 27.471 0 0 1 5.328-2.477 16.699 16.699 0 0 1 1.714-.489c.21-.066.428-.098.648-.094z"/><path fill="#1B0F0F" d="M90.41 131.561a7.654 7.654 0 0 1-1.18-1.541 26.327 26.327 0 0 1-2.16-4.133 25.916 25.916 0 0 1-1.39-4.464 7.359 7.359 0 0 1-.252-1.915c.215.603.385 1.222.51 1.85a35.992 35.992 0 0 0 1.44 4.385 36.755 36.755 0 0 0 2.06 4.14c.36.538.684 1.098.972 1.678zm4.696-65.969a15.84 15.84 0 0 0-1.375 13.543c.72 1.98 1.872 3.932 1.663 6.034-.208 2.103-1.85 4.183-1.274 6.257.346 1.231 1.397 2.16 1.807 3.355.468 1.44 0 2.96-.252 4.435-.576 3.773.634 7.568.929 11.369.295 3.802-.72 8.259-4.118 9.915-1.03.504-2.376.648-3.233-.123-1.095-.972-.792-2.729-.49-4.169 2.981-14.4-6.228-28.454-4.125-43.027.338-2.333 1.641-6.293 3.319-7.92 1.677-1.627 6.336-1.44 7.92.288"/><path fill="#455A64" d="M80.922 107.369s.44-.518 1.087-1.541a13.959 13.959 0 0 0 1.88-4.716 14.4 14.4 0 0 0 .223-3.499 37.054 37.054 0 0 1-.152-4.097 8.888 8.888 0 0 1 .41-2.203c.264-.735.596-1.444.994-2.117.807-1.36 1.822-2.628 2.758-3.981a10.93 10.93 0 0 0 1.958-4.32 13.45 13.45 0 0 0-.252-4.414 16.784 16.784 0 0 1-.317-4.09c.086-1.197.328-2.378.72-3.513a13.356 13.356 0 0 1 2.55-4.486c.3-.357.627-.692.978-1 .112-.119.237-.223.375-.31 0 0-.483.468-1.246 1.44a13.824 13.824 0 0 0-3.038 7.92c-.048 1.349.07 2.698.353 4.018.343 1.486.436 3.019.273 4.536a11.325 11.325 0 0 1-2.016 4.442c-.943 1.375-1.958 2.635-2.75 3.96-.39.647-.713 1.333-.965 2.045a8.345 8.345 0 0 0-.41 2.117 39.026 39.026 0 0 0 .115 4.053 14.405 14.405 0 0 1-.274 3.564 13.487 13.487 0 0 1-2.016 4.745 10.44 10.44 0 0 1-.864 1.109 2.324 2.324 0 0 1-.374.338z"/><path fill="#455A64" d="M74.096 108.439a2.61 2.61 0 0 1 .223-.482c.18-.339.41-.785.72-1.347.605-1.173 1.505-2.88 2.39-5.04a21.965 21.965 0 0 0 1.772-7.97c0-.79-.06-1.58-.18-2.362-.123-.806-.31-1.62-.433-2.47a6.999 6.999 0 0 1 .058-2.649 4.738 4.738 0 0 1 1.44-2.311c1.354-1.231 2.988-2.038 3.838-3.485a11.787 11.787 0 0 0 1.274-4.615c.153-1.476.486-2.927.994-4.32a15.617 15.617 0 0 1 5.825-7.359c.422-.284.862-.541 1.317-.77a2.16 2.16 0 0 1 .49-.216s-.648.346-1.721 1.109a15.73 15.73 0 0 0-3.866 3.953 15.302 15.302 0 0 0-1.757 3.39 18.32 18.32 0 0 0-.936 4.32c-.216 1.534-.39 3.248-1.31 4.767-.922 1.52-2.607 2.383-3.896 3.6a4.406 4.406 0 0 0-1.36 2.16 6.668 6.668 0 0 0-.051 2.506c.115.828.295 1.649.417 2.462.125.8.183 1.61.173 2.42a21.856 21.856 0 0 1-1.864 8.099 48.133 48.133 0 0 1-2.506 5.04L74.384 108c-.08.156-.177.303-.288.439z"/><path fill="#1B0F0F" d="M312.315 311.89c.034-.105.077-.206.13-.302.101-.216.238-.504.403-.871a21.36 21.36 0 0 0 1.203-3.485c.792-3.096 1.072-7.827-.101-13.443a72.695 72.695 0 0 0-2.499-9.036c-1.051-3.204-2.282-6.602-3.283-10.281a39.88 39.88 0 0 1-1.62-11.823c.151-4.183 1.39-8.352 2.751-12.513 1.36-4.162 2.764-8.216 3.182-12.32a18.8 18.8 0 0 0-2.261-11.376c-1.8-3.319-4.068-6.163-5.76-9.1a31.69 31.69 0 0 1-3.463-8.756 32.622 32.622 0 0 1-.223-13.55c.318-1.64.801-3.244 1.44-4.788-.02.108-.048.214-.087.317l-.288.914a37.242 37.242 0 0 0-.878 3.6 33.11 33.11 0 0 0 .353 13.457 31.333 31.333 0 0 0 3.477 8.64c1.692 2.88 3.968 5.76 5.811 9.094a19.175 19.175 0 0 1 2.325 11.613c-.424 4.162-1.836 8.259-3.196 12.413-1.361 4.155-2.585 8.28-2.736 12.391a39.301 39.301 0 0 0 1.584 11.708c.986 3.657 2.196 7.056 3.24 10.274a70.987 70.987 0 0 1 2.448 9.086c1.144 5.66.82 10.44 0 13.544a20.136 20.136 0 0 1-1.289 3.477l-.447.857a1.442 1.442 0 0 1-.216.259z"/><path fill="#001E6C" d="M306.763 220.242s-3.442-11.024 2.735-17.475a.382.382 0 0 1 .656.187c.331 1.822.741 7.366-3.391 17.288z"/><path fill="#1B0F0F" d="M308.829 206.441a10.586 10.586 0 0 1-.23 2.031c-.23 1.404-.497 3.045-.785 4.86-.288 1.814-.554 3.463-.777 4.86a12.203 12.203 0 0 1-.36 2.016 8.48 8.48 0 0 1 .043-2.045 73.59 73.59 0 0 1 .648-4.889c.309-1.901.648-3.6.914-4.845a8.947 8.947 0 0 1 .547-1.988z"/><path fill="#001E6C" d="M310.809 246.242s2.109-11.354 10.591-14.162a.378.378 0 0 1 .391.086.377.377 0 0 1 .098.389c-.561 1.75-2.786 6.84-11.08 13.687z"/><path fill="#1B0F0F" d="M319.09 234.996c-.329.6-.715 1.166-1.152 1.692l-2.974 3.924-2.952 3.938a11.498 11.498 0 0 1-1.26 1.606 8.542 8.542 0 0 1 1.008-1.786 82.39 82.39 0 0 1 2.88-4.017 140.11 140.11 0 0 1 3.067-3.859 9.264 9.264 0 0 1 1.383-1.498z"/><path fill="#001E6C" d="M308.52 274.704s-1.281-11.476 6.019-16.624a.37.37 0 0 1 .402-.039.376.376 0 0 1 .203.348c-.021 1.85-.677 7.366-6.624 16.315z"/><path fill="#1B0F0F" d="M313.2 261.547a9.544 9.544 0 0 1-.612 1.951l-1.699 4.622c-.633 1.728-1.202 3.291-1.685 4.623a11.738 11.738 0 0 1-.72 1.908 8.434 8.434 0 0 1 .447-2.002c.353-1.209.9-2.88 1.569-4.68.67-1.8 1.325-3.42 1.822-4.579.229-.643.524-1.26.878-1.843z"/><path fill="#001E6C" d="M314.905 303.344s-.864-11.52 6.61-16.402a.379.379 0 0 1 .549.128.382.382 0 0 1 .049.203c-.087 1.851-.936 7.344-7.208 16.071z"/><path fill="#1B0F0F" d="M320.034 290.371a10 10 0 0 1-.684 1.93c-.533 1.31-1.167 2.88-1.865 4.557-.698 1.678-1.31 3.24-1.843 4.558-.214.65-.486 1.279-.814 1.879a8.645 8.645 0 0 1 .526-1.987 72.13 72.13 0 0 1 1.735-4.615c.734-1.779 1.44-3.377 1.98-4.515a9.59 9.59 0 0 1 .965-1.807z"/><path fill="#001E6C" d="M301.81 210.556s-10.21-5.356-10.433-14.277a.386.386 0 0 1 .598-.331c1.519 1.051 5.738 4.68 9.835 14.608z"/><path fill="#1B0F0F" d="M293.502 199.348a9.865 9.865 0 0 1 1.274 1.605c.836 1.145 1.808 2.499 2.88 3.989l2.88 3.974c.439.523.829 1.085 1.167 1.678a8.47 8.47 0 0 1-1.404-1.49c-.814-.965-1.879-2.348-3.003-3.91a96.417 96.417 0 0 1-2.786-4.068 9.806 9.806 0 0 1-1.008-1.778z"/><path fill="#001E6C" d="M312.803 234.224s-10.54-4.716-11.282-13.622a.374.374 0 0 1 .039-.203.373.373 0 0 1 .139-.153.378.378 0 0 1 .398-.004c1.577.957 6.005 4.312 10.706 13.982z"/><path fill="#1B0F0F" d="M303.84 223.539c.508.457.966.966 1.368 1.519l3.125 3.809 3.132 3.794c.469.497.893 1.034 1.267 1.606a8.78 8.78 0 0 1-1.498-1.404 75.697 75.697 0 0 1-3.233-3.722 104.532 104.532 0 0 1-3.031-3.896 9.195 9.195 0 0 1-1.13-1.706z"/><path fill="#001E6C" d="M306.72 260.642s-7.2-9-3.837-17.28a.376.376 0 0 1 .321-.236.385.385 0 0 1 .356.178c1 1.563 3.398 6.574 3.16 17.338z"/><path fill="#1B0F0F" d="M303.61 247.016c.246.639.425 1.303.533 1.98a2196.4 2196.4 0 0 1 1.044 4.809c.389 1.8.756 3.42 1.058 4.803.193.656.325 1.328.396 2.008a8.637 8.637 0 0 1-.72-1.929 67.445 67.445 0 0 1-1.188-4.795c-.403-1.916-.72-3.6-.921-4.839a9.3 9.3 0 0 1-.202-2.037z"/><path fill="#001E6C" d="M313.921 291.678s-10.462-4.889-11.052-13.802a.38.38 0 0 1 .382-.419c.071 0 .141.021.201.059 1.548.986 5.919 4.421 10.469 14.162z"/><path fill="#1B0F0F" d="M305.115 280.844c.495.472.943.99 1.339 1.548l3.06 3.852 3.068 3.852c.461.504.875 1.048 1.238 1.627a8.458 8.458 0 0 1-1.44-1.44c-.857-.936-1.98-2.268-3.175-3.78a103.13 103.13 0 0 1-2.967-3.946 8.845 8.845 0 0 1-1.123-1.713zm29.619-34.555v.972c0 .72-.072 1.634-.122 2.801-.13 2.462-.324 5.897-.547 10.001-.72 4.176-2.88 8.805-5.76 13.305-2.096 3.312-4.32 6.322-6.192 9.123a64.247 64.247 0 0 0-4.594 7.704 32.301 32.301 0 0 0-2.16 5.63c-.18.684-.324 1.224-.403 1.591a3.429 3.429 0 0 1-.151.562c.002-.194.026-.387.072-.576.05-.375.158-.922.324-1.62a29.376 29.376 0 0 1 2.052-5.724 61.854 61.854 0 0 1 4.586-7.755c1.886-2.822 4.068-5.839 6.156-9.129 2.844-4.479 4.961-9.036 5.76-13.147.288-4.097.526-7.524.72-9.987.094-1.166.173-2.095.23-2.793 0-.288.051-.533.072-.72a1.008 1.008 0 0 1-.043-.238z"/><path fill="#001E6C" d="M328.507 272.542s4.428-10.656-1.137-17.647a.38.38 0 0 0-.67.129c-.497 1.786-1.411 7.265 1.807 17.518z"/><path fill="#1B0F0F" d="M327.702 258.617c.191.657.309 1.333.353 2.016.158 1.253.331 2.988.468 4.911.137 1.922.202 3.664.202 4.932.043.684.002 1.37-.123 2.044a10.874 10.874 0 0 1-.18-2.037c-.093-1.44-.209-3.075-.331-4.911a1110.6 1110.6 0 0 0-.338-4.91 10.43 10.43 0 0 1-.051-2.045z"/><path fill="#1B0F0F" d="M328.507 272.542s4.428-10.656-1.137-17.647a.38.38 0 0 0-.67.129c-.497 1.786-1.411 7.265 1.807 17.518z" opacity=".3"/><path fill="#001E6C" d="M314.79 298.237s3.55-10.987-2.57-17.496a.38.38 0 0 0-.655.18c-.346 1.815-.814 7.359 3.225 17.316z"/><path fill="#1B0F0F" d="M312.855 284.402c.25.64.424 1.307.519 1.988.259 1.231.569 2.952.864 4.852a75.09 75.09 0 0 1 .605 4.896c.093.68.105 1.369.036 2.052a12.28 12.28 0 0 1-.346-2.016c-.209-1.404-.454-3.045-.72-4.867-.266-1.821-.526-3.463-.72-4.867a10.424 10.424 0 0 1-.238-2.038z"/><path fill="#1B0F0F" d="M314.79 298.237s3.55-10.987-2.57-17.496a.38.38 0 0 0-.655.18c-.346 1.815-.814 7.359 3.225 17.316z" opacity=".3"/><path fill="#001E6C" d="M334.152 259.518s9.454-6.624 8.504-15.508a.382.382 0 0 0-.634-.245c-1.375 1.238-5.062 5.357-7.87 15.753z"/><path fill="#1B0F0F" d="M334.152 259.518s9.454-6.624 8.504-15.508a.382.382 0 0 0-.634-.245c-1.375 1.238-5.062 5.357-7.87 15.753z" opacity=".3"/><path fill="#1B0F0F" d="M340.942 247.328a8.885 8.885 0 0 1-.785 1.894 102.854 102.854 0 0 1-2.239 4.392 71.435 71.435 0 0 1-2.47 4.269 8.438 8.438 0 0 1-1.202 1.656c.253-.633.566-1.241.936-1.814.677-1.246 1.476-2.7 2.354-4.32l2.348-4.32a10.48 10.48 0 0 1 1.058-1.757z"/><path fill="#001E6C" d="M318.607 287.346s11.405-1.778 14.458-10.173a.381.381 0 0 0-.454-.504c-1.778.532-6.933 2.584-14.004 10.677z"/><path fill="#1B0F0F" d="M318.607 287.346s11.405-1.778 14.458-10.173a.381.381 0 0 0-.454-.504c-1.778.532-6.933 2.584-14.004 10.677z" opacity=".3"/><path fill="#1B0F0F" d="M330.069 279.395a9.224 9.224 0 0 1-1.54 1.346 97.787 97.787 0 0 1-3.939 2.966 69.766 69.766 0 0 1-4.104 2.744 8.346 8.346 0 0 1-1.814.957 11.153 11.153 0 0 1 1.649-1.217l4.017-2.836 4.011-2.88a9.447 9.447 0 0 1 1.72-1.08z"/><path fill="#455A64" d="M307.721 308.34l-3.326 22.392h20.736l-2.686-22.392h-14.724z"/><path fill="#1B0F0F" d="M323.28 315.273c0 .122-3.744.216-8.359.216s-8.366-.094-8.366-.216a82.223 82.223 0 0 1 8.366-.216c2.788-.07 5.578.003 8.359.216zm.404 1.787c0 .122-3.866.216-8.64.216-4.773 0-8.64-.094-8.64-.216 0-.123 3.867-.216 8.64-.216 4.774 0 8.64.093 8.64.216zM243.05 91.108h-.568a13.881 13.881 0 0 0-1.642 0 18.45 18.45 0 0 0-6.142 1.44 18.852 18.852 0 0 0-7.79 6.07 17.015 17.015 0 0 0-2.722 5.566 18.72 18.72 0 0 0 1.894 14.14 16 16 0 0 0 2.448 3.255 13.324 13.324 0 0 0 3.312 2.592 8.138 8.138 0 0 0 4.154 1.044 5.97 5.97 0 0 0 4.025-1.627 5.806 5.806 0 0 0 1.606-4.148 7.642 7.642 0 0 0-1.44-4.413c-1.865-2.628-4.889-4.392-8.107-5.343a19.91 19.91 0 0 0-10.224-.144 21.441 21.441 0 0 0-4.925 1.959 17.745 17.745 0 0 0-4.227 3.319c-.295.338-.633.648-.9 1.022l-.813 1.095a20.365 20.365 0 0 0-1.325 2.405 19.502 19.502 0 0 0-1.562 5.306 20.107 20.107 0 0 0 1.44 10.8 16.678 16.678 0 0 0 6.948 7.92 11.51 11.51 0 0 0 4.924 1.49c1.7.095 3.389-.31 4.86-1.166a7.6 7.6 0 0 0 3.284-3.6 6.523 6.523 0 0 0 .122-4.73 9.528 9.528 0 0 0-2.707-3.831 12.408 12.408 0 0 0-3.982-2.311 15.425 15.425 0 0 0-8.769-.151 17.076 17.076 0 0 0-7.2 4.01 16.43 16.43 0 0 0-4.126 6.387 18.504 18.504 0 0 0 .194 12.96 19.66 19.66 0 0 0 5.926 7.92 21.359 21.359 0 0 0 5.45 3.175c.677.252 1.203.439 1.563.54l.533.173s-.188-.036-.548-.137a15.695 15.695 0 0 1-1.569-.511 20.414 20.414 0 0 1-5.515-3.125 19.733 19.733 0 0 1-6.041-7.956 18.723 18.723 0 0 1-.238-13.097 16.51 16.51 0 0 1 4.169-6.48 17.415 17.415 0 0 1 7.308-4.104 15.767 15.767 0 0 1 8.957.144 12.613 12.613 0 0 1 4.097 2.369 9.783 9.783 0 0 1 2.808 3.967 6.901 6.901 0 0 1-.072 4.961 8.066 8.066 0 0 1-3.435 3.751 9.089 9.089 0 0 1-5.04 1.224 11.71 11.71 0 0 1-5.04-1.541 17.017 17.017 0 0 1-7.121-8.057 20.523 20.523 0 0 1-1.483-11.001 20.053 20.053 0 0 1 1.599-5.415c.395-.848.847-1.668 1.353-2.455l.835-1.116c.267-.381.612-.72.915-1.051a18.219 18.219 0 0 1 4.32-3.384 21.686 21.686 0 0 1 5.04-1.987 20.254 20.254 0 0 1 10.418.151c3.283.979 6.358 2.772 8.295 5.494a7.923 7.923 0 0 1 1.512 4.608 6.145 6.145 0 0 1-1.707 4.384 6.297 6.297 0 0 1-4.248 1.707 8.385 8.385 0 0 1-4.32-1.087 13.416 13.416 0 0 1-3.384-2.657 16.565 16.565 0 0 1-2.484-3.319 18.988 18.988 0 0 1-1.901-14.4 17.212 17.212 0 0 1 2.787-5.624c2.048-2.7 4.783-4.8 7.92-6.084a17.996 17.996 0 0 1 6.185-1.353 12.57 12.57 0 0 1 1.656 0l.46.057z"/><path fill="#001E6C" d="M267.092 163.152H166.141v77.861h100.951v-77.861z"/><path fill="#001E6C" d="M166.141 163.152l18.648 17.396h99.237l-16.934-17.396H166.141z"/><path fill="#1B0F0F" d="M166.141 163.149l100.98-.18h.079l.057.05 16.762 17.215.173.18.309.317h-.446l-99.238-.079h-.043l-18.633-17.503 18.72 17.28h-.08l99.238-.072-.13.317-.18-.18-16.754-17.216.13.058-100.944-.187zm30.325 35.91a2.086 2.086 0 0 0-1.388 3.576 2.091 2.091 0 0 0 2.926 0 2.086 2.086 0 0 0-1.387-3.576m23.703 0a2.08 2.08 0 1 0 1.536 3.564c.389-.382.613-.901.624-1.446a2.084 2.084 0 0 0-2.002-2.118m-.022 18.634a14.938 14.938 0 0 0-2.002-4.472 13.131 13.131 0 0 0-3.816-3.657 11.649 11.649 0 0 0-12.334-.339 13.312 13.312 0 0 0-4.01 3.442 14.746 14.746 0 0 0-2.239 4.363 1.49 1.49 0 0 1 .057-.345c.069-.325.158-.645.267-.958.394-1.157.97-2.243 1.706-3.218a13.082 13.082 0 0 1 4.054-3.6 11.843 11.843 0 0 1 12.686.345 13.06 13.06 0 0 1 3.845 3.802 11.509 11.509 0 0 1 1.534 3.312c.088.319.158.644.208.972.025.116.04.234.044.353z"/><path fill="#1B0F0F" d="M166.369 164.008l17.856 22.637h82.865v-6.099h-82.303l-18.418-16.538z" opacity=".5"/><path fill="#1B0F0F" d="M247.183 240.839c-.1 0-.187-13.543-.187-30.24 0-16.696.087-30.24.187-30.24.101 0 .195 13.536.195 30.24s-.087 30.24-.195 30.24z"/><path fill="#F5F5F5" d="M263.038 223.184h-8.899v10.058h8.899v-10.058z"/><path fill="#001E6C" d="M166.14 163.152l-20.722 17.396h20.722v-17.396z"/><path fill="#1B0F0F" d="M166.14 163.152l-20.722 17.396h20.722v-17.396z" opacity=".4"/><path fill="#001E6C" d="M270.071 241.012H154v89.524h116.071v-89.524z"/><path fill="#1B0F0F" d="M270.071 241.012H154v89.524h116.071v-89.524z" opacity=".3"/><path fill="#1B0F0F" d="M240.99 329.902c-.101 0-.187-19.951-.187-44.561 0-24.609.086-44.568.187-44.568s.187 19.952.187 44.568c0 24.617-.086 44.561-.187 44.561z"/><path fill="#F5F5F5" d="M260.229 310.16h-8.899v10.059h8.899V310.16z"/><path fill="#1B0F0F" d="M202.593 241.25H189.41v19.102h13.183V241.25zm0 69.918H189.41v19.102h13.183v-19.102zm66.47-70.158h-1.173l-3.348.036-12.334.058-40.673.094-40.687-.051-12.326-.057-3.348-.036H154h1.174l3.348-.036 12.326-.058 40.687-.058 40.673.058 12.334.058 3.348.036h.871l.302-.044zM70.142 86.02l-12.643-3.11h.093a20.989 20.989 0 0 1-10.908 3.276 22.95 22.95 0 0 1-6.76-.987 21.197 21.197 0 0 1-14.559-17.596 20.881 20.881 0 0 1 5.429-16.87 21.654 21.654 0 0 1 3.665-3.211c.677-.425 1.353-.864 2.059-1.231l1.073-.519.533-.26.561-.2a21.246 21.246 0 0 1 9.087-1.39 21.045 21.045 0 0 1 18.547 14.184 21.93 21.93 0 0 1 1.166 6.825 20.946 20.946 0 0 1-3.031 10.951v-.115c3.514 6.344 5.285 9.547 5.68 10.253-.41-.72-2.246-3.866-5.882-10.145v-.115a20.78 20.78 0 0 0 2.88-10.8 21.439 21.439 0 0 0-1.18-6.71 20.707 20.707 0 0 0-18.21-13.896 20.88 20.88 0 0 0-8.906 1.368l-.547.194-.525.26-1.052.503c-.72.367-1.353.792-2.023 1.21a21.387 21.387 0 0 0-3.6 3.125 20.512 20.512 0 0 0-5.335 16.56 20.83 20.83 0 0 0 7.798 13.845 20.501 20.501 0 0 0 6.48 3.456 22.44 22.44 0 0 0 6.645 1.001 20.794 20.794 0 0 0 10.8-3.16h.123l12.542 3.304z"/><path fill="#001E6C" d="M44.64 55.656l.64 10.584a1.714 1.714 0 0 0 1.606 1.605 1.72 1.72 0 0 0 1.808-1.526l1.173-10.606a1.346 1.346 0 0 0-1.36-1.49h-2.571a1.341 1.341 0 0 0-1.296 1.433zm5.04 18.104a2.577 2.577 0 1 1-4.89-1.63 2.577 2.577 0 0 1 4.89 1.63z"/></svg>