<svg xmlns="http://www.w3.org/2000/svg" width="28" height="28" fill="none" viewBox="0 0 28 28"><path fill="#646464" d="M14 0a14 14 0 1 0 14 14A14.016 14.016 0 0 0 14 0zM2.02 14.394l1.338.446L5 17.303v1.283a1 1 0 0 0 .293.707L8 22v2.377a11.994 11.994 0 0 1-5.98-9.983zM14 26a11.97 11.97 0 0 1-2.572-.285L12 24l1.805-4.512a1 1 0 0 0-.097-.926l-1.411-2.117a1 1 0 0 0-.832-.445h-4.93l-1.248-1.873L7.414 12H9v2h2v-2.734l3.868-6.77-1.736-.992L12.277 5H9.535L8.45 3.371A11.86 11.86 0 0 1 18 2.7V6a1 1 0 0 0 1 1h1.465a1 1 0 0 0 .832-.445l.877-1.316A12.032 12.032 0 0 1 24.894 9H20.82a1 1 0 0 0-.98.804l-.723 4.47a1 1 0 0 0 .54 1.055L23 17l.685 4.056A11.979 11.979 0 0 1 14 26z"/></svg>