<svg xmlns="http://www.w3.org/2000/svg" width="16" height="16" fill="none" viewBox="0 0 16 16"><path fill="#646464" d="M7.999 15.167A7.173 7.173 0 0 1 .832 8 7.173 7.173 0 0 1 7.999.833 7.173 7.173 0 0 1 15.165 8 7.173 7.173 0 0 1 8 15.167zm0-13.334A6.174 6.174 0 0 0 1.832 8c0 3.4 2.767 6.167 6.167 6.167S14.165 11.4 14.165 8 11.4 1.833 8 1.833z"/><path fill="#646464" d="M6 14.5h-.667a.504.504 0 0 1-.5-.5c0-.273.214-.493.487-.5a19.66 19.66 0 0 1 0-11 .497.497 0 0 1-.487-.5c0-.273.227-.5.5-.5H6c.16 0 .313.08.407.207a.5.5 0 0 1 .066.453 18.632 18.632 0 0 0 0 11.687.5.5 0 0 1-.066.453.525.525 0 0 1-.407.2zm4.002 0a.497.497 0 0 1-.473-.66 18.631 18.631 0 0 0 0-11.687.5.5 0 1 1 .947-.32 19.545 19.545 0 0 1-.001 12.313.496.496 0 0 1-.473.354z"/><path fill="#646464" d="M8 11.467c-1.86 0-3.713-.26-5.5-.787a.501.501 0 0 1-1-.013V10c0-.16.08-.313.207-.407a.5.5 0 0 1 .453-.066 18.632 18.632 0 0 0 11.687 0 .5.5 0 0 1 .66.473v.667c0 .273-.227.5-.5.5a.496.496 0 0 1-.5-.487A19.53 19.53 0 0 1 8 11.467zM13.999 6.5a.448.448 0 0 1-.16-.027 18.632 18.632 0 0 0-11.687 0 .5.5 0 0 1-.633-.313.508.508 0 0 1 .32-.633 19.545 19.545 0 0 1 12.313 0c.26.086.407.373.313.633A.486.486 0 0 1 14 6.5z"/></svg>