<svg width="98" height="98" viewBox="0 0 98 98" fill="none" xmlns="http://www.w3.org/2000/svg">
<path d="M48.9579 94.8451C75.9945 94.8451 97.9119 73.6234 97.9119 47.4451C97.9119 21.2668 75.9945 0.0451508 48.9579 0.0451508C21.9214 0.0451508 0.00390625 21.2668 0.00390625 47.4451C0.00390625 73.6234 21.9214 94.8451 48.9579 94.8451Z" fill="#33CCCC"/>
<path d="M28.512 40.2465L20.4597 47.8513L14.5391 63.1894L24.1144 62.6533C24.1144 62.6533 26.3008 62.5008 27.249 61.0484C28.1971 59.5959 28.512 40.2465 28.512 40.2465Z" fill="#F2BF91"/>
<path d="M26.0611 79.8035C25.6719 79.8035 25.3535 79.4952 25.3535 79.1184V20.7188C25.3535 20.342 25.6719 20.0337 26.0611 20.0337H73.2691C73.6583 20.0337 73.9767 20.342 73.9767 20.7188V79.1184C73.9767 79.4952 73.6583 79.8035 73.2691 79.8035H26.0611Z" fill="#67A2BF"/>
<path d="M71.6557 22.2241H29.0664V76.7442H71.6557V22.2241Z" fill="#EEEEEE"/>
<path d="M15.6321 60.3624L9.33105 75.1387H20.1447L24.9368 62.5102L15.7329 60.1038" fill="#F2BF91"/>
<path d="M70.8197 23.0918H28.5117V76.7469H70.8197V23.0918Z" fill="white"/>
<path d="M58.905 20.0337H40.4336V24.4167H58.905V20.0337Z" fill="#EEEEEE"/>
<path d="M67.4018 32.1578H38.8262V38.3735H67.4018V32.1578Z" fill="#EEEEEE"/>
<path d="M37.4068 32.1578H30.9873V38.3735H37.4068V32.1578Z" fill="#EEEEEE"/>
<path d="M67.4018 39.8049H38.8262V46.0206H67.4018V39.8049Z" fill="#EEEEEE"/>
<path d="M37.4068 39.8049H30.9873V46.0206H37.4068V39.8049Z" fill="#EEEEEE"/>
<path d="M67.4018 47.4444H38.8262V53.6601H67.4018V47.4444Z" fill="#EEEEEE"/>
<path d="M37.4068 47.4444H30.9873V53.6601H37.4068V47.4444Z" fill="#EEEEEE"/>
<path d="M67.4018 55.088H38.8262V61.3038H67.4018V55.088Z" fill="#EEEEEE"/>
<path d="M37.4068 55.088H30.9873V61.3038H37.4068V55.088Z" fill="#EEEEEE"/>
<path d="M67.4018 62.7307H38.8262V68.9465H67.4018V62.7307Z" fill="#EEEEEE"/>
<path d="M37.4068 62.7307H30.9873V68.9465H37.4068V62.7307Z" fill="#EEEEEE"/>
<path d="M36.5652 34.0216L36.0345 33.5078L33.7331 35.7378L32.3551 34.4035L31.8262 34.9157L33.2042 36.2499L33.1989 36.2551L33.7278 36.7672L33.7331 36.7621L33.7366 36.7672L34.2656 36.2551L34.262 36.2499L36.5652 34.0216Z" fill="#38AE0E"/>
<path d="M36.5652 42.0221L36.0345 41.5099L33.7331 43.74L32.3551 42.4057L31.8262 42.9179L33.2042 44.2521L33.1989 44.2556L33.7278 44.7677L33.7331 44.7643L33.7366 44.7677L34.2656 44.2556L34.262 44.2521L36.5652 42.0221Z" fill="#38AE0E"/>
<path d="M36.5652 49.4342L36.0345 48.9221L33.7331 51.1504L32.3551 49.8179L31.8262 50.33L33.2042 51.6626L33.1989 51.6677L33.7278 52.1798L33.7331 52.1747L33.7366 52.1798L34.2656 51.6677L34.262 51.6626L36.5652 49.4342Z" fill="#38AE0E"/>
<path d="M35.4825 58.7981L34.8616 58.1969L36.0149 57.0801L35.486 56.568L34.3327 57.6847L33.1793 56.568L32.6504 57.0801L33.8037 58.1969L33.1828 58.7981L32.6539 59.3102L32.6504 59.3136L33.1793 59.8257L33.1828 59.8223L33.1882 59.8257L33.7171 59.3136L33.7135 59.3102L34.3327 58.709L34.9536 59.3102L34.9483 59.3136L35.4772 59.8257L35.4825 59.8223L35.486 59.8257L36.0149 59.3136L36.0114 59.3102L35.4825 58.7981Z" fill="#E40F0A"/>
<path d="M35.4825 66.4416L34.8616 65.8404L36.0149 64.7254L35.486 64.2116L34.3327 65.3283L33.1793 64.2116L32.6504 64.7254L33.8037 65.8404L33.1828 66.4416L32.6539 66.9537L32.6504 66.9572L33.1793 67.4693L33.1828 67.4659L33.1882 67.4693L33.7171 66.9572L33.7135 66.9537L34.3327 66.3526L34.9536 66.9537L34.9483 66.9572L35.4772 67.4693L35.4825 67.4659L35.486 67.4693L36.0149 66.9572L36.0114 66.9537L35.4825 66.4416Z" fill="#E40F0A"/>
<path d="M25.3548 56.5697C25.3548 56.5697 26.0394 55.3964 28.5124 50.556C30.9854 45.7156 28.5124 44.7719 28.5124 44.7719L21.8416 52.4418L14.7021 62.6005C14.7039 62.5987 25.3548 64.7209 25.3548 56.5697Z" fill="#FFC999"/>
<path d="M19.5662 62.5984H14.7034L9.33105 75.1413H14.1939L19.5662 62.5984Z" fill="#FFC999"/>
<path d="M16.4434 90.2419H0.892578L11.8247 65.6067H24.938L16.4434 90.2419Z" fill="#38AE0E"/>
<path d="M25.1863 63.8611H13.5554L12.915 65.6064H24.5441L25.1863 63.8611Z" fill="#FFCF5C"/>
<path d="M51.9223 50.8986L65.0302 55.6996L72.2935 70.3868L62.7182 69.8507C62.7182 69.8507 60.5318 69.6983 59.5836 68.2458C58.8636 67.141 55.5893 58.9265 53.6877 54.4578C53.6877 54.4578 51.6569 53.4507 51.3421 52.6199C51.0077 51.7344 51.9223 50.8986 51.9223 50.8986Z" fill="#FFC999"/>
<path d="M49.5781 29.1784C47.871 29.1784 46.4594 27.9418 46.2436 26.3454H40.4414V23.5741L47.3138 23.5193C47.9347 22.9695 48.7307 22.6698 49.5781 22.6698C50.4024 22.6698 51.186 22.9575 51.7999 23.4833L58.9128 23.4268V26.3454H52.9108C52.6967 27.94 51.2833 29.1784 49.5781 29.1784ZM41.3117 25.501H47.0856V25.9224C47.0856 27.2515 48.2036 28.334 49.5763 28.334C50.949 28.334 52.067 27.2515 52.067 25.9224V25.501H58.0407V24.2747L51.4514 24.326L51.3222 24.2027C50.8535 23.7557 50.2326 23.509 49.5745 23.509C48.9023 23.509 48.2708 23.766 47.7985 24.2318L47.6711 24.3569L41.3082 24.4083V25.501H41.3117Z" fill="#EEEEEE"/>
<path d="M70.8202 28.0795H65.6689V23.0918L70.8202 28.0795Z" fill="#EEEEEE"/>
<path d="M53.6865 54.4601L60.5784 56.8255L63.2477 62.733L56.4196 63.1475L53.6865 54.4601Z" fill="#646464"/>
<path d="M80.5339 58.5179L79.8935 62.024L49.6674 56.8445L47.596 55.3287L46.4072 54.4586L47.8525 54.0423L50.3078 53.3367L50.3184 53.3384L80.5339 58.5179Z" fill="#E40F0A"/>
<path opacity="0.2" d="M80.3849 59.6037L80.0895 60.9534L49.667 55.7739L49.6988 54.3506L80.3849 59.6037Z" fill="white"/>
<path d="M62.2011 70.3853L59.1762 68.9449L51.9199 55.4172C51.9199 55.4172 54.5804 54.4563 56.6112 57.6027L59.5423 61.8796L61.375 62.2992L62.5372 59.0483L65.1729 63.8476L62.2011 70.3853Z" fill="#FFC999"/>
<path d="M61.2822 69.482L62.08 71.5545L72.7822 71.3079L71.4095 68.6017L61.2822 69.482Z" fill="#FFC999"/>
<path d="M70.39 97.4398H85.9409L75.0105 72.8046H61.8955L70.39 97.4398Z" fill="#38AE0E"/>
<path d="M61.6484 71.06H73.2776L73.9197 72.8036H62.2888L61.6484 71.06Z" fill="#FFCF5C"/>
<path d="M50.3191 53.3384L49.6681 56.8445L47.5967 55.3287L47.8532 54.0423L50.3085 53.3367L50.3191 53.3384Z" fill="#FFC999"/>
</svg>
