<svg width="48" height="48" viewBox="0 0 48 48" fill="none" xmlns="http://www.w3.org/2000/svg">
<path d="M34 45.5H14C5.18 45.5 2.5 42.82 2.5 34V14C2.5 5.18 5.18 2.5 14 2.5H17C20.5 2.5 21.6 3.64 23 5.5L26 9.5C26.66 10.38 26.76 10.5 28 10.5H34C42.82 10.5 45.5 13.18 45.5 22V34C45.5 42.82 42.82 45.5 34 45.5ZM14 5.5C6.84 5.5 5.5 6.86 5.5 14V34C5.5 41.14 6.84 42.5 14 42.5H34C41.16 42.5 42.5 41.14 42.5 34V22C42.5 14.86 41.16 13.5 34 13.5H28C25.44 13.5 24.6 12.62 23.6 11.3L20.6 7.3C19.56 5.92 19.24 5.5 17 5.5H14Z" fill="#1B1B1B"/>
<path d="M40 14.26C39.18 14.26 38.5 13.58 38.5 12.76V10C38.5 6.84 37.16 5.5 34 5.5H16C15.18 5.5 14.5 4.82 14.5 4C14.5 3.18 15.18 2.5 16 2.5H34C38.84 2.5 41.5 5.16 41.5 10V12.76C41.5 13.58 40.82 14.26 40 14.26Z" fill="#1B1B1B"/>
</svg>
