<svg xmlns="http://www.w3.org/2000/svg" width="26" height="24" fill="none" viewBox="0 0 26 24"><path fill="#34A853" d="M13.002 8.007l-3.894-6.87A1.19 1.19 0 0 1 9.535.86C8.387 1.238 7.86 2.527 7.86 2.527L.747 15.077c-.1.393-.128.748-.115 1.061h7.763l4.607-8.13z"/><path fill="#FBBC05" d="M13.004 8.007l4.606 8.131h7.764a3.685 3.685 0 0 0-.115-1.061l-7.113-12.55S17.617 1.238 16.47.86c.147.058.297.144.426.276l-3.893 6.871z"/><path fill="#188038" d="M13.003 8.008l3.893-6.872A1.214 1.214 0 0 0 16.47.86a2.104 2.104 0 0 0-.55-.101h-5.834c-.196.008-.38.045-.549.101a1.214 1.214 0 0 0-.427.276l3.894 6.872z"/><path fill="#4285F4" d="M8.397 16.138l-3.85 6.793s-.127-.062-.3-.19a2.69 2.69 0 0 0 1.076.509H20.44c.834 0 1.008-.319 1.008-.319l.007-.004-3.846-6.789H8.396z"/><path fill="#1967D2" d="M8.396 16.138H.633c.039.923.44 1.462.44 1.462l.291.507c.02.03.033.046.033.046l.636 1.116 1.426 2.482c.041.1.09.192.142.28.019.03.037.063.058.09.005.01.011.018.017.026.176.25.374.442.57.593.175.13.303.191.303.191l3.847-6.793z"/><path fill="#EA4335" d="M17.61 16.138h7.763c-.04.923-.44 1.462-.44 1.462l-.291.507-.034.046-.635 1.116-1.426 2.482c-.042.1-.09.192-.142.28-.02.03-.038.063-.058.09l-.017.026c-.177.25-.374.442-.571.593-.174.13-.302.191-.302.191l-3.848-6.793z"/></svg>