<svg xmlns="http://www.w3.org/2000/svg" width="139" height="139" fill="none" viewBox="0 0 139 139"><path fill="url(#paint0_linear)" d="M63.075 57.629A15.446 15.446 0 0 1 89.49 67.787L73.248 84.029a15.449 15.449 0 0 1-14.403-18.665 15.447 15.447 0 0 1 4.23-7.735z"/><path fill="url(#paint1_linear)" d="M101.473 85.039l17.804 17.803a5.169 5.169 0 0 1 0 7.309l-3.655 3.655a5.171 5.171 0 0 1-7.31 0L90.514 96.008l-10.97-10.97L90.51 74.076l10.964 10.964zm-3.83 10.788l3.655-3.655-10.789-10.788-3.655 3.655 10.789 10.788z"/><path fill="url(#paint2_linear)" d="M111.265 57.505a.374.374 0 0 1 .129-.123.342.342 0 0 1 .167-.044h3.409c.15 0 .284.1.338.25l3.711 10.507 3.712-10.507a.387.387 0 0 1 .133-.182.342.342 0 0 1 .205-.069h3.407a.34.34 0 0 1 .167.045c.052.03.096.071.13.123a.423.423 0 0 1 .042.36l-5.646 16.59-.001.002a.347.347 0 0 1-.042.085c-.002.003-.006.006-.007.01-.006.01-.015.018-.022.026a.483.483 0 0 1-.048.051.364.364 0 0 1-.091.055l-.029.012a.33.33 0 0 1-.1.017h-3.623a.324.324 0 0 1-.1-.017l-.03-.012a.438.438 0 0 1-.09-.055.267.267 0 0 1-.049-.051.2.2 0 0 1-.022-.026c-.003-.004-.006-.005-.007-.01a.437.437 0 0 1-.042-.085v-.002l-5.645-16.59a.43.43 0 0 1 .044-.36z"/><path fill="url(#paint3_linear)" d="M109.113 57.337H94.175a.36.36 0 0 0-.35.37v2.964c0 .204.156.37.35.37h5.41v13.303a.36.36 0 0 0 .35.369h3.418a.36.36 0 0 0 .35-.37V61.04h5.41a.36.36 0 0 0 .349-.369v-2.964a.359.359 0 0 0-.349-.37z"/><path fill="url(#paint4_linear)" d="M27.625 113.045l.557-88.606c2.207-1.928 2.468-2.244 5.652-4.857 3.185-2.612 8.12-4.935 8.12-4.935v65.599l14.092-14.091s-1.274 6.21.557 10.19c1.831 3.98 4.538 6.05 4.538 6.05L41.955 99.941l-14.33 13.104z"/><path fill="url(#paint5_linear)" d="M105.522 19.113l-30.81 30.73s4.344.544 7.82 2.282c3.474 1.737 6.08 6.081 6.08 6.081l27.653-28.669s-3.918-4.189-5.091-5.409c-1.99-2.07-5.652-5.015-5.652-5.015z"/><path stroke="url(#paint6_linear)" stroke-width="10" d="M69.5 130.312c33.586 0 60.812-27.226 60.812-60.812S103.086 8.687 69.5 8.687 8.687 35.915 8.687 69.5s27.227 60.812 60.813 60.812z"/><defs><linearGradient id="paint0_linear" x1="73.996" x2="73.996" y1="53.041" y2="84.029" gradientUnits="userSpaceOnUse"><stop stop-color="#6A3093"/><stop offset="1" stop-color="#A044FF"/></linearGradient><linearGradient id="paint1_linear" x1="100.167" x2="100.167" y1="74.075" y2="115.32" gradientUnits="userSpaceOnUse"><stop stop-color="#6A3093"/><stop offset="1" stop-color="#A044FF"/></linearGradient><linearGradient id="paint2_linear" x1="119.019" x2="119.019" y1="57.337" y2="74.713" gradientUnits="userSpaceOnUse"><stop stop-color="#6A3093"/><stop offset="1" stop-color="#A044FF"/></linearGradient><linearGradient id="paint3_linear" x1="101.644" x2="101.644" y1="57.337" y2="74.713" gradientUnits="userSpaceOnUse"><stop stop-color="#6A3093"/><stop offset="1" stop-color="#A044FF"/></linearGradient><linearGradient id="paint4_linear" x1="44.383" x2="44.383" y1="14.647" y2="113.045" gradientUnits="userSpaceOnUse"><stop stop-color="#6A3093"/><stop offset="1" stop-color="#A044FF"/></linearGradient><linearGradient id="paint5_linear" x1="95.489" x2="95.489" y1="19.113" y2="58.206" gradientUnits="userSpaceOnUse"><stop stop-color="#6A3093"/><stop offset="1" stop-color="#A044FF"/></linearGradient><linearGradient id="paint6_linear" x1="69.5" x2="69.5" y1="0" y2="139" gradientUnits="userSpaceOnUse"><stop stop-color="#6A3093"/><stop offset="1" stop-color="#A044FF"/></linearGradient></defs></svg>