<svg xmlns="http://www.w3.org/2000/svg" width="30" height="26" fill="none" viewBox="0 0 30 26"><path fill="#fff" d="M26.293 4.507c.52.52.52 1.346 0 1.866l-15.12 15.12a1.312 1.312 0 0 1-1.866 0l-5.6-5.6a1.312 1.312 0 0 1 0-1.866 1.312 1.312 0 0 1 1.866 0l4.667 4.666L24.427 4.507a1.311 1.311 0 0 1 1.866 0zM23.48 1.68L10.24 14.92 6.52 11.2a2.672 2.672 0 0 0-3.773 0L.88 13.067a2.672 2.672 0 0 0 0 3.773l7.467 7.467a2.672 2.672 0 0 0 3.773 0l17-16.987a2.672 2.672 0 0 0 0-3.773L27.253 1.68a2.672 2.672 0 0 0-3.773 0z"/></svg>