<svg xmlns="http://www.w3.org/2000/svg" width="33" height="33" fill="none" viewBox="0 0 33 33"><g clip-path="url(#clip0)"><path fill="#035397" d="M16.727.986c-8.823 0-16 7.177-16 16 0 8.822 7.177 16 16 16 8.822 0 16-7.177 16-16s-7.178-16-16-16z"/><path fill="#fff" d="M24.836 13.595l-8.667 8.667a1.33 1.33 0 0 1-1.885 0L9.95 17.928a1.331 1.331 0 0 1 0-1.885 1.331 1.331 0 0 1 1.885 0l3.39 3.39 7.725-7.723a1.332 1.332 0 0 1 1.885 0 1.332 1.332 0 0 1 0 1.885z"/></g><defs><clipPath id="clip0"><path fill="#fff" d="M0 0h32v32H0z" transform="translate(.727 .986)"/></clipPath></defs></svg>