<svg xmlns="http://www.w3.org/2000/svg" width="36" height="30" fill="none" viewBox="0 0 36 30"><path fill="#fff" d="M31.06 19.055c-.172-1.2-1.1-2.136-2.293-2.415-4.638-1.087-5.8-3.759-5.997-6.721-.823-.153-2.286-.319-4.77-.319-2.484 0-3.947.166-4.77.319-.196 2.962-1.36 5.634-5.998 6.72-1.193.282-2.12 1.216-2.293 2.416l-.894 6.196C3.73 27.433 5.332 29.4 7.56 29.4h20.88c2.226 0 3.83-1.967 3.515-4.149l-.894-6.196zM18 24.885c-2.511 0-4.547-2.015-4.547-4.5 0-2.483 2.036-4.5 4.547-4.5 2.51 0 4.547 2.017 4.547 4.5 0 2.485-2.038 4.5-4.547 4.5zM35.91 7.8C35.867 5.1 28.994.602 18 .6 7.004.602.13 5.1.09 7.8c-.041 2.7.038 6.214 4.563 5.629 5.294-.686 4.968-2.535 4.968-5.177 0-1.843 4.306-2.288 8.379-2.288 4.073 0 8.377.445 8.379 2.288 0 2.642-.326 4.49 4.968 5.177 4.523.585 4.604-2.929 4.563-5.629z"/></svg>