<svg xmlns="http://www.w3.org/2000/svg" width="34" height="28" fill="none" viewBox="0 0 34 28"><path fill="#fff" fill-rule="evenodd" d="M20 6.5A1.5 1.5 0 0 0 18.5 8v12a1.5 1.5 0 0 0 1.5 1.5h6a1.5 1.5 0 0 0 1.5-1.5V8A1.5 1.5 0 0 0 26 6.5h-6zm4.5 3h-3v9h3v-9z" clip-rule="evenodd"/><path fill="#fff" d="M8 6.5a1.5 1.5 0 0 0 0 3h6a1.5 1.5 0 0 0 0-3H8zm0 6a1.5 1.5 0 1 0 0 3h6a1.5 1.5 0 1 0 0-3H8zM6.5 20A1.5 1.5 0 0 1 8 18.5h6a1.5 1.5 0 1 1 0 3H8A1.5 1.5 0 0 1 6.5 20z"/><path fill="#fff" fill-rule="evenodd" d="M5 .5A4.5 4.5 0 0 0 .5 5v18A4.5 4.5 0 0 0 5 27.5h24a4.5 4.5 0 0 0 4.5-4.5V5A4.5 4.5 0 0 0 29 .5H5zm24 3H5A1.5 1.5 0 0 0 3.5 5v18A1.5 1.5 0 0 0 5 24.5h24a1.5 1.5 0 0 0 1.5-1.5V5A1.5 1.5 0 0 0 29 3.5z" clip-rule="evenodd"/></svg>