<svg xmlns="http://www.w3.org/2000/svg" width="172" height="50" viewBox="0 0 172 50"><path fill-opacity=".85" d="M164.891 50H6.342C2.855 50 0 47.186 0 43.75V6.25C0 2.814 2.855 0 6.342 0h158.549c3.486 0 6.342 2.814 6.342 6.25v37.5c0 3.436-2.856 6.25-6.342 6.25z"/><path d="M60.144 11.006c0 1.094-.317 1.97-.942 2.624-.718.775-1.654 1.165-2.8 1.165-1.095 0-2.03-.397-2.798-1.178-.77-.793-1.153-1.766-1.153-2.93 0-1.165.384-2.138 1.153-2.925.767-.787 1.703-1.184 2.798-1.184a3.86 3.86 0 0 1 1.562.333c.495.218.897.512 1.189.876l-.663.691c-.509-.62-1.202-.927-2.088-.927-.799 0-1.492.288-2.08.87-.582.583-.874 1.338-.874 2.266 0 .927.292 1.688.874 2.272.588.575 1.281.87 2.08.87.849 0 1.562-.296 2.125-.877.37-.385.582-.916.637-1.594h-2.762v-.947h3.685c.044.205.057.403.057.595zm5.846-3.283h-3.461v2.49h3.12v.946h-3.12v2.49h3.46v.965h-4.44V6.758h4.44v.965zm4.125 6.891h-.98V7.723h-2.122v-.965h5.227v.965h-2.124v6.891zm5.908 0V6.758H77v7.856h-.978zm5.314 0h-.972V7.723h-2.13v-.965h5.233v.965h-2.13v6.891zm12.028-1.01c-.75.794-1.68 1.19-2.788 1.19-1.114 0-2.043-.396-2.793-1.19-.749-.793-1.121-1.766-1.121-2.917 0-1.152.372-2.125 1.12-2.918.75-.794 1.68-1.19 2.794-1.19 1.102 0 2.031.396 2.781 1.197.755.799 1.128 1.765 1.128 2.91 0 1.152-.373 2.125-1.121 2.918zm-4.857-.659a2.756 2.756 0 0 0 2.07.883 2.74 2.74 0 0 0 2.062-.883c.563-.588.848-1.343.848-2.258 0-.916-.285-1.671-.848-2.26a2.74 2.74 0 0 0-2.063-.882c-.818 0-1.504.294-2.069.883-.563.588-.848 1.343-.848 2.258 0 .916.285 1.671.848 2.26zm7.352 1.669V6.758h1.19l3.697 6.11h.042l-.042-1.51v-4.6h.978v7.856h-1.021l-3.872-6.411h-.043l.043 1.517v4.894h-.972zm-9.438 11.473c-2.98 0-5.413 2.342-5.413 5.574 0 3.206 2.434 5.573 5.413 5.573 2.985 0 5.419-2.367 5.419-5.573 0-3.232-2.434-5.574-5.42-5.574zm0 8.952c-1.635 0-3.041-1.394-3.041-3.378 0-2.01 1.406-3.38 3.04-3.38 1.635 0 3.048 1.37 3.048 3.38 0 1.984-1.413 3.378-3.047 3.378zm-11.81-8.952c-2.986 0-5.413 2.342-5.413 5.574 0 3.206 2.427 5.573 5.412 5.573 2.984 0 5.413-2.367 5.413-5.573 0-3.232-2.429-5.574-5.413-5.574zm0 8.952c-1.637 0-3.048-1.394-3.048-3.378 0-2.01 1.411-3.38 3.047-3.38 1.635 0 3.041 1.37 3.041 3.38 0 1.984-1.406 3.378-3.04 3.378zm-14.054-7.244v2.369h5.474c-.16 1.323-.588 2.296-1.244 2.975-.8.819-2.044 1.728-4.23 1.728-3.37 0-6.008-2.81-6.008-6.29 0-3.482 2.639-6.29 6.008-6.29 1.821 0 3.147.735 4.125 1.688l1.616-1.67c-1.369-1.349-3.189-2.386-5.741-2.386-4.62 0-8.503 3.884-8.503 8.657 0 4.774 3.883 8.658 8.503 8.658 2.497 0 4.372-.845 5.847-2.431 1.51-1.561 1.982-3.756 1.982-5.529 0-.55-.045-1.056-.124-1.479h-7.705zm57.467 1.836c-.445-1.246-1.82-3.544-4.62-3.544-2.774 0-5.084 2.259-5.084 5.574 0 3.122 2.286 5.573 5.351 5.573 2.478 0 3.908-1.561 4.496-2.47l-1.839-1.267c-.614.928-1.449 1.542-2.657 1.542-1.201 0-2.062-.569-2.613-1.69l7.215-3.084-.249-.634zm-7.356 1.856c-.062-2.149 1.615-3.25 2.817-3.25.942 0 1.741.487 2.007 1.183l-4.824 2.067zm-5.865 5.408h2.372V20.514h-2.372v16.38zm-3.885-9.567h-.079c-.533-.652-1.549-1.241-2.836-1.241-2.702 0-5.172 2.45-5.172 5.592 0 3.124 2.47 5.555 5.172 5.555 1.287 0 2.303-.595 2.836-1.266h.079v.799c0 2.131-1.102 3.276-2.879 3.276-1.449 0-2.348-1.08-2.719-1.99l-2.063.89c.595 1.477 2.17 3.295 4.782 3.295 2.781 0 5.128-1.69 5.128-5.803v-10.01h-2.249v.903zm-2.712 7.71c-1.635 0-3.003-1.413-3.003-3.359 0-1.964 1.368-3.397 3.003-3.397 1.61 0 2.881 1.433 2.881 3.397 0 1.946-1.27 3.36-2.881 3.36zm30.923-14.524h-5.673v16.38h2.366v-6.206h3.307c2.627 0 5.204-1.964 5.204-5.088 0-3.122-2.583-5.086-5.204-5.086zm.062 7.895h-3.369v-5.617h3.369c1.766 0 2.775 1.516 2.775 2.808 0 1.268-1.009 2.81-2.775 2.81zm14.623-2.354c-1.709 0-3.487.78-4.218 2.508l2.1.91c.452-.91 1.282-1.204 2.161-1.204 1.227 0 2.471.761 2.49 2.106v.172c-.428-.255-1.344-.634-2.471-.634-2.261 0-4.565 1.286-4.565 3.686 0 2.195 1.852 3.609 3.934 3.609 1.591 0 2.47-.742 3.022-1.606h.08v1.267h2.285v-6.284c0-2.905-2.099-4.53-4.818-4.53zm-.286 8.977c-.773 0-1.851-.396-1.851-1.387 0-1.268 1.344-1.755 2.508-1.755 1.042 0 1.53.238 2.162.55-.185 1.518-1.449 2.592-2.819 2.592zm13.428-8.618l-2.719 7.101h-.081l-2.811-7.1h-2.551l4.224 9.923-2.41 5.522h2.471l6.509-15.446h-2.632zm-21.323 10.48h2.372v-16.38h-2.372v16.38z"/><path fill="url(#google0_linear)" d="M13.236 7.46c-.373.402-.588 1.03-.588 1.842v28.981c0 .813.215 1.44.588 1.843l.092.089L29.046 23.98v-.383L13.328 7.364l-.092.095z"/><path fill="url(#google1_linear)" d="M34.28 29.398l-5.234-5.413V23.6l5.24-5.414.118.07 6.205 3.649c1.771 1.035 1.771 2.739 0 3.78l-6.205 3.642-.124.07z"/><path fill="url(#google2_linear)" d="M34.404 29.327l-5.358-5.535-15.81 16.337c.588.639 1.547.716 2.638.077l18.53-10.879z"/><path fill="url(#google3_linear)" d="M34.404 18.258L15.873 7.379c-1.091-.632-2.05-.555-2.638.084l15.81 16.33 5.358-5.535z"/><defs><linearGradient id="google0_linear" x1="27.651" x2="5.669" y1="38.585" y2="17.31" gradientUnits="userSpaceOnUse"><stop stop-color="#29A2EA"/><stop offset=".007" stop-color="#00A1FF"/><stop offset=".26" stop-color="#00BEFF"/><stop offset=".512" stop-color="#00D2FF"/><stop offset=".76" stop-color="#00DFFF"/><stop offset="1" stop-color="#00E3FF"/></linearGradient><linearGradient id="google1_linear" x1="42.916" x2="12.224" y1="23.791" y2="23.791" gradientUnits="userSpaceOnUse"><stop stop-color="#FFE000"/><stop offset=".409" stop-color="#FFBD00"/><stop offset=".775" stop-color="orange"/><stop offset="1" stop-color="#FF9C00"/></linearGradient><linearGradient id="google2_linear" x1="31.49" x2="1.682" y1="20.783" y2="-8.068" gradientUnits="userSpaceOnUse"><stop stop-color="#FF3A44"/><stop offset="1" stop-color="#C31162"/></linearGradient><linearGradient id="google3_linear" x1="9.256" x2="22.567" y1="49.772" y2="36.889" gradientUnits="userSpaceOnUse"><stop stop-color="#32A071"/><stop offset=".069" stop-color="#2DA771"/><stop offset=".476" stop-color="#15CF74"/><stop offset=".801" stop-color="#06E775"/><stop offset="1" stop-color="#00F076"/></linearGradient></defs></svg>