<svg width="32" height="33" viewBox="0 0 32 33" fill="none" xmlns="http://www.w3.org/2000/svg">
<g clip-path="url(#clip0_2741:91841)">
<path d="M4 1H28C29.933 1 31.5 2.567 31.5 4.5V28.5C31.5 30.433 29.933 32 28 32H4C2.067 32 0.5 30.433 0.5 28.5V4.5C0.5 2.567 2.067 1 4 1Z" stroke="white"/>
<path d="M9.53846 15.5769H13.2308C14.2462 15.5769 15.0769 14.7462 15.0769 13.7308V10.0385C15.0769 9.02309 14.2462 8.19232 13.2308 8.19232H9.53846C8.52308 8.19232 7.69231 9.02309 7.69231 10.0385V13.7308C7.69231 14.7462 8.52308 15.5769 9.53846 15.5769Z" fill="white"/>
<path d="M9.53846 24.8077H13.2308C14.2462 24.8077 15.0769 23.9769 15.0769 22.9616V19.2692C15.0769 18.2539 14.2462 17.4231 13.2308 17.4231H9.53846C8.52308 17.4231 7.69231 18.2539 7.69231 19.2692V22.9616C7.69231 23.9769 8.52308 24.8077 9.53846 24.8077Z" fill="white"/>
<path d="M16.9231 10.0385V13.7308C16.9231 14.7462 17.7538 15.5769 18.7692 15.5769H22.4615C23.4769 15.5769 24.3077 14.7462 24.3077 13.7308V10.0385C24.3077 9.02309 23.4769 8.19232 22.4615 8.19232H18.7692C17.7538 8.19232 16.9231 9.02309 16.9231 10.0385Z" fill="white"/>
<path d="M18.7692 24.8077H22.4615C23.4769 24.8077 24.3077 23.9769 24.3077 22.9616V19.2692C24.3077 18.2539 23.4769 17.4231 22.4615 17.4231H18.7692C17.7538 17.4231 16.9231 18.2539 16.9231 19.2692V22.9616C16.9231 23.9769 17.7538 24.8077 18.7692 24.8077Z" fill="white"/>
</g>
<defs>
<clipPath id="clip0_2741:91841">
<rect width="32" height="32" fill="white" transform="translate(0 0.5)"/>
</clipPath>
</defs>
</svg>
