<svg width="44" height="45" viewBox="0 0 44 45" fill="none" xmlns="http://www.w3.org/2000/svg">
<g clip-path="url(#clip0_2495:89475)">
<path d="M24.75 44.5H19.25C17.9667 44.5 16.5 43.4 16.5 41.2V37.35C16.5 35.5167 15.5834 33.8667 14.1167 32.5834C10.8167 30.0167 9.16669 26.35 9.16669 22.3167C9.35002 15.35 15.0334 9.85002 21.8167 9.66669C25.3 9.66669 28.6 10.95 30.9834 13.3334C33.3667 15.7167 34.8334 19.0167 34.8334 22.5C34.8334 26.35 33.1834 30.0167 30.0667 32.4C28.4167 33.6834 27.5 35.7 27.5 37.5334V41.75C27.5 43.2167 26.2167 44.5 24.75 44.5ZM22 11.5C16.1334 11.5 11.1834 16.45 11 22.3167C11 25.8 12.4667 29.1 15.2167 31.1167C17.2334 32.7667 18.3334 34.9667 18.3334 37.35V41.2C18.3334 41.5667 18.3334 42.6667 19.25 42.6667H24.75C25.3 42.6667 25.6667 42.3 25.6667 41.75V37.5334C25.6667 35.15 26.95 32.5834 28.9667 30.9334C31.5334 28.9167 33 25.8 33 22.5C33 19.5667 31.9 16.8167 29.7 14.6167C27.6834 12.6 24.9334 11.5 22 11.5Z" fill="#33CCCC"/>
<path d="M26.5833 39H17.4167C16.8667 39 16.5 38.6333 16.5 38.0834C16.5 37.5334 16.8667 37.1667 17.4167 37.1667H26.5833C27.1333 37.1667 27.5 37.5334 27.5 38.0834C27.5 38.6333 27.1333 39 26.5833 39Z" fill="#33CCCC"/>
<path d="M22 6C21.45 6 21.0833 5.63333 21.0833 5.08333V1.41667C21.0833 0.866667 21.45 0.5 22 0.5C22.55 0.5 22.9166 0.866667 22.9166 1.41667V5.08333C22.9166 5.63333 22.55 6 22 6Z" fill="#33CCCC"/>
<path d="M34.2834 11.1333C34.1 11.1333 33.7334 11.1333 33.55 10.95C33.1834 10.5833 33.1834 10.0333 33.55 9.66668L36.1167 7.10001C36.4834 6.73335 37.0334 6.73335 37.4 7.10001C37.7667 7.46668 37.7667 8.01668 37.4 8.38335L34.8334 10.95C34.8334 10.95 34.4667 11.1333 34.2834 11.1333Z" fill="#33CCCC"/>
<path d="M43.0833 23.4166H39.4167C38.8667 23.4166 38.5 23.0499 38.5 22.4999C38.5 21.9499 38.8667 21.5833 39.4167 21.5833H43.0833C43.6333 21.5833 44 21.9499 44 22.4999C44 23.0499 43.6333 23.4166 43.0833 23.4166Z" fill="#33CCCC"/>
<path d="M36.85 38.2666C36.6667 38.2666 36.3 38.2666 36.1167 38.0833L33.55 35.5166C33.1834 35.15 33.1834 34.6 33.55 34.2333C33.9167 33.8666 34.4667 33.8666 34.8334 34.2333L37.4 36.8C37.7667 37.1666 37.7667 37.7166 37.4 38.0833C37.4 38.2666 37.2167 38.2666 36.85 38.2666Z" fill="#33CCCC"/>
<path d="M7.15 38.2666C6.96666 38.2666 6.6 38.2666 6.41666 38.0833C6.05 37.7166 6.05 37.1666 6.41666 36.8L8.98333 34.2333C9.35 33.8666 9.9 33.8666 10.2667 34.2333C10.6333 34.6 10.6333 35.15 10.2667 35.5166L7.7 38.0833C7.51666 38.2666 7.33333 38.2666 7.15 38.2666Z" fill="#33CCCC"/>
<path d="M4.58333 23.4166H0.916667C0.366667 23.4166 0 23.0499 0 22.4999C0 21.9499 0.366667 21.5833 0.916667 21.5833H4.58333C5.13333 21.5833 5.5 21.9499 5.5 22.4999C5.5 23.0499 5.13333 23.4166 4.58333 23.4166Z" fill="#33CCCC"/>
<path d="M9.71666 11.1333C9.53333 11.1333 9.16666 11.1333 8.98333 10.95L6.41666 8.19999C6.05 7.83333 6.05 7.28333 6.41666 6.91666C6.78333 6.55 7.33333 6.55 7.7 6.91666L10.2667 9.48333C10.6333 9.84999 10.6333 10.4 10.2667 10.7667C10.0833 10.95 9.9 11.1333 9.71666 11.1333Z" fill="#33CCCC"/>
<path d="M29.3333 23.4167C28.7833 23.4167 28.4166 23.05 28.4166 22.5C28.4166 19.0167 25.4833 16.0833 22 16.0833C21.45 16.0833 21.0833 15.7167 21.0833 15.1667C21.0833 14.6167 21.45 14.25 22 14.25C26.5833 14.25 30.25 17.9167 30.25 22.5C30.25 23.05 29.8833 23.4167 29.3333 23.4167Z" fill="#33CCCC"/>
</g>
<defs>
<clipPath id="clip0_2495:89475">
<rect width="44" height="44" fill="white" transform="translate(0 0.5)"/>
</clipPath>
</defs>
</svg>
