<svg width="32" height="33" viewBox="0 0 32 33" fill="none" xmlns="http://www.w3.org/2000/svg">
<g clip-path="url(#clip0_2741:91848)">
<path d="M4 1H28C29.933 1 31.5 2.567 31.5 4.5V28.5C31.5 30.433 29.933 32 28 32H4C2.067 32 0.5 30.433 0.5 28.5V4.5C0.5 2.567 2.067 1 4 1Z" stroke="#1B1B1B"/>
<path d="M8.92308 18.0385H10.7692C11.2769 18.0385 11.6923 17.6231 11.6923 17.1154V15.2692C11.6923 14.7615 11.2769 14.3462 10.7692 14.3462H8.92308C8.41538 14.3462 8 14.7615 8 15.2692V17.1154C8 17.6231 8.41538 18.0385 8.92308 18.0385ZM8.92308 22.6539H10.7692C11.2769 22.6539 11.6923 22.2385 11.6923 21.7308V19.8846C11.6923 19.3769 11.2769 18.9615 10.7692 18.9615H8.92308C8.41538 18.9615 8 19.3769 8 19.8846V21.7308C8 22.2385 8.41538 22.6539 8.92308 22.6539ZM8.92308 13.4231H10.7692C11.2769 13.4231 11.6923 13.0077 11.6923 12.5V10.6539C11.6923 10.1462 11.2769 9.73077 10.7692 9.73077H8.92308C8.41538 9.73077 8 10.1462 8 10.6539V12.5C8 13.0077 8.41538 13.4231 8.92308 13.4231ZM13.5385 18.0385H23.6923C24.2 18.0385 24.6154 17.6231 24.6154 17.1154V15.2692C24.6154 14.7615 24.2 14.3462 23.6923 14.3462H13.5385C13.0308 14.3462 12.6154 14.7615 12.6154 15.2692V17.1154C12.6154 17.6231 13.0308 18.0385 13.5385 18.0385ZM13.5385 22.6539H23.6923C24.2 22.6539 24.6154 22.2385 24.6154 21.7308V19.8846C24.6154 19.3769 24.2 18.9615 23.6923 18.9615H13.5385C13.0308 18.9615 12.6154 19.3769 12.6154 19.8846V21.7308C12.6154 22.2385 13.0308 22.6539 13.5385 22.6539ZM12.6154 10.6539V12.5C12.6154 13.0077 13.0308 13.4231 13.5385 13.4231H23.6923C24.2 13.4231 24.6154 13.0077 24.6154 12.5V10.6539C24.6154 10.1462 24.2 9.73077 23.6923 9.73077H13.5385C13.0308 9.73077 12.6154 10.1462 12.6154 10.6539Z" fill="#1B1B1B"/>
</g>
<defs>
<clipPath id="clip0_2741:91848">
<rect width="32" height="32" fill="white" transform="translate(0 0.5)"/>
</clipPath>
</defs>
</svg>
