<svg width="52" height="52" viewBox="0 0 52 52" fill="none" xmlns="http://www.w3.org/2000/svg">
<path d="M47.6804 12.9579H47.1533C46.8417 11.8636 46.4065 10.8137 45.8532 9.82105L46.2278 9.44629C46.6565 9.01781 46.8924 8.44633 46.8924 7.83707C46.8924 7.22782 46.6565 6.65644 46.2275 6.22745L43.7312 3.73405C43.3025 3.30273 42.7303 3.06528 42.1199 3.06528C41.5096 3.06528 40.9374 3.30273 40.5108 3.73192L40.1366 4.10617C39.1432 3.55114 38.0929 3.11505 36.9993 2.80356V2.27657C36.9994 1.02129 35.9782 0 34.7228 0H31.1934C29.9381 0 28.9168 1.02129 28.9168 2.27657V2.80356C27.8234 3.11494 26.7725 3.55114 25.7771 4.10658L25.4046 3.73405C24.9757 3.30273 24.4035 3.06528 23.7932 3.06538C23.183 3.06538 22.6108 3.30293 22.1842 3.73202L19.6884 6.22796C19.2597 6.65644 19.0238 7.22792 19.0238 7.83718C19.0238 8.44643 19.2597 9.01781 19.6883 9.44629L20.0628 9.82094C19.5072 10.8166 19.0717 11.8668 18.7618 12.9579H18.2328C16.9775 12.9579 15.9563 13.9792 15.9563 15.2345V18.767C15.9563 20.0222 16.9775 21.0435 18.2328 21.0435H18.7618C19.0717 22.1346 19.5072 23.1847 20.0628 24.1805L19.6883 24.5552C19.2596 24.9836 19.0237 25.5551 19.0237 26.1644C19.0237 26.7735 19.2596 27.345 19.6882 27.7735L22.1821 30.2674C22.6108 30.6987 23.1829 30.9362 23.7931 30.9362H23.7932C24.4035 30.9362 24.9758 30.6987 25.4024 30.2695L25.777 29.8949C26.7734 30.4508 27.8243 30.8864 28.9167 31.1962V31.725C28.9167 32.9803 29.938 34.0015 31.1933 34.0015H34.7227C35.978 34.0015 36.9993 32.9803 36.9993 31.725V31.1962C38.0919 30.8863 39.1421 30.4509 40.1366 29.8953L40.5087 30.2674C40.9374 30.6987 41.5095 30.9362 42.1198 30.9362C42.7302 30.9362 43.3025 30.6986 43.7286 30.2699L46.2278 27.7735C46.6564 27.3449 46.8923 26.7734 46.8923 26.1643C46.8923 25.555 46.6564 24.9836 46.2278 24.5552L45.8531 24.1804C46.4064 23.1878 46.8415 22.1378 47.1532 21.0435H47.6803C48.9356 21.0435 49.9569 20.0222 49.9569 18.767V15.2345C49.957 13.9792 48.9358 12.9579 47.6804 12.9579ZM34.9682 31.7249C34.9682 31.8579 34.8558 31.9702 34.7228 31.9702H31.1934C31.0603 31.9702 30.948 31.8579 30.948 31.7249V30.4063V24.0037C30.948 23.579 30.6838 23.1991 30.2856 23.0515C27.5565 22.0393 25.723 19.4128 25.723 16.5157C25.723 14.2197 26.8662 12.0675 28.7806 10.7589C28.8665 10.7001 28.9425 10.6522 29.0089 10.6129C29.0053 10.7449 28.9959 10.8705 28.991 10.936C28.9833 11.0391 28.9773 11.1204 28.9773 11.2011V15.9945C28.9773 18.1946 30.6964 20.032 32.8908 20.1775C32.9355 20.1805 32.9804 20.1805 33.0252 20.1775C35.2181 20.0321 36.9359 18.1947 36.9359 15.9945V11.2011C36.9359 11.1208 36.9299 11.04 36.9224 10.9375C36.9175 10.8717 36.9082 10.7454 36.9046 10.6128C36.9708 10.652 37.0464 10.6998 37.132 10.7584C39.0469 12.0673 40.1902 14.2196 40.1902 16.5156C40.1902 19.4124 38.3576 22.039 35.6301 23.0515C35.2321 23.1992 34.968 23.579 34.968 24.0036V30.4062V31.7249H34.9682ZM47.9258 18.767C47.9258 18.8977 47.8111 19.0123 47.6804 19.0123H46.3648C45.8903 19.0123 45.479 19.3409 45.3743 19.8037C45.0527 21.2248 44.4956 22.5686 43.7186 23.7978C43.4649 24.1992 43.5232 24.7228 43.8589 25.0586L44.7918 25.9914C44.8523 26.0519 44.8613 26.1257 44.8613 26.1643C44.8613 26.2028 44.8523 26.2766 44.7921 26.3367L42.2907 28.8353C42.2336 28.8928 42.1662 28.9049 42.1199 28.9049C42.0737 28.9049 42.0065 28.8928 41.9472 28.8331L41.0143 27.9002C40.6781 27.5641 40.1539 27.5062 39.7526 27.7605C38.8856 28.3098 37.9629 28.7457 36.9994 29.0679V24.6792C40.1502 23.2128 42.2216 20.0175 42.2216 16.5155C42.2216 13.5482 40.7474 10.7691 38.2785 9.08149C37.9003 8.82302 36.7501 8.03664 35.7442 8.61563C34.7564 9.18437 34.8548 10.5175 34.8968 11.0869C34.9004 11.1363 34.904 11.1779 34.9048 11.2011V15.9945C34.9048 17.1061 34.0551 18.0382 32.9581 18.1453C31.8595 18.0381 31.0086 17.106 31.0086 15.9945L31.0084 11.2085C31.0094 11.1779 31.013 11.1363 31.0167 11.0867C31.059 10.5176 31.1583 9.18518 30.1713 8.61614C29.1657 8.03613 28.0139 8.82281 27.6349 9.08149C25.1658 10.7692 23.6918 13.5483 23.6918 16.5156C23.6918 20.0181 25.7643 23.2137 28.9168 24.6796V29.068C27.9531 28.7458 27.0292 28.3097 26.1598 27.7601C25.9926 27.6545 25.8045 27.603 25.6173 27.603C25.355 27.603 25.0948 27.7044 24.8989 27.9004L23.9642 28.8353C23.907 28.8929 23.8396 28.905 23.7933 28.905C23.747 28.905 23.6799 28.8929 23.6206 28.8333L21.1246 26.3372C21.064 26.2767 21.055 26.2029 21.055 26.1644C21.055 26.1258 21.064 26.052 21.1246 25.9914L22.0574 25.0586C22.3931 24.7228 22.4514 24.1992 22.1977 23.7978C21.4167 22.5621 20.8598 21.2189 20.5424 19.8054C20.4384 19.3418 20.0267 19.0122 19.5515 19.0122H18.233C18.1023 19.0122 17.9877 18.8976 17.9877 18.7668V15.2344C17.9877 15.1013 18.1 14.989 18.233 14.989H19.5515C20.0267 14.989 20.4383 14.6595 20.5424 14.1958C20.8598 12.7823 21.4166 11.439 22.1977 10.2034C22.4514 9.80206 22.3931 9.27841 22.0574 8.94266L21.1245 8.00983C21.064 7.9493 21.055 7.87557 21.055 7.83697C21.055 7.79838 21.064 7.72465 21.1246 7.66402L23.6227 5.16585C23.6799 5.10836 23.7471 5.09628 23.7934 5.09628C23.8397 5.09628 23.907 5.10836 23.9663 5.16798L24.899 6.10081C25.235 6.43666 25.7586 6.49486 26.1599 6.24116C27.3939 5.46098 28.7387 4.90291 30.1564 4.58269C30.6195 4.47808 30.9482 4.06666 30.9482 3.59207V2.27657C30.9482 2.14352 31.0605 2.0312 31.1936 2.0312H34.723C34.856 2.0312 34.9684 2.14352 34.9684 2.27657V3.59228C34.9684 4.06697 35.2971 4.47828 35.7601 4.58289C37.1791 4.90341 38.5224 5.46118 39.7528 6.24086C40.1542 6.49516 40.6783 6.43727 41.0145 6.10111L41.9494 5.16615C42.0066 5.10867 42.0739 5.09658 42.1201 5.09658C42.1664 5.09658 42.2337 5.10867 42.2934 5.16869L44.792 7.66432C44.8525 7.72485 44.8615 7.79858 44.8615 7.83718C44.8615 7.87577 44.8525 7.9495 44.7919 8.01013L43.8591 8.94296C43.5234 9.27872 43.4651 9.80236 43.7188 10.2037C44.4957 11.4329 45.0529 12.7766 45.3745 14.1979C45.4792 14.6607 45.8905 14.9892 46.365 14.9892H47.6806C47.8137 14.9892 47.926 15.1016 47.926 15.2346V18.767H47.9258Z" fill="#1B1B1B"/>
<path d="M38.8757 44.719C38.4791 45.1156 38.4791 45.7587 38.8757 46.1554C39.074 46.3536 39.3339 46.4529 39.5938 46.4529C39.8537 46.4529 40.1136 46.3536 40.312 46.1554L40.3148 46.1525C40.7114 45.7559 40.71 45.1143 40.3133 44.7177C39.9166 44.3211 39.2723 44.3226 38.8757 44.719Z" fill="#1B1B1B"/>
<path d="M43.5806 34.8807L35.5176 39.0214C34.8341 38.3135 33.8764 37.8719 32.8171 37.8719H27.2926C26.9833 37.8719 26.9077 37.8474 26.9026 37.8456C26.8578 37.8221 26.7163 37.689 26.6026 37.5822L26.5522 37.5349C22.0828 33.3275 18.3073 33.5941 14.0139 35.2886C13.3192 35.5628 13.3058 35.5634 12.6082 35.5931L11.359 35.5941C11.0031 34.5205 9.99035 33.7435 8.79895 33.7435H4.73696C3.25145 33.7435 2.04298 34.9534 2.04298 36.4405V47.1011C2.04298 48.5865 3.25145 49.7951 4.73696 49.7951H8.79895C9.99025 49.7951 11.0029 49.0191 11.3589 47.9468H13.644C13.8458 47.9468 13.8458 47.9468 14.0805 48.0129C14.1658 48.037 14.2696 48.0662 14.4036 48.1023L24.9145 50.9143C25.3778 51.0394 25.8027 51.1626 26.2137 51.2816C27.5604 51.6718 28.6924 51.9999 29.8722 51.9999C31.2057 51.9999 32.6 51.5808 34.4339 50.3586C34.4427 50.3528 34.4516 50.3467 34.4603 50.3405L36.4669 48.9096C36.9236 48.5839 37.0299 47.9497 36.7042 47.493C36.3785 47.0362 35.7441 46.9301 35.2877 47.2558L33.2944 48.6771C30.6331 50.4472 29.5031 50.12 26.779 49.3307C26.3594 49.2091 25.9255 49.0834 25.442 48.9528L14.9303 46.1407C14.8072 46.1075 14.7107 46.0803 14.6314 46.058C14.2479 45.9499 14.1045 45.9158 13.6441 45.9158H11.4959V37.6261H12.5934C12.6081 37.6261 12.6225 37.6258 12.6371 37.6252L12.695 37.6227C13.5464 37.5864 13.7845 37.5631 14.7597 37.1781C18.5305 35.69 21.4412 35.5132 25.1614 39.0153L25.2116 39.0625C25.8474 39.66 26.2135 39.9033 27.2927 39.9033H32.8172C33.4655 39.9033 34.0309 40.2633 34.3256 40.7935C34.3288 40.7994 34.3324 40.805 34.3357 40.8109C34.4673 41.0543 34.5423 41.3328 34.5423 41.6285C34.5423 42.5782 33.7685 43.3508 32.8173 43.3508H23.864C23.3032 43.3508 22.8484 43.8055 22.8484 44.3664C22.8484 44.9273 23.3032 45.382 23.864 45.382H32.8173C34.8885 45.382 36.5735 43.6982 36.5735 41.6285C36.5735 41.3472 36.5414 41.0734 36.4825 40.8097L44.5085 36.6879C45.2682 36.2979 46.307 36.3397 46.8227 37.1766C47.2789 37.9142 47.0279 38.8947 46.2393 39.4569L42.7185 41.9644C42.2616 42.2898 42.155 42.9239 42.4804 43.3809C42.6785 43.659 42.9911 43.8074 43.3085 43.8074C43.5123 43.8074 43.7181 43.7462 43.8967 43.619L47.4179 41.1112C49.0902 39.919 49.5769 37.7681 48.5509 36.1096C47.542 34.4722 45.4054 33.9439 43.5806 34.8807ZM9.46458 47.1011C9.46458 47.4604 9.1598 47.7639 8.79895 47.7639H4.73696C4.37764 47.7639 4.07418 47.4603 4.07418 47.1011V36.4406C4.07418 36.0735 4.37155 35.7748 4.73696 35.7748H8.79895C9.1598 35.7748 9.46458 36.0796 9.46458 36.4406V47.1011Z" fill="#1B1B1B"/>
</svg>
