<svg width="52" height="48" viewBox="0 0 52 48" fill="none" xmlns="http://www.w3.org/2000/svg">
<path d="M51.7194 13.053C51.7074 13.0404 51.695 13.028 51.6824 13.0161L40.9482 3.47571C40.8503 3.38642 40.736 3.31717 40.6115 3.27163L32.8466 0.496259C32.3169 0.303922 31.7316 0.577505 31.5393 1.1072C31.5046 1.20273 31.4844 1.30285 31.4793 1.40438C31.4793 1.62886 31.1426 6.80207 25.9694 6.8837C20.7656 6.80207 20.439 1.62886 20.4288 1.40438C20.3987 0.841651 19.9181 0.409911 19.3554 0.440012C19.2587 0.445241 19.1632 0.464118 19.0718 0.496259L11.317 3.30224C11.1926 3.34778 11.0783 3.41703 10.9803 3.50632L0.317573 13.0161C-0.0909525 13.4042 -0.107533 14.0501 0.280585 14.4586C0.292575 14.4712 0.304946 14.4836 0.317573 14.4956L8.80695 23.0768V46.545C8.80695 47.1085 9.26382 47.5654 9.82731 47.5654H42.1727C42.7362 47.5654 43.193 47.1085 43.193 46.545V23.0768L51.6824 14.4956C52.0909 14.1075 52.1075 13.4617 51.7194 13.053ZM43.1624 20.1688V15.4343C43.1624 14.8708 42.7056 14.4139 42.1421 14.4139C41.5786 14.4139 41.1217 14.8708 41.1217 15.4343V45.4736H10.8069V15.4343C10.8069 14.8708 10.35 14.4139 9.7865 14.4139C9.22301 14.4139 8.76614 14.8708 8.76614 15.4343V20.179L2.49094 13.8221L12.2047 5.12868L18.5922 2.82268C19.3835 6.89977 23.3301 9.56354 27.4072 8.77226C30.4181 8.18785 32.7724 5.83363 33.3568 2.82268L39.7442 5.12868L49.4274 13.8221L43.1624 20.1688Z" fill="#1B1B1B"/>
</svg>
