<svg xmlns="http://www.w3.org/2000/svg" width="24" height="24" fill="none" viewBox="0 0 24 24"><path fill="#3CC" d="M19.36 3.36H4.636c-.704 0-1.276.558-1.276 1.245v14.788c0 .688.572 1.247 1.276 1.247H19.36c.705 0 1.28-.559 1.28-1.247V4.605c0-.687-.575-1.245-1.28-1.245zM8.485 18.085H5.921V9.839h2.564v8.246zM7.203 8.71a1.486 1.486 0 1 1 0-2.97 1.486 1.486 0 0 1 0 2.97zm10.881 9.374h-2.56v-4.01c0-.957-.018-2.187-1.332-2.187-1.334 0-1.537 1.042-1.537 2.118v4.08h-2.562V9.838h2.459v1.126h.035c.342-.648 1.178-1.332 2.425-1.332 2.593 0 3.073 1.708 3.073 3.929v4.523z"/></svg>