<svg xmlns="http://www.w3.org/2000/svg" width="751" height="500" fill="none" viewBox="0 0 751 500"><path fill="#E9E9E9" d="M49.04 242.161c-4.21-24.3 4.24-51.14 23.63-66.36 19.39-15.22 49.53-16.35 68.32-.39 13.21 11.23 19.39 28.37 27.26 43.82 7.87 15.45 19.79 31.09 36.92 33.76 14.78 2.3 29.64-5.78 44.47-3.84 14.48 1.89 26.6 13.73 30.77 27.72 4.17 13.99 1 29.54-6.42 42.08s-19 22.31-31.55 29.71c-40.49 23.81-94.22 23-134-1.93s-63.84-73-60-119.83"/><path fill="#fff" d="M49.04 242.161c-4.21-24.3 4.24-51.14 23.63-66.36 19.39-15.22 49.53-16.35 68.32-.39 13.21 11.23 19.39 28.37 27.26 43.82 7.87 15.45 19.79 31.09 36.92 33.76 14.78 2.3 29.64-5.78 44.47-3.84 14.48 1.89 26.6 13.73 30.77 27.72 4.17 13.99 1 29.54-6.42 42.08s-19 22.31-31.55 29.71c-40.49 23.81-94.22 23-134-1.93s-63.84-73-60-119.83" opacity=".7"/><path fill="#E9E9E9" d="M283.61 459.662c13.15-9 19.33-28.76 11.11-42.39-8.32-12.4-21.24-22.29-36-24.38-14.76-2.09-31.15 4.9-37.73 18.31-4.15 8.44-4.16 18.64-.72 27.39a43.529 43.529 0 0 0 18.19 20.91c13.59 8.22 32.04 9.14 45.15.16z"/><path fill="#fff" d="M283.61 459.662c13.15-9 19.33-28.76 11.11-42.39-8.32-12.4-21.24-22.29-36-24.38-14.76-2.09-31.15 4.9-37.73 18.31-4.15 8.44-4.16 18.64-.72 27.39a43.529 43.529 0 0 0 18.19 20.91c13.59 8.22 32.04 9.14 45.15.16z" opacity=".7"/><path fill="#E9E9E9" d="M710.61 376.831c-.81-21.05-11.24-41.919-28.7-53.699-17.46-11.78-41.77-13.39-59.76-2.44-11.21 6.82-19.34 17.679-26.11 28.919-3.71 6.16-7.58 12.951-14.25 15.641-8.67 3.51-18.2-1.271-27.37-3.101a43.062 43.062 0 0 0-50 30.94c-8 33.19 15.27 56.88 40.15 71.261 27.81 16.08 63 16.059 93.24 5.339 19.85-7 38.35-18.599 51.87-34.749 13.52-16.15 21.75-37.061 20.93-58.111z"/><path fill="#fff" d="M710.61 376.831c-.81-21.05-11.24-41.919-28.7-53.699-17.46-11.78-41.77-13.39-59.76-2.44-11.21 6.82-19.34 17.679-26.11 28.919-3.71 6.16-7.58 12.951-14.25 15.641-8.67 3.51-18.2-1.271-27.37-3.101a43.062 43.062 0 0 0-50 30.94c-8 33.19 15.27 56.88 40.15 71.261 27.81 16.08 63 16.059 93.24 5.339 19.85-7 38.35-18.599 51.87-34.749 13.52-16.15 21.75-37.061 20.93-58.111z" opacity=".7"/><path fill="#E9E9E9" d="M662.81 197.001c-2.57-16.8-18.77-31.9-35.68-30.28-15.79 2.29-31.28 10.16-40.12 23.44-8.84 13.28-9.67 32.25.2 44.78 6.21 7.89 16 12.62 26 13.35a46.485 46.485 0 0 0 28.53-7.86c14.25-9.3 23.64-26.61 21.07-43.43z"/><path fill="#fff" d="M662.81 197.001c-2.57-16.8-18.77-31.9-35.68-30.28-15.79 2.29-31.28 10.16-40.12 23.44-8.84 13.28-9.67 32.25.2 44.78 6.21 7.89 16 12.62 26 13.35a46.485 46.485 0 0 0 28.53-7.86c14.25-9.3 23.64-26.61 21.07-43.43z" opacity=".7"/><path fill="#1B0F0F" d="M467.02 201.229c2.18-.27 3.91-1.87 5.89-2.8a10.216 10.216 0 0 1 9.42.47c2.81 1.68 4.81 3.7 5 7l-3.67 4"/><path fill="#F4D3BD" d="M490.26 221.668l-5.9 35.41c-1 6-3.7 14.67-13.15 12.65-8.07-2.37-8.86-10.55-7.92-16.17.45-2.67.82-4.89.84-5.17 0 0-8.87-2.35-8-11.38.41-4.36 2-13.29 3.48-21.34a16.9 16.9 0 0 1 18.33-13.67l.87.09c9.33 1.52 13.24 10.29 11.45 19.58z"/><path fill="#EAAE94" d="M464.13 248.258a21.09 21.09 0 0 0 12.11-2.11s-3.46 6.2-12.37 4.45l.26-2.34z"/><path fill="#1B0F0F" d="M460.39 221.07c.18.16 1.4-.3 3.07-.1 1.67.2 2.84.93 3 .8.16-.13-.08-.33-.59-.66a5.782 5.782 0 0 0-2.41-.82 5.172 5.172 0 0 0-2.46.26c-.5.21-.7.45-.61.52zm13.7 1.531c.18.16 1.4-.29 3.06-.09 1.66.2 2.83.92 3 .8.17-.12-.08-.33-.59-.66a6.094 6.094 0 0 0-2.4-.81 5.405 5.405 0 0 0-2.45.25c-.52.21-.71.44-.62.51zm-.31 2.218a.997.997 0 0 0 .85 1.1.999.999 0 0 0 1.12-.79.995.995 0 0 0-.203-.721.998.998 0 0 0-1.767.411zm-12.95-1.418a1.003 1.003 0 0 0 .85 1.11.999.999 0 0 0 1.12-.79 1.002 1.002 0 0 0-.85-1.11 1.002 1.002 0 0 0-1.12.79zm7.67 8.34a8.777 8.777 0 0 0-2.21-.64c-.35-.08-.68-.18-.71-.43.012-.362.134-.711.35-1 .42-.82.86-1.68 1.33-2.58a49.185 49.185 0 0 0 3.09-6.8c-.15-.08-1.78 2.85-3.63 6.53l-1.22 2.58c-.273.401-.39.888-.33 1.37a.906.906 0 0 0 .53.58c.19.073.388.123.59.15a9.08 9.08 0 0 0 2.21.24zm7.26-15.191c.09.36 1.32.32 2.74.65 1.42.33 2.53.86 2.76.57.23-.29-.07-.49-.5-.87a4.625 4.625 0 0 0-2-1 4.453 4.453 0 0 0-2.2 0c-.54.24-.83.48-.8.65zm-14.65.22c.11.3 1.33.21 2.74.42 1.41.21 2.56.6 2.76.34.2-.26-.1-.4-.56-.7a5.337 5.337 0 0 0-4.18-.58c-.53.16-.8.38-.76.52z"/><path fill="#F4D3BD" d="M488.82 228.27c.16-.05 6.39-1.19 5.55 5-.84 6.19-6.84 4-6.83 3.85.01-.15 1.28-8.85 1.28-8.85z"/><path fill="#EAAE94" d="M489.74 235.001s.09.09.26.2c.24.145.527.191.8.13a2.683 2.683 0 0 0 1.55-2.21 3.449 3.449 0 0 0-.09-1.58 1.227 1.227 0 0 0-.69-.93.556.556 0 0 0-.373-.016.558.558 0 0 0-.297.226c-.11.16-.08.29-.12.29-.04 0-.12-.12 0-.37a.716.716 0 0 1 .29-.35.816.816 0 0 1 .62-.07 1.515 1.515 0 0 1 1 1.1c.19.57.238 1.178.14 1.77a2.808 2.808 0 0 1-1.93 2.44 1.158 1.158 0 0 1-1-.3c-.17-.17-.19-.33-.16-.33z"/><path fill="#1B0F0F" d="M457.85 213.592a13.08 13.08 0 0 0 11.85-1.39c2.39-1.63 4.36-4.13 7.2-4.68a7.34 7.34 0 0 1 5.52 1.35 14.193 14.193 0 0 1 3.84 4.35c-2.22 4.4-1.59 9.64-.9 14.52.016.55.217 1.078.57 1.5a2.002 2.002 0 0 0 2.51-.28 7.684 7.684 0 0 0 2.1-3.85 25.513 25.513 0 0 0 1-10 17.35 17.35 0 0 0-3.83-9.21 16.417 16.417 0 0 0-11-5.54 20.149 20.149 0 0 0-12.09 2.94 11.868 11.868 0 0 0-4.24 4"/><path fill="#1B0F0F" d="M458.39 222.12c.58-2.48.85-5.61 1.43-8.09a15.1 15.1 0 0 0 11.14-2.77c1.64-1.27 3.06-3 5.05-3.56 2.57-.74 5.23.61 7.56 1.92l-.09-.11a11.35 11.35 0 0 1 3 3.1 35.258 35.258 0 0 0-1.13 15 2.58 2.58 0 0 0 1.17 1.85c1.27.77 2.22-.1 3.18-.69.7-.44 1.7-.72 2.3-.15a35 35 0 0 0 4.06-10 2.522 2.522 0 0 0 4.44 2.22 5.31 5.31 0 0 1-1.22-2.52 3.27 3.27 0 0 0 2.403.794 3.251 3.251 0 0 0 2.247-1.164l-1.95-2 2.78.15a14.858 14.858 0 0 1-5.28-4.57 22.941 22.941 0 0 0-4.91-5c-2-1.28-4.64-1.8-6.68-.62.14-3.25-2.19-6.26-5.14-7.63a21.078 21.078 0 0 0-11.18-1.11c-2.46.52-5 2-8.21 4.31a29.922 29.922 0 0 0-4.26 3.68c-1.94 2.05-5.81 5.41-9.52 4.41l.33 3.82c2 1.91 6.13.23 6.13.23s-2.38 2.37-4.61 2.31l.6 3.28s3.37.59 4.85-2l1.51 4.91z"/><path fill="#455A64" d="M486.26 213.219s-.29-.48-.9-1.29a11.437 11.437 0 0 0-3.1-2.86 11.78 11.78 0 0 0-2.72-1 5.87 5.87 0 0 0-3.25-.08c-2.26.68-3.91 3-6.33 4.43a13.916 13.916 0 0 1-7.52 2.23 17.073 17.073 0 0 1-1.78-.08 1.65 1.65 0 0 0-.74 0 8.198 8.198 0 0 0-.71.35 6.79 6.79 0 0 0-1.9 2.13 5.376 5.376 0 0 1-3.7 2.19 6.121 6.121 0 0 1-1.18 0 1.395 1.395 0 0 1-.4-.07c0-.05.57 0 1.55-.15a5.3 5.3 0 0 0 3.45-2.21 6.876 6.876 0 0 1 2-2.28c.245-.142.499-.269.76-.38.297-.095.611-.122.92-.08.575.051 1.153.071 1.73.06a13.743 13.743 0 0 0 7.27-2.2 25.811 25.811 0 0 0 3.17-2.45 9.502 9.502 0 0 1 3.29-2 6.28 6.28 0 0 1 3.48.11c.974.262 1.912.645 2.79 1.14a10.778 10.778 0 0 1 3.08 3.06c.227.317.428.651.6 1 .11.29.16.42.14.43zm9.71 5.41s0 .19-.17.51a4.642 4.642 0 0 1-.78 1.28 2.389 2.389 0 0 1-2.14.87 1.675 1.675 0 0 1-1.21-.86 2.506 2.506 0 0 1-.27-1.55l.46.12a2 2 0 0 1-1.74 1.17 2.447 2.447 0 0 1-1.82-.68 3.804 3.804 0 0 1-1-1.49 10.033 10.033 0 0 1-.41-2.87 14.158 14.158 0 0 0-.33-2.57c.459.769.692 1.653.67 2.55.044.928.212 1.846.5 2.73.181.491.476.933.86 1.29a2.002 2.002 0 0 0 1.47.55 1.532 1.532 0 0 0 1.32-.86l.83-2.07-.37 2.19a1.613 1.613 0 0 0 1.08 1.94 2.1 2.1 0 0 0 1.84-.67 6.08 6.08 0 0 0 .87-1.15c.21-.29.32-.44.34-.43zm-2.26 6.76a2.649 2.649 0 0 1-1.73.45 5.928 5.928 0 0 1-3.93-1.72 11.195 11.195 0 0 1-2.35-3.58 5.476 5.476 0 0 1-.58-1.66c.356.466.654.973.89 1.51a13.784 13.784 0 0 0 2.38 3.38 6.202 6.202 0 0 0 3.61 1.72c.572.004 1.143-.03 1.71-.1z"/><path fill="#455A64" d="M493.42 226.54a3.25 3.25 0 0 1-1.52.11 8.256 8.256 0 0 1-3.49-1.18 8.125 8.125 0 0 1-2.64-2.58 3 3 0 0 1-.59-1.41c.323.382.617.786.88 1.21a9.836 9.836 0 0 0 2.6 2.36 9.7 9.7 0 0 0 3.29 1.25c.496.041.987.121 1.47.24zm3.98-23.02a9.748 9.748 0 0 1-1.54-.21 10.31 10.31 0 0 0-3.65.22 10.452 10.452 0 0 0-3.34 1.51c-.77.54-1.2 1-1.26.91a3.57 3.57 0 0 1 1.05-1.19 8.864 8.864 0 0 1 3.43-1.71 8.584 8.584 0 0 1 3.82-.08 3.493 3.493 0 0 1 1.49.55z"/><path fill="#455A64" d="M489.04 198.172a7.794 7.794 0 0 1-1.28 8.19 19.054 19.054 0 0 0 1.33-4c.142-1.394.125-2.8-.05-4.19z"/><path fill="#455A64" d="M453.12 209.351c.383.321.82.572 1.29.74a7.128 7.128 0 0 0 4-.47c.82-.27 1.71-.63 2.68-1a17.217 17.217 0 0 0 2.93-1.38c2-1.14 4-2.77 6.47-3.88a11.3 11.3 0 0 1 3.84-1 7.078 7.078 0 0 1 3.63.75c2.11 1.1 3.6 2.62 5.2 3.25a5.174 5.174 0 0 0 3.93.18 4.234 4.234 0 0 0 1.19-.87s-.05.12-.21.34c-.25.294-.556.535-.9.71a5.279 5.279 0 0 1-4.14 0c-1.71-.64-3.25-2.16-5.27-3.17a6.677 6.677 0 0 0-3.4-.68c-1.271.122-2.513.46-3.67 1-2.41 1.07-4.41 2.68-6.45 3.82a16.79 16.79 0 0 1-3 1.38c-1 .34-1.86.69-2.7.94a7.005 7.005 0 0 1-4.15.32 2.707 2.707 0 0 1-1-.61 1.535 1.535 0 0 1-.27-.37z"/><path fill="#455A64" d="M487.96 205.838a30.844 30.844 0 0 0-2.37-2.4 14.136 14.136 0 0 0-7.32-3.19 24.63 24.63 0 0 0-4.47.05c-1.236.119-2.48.146-3.72.08a8.118 8.118 0 0 1-2.46-.54 2.484 2.484 0 0 1-.81-.44c1.063.359 2.17.571 3.29.63a29.213 29.213 0 0 0 3.67-.18 22.067 22.067 0 0 1 4.56-.09 13.65 13.65 0 0 1 7.49 3.42 12.304 12.304 0 0 1 1.67 1.87c.196.238.355.505.47.79z"/><path fill="#1B0F0F" d="M469.21 236.221c0-.17 1.22-.31 2.26-1.28a6.88 6.88 0 0 0 1.13-1.44c.26-.41.45-.67.51-.63.06.04 0 .32-.2.79a4.392 4.392 0 0 1-1.1 1.64 3.725 3.725 0 0 1-1.77.92c-.54.1-.82.06-.83 0z"/><path fill="#001E6C" d="M630.12 408.06l16.38-9.28s14.93 13.53 18.13 12.11l-16.86-32.39-26.11 13.41 8.46 16.15z"/><path fill="#fff" d="M639.88 389.501a1.503 1.503 0 0 1 1-1.7 1.444 1.444 0 0 1 1.7 1 1.56 1.56 0 0 1-1.08 1.8 1.477 1.477 0 0 1-1.64-1.24m7.91-10.861l-2.58 1.5 17.12 30.52s1.38 1.11 2.31.42l-16.85-32.44z" opacity=".6"/><path fill="#1B0F0F" d="M646.6 399.389c.16-.08-.18-.91-.08-1.95.1-1.04.55-1.81.42-1.92-.13-.11-.93.6-1 1.86-.07 1.26.56 2.12.66 2.01zm3.18 2.672c.17 0 .08-.87.47-1.75.39-.88 1-1.41.93-1.56-.07-.15-1 .21-1.5 1.32s-.06 2.07.1 1.99zm5.06-.182c0-.17-.94 0-1.6.88-.66.88-.61 1.78-.44 1.78.17 0 .39-.7.94-1.4.55-.7 1.17-1.14 1.1-1.26zm-12.2-.778c.11-.15-.49-.76-.89-1.68-.4-.92-.49-1.77-.67-1.78-.18-.01-.39.95.1 2s1.37 1.6 1.46 1.46z"/><path fill="#1B0F0F" d="M633.36 406.22l2.92-1.65-8.42-15.84-2.69 1.37 8.19 16.12z" opacity=".3"/><path fill="#1B0F0F" d="M639.3 402.909c.07 0-.16-.71-.85-1.62a8.48 8.48 0 0 0-1.41-1.43 8.383 8.383 0 0 0-1-.67 2.04 2.04 0 0 0-.63-.29.776.776 0 0 0-.88.36 1 1 0 0 0 0 .88c.101.21.236.403.4.57.265.302.556.579.87.83a6.29 6.29 0 0 0 1.76 1c.56.276 1.193.37 1.81.27 0-.1-.67-.21-1.64-.67a7.739 7.739 0 0 1-1.57-1 7.178 7.178 0 0 1-.77-.78c-.27-.29-.42-.58-.32-.75.1-.17.07-.08.2-.06.165.05.323.12.47.21.325.184.639.388.94.61.506.374.978.792 1.41 1.25.76.75 1.12 1.38 1.21 1.29z"/><path fill="#1B0F0F" d="M639.42 402.58a2.87 2.87 0 0 0-1.79.39 6.088 6.088 0 0 0-1.66 1.14 6.02 6.02 0 0 0-.77.93 1.506 1.506 0 0 0-.28 1.46.838.838 0 0 0 .8.44 2.17 2.17 0 0 0 .68-.14 4.186 4.186 0 0 0 2.41-2.13 2.359 2.359 0 0 0 .3-1.81c-.11 0-.13.69-.68 1.6a4.292 4.292 0 0 1-1.26 1.3 3.629 3.629 0 0 1-.95.46c-.37.13-.72.15-.75 0a.99.99 0 0 1 .24-.85 5.67 5.67 0 0 1 .67-.85 6.575 6.575 0 0 1 1.45-1.16c.93-.54 1.61-.68 1.59-.78z"/><path fill="#001E6C" d="M583.5 433.57l18.57-3.05s9.34 17.86 12.82 17.63l-4.61-36.22-29.13 3.56 2.35 18.08z"/><path fill="#fff" d="M599.04 419.528a1.472 1.472 0 0 1 1.55-1.24 1.43 1.43 0 0 1 1.24 1.53 1.562 1.562 0 0 1-1.65 1.3 1.488 1.488 0 0 1-1.12-1.74m11.18-7.448l-2.92.47 5.51 34.6s.91 1.52 2 1.2l-4.59-36.27z" opacity=".6"/><path fill="#1B0F0F" d="M601.92 431.142c.18 0 .15-.93.6-1.87.45-.94 1.15-1.5 1.06-1.66-.09-.16-1.08.24-1.62 1.4s-.19 2.18-.04 2.13zm2.06 3.59c.18 0 .38-.78 1-1.48s1.44-1 1.41-1.14c-.03-.14-1-.16-1.86.72-.86.88-.72 1.92-.55 1.9zm4.82 1.576c0-.16-.9-.3-1.81.28-.91.58-1.19 1.45-1 1.51.19.06.61-.52 1.36-1 .75-.48 1.46-.61 1.45-.79zm-11.19-4.95c.16-.09-.19-.87-.25-1.88-.06-1.01.16-1.83 0-1.9-.16-.07-.7.75-.61 1.94.09 1.19.75 1.94.86 1.84z"/><path fill="#1B0F0F" d="M587.14 432.958l3.31-.53-2.43-17.78-3 .35 2.12 17.96z" opacity=".3"/><path fill="#1B0F0F" d="M593.86 431.908a3.552 3.552 0 0 0-.24-1.82 8.643 8.643 0 0 0-.83-1.82 9.511 9.511 0 0 0-.68-1 2.347 2.347 0 0 0-.5-.49.77.77 0 0 0-1 0 1.001 1.001 0 0 0-.31.83c.031.23.091.456.18.67.144.375.322.737.53 1.08.359.572.8 1.088 1.31 1.53.438.446.998.753 1.61.88 0-.09-.55-.43-1.31-1.2a7.508 7.508 0 0 1-1.11-1.5 7.063 7.063 0 0 1-.46-1c-.15-.37-.19-.7 0-.82s.08-.05.21 0c.135.108.255.233.36.37.242.283.465.58.67.89.347.525.645 1.08.89 1.66.186.595.413 1.177.68 1.74z"/><path fill="#1B0F0F" d="M594.08 431.638a3.003 3.003 0 0 0-1.81-.25 5.993 5.993 0 0 0-2 .5c-.351.17-.685.37-1 .6a1.52 1.52 0 0 0-.77 1.27.85.85 0 0 0 .6.7c.224.064.457.098.69.1.415.008.829-.042 1.23-.15a4.26 4.26 0 0 0 1.77-1c.85-.83 1-1.59.9-1.6-.1-.01-.35.61-1.19 1.27a4.133 4.133 0 0 1-1.63.79 3.62 3.62 0 0 1-1 .1c-.39 0-.72-.11-.7-.26.02-.15.22-.52.51-.71.29-.221.602-.412.93-.57a6.872 6.872 0 0 1 1.76-.59c1.01-.2 1.7-.1 1.71-.2zm-86.85-98.259c-.58.23 8.79 9.25 10.3 15.36 1.81 7.37 6.75 15.8 6.75 15.8l34.62 33.16 65.2-9.54 11 20.09-78.6 21.31a14.305 14.305 0 0 1-12.27-2.32l-50.73-37.7-29.08-36 42.81-20.16z"/><path fill="#1B0F0F" d="M459.6 356.281l4.2 15.44c11.78 24.34 34.22 70.43 40.16 73.4 8.26 4.13 84.23-11 84.23-11l-1.69-20.94-63.75 5.51-42.64-74.91-20.51 12.5z"/><path fill="#455A64" d="M630.07 409.62s-.14.06-.43.15l-1.28.39-4.93 1.44-18.18 5.2-27 7.66-15.89 4.54c-1.39.38-2.76.8-4.19 1.16a19.832 19.832 0 0 1-13.26-1.45 21.833 21.833 0 0 1-3.87-2.44l-3.54-2.78a427.42 427.42 0 0 1-6.83-5.5c-4.42-3.66-8.65-7.24-12.59-10.75-7.92-7-14.8-13.56-20.4-19.25-5.6-5.69-9.88-10.54-12.68-14l-1.85-2.32c-.49-.7-.92-1.29-1.26-1.77l-.78-1.09c-.17-.25-.24-.38-.24-.38s.1.11.29.35c.19.24.46.61.81 1.06.35.45.79 1.06 1.3 1.74l1.88 2.29c2.84 3.44 7.15 8.25 12.78 13.9 5.63 5.65 12.57 12.17 20.45 19.13 4 3.49 8.17 7.07 12.6 10.72 2.21 1.83 4.49 3.65 6.82 5.49l3.54 2.73a20.229 20.229 0 0 0 3.79 2.4 19.401 19.401 0 0 0 12.92 1.42c1.4-.35 2.8-.78 4.18-1.16l15.94-4.5 27-7.55 18.21-5.06 5-1.35 1.3-.34.39-.08zm-149.18-52.371c.05.06-.42.28-.51.95a1.3 1.3 0 0 0 .29 1 1.158 1.158 0 0 0 1.192.167 1.151 1.151 0 0 0 .688-.987 1.279 1.279 0 0 0-.55-.91c-.56-.39-1-.2-1.05-.28-.05-.08.08-.11.3-.17a1.36 1.36 0 0 1 .93.16 1.538 1.538 0 0 1 .82 1.16 1.568 1.568 0 0 1-1.856 1.584 1.573 1.573 0 0 1-.814-.424 1.578 1.578 0 0 1-.29-1.4c.076-.313.26-.589.52-.78.19-.09.32-.1.33-.07zm33.21-9.018a3 3 0 0 1-.57.61c-.573.504-1.185.962-1.83 1.37a15.802 15.802 0 0 1-7.15 2.36 15.568 15.568 0 0 1-7.41-1.24 12.235 12.235 0 0 1-2-1.07 2.753 2.753 0 0 1-.67-.52c.05-.08 1 .59 2.82 1.27a16.528 16.528 0 0 0 14.25-1.1c1.63-.91 2.5-1.75 2.56-1.68z"/><path fill="#455A64" d="M572.94 292.869s-45.33-17-48.08-19.46c-2.75-2.46-14.72-16-19.7-17.75 0 0-8.08-2.12-13.58-1.81l-5.81.69v-4.41l-23.87.39-.66 5.88-4.07 1.54s-9.56 20-9.56 29.12c0 9.12-4.72 62.51 4.58 72.77 1.43 1.57 7 .56 7 .56s26.84-2.86 53.52-21.52l-9.77-11.29s-3.44-23.58.56-40.52c.09-.37.17-.74.26-1.1 11.55 5.7 29.33 14 34.55 14 0 0 29.24 9.87 34.64 3.55.61-.71-.01-10.64-.01-10.64z"/><path fill="#455A64" d="M461.81 257.059s-9.35.37-15.44 7.94-16 39.86-16 39.86l-13.64-14-13 7.21s18.38 25.62 22 28.59a19.415 19.415 0 0 0 6.64 2.83c8.73.76 14.63-8.13 16.42-15.46l6-30.13"/><path fill="#F4D3BD" d="M407.68 295.849l-14-8.31s-4.23-10-2.61-10.47c1.62-.47 3 5.57 3 5.57l2 1s-2.73-5.08-1.78-5.56c.95-.48 2.28 1 3 2.17.56.88 2.37 4.57 2.37 4.57l.94-1.3-.74-3.41s-1-2.28.11-2.3c1.11-.02 1.11-.1 1.94 1.79.83 1.89 1.4 3.3 1.4 3.3s4.08 2.42 4.95 2.15a5.112 5.112 0 0 1 4 .31s3.87 2 2.94 6.15"/><path fill="#1B0F0F" d="M502.38 258.371c.07 0-.3 1-.75 2.52a27.995 27.995 0 0 0-.69 12.47c.26 1.59.53 2.56.45 2.59a9.83 9.83 0 0 1-.8-2.52 23.785 23.785 0 0 1-.5-6.37 23.523 23.523 0 0 1 1.21-6.27 9.624 9.624 0 0 1 1.08-2.42zm-37.47-1.242a9.387 9.387 0 0 1-.25-3.4 9.27 9.27 0 0 1 .52-3.37 16.555 16.555 0 0 1 0 3.39 16.794 16.794 0 0 1-.27 3.38zm5.59.871a14.674 14.674 0 0 1 .08-3.82c.038-1.276.233-2.542.58-3.77a14.458 14.458 0 0 1-.09 3.82 15.315 15.315 0 0 1-.57 3.77zm7.44-.231c-.14 0 .21-1.67.34-3.7.13-2.03 0-3.69.18-3.71a12.356 12.356 0 0 1-.52 7.41zm5.46-1.368c-.14 0 .08-1.41.05-3.11s-.29-3.07-.15-3.1c.489.953.711 2.021.64 3.09a6.198 6.198 0 0 1-.54 3.12zm-35.3 12.88c.13 0 0 13.06-.3 29.16s-.66 29.16-.8 29.16 0-13.06.31-29.17.65-29.15.79-29.15z"/><path fill="#FAFAFA" d="M447.2 300.002a12.435 12.435 0 0 1-2-1.11 27.552 27.552 0 0 0-4.78-2.44 12.142 12.142 0 0 0-5.22-.76c-1.36.12-2.16.47-2.19.39a4.803 4.803 0 0 1 2.15-.74 11.156 11.156 0 0 1 5.43.65 21.448 21.448 0 0 1 4.8 2.61c.661.386 1.27.857 1.81 1.4zm54.66-9.174a3.342 3.342 0 0 1-.47.3l-1.38.81c-.6.35-1.35.76-2.24 1.19-.89.43-1.88 1-3 1.44-1.12.44-2.38 1.05-3.76 1.55s-2.85 1-4.41 1.52a79.997 79.997 0 0 1-10.42 2.41c-3.53.527-7.091.821-10.66.88-1.65 0-3.21 0-4.67-.11s-2.82-.2-4.06-.33c-1.24-.13-2.34-.31-3.32-.46-.98-.15-1.81-.3-2.49-.45l-1.56-.35a2.064 2.064 0 0 1-.54-.15c.188-.008.376.009.56.05l1.58.26c.68.12 1.51.26 2.49.37.98.11 2.08.3 3.32.38 1.24.08 2.58.23 4 .27 1.42.04 3 .06 4.64.06a77.565 77.565 0 0 0 21-3.26c1.56-.5 3.05-.94 4.4-1.47 1.35-.53 2.63-1 3.77-1.49 1.14-.49 2.15-1 3-1.37.85-.37 1.65-.79 2.27-1.11l1.42-.72c.165-.098.344-.172.53-.22zm26.31-14.479c.05.07-.8.63-2 1.7a25.828 25.828 0 0 0-4.26 4.68 26.658 26.658 0 0 0-3 5.6c-.58 1.52-.83 2.51-.91 2.49-.012-.24.015-.48.08-.71.127-.644.294-1.278.5-1.9a21.99 21.99 0 0 1 7.34-10.43 12.75 12.75 0 0 1 1.61-1.11c.4-.24.62-.35.64-.32zm5.07 1.561c0 .08-1 .54-2.47 1.51a21.915 21.915 0 0 0-8.53 10.65c-.63 1.67-.85 2.76-.93 2.74-.08-.02 0-.28.07-.78.125-.702.302-1.394.53-2.07a19.909 19.909 0 0 1 8.67-10.84c.611-.38 1.25-.714 1.91-1 .237-.109.49-.18.75-.21zm-31.02 8.809a2.285 2.285 0 0 1-.51.24l-1.47.6c-.64.26-1.43.57-2.36.88-.93.31-2 .72-3.17 1.07-2.36.76-5.21 1.53-8.4 2.26-3.19.73-6.75 1.33-10.5 1.78-3.75.45-7.36.62-10.63.68-3.27.06-6.23-.08-8.7-.28-1.23-.07-2.34-.21-3.32-.31s-1.82-.21-2.5-.32l-1.58-.24a1.996 1.996 0 0 1-.58-.08 2.1 2.1 0 0 1 .56 0l1.58.15c.69.08 1.53.17 2.51.24.98.07 2.08.19 3.32.23 2.46.16 5.4.22 8.66.17 3.26-.05 6.84-.29 10.58-.71s7.27-1.06 10.46-1.73c3.19-.67 6-1.44 8.4-2.15 1.19-.33 2.24-.7 3.18-1 .94-.3 1.73-.57 2.38-.8l1.51-.51c.185-.083.38-.14.58-.17zm-54.52 5.671a36.047 36.047 0 0 0-5.33-2.89 36.646 36.646 0 0 0-5.87-1.5 5.05 5.05 0 0 1 1.81 0 16.62 16.62 0 0 1 4.25 1 16.28 16.28 0 0 1 3.82 2.12c.518.334.966.765 1.32 1.27z"/><path fill="#F4D3BD" d="M587.86 289.109l-9.9 3.32-5 .44v10.66l5.14 1.75 13.79-.75s7.9 4 9.91 3.76c2.01-.24 2-.86 2-.86l-9.77-5.91a5.605 5.605 0 0 1 3.76.5c2.25 1 6.14 3.26 7.52 2.64 1.38-.62 1.13-1.13 1.13-1.13l-7.65-4.82s6.55 2.94 7.67 2.44a1.994 1.994 0 0 0 1.23-1.48l-4.26-3.79-6.4-5-9.17-1.77z"/><path fill="#EAAE94" d="M582.36 293.5c.376.108.738.259 1.08.45.67.31 1.64.78 2.83 1.38 1.19.6 2.6 1.31 4.15 2.19.426.215.804.514 1.11.88.332.401.537.892.59 1.41a2.44 2.44 0 0 1-.34 1.56 2.291 2.291 0 0 1-1.38.89 4.633 4.633 0 0 1-2.19 0 15.76 15.76 0 0 1-1.91-.69c-1.2-.5-2.3-1-3.3-1.53l.26-.06a5.899 5.899 0 0 1-2.3 1.83c-.7.302-1.458.445-2.22.42a5.268 5.268 0 0 1-1.42-.24c-.31-.1-.47-.19-.46-.21.622.128 1.255.198 1.89.21a5.315 5.315 0 0 0 2.07-.49 5.764 5.764 0 0 0 2.11-1.77l.1-.14.15.08c1 .47 2.11 1 3.3 1.47.602.255 1.22.473 1.85.65a4.38 4.38 0 0 0 1.94 0 1.881 1.881 0 0 0 1.1-.69c.222-.373.317-.808.27-1.24a2.516 2.516 0 0 0-1.46-1.95c-1.5-.89-2.91-1.63-4.07-2.27l-2.76-1.52a4.984 4.984 0 0 1-.99-.62zm16.88 5.24a19.172 19.172 0 0 1-4.38-2.72 9.574 9.574 0 0 1-.89-.77h.3a6.204 6.204 0 0 1-2.77.75 2.172 2.172 0 0 1-1.14-.11c0-.07.42-.08 1.11-.2a7.414 7.414 0 0 0 2.58-.85l.17-.11.14.14c.25.24.55.48.85.73a45.435 45.435 0 0 1 4.03 3.14z"/><path fill="#001E6C" d="M616.13 375.369a20.462 20.462 0 0 1-5.9-.85c-19-5.69-18-19.4-17.23-30.42.74-10.27.77-16.73-7.7-19.91-11.21-4.2-15.82-.12-22.81 6.06-8.32 7.36-18.66 16.52-43.76 12.8-13-1.93-34-8.8-59.71-30.58a205.252 205.252 0 0 1-25.33-25.4l3.88-3.12c.39.48 38.78 47.79 81.89 54.17 22.8 3.38 31.79-4.58 39.73-11.6 7.12-6.3 13.84-12.25 27.86-7 12.38 4.65 11.61 15.42 10.92 24.93-.8 11.13-1.49 20.74 13.69 25.29 17.1 5.12 39.59-22 53-38.16 4.8-5.77 8.13-9.95 10.79-12.12l3.76 3c-1.66 2-6.28 7-10.72 12.31-13.66 16.49-33.68 40.6-52.36 40.6z"/><path fill="#fff" d="M545.64 336.002s-.2.19-.6.44c-.561.371-1.145.705-1.75 1a26.82 26.82 0 0 1-6.29 2.16 26.409 26.409 0 0 1-6.62.51 19.175 19.175 0 0 1-2-.21 2.513 2.513 0 0 1-.72-.17c0-.08 1.06 0 2.74 0a31.341 31.341 0 0 0 12.75-2.64c1.53-.7 2.45-1.21 2.49-1.09zm29.24-15.092c-.544.02-1.089 0-1.63-.06a11.201 11.201 0 0 0-7.19 2.48c-.39.38-.808.731-1.25 1.05.23-.507.572-.955 1-1.31a9.552 9.552 0 0 1 7.44-2.56 3.627 3.627 0 0 1 1.63.4zm31.85 47.23a6.545 6.545 0 0 1-2.25-.69 14.507 14.507 0 0 1-7.56-8.18 6.657 6.657 0 0 1-.51-2.29c.08 0 .28.85.84 2.16a16.467 16.467 0 0 0 3 4.64 16.197 16.197 0 0 0 4.39 3.35c1.26.66 2.12.93 2.09 1.01zm69.63-46.87a61.082 61.082 0 0 1-7.88 7.86 64.432 64.432 0 0 1 7.88-7.86z"/><path fill="#001E6C" d="M438.1 288.171a5.75 5.75 0 0 1-8.12.39l-8.78-8 7.74-8.51 8.77 8a5.748 5.748 0 0 1 .39 8.12z"/><path fill="#1B0F0F" d="M438.1 288.169c.294-.432.565-.879.81-1.34a5.67 5.67 0 0 0 .27-4.17 5.605 5.605 0 0 0-1.59-2.47l-2.65-2.37c-1.87-1.7-3.95-3.57-6.16-5.56h.34l-3.87 4.26-3.87 4.25v-.34l6.12 5.57 2.62 2.41a5.635 5.635 0 0 0 2.6 1.35 5.695 5.695 0 0 0 4.13-.67c.438-.289.859-.603 1.26-.94-.32.429-.717.795-1.17 1.08a5.72 5.72 0 0 1-4.28.83 5.914 5.914 0 0 1-2.79-1.38c-.83-.74-1.71-1.54-2.65-2.37l-6.17-5.57-.18-.16.17-.18 3.86-4.26 3.87-4.24.16-.18.18.16 6.12 5.61 2.62 2.41a5.836 5.836 0 0 1 1.64 2.65 5.727 5.727 0 0 1-.42 4.33 4.174 4.174 0 0 1-.97 1.29z"/><path fill="#001E6C" d="M393.74 240.13l-15.14-12.52a2.793 2.793 0 0 1 3.56-4.3l15.13 12.52-3.55 4.3zm-14.24 18.289l-15.12-12.52a2.783 2.783 0 0 1-1.005-1.886 2.798 2.798 0 0 1 1.469-2.735 2.78 2.78 0 0 1 3.086.321l15.14 12.51-3.57 4.31z"/><path fill="#fff" d="M393.74 240.13l-15.14-12.52a2.793 2.793 0 0 1 3.56-4.3l15.13 12.52-3.55 4.3zm-14.24 18.289l-15.12-12.52a2.783 2.783 0 0 1-1.005-1.886 2.798 2.798 0 0 1 1.469-2.735 2.78 2.78 0 0 1 3.086.321l15.14 12.51-3.57 4.31z" opacity=".6"/><path fill="#1B0F0F" d="M393.74 240.131c.069-.115.146-.226.23-.33l.68-.88 2.53-3.19v.21l-7.11-5.78-4.45-3.66-2.39-2-1.23-1a2.455 2.455 0 0 0-1.33-.58 2.52 2.52 0 0 0-2.24.86 2.574 2.574 0 0 0-.54 2.28c.096.372.281.715.54 1 .282.295.586.57.91.82l1.88 1.56 6.48 5.45 4.39 3.74 1.2 1c.153.122.297.256.43.4a2.764 2.764 0 0 1-.42-.3l-1.2-1c-1.11-.89-2.63-2.1-4.47-3.59l-6.66-5.41-1.92-1.57c-.351-.27-.684-.561-1-.87a3.006 3.006 0 0 1-.444-3.45 3.005 3.005 0 0 1 3.114-1.55 3.112 3.112 0 0 1 1.59.69l1.22 1 2.38 2 4.43 3.69 7 5.89.12.1-.1.11-2.71 3.16-.72.8c-.046.14-.11.275-.19.4zm-14.24 18.29c.068-.119.148-.229.24-.33.18-.24.4-.53.68-.88l2.53-3.19v.21l-7.11-5.79-4.45-3.65-2.39-2-1.23-1a2.558 2.558 0 0 0-3.58.29 2.532 2.532 0 0 0-.53 2.28c.094.37.276.713.53 1 .286.292.594.563.92.81l1.87 1.57 6.49 5.45 4.39 3.74 1.2 1c.154.117.295.251.42.4 0 0-.14-.09-.41-.3l-1.21-.95-4.47-3.59-6.65-5.41-1.92-1.58a8.623 8.623 0 0 1-1-.87 2.9 2.9 0 0 1-.64-1.24 2.994 2.994 0 0 1 .63-2.71 3.053 3.053 0 0 1 2.67-1 3.124 3.124 0 0 1 1.59.69c.41.35.82.68 1.23 1l2.38 2 4.43 3.68 7 5.9.11.1-.09.11c-1.14 1.31-2.05 2.37-2.72 3.15l-.71.81c-.1.22-.2.31-.2.3z"/><path fill="#001E6C" d="M428.14 255.999l.4-.48a5.35 5.35 0 0 0-7.44-7.61l-22.16-18.46-25.35 30.33 22.68 18a5.35 5.35 0 0 0 1.09 7 5.34 5.34 0 0 0 7.44-.62 15.414 15.414 0 0 0 21.31-2.67l3.64-4.54a15.42 15.42 0 0 0-1.61-20.95z"/><path fill="#1B0F0F" d="M428.14 256.002l.19.17.53.51c.293.27.564.565.81.88l.49.6.5.73a14.597 14.597 0 0 1 2 4.17 15.41 15.41 0 0 1-2.23 13.33c-.81 1.15-1.75 2.24-2.67 3.43a29.277 29.277 0 0 1-3.07 3.53 15.392 15.392 0 0 1-9.26 4.1 15.653 15.653 0 0 1-10.73-3.06h.31a5.647 5.647 0 0 1-3.65 1.89 5.542 5.542 0 0 1-4.11-1.24 5.6 5.6 0 0 1-1.14-7.32l.05.31-17.59-14.03-5.13-4.08-.2-.15.16-.2c9.24-11 17.87-21.34 25.38-30.3l.14-.17.16.14 22.11 18.51h-.17a5.441 5.441 0 0 1 5.781-.605 5.446 5.446 0 0 1 3.039 4.955 5.283 5.283 0 0 1-1 3c-.16.22-.334.43-.52.63l-.19.21s.24-.3.65-.88c.589-.89.902-1.934.9-3a5.282 5.282 0 0 0-2.23-4.29 5.13 5.13 0 0 0-3-1 5.223 5.223 0 0 0-3.31 1.13l-.09.07-.09-.07-22.2-18.4h.3l-25.28 30.4v-.35l5.12 4.08 17.55 14 .17.13-.12.18a5.127 5.127 0 0 0 1 6.71 5.12 5.12 0 0 0 7.13-.59l.14-.15.16.12a15.244 15.244 0 0 0 19.47-1.03 29.927 29.927 0 0 0 3-3.48c.93-1.18 1.89-2.28 2.69-3.4a15.343 15.343 0 0 0 .42-17.23c-.17-.26-.33-.51-.49-.74l-.48-.6c-.24-.324-.5-.631-.78-.92l-.51-.53a.576.576 0 0 1-.11-.1z"/><path fill="#E0E0E0" d="M402.77 256.583l-15.636-12.931-2.53 3.06 15.636 12.93 2.53-3.059z"/><path fill="#1B0F0F" d="M428.14 256a8.56 8.56 0 0 1-.84 1.18c-.56.75-1.39 1.81-2.43 3.11-2.07 2.61-5 6.16-8.27 10.05-3.27 3.89-6.18 7.34-8.39 9.95l-2.54 3c-.3.383-.635.738-1 1.06a8.56 8.56 0 0 1 .84-1.18c.56-.75 1.39-1.81 2.43-3.11 2.07-2.61 5-6.16 8.27-10l8.39-10 2.55-3c.296-.384.627-.739.99-1.06zm-7.04-8.129c-.262.44-.563.855-.9 1.24-.61.78-1.51 1.9-2.62 3.27-2.24 2.74-5.38 6.48-8.88 10.58-3.5 4.1-6.64 7.74-9 10.49-1.12 1.28-2 2.35-2.74 3.16a9.433 9.433 0 0 1-1.06 1.12c.272-.435.577-.85.91-1.24.61-.78 1.5-1.9 2.62-3.27 2.24-2.74 5.38-6.48 8.88-10.58l9-10.48 2.74-3.17c.321-.4.672-.774 1.05-1.12z"/><path fill="#B78876" d="M321.5 167.471c-.14.33-11.17 8.71-11.17 8.71l-.21 7.12 5.7.8 8.1-4.6 5.49-.28s3.35 1.77 4 2a1.941 1.941 0 0 0 2.25-.93l-5-3.64s5.54 3.09 6.07 2.68a1.719 1.719 0 0 0-.53-2.67s1.72.91 2.81.18.7-1.6.7-1.6l-7.32-6.57a5.002 5.002 0 0 0-3.41-1.28l-7.48.08z"/><path fill="#AA6550" d="M322.38 170.559a4.76 4.76 0 0 1-.08.85c-.1.62-.22 1.4-.37 2.34l-.14-.17 4.21-.28a5.415 5.415 0 0 1 2.67.36c.469.237.853.615 1.1 1.08a1.81 1.81 0 0 1 .07 1.63v.06h-.06c-1.33.79-3 .61-4.45.71a5.164 5.164 0 0 0-3.1 1.13 20.28 20.28 0 0 0-2.31 2.24 10.379 10.379 0 0 1-2.3 1.94 5.16 5.16 0 0 1-2.54.71 10.008 10.008 0 0 1-3.68-.77 6.103 6.103 0 0 1-1.24-.57c.446.09.884.217 1.31.38 1.156.409 2.374.616 3.6.61a4.92 4.92 0 0 0 2.34-.71 10.322 10.322 0 0 0 2.18-1.9 20.42 20.42 0 0 1 2.34-2.31 5.645 5.645 0 0 1 3.37-1.24c1.55-.09 3.09.05 4.24-.63l-.1.1a1.732 1.732 0 0 0-.94-2.1 4.916 4.916 0 0 0-2.45-.35l-4.22.16h-.18v-.17c.2-.93.37-1.7.5-2.32.043-.269.12-.531.23-.78z"/><path fill="#AA6550" d="M336.55 176.8a4.996 4.996 0 0 1-1.88-1.11c-1.08-.83-2.26-2.28-3.87-3.45a2.742 2.742 0 0 0-1.24-.52c-.44-.05-.91 0-1.35 0h-2.35a9.712 9.712 0 0 1-2.16-.14 8.962 8.962 0 0 1 2.16-.21l2.34-.09c.47-.03.94-.03 1.41 0a3.009 3.009 0 0 1 1.47.6 40.271 40.271 0 0 1 3.81 3.59c.97.86 1.7 1.26 1.66 1.33z"/><path fill="#001E6C" d="M337.06 388.469l-.27 17.53s17.69 6.15 17.95 9.39l-33.93.69-.7-27.27 16.95-.34z"/><path fill="#fff" d="M326.26 404.711a1.38 1.38 0 0 0-.92 1.6 1.33 1.33 0 0 0 1.58.93 1.458 1.458 0 0 0 1-1.7 1.388 1.388 0 0 0-1.75-.79M320.81 416v-2.75l32.53.37s1.52.62 1.37 1.69l-33.9.69z" opacity=".6"/><path fill="#1B0F0F" d="M337.33 405.782c0 .16-.82.26-1.63.81-.81.55-1.22 1.25-1.38 1.19-.16-.06.08-1 1.06-1.67.98-.67 1.99-.48 1.95-.33zm3.59 1.399c.05.16-.67.45-1.22 1.17-.55.72-.69 1.45-.86 1.45-.17 0-.29-.94.41-1.81.7-.87 1.67-.99 1.67-.81zm2.11 4.218c-.15 0-.39-.79 0-1.7.39-.91 1.18-1.3 1.25-1.16.07.14-.4.63-.72 1.39-.32.76-.36 1.45-.53 1.47zm-6.08-9.608c-.06.15-.83-.07-1.76 0s-1.66.39-1.75.25c-.09-.14.6-.75 1.7-.83 1.1-.08 1.89.44 1.81.58z"/><path fill="#1B0F0F" d="M337 391.93l-.04 3.12-16.69.19-.08-2.81 16.81-.5z" opacity=".3"/><path fill="#1B0F0F" d="M336.94 398.261a3.31 3.31 0 0 1-1.7 0 7.84 7.84 0 0 1-1.79-.51 8.328 8.328 0 0 1-1-.5 1.716 1.716 0 0 1-.52-.39.73.73 0 0 1-.1-.88.928.928 0 0 1 .72-.39c.216-.007.432.02.64.08a5.999 5.999 0 0 1 2.65 1.34c.8.72 1.09 1.33 1 1.36-.09.03-.47-.45-1.28-1a6.66 6.66 0 0 0-1.54-.82 5.604 5.604 0 0 0-1-.28c-.36-.09-.66-.08-.75.08-.09.16 0 .08 0 .19.116.107.244.2.38.28.31.19.61.35.91.5.533.25 1.089.448 1.66.59.582.07 1.157.187 1.72.35z"/><path fill="#1B0F0F" d="M336.73 398.501a2.707 2.707 0 0 1-.48-1.64 5.51 5.51 0 0 1 .19-1.86c.108-.346.248-.681.42-1a1.38 1.38 0 0 1 1.06-.88.776.776 0 0 1 .72.46c.097.195.161.405.19.62.06.378.06.762 0 1.14a3.796 3.796 0 0 1-.69 1.77c-.64.9-1.33 1.11-1.34 1.05-.01-.06.51-.41 1-1.27a3.985 3.985 0 0 0 .51-1.61 3.648 3.648 0 0 0-.06-1c-.06-.36-.2-.64-.33-.61-.13.03-.45.28-.59.57-.157.3-.29.61-.4.93a5.988 5.988 0 0 0-.29 1.71c-.01.97.18 1.59.09 1.62z"/><path fill="#1B0F0F" d="M275.3 289.57c.83 1.25 37.67 39.47 37.67 39.47s-4.58 17.61-2.93 32.92c1.65 15.31 6.62 39.71 6.62 39.71l26.71-2.13-7.27-83L306.94 278l-31.64 11.57z"/><path fill="#001E6C" d="M346.29 369.129l3.28 17.19s18.57 2.44 19.49 5.56l-33.1 7.55-6.2-26.57 16.53-3.73z"/><path fill="#fff" d="M339.01 387.221a1.378 1.378 0 0 0-.58 1.76 1.332 1.332 0 0 0 1.73.59 1.463 1.463 0 0 0 .61-1.86 1.372 1.372 0 0 0-1.87-.42m-2.94 12.139l-.52-2.7 31.93-6.23s1.62.3 1.69 1.38l-33.1 7.55z" opacity=".6"/><path fill="#1B0F0F" d="M350.07 386c0 .16-.76.42-1.44 1.12-.68.7-.94 1.48-1.1 1.45-.16-.03-.14-1 .69-1.86.83-.86 1.85-.84 1.85-.71zm3.8.671c.07.15-.57.59-1 1.39-.43.8-.39 1.57-.55 1.6-.16.03-.47-.86 0-1.86s1.51-1.28 1.55-1.13zm2.92 3.708c-.14.07-.55-.69-.34-1.67.21-.98.89-1.5 1-1.39.11.11-.26.7-.42 1.51-.16.81-.09 1.49-.24 1.55zm-7.9-8.179c0 .16-.83.1-1.73.38s-1.54.72-1.66.6c-.12-.12.44-.86 1.5-1.16 1.06-.3 1.94.03 1.89.18z"/><path fill="#1B0F0F" d="M346.94 372.539l.59 3.06-16.3 3.57-.65-2.74 16.36-3.89z" opacity=".3"/><path fill="#1B0F0F" d="M348.16 378.74a3.154 3.154 0 0 1-1.66.37 8.223 8.223 0 0 1-2.92-.42 2.234 2.234 0 0 1-.59-.28.708.708 0 0 1-.27-.84.893.893 0 0 1 .62-.53c.213-.052.432-.072.65-.06.373.009.744.049 1.11.12a5.92 5.92 0 0 1 1.75.65c.93.54 1.33 1.08 1.29 1.13-.04.05-.55-.35-1.47-.76a6.769 6.769 0 0 0-1.67-.5 5.582 5.582 0 0 0-1-.07c-.37 0-.67.05-.72.23-.05.18 0 .09.08.17.132.088.277.156.43.2.325.125.66.225 1 .3.57.142 1.153.226 1.74.25a11.52 11.52 0 0 1 1.63.04z"/><path fill="#1B0F0F" d="M348.01 378.999c-.06 0-.51-.47-.81-1.5a5.897 5.897 0 0 1-.19-1.87c.03-.372.097-.741.2-1.1a1.413 1.413 0 0 1 .86-1.08.796.796 0 0 1 .8.31c.132.173.236.365.31.57.142.355.23.729.26 1.11a4.003 4.003 0 0 1-.32 1.88c-.45 1-1.08 1.35-1.11 1.3.272-.469.515-.953.73-1.45a4.051 4.051 0 0 0 .17-1.68 3.72 3.72 0 0 0-.25-.95c-.13-.34-.33-.59-.45-.53-.12.06-.39.37-.46.68a5.646 5.646 0 0 0-.15 2.72c.18 1 .49 1.59.41 1.59z"/><path fill="#1B0F0F" d="M209.4 263.418s-2.47 15.81 7.11 26.15c9.58 10.34 19.91 14.89 38.11 14.07 18.2-.82 57.49.09 57.49.09s1.66 21 6.21 38.17 13.63 43 13.63 43l17.8-1.7s-4.81-93.58-6.05-101.85c-1.24-8.27-15-12.46-22.49-14.94-7.49-2.48-50.16-11.05-50.16-11.05l-38.77-5.44-22.88 13.5z"/><path fill="#455A64" d="M349.75 383.159h-.31l-.93.07-3.62.26-13.63.9h-.12v-.12c-2.39-7.66-5.49-17.61-9.08-29.09-1.79-5.75-3.69-11.89-5.69-18.31-1-3.2-2.07-6.49-2.8-9.93a66.939 66.939 0 0 1-1.49-10.6 50.684 50.684 0 0 1 .67-12.5l.23.3c-10.85-.22-21.07-.33-30.29-.36-4.61 0-9 0-13 .07s-7.84.21-11.29.21c-6.88 0-12.39-.35-16.18-.68-1.89-.16-3.36-.32-4.34-.43l-1.13-.15-.38-.06c.13-.011.26-.011.39 0l1.12.1 4.35.35c3.79.27 9.3.58 16.17.52 3.43 0 7.21-.2 11.28-.27 4.07-.07 8.44-.11 13-.11 9.23 0 19.45.09 30.3.31h.29l-.06.3a50.796 50.796 0 0 0-.65 12.35 67.235 67.235 0 0 0 1.47 10.53c.74 3.41 1.8 6.67 2.79 9.88 2 6.43 3.87 12.57 5.65 18.32 3.53 11.51 6.59 21.47 8.95 29.15l-.15-.11 13.64-.76 3.62-.18h.93c.098.004.195.017.29.04z"/><path fill="#455A64" d="M321.5 293c.1.1-2.11 2.24-4.37 5.25-2.26 3.01-3.7 5.73-3.84 5.66a7.294 7.294 0 0 1 .82-1.85 31.005 31.005 0 0 1 2.63-4.1 31.727 31.727 0 0 1 3.21-3.67 6.36 6.36 0 0 1 1.55-1.29z"/><path fill="#455A64" d="M326.33 294.68a38.98 38.98 0 0 0-7 3.58 39.807 39.807 0 0 0-5.84 5.32 8.43 8.43 0 0 1 1.35-1.92 21.991 21.991 0 0 1 9.26-6.4 7.724 7.724 0 0 1 2.23-.58zm-79.44-126.192c1.31.65 28.62 17.35 29.92 17.35 1.3 0 33.61-11.79 33.61-11.79l6.62 10.22s-28.33 21.82-37.61 22.14c-9.28.32-24-7.13-24-7.13l-8.54-30.79zm-56.82 9.173s-33.99 34.56-33.57 43.34c.42 8.78 4.64 13.63 7.34 14.77 3.77 1.6 46.33-3.64 46.33-3.64l2.52-16.56c-7-1.39-15.87-2.44-25.48-3.36 4.31-4.51 9.1-7.93 15-8.93l10.18-11.07s-12.72-16.71-22.32-14.55z"/><path fill="#455A64" d="M188.31 187.998s-1.63-7.46 2-10.45c6-5 11.12-7.27 15.48-9.44 5-2.49 10.29-5.37 10.29-5.37l30.85 5.74s16.47 26.3 16.12 32.77a17.168 17.168 0 0 1-4.45 10.54 39.768 39.768 0 0 0 2.25 21.1c3.69 9.17 10.24 22.42 10.24 22.42s-35.36-5.74-52.13 2.47c-9 4.4-9.81 11.41-9.81 11.41l-1.31-38.52-6.93-23.59-12.6-19.08z"/><path fill="#1B0F0F" d="M211.68 215.36s-.16-.06-.47-.12c-.31-.06-.76-.15-1.36-.24-1.2-.18-2.93-.39-5.08-.64-4.3-.49-10.25-1.09-16.82-1.72l-1.13-.11-.61-.06.48-.38c2.49-2 4.83-3.84 7-5.53a17.547 17.547 0 0 1 6.65-2.93c1.599-.34 3.24-.448 4.87-.32.44.036.877.096 1.31.18.151.015.3.052.44.11a21.097 21.097 0 0 0-6.55.36 17.548 17.548 0 0 0-6.45 3l-7 5.56-.13-.44 1.14.11c6.57.63 12.52 1.29 16.81 1.87 4.29.58 6.97 1.08 6.9 1.3z"/><path fill="#1B0F0F" d="M175.16 213.001a4.006 4.006 0 0 1 1.38-1.22 8.882 8.882 0 0 1 4.25-1.35 8.62 8.62 0 0 1 4.36.91 4.01 4.01 0 0 1 1.5 1.07c-.05.07-.62-.33-1.65-.76a9.791 9.791 0 0 0-4.19-.73 9.686 9.686 0 0 0-4.09 1.16c-.97.49-1.51.92-1.56.92zm32.34-21.14c-.09 0-.39-1.26-1.13-3.24a22.438 22.438 0 0 0-4.14-7 14.118 14.118 0 0 0-3.5-2.77l-.9-.45c-.29-.13-.6-.22-.89-.32a9.578 9.578 0 0 0-1.65-.43 12.246 12.246 0 0 0-2.47-.2 3.531 3.531 0 0 1-.93 0c.297-.099.607-.149.92-.15a10.417 10.417 0 0 1 4.26.43c.3.1.62.18.93.31l1 .45a14.013 14.013 0 0 1 3.65 2.84 20.817 20.817 0 0 1 4.1 7.25c.274.798.494 1.613.66 2.44.062.276.093.558.09.84zm50.13 20.93s.41-.46 1.08-1.34a15.616 15.616 0 0 0 2.29-4 16.82 16.82 0 0 0 1.18-6.73 15.741 15.741 0 0 0-2.45-7.94 60.847 60.847 0 0 0-5.17-6.73 30.905 30.905 0 0 1-3.95-5.78 14.002 14.002 0 0 1-1.45-4.49 8.431 8.431 0 0 1-.08-1.28 1.36 1.36 0 0 1 0-.45s0 .62.24 1.7a14.862 14.862 0 0 0 1.57 4.36 31.369 31.369 0 0 0 4 5.65 57.584 57.584 0 0 1 5.24 6.76 15.94 15.94 0 0 1 2.48 8.19 16.596 16.596 0 0 1-1.31 6.87 14.662 14.662 0 0 1-2.46 4c-.272.332-.57.643-.89.93-.095.106-.202.2-.32.28z"/><path fill="#1B0F0F" d="M203.88 214a4.622 4.622 0 0 1 2.83-5.63 24.257 24.257 0 0 1 3.72-.48c.78-.13 1.65-.52 1.81-1.3.2-1-.81-1.72-1.71-2.11a15.758 15.758 0 0 0-11.67-.28 18.542 18.542 0 0 1 3.65 9.66m48.13-34.099c-1.59-3.19 4.18 5.77 6.87 8.11a59.213 59.213 0 0 1 7.76 7.35c2.23 2.78 3.88 5.86 3.57 9.42l-6.42-2.26s.81-5.19-2-9c-2.81-3.81-9.14-12.38-9.78-13.62zm-63.93 32.238c-1.77-1.92-4.48-2.7-7.08-3a10.885 10.885 0 0 0-4.72.31 5.087 5.087 0 0 0-3.32 3.17 1.517 1.517 0 0 0 .12 1.38 1.325 1.325 0 0 0 1.46.34 5.092 5.092 0 0 0 1.37-.84 12.183 12.183 0 0 1 5.812-2.216 12.182 12.182 0 0 1 6.148.946" opacity=".3"/><path fill="#1B0F0F" d="M197.22 187.462a2.112 2.112 0 0 1-1.305 1.95 2.106 2.106 0 0 1-2.301-.462 2.115 2.115 0 0 1 .331-3.248c.348-.23.757-.352 1.175-.35a2.1 2.1 0 0 1 2.1 2.11zm11.33-13.942a2.11 2.11 0 1 1-4.218-.001 2.11 2.11 0 0 1 4.218.001zm22.06.869a2.11 2.11 0 1 1-2.1-2.1 2.1 2.1 0 0 1 2.1 2.1zm17.06-1.318a2.11 2.11 0 1 1-4.218-.001 2.11 2.11 0 0 1 4.218.001zm28.22 24.98a2.113 2.113 0 0 1-1.305 1.951 2.114 2.114 0 0 1-2.301-.462 2.114 2.114 0 0 1 .331-3.248 2.114 2.114 0 0 1 3.118.953c.105.256.158.53.157.806zm-17.22-2.111a2.106 2.106 0 0 1-1.296 1.956 2.104 2.104 0 0 1-2.302-.451 2.105 2.105 0 0 1-.462-2.3 2.109 2.109 0 0 1 1.95-1.305 2.105 2.105 0 0 1 1.491.611 2.104 2.104 0 0 1 .619 1.489zm3.63-14.01a2.116 2.116 0 0 1-1.305 1.951 2.114 2.114 0 0 1-2.301-.462 2.114 2.114 0 0 1 .331-3.248 2.106 2.106 0 0 1 1.175-.351 2.104 2.104 0 0 1 1.943 1.304c.105.256.158.53.157.806zm23.68 7.841a2.11 2.11 0 1 0 0-4.22 2.11 2.11 0 0 0 0 4.22zm16.71-.21a2.112 2.112 0 0 1-2.519 2.08 2.11 2.11 0 1 1 2.519-2.08zM249.86 212.1a2.106 2.106 0 0 1-1.296 1.957 2.112 2.112 0 0 1-2.883-1.532 2.106 2.106 0 0 1 .896-2.169 2.11 2.11 0 0 1 1.173-.356 2.105 2.105 0 0 1 1.491.612 2.1 2.1 0 0 1 .619 1.488zm7.64 11.961a2.106 2.106 0 0 1-1.296 1.956 2.104 2.104 0 0 1-2.302-.451 2.105 2.105 0 0 1-.462-2.3 2.114 2.114 0 0 1 3.441-.694 2.115 2.115 0 0 1 .619 1.489zm-15.71 8.049a2.11 2.11 0 1 1-2.1-2.11 2.104 2.104 0 0 1 1.943 1.303c.105.256.158.53.157.807zm-10.19 13.228a2.11 2.11 0 1 1-2.1-2.1 2.104 2.104 0 0 1 2.1 2.1zm24.96-2.237a2.113 2.113 0 0 1-2.534 2.076 2.116 2.116 0 0 1-1.651-1.683 2.115 2.115 0 0 1 .938-2.162 2.112 2.112 0 0 1 1.187-.331 2.096 2.096 0 0 1 2.06 2.1zm-40.84 11.9a2.112 2.112 0 0 1-1.305 1.95 2.106 2.106 0 0 1-2.301-.462 2.115 2.115 0 0 1 .331-3.248c.348-.23.757-.352 1.175-.35a2.1 2.1 0 0 1 2.1 2.11zm8.78-33a2.112 2.112 0 0 1-1.305 1.95 2.106 2.106 0 0 1-2.301-.462 2.115 2.115 0 0 1 .331-3.248c.348-.23.757-.352 1.175-.35a2.103 2.103 0 0 1 1.488.618 2.088 2.088 0 0 1 .612 1.492zm-7.08 15.328a2.11 2.11 0 1 1-4.218-.001 2.11 2.11 0 0 1 4.218.001zm25.7-46.961a2.11 2.11 0 1 1-2.1-2.11 2.097 2.097 0 0 1 2.1 2.11zm-13.13 16.82a2.11 2.11 0 1 1-2.11-2.11 2.101 2.101 0 0 1 2.11 2.11zm-12.57-13.348a2.11 2.11 0 1 1-4.22 0 2.11 2.11 0 0 1 4.22 0zm-51.92 32.588a2.106 2.106 0 0 1-1.296 1.957 2.112 2.112 0 0 1-2.883-1.532 2.106 2.106 0 0 1 .896-2.169 2.11 2.11 0 0 1 1.173-.356 2.123 2.123 0 0 1 2.11 2.1zm9.76-26.638a2.112 2.112 0 0 1-1.305 1.95 2.106 2.106 0 0 1-2.301-.462 2.115 2.115 0 0 1 .331-3.248c.348-.23.757-.352 1.175-.35a2.097 2.097 0 0 1 2.1 2.11zm18.72 29.619a2.11 2.11 0 1 1-4.222.019 2.11 2.11 0 0 1 4.222-.019zm12.83-9.84a2.112 2.112 0 0 1-2.519 2.08 2.117 2.117 0 0 1-1.661-1.661 2.11 2.11 0 1 1 4.18-.419zm-25.61-2.279a2.112 2.112 0 0 1-1.305 1.95 2.106 2.106 0 0 1-2.301-.462 2.115 2.115 0 0 1 .331-3.248c.348-.23.757-.352 1.175-.35a2.097 2.097 0 0 1 2.1 2.11zm10.95-13.922a2.11 2.11 0 1 1-2.1-2.11 2.097 2.097 0 0 1 2.1 2.11z"/><path fill="#001E6C" d="M183.28 324.93a60.51 60.51 0 0 1-12.93-1.4c-8.82-1.94-15.73-4.79-21-8.69a66.732 66.732 0 0 1-20.45 3.71c-22.68.61-43.21-6.48-68.38-26.85a139.288 139.288 0 0 1-3.66-8.59c24.23 19.61 50.46 31 71.91 30.46a62.507 62.507 0 0 0 16.17-2.57c-5.85-6.1-8.8-14.07-8.76-23.75 0-10.61 4.56-15.42 8.34-17.58 5.35-3.07 12.67-2.65 19.09 1.09 7.08 4.13 11.29 11.11 11.26 18.68a20.517 20.517 0 0 1-8.08 16 61.51 61.51 0 0 1-11.89 7.15 59.18 59.18 0 0 0 39.6 6.24c21.31-4.23 39.11-11.79 52.9-22.47a85.912 85.912 0 0 0 33.52-70.76v-.09c-1.23-24.65-15.62-48.73-36.68-61.35-18.26-10.95-41.66-13.95-65.88-8.45-15.05 3.42-35.53 11.53-47.6 30.76-13 20.72-9.48 46.43 1.25 58.38 7.65 8.53 22.31 5.45 34.1 3l3.88-.8c12.67-2.52 64.08-26.63 64.28-26.7l1.09 4.1c-.83.29-51.38 24.9-64.4 27.49-1.24.24-2.52.51-3.83.79-13 2.73-29.26 6.13-38.83-4.53-6.92-7.72-10.77-18.86-10.84-31.37a62.995 62.995 0 0 1 9.08-33c13-20.67 34.75-29.34 50.72-33 25.47-5.78 50.17-2.58 69.54 9 22.4 13.5 37.7 39.17 39.06 65.39.11 1.34 1.45 20.46-8.78 42.1a90.267 90.267 0 0 1-26.66 33c-14.41 11.16-32.9 19-55 23.42a62.086 62.086 0 0 1-12.14 1.19zm-30.71-52.31a11.192 11.192 0 0 0-5.58 1.39c-3.79 2.17-5.8 6.76-5.83 13.28 0 9.33 2.89 16.54 9 21.9a56.74 56.74 0 0 0 13.56-7.7 15.539 15.539 0 0 0 6.15-12.05c0-5.77-3.26-11.13-8.79-14.35a17.139 17.139 0 0 0-8.51-2.47z"/><path fill="#1B0F0F" d="M153.33 317.421a5.783 5.783 0 0 1-1.87-.91 33.97 33.97 0 0 1-4.05-3 31.41 31.41 0 0 1-3.61-3.5 5.405 5.405 0 0 1-1.17-1.73c.06 0 .53.6 1.43 1.5.9.9 2.18 2.1 3.66 3.35s2.89 2.33 3.93 3.06c.588.37 1.15.781 1.68 1.23zm5.24-2.922a6.076 6.076 0 0 1-2.25-.57 18.942 18.942 0 0 1-4.8-2.87 23.946 23.946 0 0 1-3.91-4 7.353 7.353 0 0 1-1.22-2c.06 0 .56.68 1.49 1.75a30.61 30.61 0 0 0 4 3.82 22.886 22.886 0 0 0 4.63 2.94c1.22.64 2.08.85 2.06.93z"/><path fill="#fff" d="M138.61 297.27a2.554 2.554 0 0 1-.32-.81 22.826 22.826 0 0 1-.58-2.3 29.65 29.65 0 0 1 1.09-15.44c.253-.747.55-1.479.89-2.19a3.1 3.1 0 0 1 .42-.76c.08 0-.41 1.17-1 3.06a35.198 35.198 0 0 0-1.41 7.58 34.603 34.603 0 0 0 .34 7.69c.32 1.96.65 3.15.57 3.17zm-12.45 17.901a8.625 8.625 0 0 1-2.41.42 26.292 26.292 0 0 1-11.61-1.65 9 9 0 0 1-2.2-1.07c.788.197 1.563.444 2.32.74a33.408 33.408 0 0 0 5.66 1.32 34 34 0 0 0 5.81.31 20.317 20.317 0 0 1 2.43-.07zM264.03 282a12.01 12.01 0 0 1-1.46 2.18 53.014 53.014 0 0 1-8.82 9.05 11.467 11.467 0 0 1-2.14 1.51 17.682 17.682 0 0 1 1.89-1.74c1.2-1.07 2.83-2.58 4.55-4.33 1.72-1.75 3.18-3.44 4.22-4.67a18.17 18.17 0 0 1 1.76-2zM121.4 231.088a6.676 6.676 0 0 1-.51-1.33 35.056 35.056 0 0 1-1-3.73 48.86 48.86 0 0 1-1-5.66c-.524-4.678-.4-9.406.37-14.05a49.01 49.01 0 0 1 1.28-5.61 38.67 38.67 0 0 1 1.25-3.67c.148-.452.342-.888.58-1.3a8.81 8.81 0 0 1-.4 1.37c-.3.86-.68 2.12-1.09 3.69a54.125 54.125 0 0 0-1.17 5.59 61.952 61.952 0 0 0-.63 7 57.6 57.6 0 0 0 .27 7c.19 1.894.48 3.777.87 5.64.33 1.59.64 2.87.89 3.74.131.432.228.873.29 1.32zm6.04-44.889a8.723 8.723 0 0 1-1.21 2.67 8.9 8.9 0 0 1-1.65 2.43 8.901 8.901 0 0 1 1.22-2.67 9.305 9.305 0 0 1 1.64-2.43z"/><path fill="#1B0F0F" d="M248.5 142.101c-1.19 1.9-.17 4.41 1.16 6.21 1.33 1.8 3 3.53 3.3 5.75.35 3.05-2.23 5.72-5 7a5.389 5.389 0 0 0-2.36 1.47c-.78 1.08-.46 2.56-.49 3.89a6.445 6.445 0 0 1-3.32 5.57 5.377 5.377 0 0 1-6.27-1 7.734 7.734 0 0 1-1.62-3.6 16.362 16.362 0 0 1 3.57-14.18c1.69-1.86 3.82-3.26 5.67-5 1.85-1.74 3.46-3.9 3.62-6.41m1.4-22.463c-1.39-3.58-5-5.79-8.66-7.06a24.508 24.508 0 0 0-16.25-.35c-7.62 2.76-12.74 9.86-16.68 16.94-1.71 3.08-3.63 6.52-7 7.55-1.8.54-3.73.29-5.6.5a11.495 11.495 0 0 0-7.48 4c-2.24 2.72-3.4 6.63-6.62 8.06-2.08.92-4.47.53-6.74.6-4.73.15-9.71 3-10.75 7.61-.69 3 .35 6.38-1 9.13-.5 1-1.3 1.84-1.78 2.85a5.188 5.188 0 0 0 7.55 6.55 13.673 13.673 0 0 1 2.07-1.42c1.64-.69 3.51.22 4.94 1.28 1.43 1.06 2.84 2.36 4.61 2.56 3.62.4 6.43-4 10.07-3.72 2 .14 3.65 1.67 5.4 2.72 3.06 1.84 4.6.19 7.19-2.26 2.59-2.45 4 7.87 10 5.18 5.58-2.52.06-12.07 2.1-11.85 2.04.22 7.4-.11 8.54-1.82"/><path fill="#1B0F0F" d="M248.86 129.999a13.576 13.576 0 0 0-1.58-12.31 17.782 17.782 0 0 0-7.64-5.82 19.107 19.107 0 0 0-12.75-1.18c-4.18 1.22-7.85 4.57-8.78 8.82-.42 1.93-.3 4-1.14 5.79a4.307 4.307 0 0 0-.78 2.41 2 2 0 0 0 1.6 1.54 4.48 4.48 0 0 0 2.32-.2 24.418 24.418 0 0 0 7-3.89"/><path fill="#B78876" d="M234.95 167.699c.47-3.69.64-5.2.64-5.17 0 .03 7.93-.41 10.69-10.38 1.38-5 2.06-13.27 2.41-20.09.3-6.13-2.89-14.07-9-14.11l-19.5 2.64a3.59 3.59 0 0 0-3.61 3.26l-3.08 44.4s8.8 10.42 16.44 9c7.64-1.42 5.01-9.55 5.01-9.55z"/><path fill="#1B0F0F" d="M245.43 138.9a1.307 1.307 0 0 1-1.4 1.17 1.249 1.249 0 0 1-1.21-1.33 1.307 1.307 0 0 1 1.4-1.17 1.249 1.249 0 0 1 1.21 1.33zm.97-2.731c-.18.15-1.08-.69-2.49-.85-1.41-.16-2.51.43-2.64.24-.13-.19.14-.37.62-.65a3.669 3.669 0 0 1 2.14-.4 3.39 3.39 0 0 1 1.95.89c.4.38.52.7.42.77zm-13.77 1.401a1.318 1.318 0 0 1-1.41 1.18 1.26 1.26 0 0 1-1.21-1.33 1.31 1.31 0 0 1 1.41-1.17 1.255 1.255 0 0 1 1.21 1.32zm-.04-2.712c-.18.16-1.08-.69-2.48-.84-1.4-.15-2.51.43-2.65.24-.14-.19.14-.37.62-.65a3.677 3.677 0 0 1 2.14-.4 3.515 3.515 0 0 1 2 .88c.35.38.46.71.37.77zm3.91 10.982a8.985 8.985 0 0 1 2.32-.16c.37 0 .71 0 .8-.26.072-.367.03-.747-.12-1.09-.24-.9-.49-1.85-.75-2.85a47.442 47.442 0 0 1-1.57-7.39c.17 0 1.13 3.2 2.16 7.25.25 1 .48 1.95.71 2.86.174.457.174.962 0 1.42a.907.907 0 0 1-.64.46 3.38 3.38 0 0 1-.62 0 9.538 9.538 0 0 1-2.29-.24z"/><path fill="#AA6550" d="M235.59 162.529a25.94 25.94 0 0 1-13.19-5.17s2.62 7.42 12.89 7.62l.3-2.45zm-.09-13.379a2.531 2.531 0 0 0-2.15-1.2 2.308 2.308 0 0 0-1.69.68 1.441 1.441 0 0 0-.3 1.65 1.703 1.703 0 0 0 1.78.68 5.336 5.336 0 0 0 1.91-.87c.175-.089.329-.216.45-.37a.487.487 0 0 0 .06-.52"/><path fill="#1B0F0F" d="M233.26 129.78c-.18.36-1.56 0-3.22 0-1.66 0-3 .31-3.23-.05-.08-.18.19-.51.77-.82a5.594 5.594 0 0 1 4.92 0c.57.36.84.69.76.87zm13.43.22c-.28.29-1.21-.15-2.37-.3-1.16-.15-2.17 0-2.36-.38-.08-.18.11-.48.58-.73a3.457 3.457 0 0 1 3.8.55c.38.36.48.71.35.86z"/><path fill="#B78876" d="M217.5 141.189c.08-.76-.59-2.64-1.32-2.84-2-.54-5.58-.79-6.18 4.28-.84 6.91 6.28 6.32 6.32 6.13.04-.19.89-4.96 1.18-7.57z"/><path fill="#AA6550" d="M214.5 145.878s-.13.07-.35.14c-.3.09-.624.058-.9-.09a2.993 2.993 0 0 1-1.06-2.84 3.995 3.995 0 0 1 .55-1.69 1.377 1.377 0 0 1 1-.81.614.614 0 0 1 .67.41c.07.21 0 .34 0 .35 0 .01.16-.089.14-.389a.735.735 0 0 0-.22-.461.882.882 0 0 0-.64-.26 1.71 1.71 0 0 0-1.39.92 4.099 4.099 0 0 0-.65 1.88c-.12 1.4.43 2.79 1.4 3.2a1.267 1.267 0 0 0 1.12-.05c.33-.14.33-.29.33-.31z"/><path fill="#1B0F0F" d="M240.75 116.86a9.52 9.52 0 0 1-7.11 6.64c-1.79.37-3.9.31-5.07 1.71-1.17 1.4-.79 3.7-1.92 5.18-1.57 2.06-5.27 1.6-6.52 3.86-.54 1-.42 2.24-1 3.22a3.23 3.23 0 0 1-4 1.13 5.154 5.154 0 0 1-2.73-3.4 14.005 14.005 0 0 1-.33-4.47 24.75 24.75 0 0 1 1.55-8.68c2.42-5.7 11.71-13 17.82-12m16.28 34.121c1.58-1.87 3.08-4 4.67-5.83 1.59-1.83 3.05-3.68 3.24-6a9.671 9.671 0 0 0-1.69-5.52 69.442 69.442 0 0 0-6.59-9 9.015 9.015 0 0 0-1.85-1.82 4.495 4.495 0 0 0-2.09-.7 2.524 2.524 0 0 0-1.74.42 1.387 1.387 0 0 0-.51 1.61c.322.466.784.817 1.32 1 2.88 1.47 4.73 4.48 5.55 7.61.82 3.13.59 6.15.52 9.39-.06 2.53-.4 5.22-.66 7.55"/><path fill="#1B0F0F" d="M231.5 110.249a20.997 20.997 0 0 0-19.19 8.08c-2.41 3.24-4.19 7.46-8 8.82-3.11 1.11-6.6-.13-9.86.45a9.118 9.118 0 0 0-6.69 5.3c-.93 2.18-1 4.8-2.67 6.52-2.14 2.27-6 2-8.23 4.25-1.8 1.84-1.86 4.8-1.14 7.28a4.077 4.077 0 0 0 1.7 2.61 4.174 4.174 0 0 0 2.73.21 30.995 30.995 0 0 0 8.92-3.53c6.37-3.42 12.5-7.27 18.63-11.11a38.174 38.174 0 0 0 8-6.07c3-3.26 4.75-7.43 6.85-11.34 2.1-3.91 4.79-7.77 8.81-9.62"/><path fill="#455A64" d="M162.8 176.191a.946.946 0 0 1-.28-.09 3.155 3.155 0 0 1-.77-.38 5.003 5.003 0 0 1-1.89-2.65 6.175 6.175 0 0 1-.231-2.605 6.17 6.17 0 0 1 .871-2.465 10.463 10.463 0 0 1 5.43-4.13 52.274 52.274 0 0 1 8.12-1.78 19.232 19.232 0 0 0 4.36-1.34 8.745 8.745 0 0 0 5.5-7.55c.174-1.793.475-3.57.9-5.32a13.679 13.679 0 0 1 7.36-8.4 13.001 13.001 0 0 1 5.66-1.22c1.91 0 3.76.34 5.56.46a12.37 12.37 0 0 0 5.2-.55 6.393 6.393 0 0 0 2.15-1.28 7.684 7.684 0 0 0 1.47-2c.79-1.44 1.31-3 2.17-4.4a11.102 11.102 0 0 1 3.31-3.31 26.73 26.73 0 0 1 7.75-3 47.406 47.406 0 0 0 6.54-2 16.426 16.426 0 0 0 4.42-2.57 9.762 9.762 0 0 0 2.07-2.47c.37-.64.51-1 .54-1a6.794 6.794 0 0 1-.45 1 9.019 9.019 0 0 1-2 2.56 15.89 15.89 0 0 1-4.44 2.68c-2.13.831-4.319 1.5-6.55 2a26.695 26.695 0 0 0-7.61 3 10.485 10.485 0 0 0-3.17 3.19c-.83 1.32-1.33 2.89-2.14 4.39a7.83 7.83 0 0 1-1.56 2.09 6.798 6.798 0 0 1-2.29 1.38 12.764 12.764 0 0 1-5.4.59c-1.84-.12-3.67-.43-5.53-.45a12.436 12.436 0 0 0-5.45 1.18 13.157 13.157 0 0 0-4.417 3.281 13.162 13.162 0 0 0-2.693 4.799 39.512 39.512 0 0 0-.9 5.26 10.32 10.32 0 0 1-1.83 4.87 10.215 10.215 0 0 1-3.95 3 19.058 19.058 0 0 1-4.46 1.35 53.552 53.552 0 0 0-8.08 1.71 10.22 10.22 0 0 0-5.31 4 6.005 6.005 0 0 0-.67 4.87 5.002 5.002 0 0 0 1.77 2.62c.294.243.601.47.92.68z"/><path fill="#455A64" d="M163.42 154.939c.19-.267.427-.498.7-.68a4.773 4.773 0 0 1 2.67-.83 13.276 13.276 0 0 1 4.38.74c.873.273 1.765.477 2.67.61a5.873 5.873 0 0 0 3-.29 6.205 6.205 0 0 0 2.56-2.05 11.406 11.406 0 0 0 1.66-3.22c.43-1.19.76-2.47 1.21-3.76a24.968 24.968 0 0 1 1.73-3.87 14.61 14.61 0 0 1 6.35-6.39 11.71 11.71 0 0 1 4.73-1c1.63-.05 3.26.06 4.89-.09a7.192 7.192 0 0 0 4.34-1.72 13.012 13.012 0 0 0 2.59-3.86 19.755 19.755 0 0 1 2.38-4 11.316 11.316 0 0 1 3.53-2.75 22.192 22.192 0 0 1 7.94-2c2.55-.25 4.93-.34 7.07-.65a18.79 18.79 0 0 0 5.57-1.57 12.236 12.236 0 0 0 3.57-2.52 8.509 8.509 0 0 0 1.59-2.25c.28-.57.39-.9.41-.89-.073.32-.18.632-.32.93a8.197 8.197 0 0 1-1.54 2.34 12.028 12.028 0 0 1-3.59 2.63 18.545 18.545 0 0 1-5.64 1.67c-2.16.34-4.55.45-7.08.71a21.965 21.965 0 0 0-7.77 2 10.752 10.752 0 0 0-3.38 2.65 19.184 19.184 0 0 0-2.31 3.9 13.345 13.345 0 0 1-2.69 4 7.67 7.67 0 0 1-4.62 1.85c-1.69.15-3.33 0-4.93.09a11.14 11.14 0 0 0-4.54.94 14.278 14.278 0 0 0-6.16 6.17 26.004 26.004 0 0 0-1.71 3.79c-.46 1.27-.79 2.55-1.24 3.76-.83 2.41-2.33 4.62-4.47 5.45a6.223 6.223 0 0 1-3.14.28 17.871 17.871 0 0 1-2.7-.65 13.351 13.351 0 0 0-4.3-.82 4.995 4.995 0 0 0-2.63.72c-.55.38-.76.69-.78.63zm30.43 21.062s.16 0 .42-.19c.372-.228.649-.583.78-1a2.172 2.172 0 0 0-.32-2 5.26 5.26 0 0 0-2.17-1.67 10.814 10.814 0 0 1-3-1.75 6 6 0 0 1-1.68-3.68 7.588 7.588 0 0 1 .9-4.37 9.855 9.855 0 0 1 3.33-3.44 23.3 23.3 0 0 1 8.66-2.91 37.097 37.097 0 0 0 7.16-1.79 12.857 12.857 0 0 0 4.19-2.6c.85-.82 1.19-1.38 1.23-1.35.04.03-.06.15-.23.41-.254.382-.542.74-.86 1.07a12.38 12.38 0 0 1-4.19 2.79 35.185 35.185 0 0 1-7.21 1.91c-2.73.54-5.8 1.14-8.48 2.88a9.53 9.53 0 0 0-3.18 3.26 7.253 7.253 0 0 0-.87 4.1 5.547 5.547 0 0 0 1.52 3.42 10.785 10.785 0 0 0 2.9 1.74 5.415 5.415 0 0 1 2.25 1.83 2.361 2.361 0 0 1 .27 2.16 1.84 1.84 0 0 1-.91 1 .914.914 0 0 1-.51.18z"/><path fill="#B78876" d="M206.41 228.18s-1.15-1.25-.77-2.41c.38-1.16 1.06-2 1.35-1.92.29.08.19-6.26 1.35-6.74a16.679 16.679 0 0 1 2.5-.77s1.35-3.46 2.12-3.37c.77.09 9.33 1.64 9.33 1.64s6.74 7.22 6.35 7.89c-.39.67-.77 1.44-1.83 1.06a11.92 11.92 0 0 1-2.07-1.06l3.59 3.93s-.69 3-3.63.88l1.44 1.83s-.87 3.76-5.1.58l-4.33-2.6h-2.79l6.35 3.88s.67 1.91-1.25 1.9c-1.92-.01-6.76-2.56-6.76-2.56s-2.88 1.7-3.85 1.7c-.97 0-1.23-1.07-1.23-1.07l-.77-2.79z"/><path fill="#AA6550" d="M224.86 227.52a16.507 16.507 0 0 1-1.49-1.28 32.438 32.438 0 0 1-3.52-3.19 3.004 3.004 0 0 0-2.16-1 14.61 14.61 0 0 0-2.09.13 3.934 3.934 0 0 1-2-.09c0-.07.75 0 1.93-.25a11.37 11.37 0 0 1 2.16-.25c.449.006.893.094 1.31.26.449.183.851.463 1.18.82 1.23 1.38 2.53 2.41 3.4 3.29.526.43.961.96 1.28 1.56zm3.47-1.089a12.04 12.04 0 0 1-1.75-1.71c-1.05-1.09-2.5-2.59-4.14-4.2-.83-.79-1.6-1.6-2.35-2.19a4.345 4.345 0 0 0-2.35-.85c-1.48-.1-2.42 0-2.43 0 .202-.092.419-.149.64-.17.598-.096 1.204-.14 1.81-.13a4.59 4.59 0 0 1 2.6.83c.849.692 1.661 1.43 2.43 2.21 1.65 1.62 3.06 3.16 4 4.31a11.292 11.292 0 0 1 1.54 1.9z"/><path fill="#1B0F0F" d="M231.37 147.099c.26-.11.85.81 1.76 1.73.91.92 1.81 1.53 1.7 1.79-.11.26-1.34 0-2.4-1.1-1.06-1.1-1.31-2.34-1.06-2.42z"/><path fill="#001E6C" d="M305.18 227.279l-8.89-45.7a3.43 3.43 0 0 0-6.73 1.31l.41 2.08-18.39 4.52a12.274 12.274 0 0 0-8.59 7.67l-11.09 2.73a7.169 7.169 0 0 0-5.25 8.67l1 4-10.85 2.68a5.627 5.627 0 0 0-3.476 2.558 5.636 5.636 0 0 0 1.909 7.743 5.652 5.652 0 0 0 4.267.649l10.86-2.67.77 3.13a7.17 7.17 0 0 0 8.67 5.25l11.29-2.78v-.09a12.253 12.253 0 0 0 10.89 2.59l16.32-4 .19 1a3.431 3.431 0 0 0 6.156 1.198c.509-.73.715-1.629.574-2.508l-.04-.03z"/><path fill="#1B0F0F" d="M305.18 227.281c.07.251.1.511.09.77a3.427 3.427 0 0 1-.78 2.12 3.532 3.532 0 0 1-3.38 1.2 3.492 3.492 0 0 1-2.61-2.37c-.13-.44-.19-.89-.29-1.35l.13.08-12 3-3.59.9a13.83 13.83 0 0 1-3.91.54 12.477 12.477 0 0 1-7.88-3l.3-.19v.08l.05.19h-.19c-3.81.93-7.8 2-12.09 2.95a7.402 7.402 0 0 1-6.27-2.2 7.246 7.246 0 0 1-1.77-3.05c-.31-1.14-.57-2.28-.86-3.43l.27.17-9.16 2.31c-.79.17-1.54.41-2.39.54a5.863 5.863 0 0 1-5.77-8.77 6.17 6.17 0 0 1 4.29-2.89l10.22-2.51-.18.29c-.2-.83-.41-1.69-.63-2.56a16.694 16.694 0 0 1-.55-2.73 7.403 7.403 0 0 1 3.84-7.03 9.85 9.85 0 0 1 2.6-.9l10.26-2.52-.16.15a12.651 12.651 0 0 1 5.17-6.31 12.801 12.801 0 0 1 3.74-1.53l3.8-.94 14.44-3.53-.16.25c-.11-.54-.21-1.09-.32-1.63a4.518 4.518 0 0 1-.11-1.69 3.623 3.623 0 0 1 1.909-2.644 3.623 3.623 0 0 1 3.261-.046 3.58 3.58 0 0 1 2 2.45l2.19 11.31c1.36 7.1 2.55 13.3 3.53 18.43.98 5.13 1.73 9.13 2.26 11.9.25 1.36.44 2.41.57 3.14.06.35.11.61.14.81.009.094.009.187 0 .28a1.192 1.192 0 0 1-.07-.27c0-.2-.1-.46-.17-.8l-.65-3.14c-.55-2.76-1.35-6.78-2.37-11.87-1.02-5.09-2.23-11.32-3.63-18.41l-2.23-11.29a3.198 3.198 0 0 0-1.76-2.17 3.2 3.2 0 0 0-4.54 2.42 3.895 3.895 0 0 0 .1 1.55c.11.54.22 1.08.32 1.63v.2l-.2.05-14.43 3.57c-2.49.69-5.17 1-7.4 2.41a12.193 12.193 0 0 0-5 6.08l-.05.12h-.12l-10.26 2.53a9.229 9.229 0 0 0-2.48.85 7.011 7.011 0 0 0-2 1.65 6.883 6.883 0 0 0-1.58 4.91c.103.898.284 1.784.54 2.65.21.88.43 1.74.63 2.57l.06.23-.24.06-10.16 2.51a5.619 5.619 0 0 0-4 2.66 5.374 5.374 0 0 0 2.4 7.538 5.361 5.361 0 0 0 2.89.462c.76-.1 1.56-.35 2.34-.53l9.15-2.24.22-.05.05.21c.29 1.15.55 2.31.85 3.42a6.843 6.843 0 0 0 1.66 2.87 6.997 6.997 0 0 0 5.9 2.09c4.21-.94 8.27-2 12.06-2.91l-.13.23v-.08l-.14-.57.44.38a12.09 12.09 0 0 0 7.65 2.91 13.445 13.445 0 0 0 3.82-.52l3.59-.87 12-2.91h.11v.11c.1.46.16.93.28 1.34.12.404.317.781.58 1.11a3.459 3.459 0 0 0 1.91 1.18 3.386 3.386 0 0 0 3.692-1.758c.226-.434.355-.912.378-1.402.006-.25-.001-.5-.02-.75z"/><path fill="#1B0F0F" d="M298.66 227.521c-.13 0-2.27-9.46-4.78-21.18-2.51-11.72-4.45-21.26-4.31-21.29.14-.03 2.27 9.45 4.79 21.18s4.44 21.26 4.3 21.29zm-27.61 1.481c-.13 0-2-7.09-4.26-15.9s-3.91-16-3.78-16c.13 0 2 7.09 4.26 15.92s3.91 15.98 3.78 15.98zm-20.71-5.48a24.75 24.75 0 0 1-1.59-5.4 46.105 46.105 0 0 1-1.1-5.52 25.106 25.106 0 0 1 1.58 5.41c.479 1.813.85 3.652 1.11 5.51z"/><path fill="#fff" d="M260.2 199.789c0 .07-1.07.23-2.79.59-.86.18-1.88.41-3 .72-1.205.31-2.367.767-3.46 1.36a4.794 4.794 0 0 0-2.45 2.54 7.396 7.396 0 0 0-.06 3c.22 1.73.51 2.79.44 2.81a9.156 9.156 0 0 1-.79-2.76 7.385 7.385 0 0 1 0-3.16 3.63 3.63 0 0 1 1-1.65 7.827 7.827 0 0 1 1.63-1.2 14.18 14.18 0 0 1 3.58-1.38c1.14-.29 2.18-.48 3-.62a11.036 11.036 0 0 1 2.9-.25zm26.3-12.129c-.3.145-.62.243-.95.29-.61.15-1.51.36-2.62.6l-8.66 1.82a18.343 18.343 0 0 0-4.52 1.58 9.428 9.428 0 0 0-3 2.46 8.169 8.169 0 0 0-1.49 3.26 2.256 2.256 0 0 1 .07-1 6.857 6.857 0 0 1 1.17-2.47 9.384 9.384 0 0 1 3.05-2.64 17.28 17.28 0 0 1 4.63-1.67c3.4-.73 6.47-1.27 8.71-1.68 1.11-.2 2-.35 2.65-.45a4.42 4.42 0 0 1 .96-.1zm-40.75 27.43a4.815 4.815 0 0 1-1.93.77c-1.25.34-3 .48-4.89.88a9.805 9.805 0 0 0-2.51.88 6.349 6.349 0 0 0-1.71 1.3 9.187 9.187 0 0 0-1.09 1.7 3.115 3.115 0 0 1 .82-1.92 5.997 5.997 0 0 1 1.76-1.48 9.057 9.057 0 0 1 2.62-1c1.93-.41 3.69-.49 4.92-.74s1.98-.48 2.01-.39zm48.24-35.21c0 .08-.37.07-.9.21a3.614 3.614 0 0 0-1.75 1.08 3.494 3.494 0 0 0-.79 1.91c-.06.54 0 .9-.07.91-.07.01-.25-.31-.28-.92a3.227 3.227 0 0 1 .76-2.22c.532-.609 1.268-1 2.07-1.1.61-.07.97.07.96.13z"/><path fill="#1B0F0F" d="M296.72 101.188c0 3.62-2.61 5.8-6.93 5.8h-4.56v5.36h-1.79v-17h6.35c4.32.02 6.93 2.21 6.93 5.84zm-1.79 0c0-2.71-1.79-4.26-5.19-4.26h-4.51v8.48h4.51c3.4 0 5.19-1.55 5.19-4.22zm14.81 3.253v7.91h-1.65v-2a4.767 4.767 0 0 1-4.38 2.11c-2.89 0-4.66-1.51-4.66-3.71 0-2 1.26-3.61 4.92-3.61h4v-.78c0-2.18-1.23-3.371-3.61-3.371a6.493 6.493 0 0 0-4.24 1.5l-.78-1.279a8.114 8.114 0 0 1 5.19-1.72c3.35.01 5.21 1.65 5.21 4.95zm-1.72 4.07v-2.08h-4c-2.47 0-3.27 1-3.27 2.28 0 1.48 1.19 2.4 3.22 2.4a4.081 4.081 0 0 0 4.05-2.6zm18.26-8.924v11.2c0 4.39-2.16 6.38-6.38 6.38a8.875 8.875 0 0 1-5.94-2l.87-1.31a7.615 7.615 0 0 0 5 1.74c3.23 0 4.71-1.48 4.71-4.63v-1.62a5.759 5.759 0 0 1-5 2.47 6.18 6.18 0 1 1 0-12.36 5.757 5.757 0 0 1 5 2.54v-2.41h1.74zm-1.68 6.06a4.84 4.84 0 1 0-4.84 4.68 4.556 4.556 0 0 0 3.455-1.269 4.56 4.56 0 0 0 1.385-3.411zm17.6.851h-10.7a4.724 4.724 0 0 0 5 4.44 4.993 4.993 0 0 0 3.91-1.67l1 1.11a6.737 6.737 0 0 1-10.328-.715 6.744 6.744 0 0 1-1.272-3.665 6.15 6.15 0 0 1 6.24-6.47c3.58 0 6.18 2.64 6.18 6.47 0 .11-.03.31-.03.5zm-10.7-1.28h9a4.537 4.537 0 0 0-1.486-2.862 4.533 4.533 0 0 0-7.514 2.862zm32.33-.218v7.4h-1.72v-7.23c0-2.69-1.41-4.07-3.83-4.07-2.74 0-4.47 1.69-4.47 4.6v6.7h-1.72V99.59h1.65v2.35a5.356 5.356 0 0 1 4.85-2.44c3.1 0 5.24 1.79 5.24 5.5zm3.44 1a6.487 6.487 0 0 1 4.011-5.988 6.49 6.49 0 1 1 2.489 12.488 6.262 6.262 0 0 1-4.668-1.833A6.266 6.266 0 0 1 367.27 106zm11.23 0a4.75 4.75 0 1 0-4.72 5 4.653 4.653 0 0 0 4.72-5zm12 5.569a4.096 4.096 0 0 1-2.69.9 3.387 3.387 0 0 1-3.562-2.224 3.368 3.368 0 0 1-.178-1.486v-7.71h-2.27v-1.46h2.27v-2.78h1.73v2.78h3.87v1.46h-3.87v7.61a2 2 0 0 0 2.2 2.33 2.815 2.815 0 0 0 1.89-.66l.61 1.24zm11.41-13.479v1.5h3.93v1.461h-3.88v11.3h-1.72v-11.3h-2.28v-1.46h2.28V98a3.507 3.507 0 0 1 2.335-3.6 3.507 3.507 0 0 1 1.515-.18 3.999 3.999 0 0 1 2.55.8l-.58 1.28a3 3 0 0 0-1.89-.63c-1.48.02-2.26.84-2.26 2.42zm4.75 7.91a6.487 6.487 0 0 1 4.011-5.988 6.489 6.489 0 0 1 6.091 11.39 6.498 6.498 0 0 1-3.602 1.098 6.286 6.286 0 0 1-6.068-3.977 6.274 6.274 0 0 1-.432-2.523zm11.23 0a4.748 4.748 0 0 0-5.828-4.375A4.75 4.75 0 0 0 413.16 111a4.672 4.672 0 0 0 3.468-1.457A4.662 4.662 0 0 0 417.89 106zm16.75-6.41v12.76h-1.65V110a5.075 5.075 0 0 1-4.58 2.45c-3.25 0-5.38-1.82-5.38-5.48v-7.4h1.72v7.23c0 2.71 1.4 4.09 3.83 4.09 2.66 0 4.34-1.72 4.34-4.63v-6.67h1.72zM451.2 105v7.4h-1.7v-7.23c0-2.69-1.41-4.07-3.84-4.07-2.73 0-4.46 1.69-4.46 4.6v6.7h-1.7V99.59h1.65v2.35A5.356 5.356 0 0 1 446 99.5c3.06 0 5.2 1.79 5.2 5.5zm16.36-10.64v17.999h-1.65v-2.53a5.503 5.503 0 0 1-4.92 2.65 6.499 6.499 0 1 1 0-13 5.568 5.568 0 0 1 4.85 2.52v-7.64h1.72zm-1.7 11.639a4.75 4.75 0 1 0-4.72 5 4.65 4.65 0 0 0 3.461-1.46 4.663 4.663 0 0 0 1.259-3.54zM347.5 72.629h-8.89v11.45h-12.3v-11.45h-29.39v-8.48l25.71-34.59h13.24l-23.83 32.79h14.64v-10.2h11.91v10.2h8.91v10.28zm3.74-15.81c0-18 10-28.19 23.37-28.19 13.37 0 23.36 10.2 23.36 28.19 0 17.99-9.89 28.18-23.36 28.18-13.47 0-23.37-10.18-23.37-28.18zm34 0c0-12.38-4.36-17.52-10.67-17.52s-10.6 5.14-10.6 17.52c0 12.38 4.37 17.53 10.6 17.53 6.23 0 10.71-5.14 10.71-17.53h-.04zm68.84 15.81h-8.88v11.45h-12.31v-11.45H403.5v-8.48l25.7-34.59h13.3l-23.86 32.79h14.64v-10.2h11.92v10.2h8.88v10.28zm-14.4 100.512a.754.754 0 0 1-.18.12l-.57.31-2.21 1.15-8.2 4.19-27.52 13.86-.18.1-.13-.17c-.76-1.09-1.57-2.24-2.4-3.4l-3.41-4.84.32.07-25.65 14.81-7.64 4.36-2.08 1.15c-.22.12-.39.22-.54.29-.15.07-.19.1-.19.09 0-.01 0 0 .17-.13l.52-.33 2-1.23 7.57-4.48 25.56-14.95.19-.12.13.19c1.1 1.54 2.25 3.18 3.43 4.83.82 1.17 1.63 2.32 2.4 3.4l-.31-.08 27.58-13.72 8.27-4.05 2.25-1.08.58-.26.24-.08zm-7.29 36.121a2.79 2.79 0 0 1-.54.15l-1.58.35-5.86 1.24-19.61 3.8-.24.05v-.24l-.44-2.43c-.09-.55-.19-1.1-.28-1.6l.28.2c-7.95 1.36-15 3-20 4.36-2.53.66-4.55 1.23-6 1.62l-1.61.45c-.185.06-.376.1-.57.12.172-.091.353-.165.54-.22l1.58-.53c1.39-.45 3.4-1.07 5.92-1.77a202.502 202.502 0 0 1 20.05-4.52h.24v.24c.09.51.19 1.06.29 1.6.15.84.29 1.66.43 2.43l-.29-.2 19.64-3.65 5.88-1 1.6-.26c.179-.092.372-.156.57-.19zm-67.04-34.711c.12.06-2.42 5.56-5.69 12.28-3.27 6.72-6 12.12-6.13 12.06-.13-.06 2.43-5.55 5.69-12.28 3.26-6.73 6.01-12.12 6.13-12.06zm29.86 26.96c0 .13-6.29 2.09-14.13 4.38-7.84 2.29-14.24 4-14.27 3.91-.03-.09 6.28-2.09 14.13-4.38 7.85-2.29 14.23-4.04 14.27-3.91zm-48.94-44.171c.171.318.308.653.41 1 .26.74.6 1.72 1 2.92.87 2.58 2.05 6.14 3.45 10.33l.1.3h-.32l-7.81-.16.25-.29c.18 1 .38 2 .58 3.11 1.28 7 2.43 13.42 3.29 18.12.39 2.27.71 4.13.94 5.5.09.6.17 1.1.23 1.5.041.173.058.352.05.53a2.062 2.062 0 0 1-.15-.51c-.08-.4-.19-.89-.32-1.49l-1.09-5.47c-.89-4.69-2.1-11.06-3.44-18.1-.19-1.06-.39-2.1-.57-3.1l-.06-.29h.3l7.81.2-.21.3-3.28-10.39c-.37-1.22-.67-2.21-.89-3a8.043 8.043 0 0 1-.27-1.01zm-34.53 75.349c-.06-.12 5-2.62 11.33-5.58s11.48-5.26 11.54-5.14c.06.12-5 2.63-11.33 5.59s-11.48 5.25-11.54 5.13zm23.58 7.253a50.145 50.145 0 0 1 4.32-5.58 53.036 53.036 0 0 1 4.71-5.26 48.653 48.653 0 0 1-4.33 5.58 51.075 51.075 0 0 1-4.7 5.26zm12.71 34.336c-.13 0 .73-9.75 1.94-21.75s2.29-21.72 2.43-21.7c.14.02-.74 9.75-1.94 21.75s-2.29 21.71-2.43 21.7zm-17.35-86.157a22.412 22.412 0 0 1 2.31 4.09 21.838 21.838 0 0 1 1.86 4.31 22.732 22.732 0 0 1-2.3-4.09 22.783 22.783 0 0 1-1.87-4.31z"/></svg>