<svg xmlns="http://www.w3.org/2000/svg" width="41" height="40" fill="none" viewBox="0 0 41 40"><g clip-path="url(#clip0_2244:14158)"><path fill="#38AE0E" d="M.5 20c0 11.046 8.954 20 20 20s20-8.954 20-20-8.954-20-20-20S.5 8.954.5 20z"/><path fill="#fff" d="M28 21.25h-6.25v6.25c0 .688-.563 1.25-1.25 1.25-.688 0-1.25-.563-1.25-1.25v-6.25H13c-.688 0-1.25-.563-1.25-1.25 0-.688.563-1.25 1.25-1.25h6.25V12.5c0-.688.563-1.25 1.25-1.25.688 0 1.25.563 1.25 1.25v6.25H28c.688 0 1.25.563 1.25 1.25 0 .688-.563 1.25-1.25 1.25z"/></g><defs><clipPath id="clip0_2244:14158"><path fill="#fff" d="M0 0h40v40H0z" transform="translate(.5)"/></clipPath></defs></svg>