<svg xmlns="http://www.w3.org/2000/svg" width="25" height="24" fill="none" viewBox="0 0 25 24"><path fill="#1B1B1B" d="M17.54 10.64l-7.35-7.35-.87-.87a.754.754 0 0 0-1.06 0c-.29.29-.29.77 0 1.06l.87.87L3.5 9.98c-.64.64-.98 1.29-1 1.94-.02.69.32 1.38 1 2.07L7.51 18c1.34 1.33 2.68 1.33 4.01 0l6.02-6.02c.2-.2.29-.47.27-.73a.949.949 0 0 0-.27-.61zM16.5 22.75h-13c-.41 0-.75-.34-.75-.75s.34-.75.75-.75h13c.41 0 .75.34.75.75s-.34.75-.75.75zm3.35-7.97a.7.7 0 0 0-1 0c-.31.34-1.85 2.07-1.85 3.39 0 1.3 1.05 2.35 2.35 2.35s2.35-1.05 2.35-2.35c0-1.31-1.54-3.05-1.85-3.39z"/></svg>