<svg xmlns="http://www.w3.org/2000/svg" width="25" height="24" fill="none" viewBox="0 0 25 24"><path fill="#1B1B1B" d="M19.96 8l.79-1.75 1.75-.79a.5.5 0 0 0 0-.91l-1.75-.79L19.96 2a.5.5 0 0 0-.91 0l-.79 1.75-1.76.79a.5.5 0 0 0 0 .91l1.75.79.79 1.76c.18.39.74.39.92 0zM12 9.5L10.41 6c-.35-.78-1.47-.78-1.82 0L7 9.5l-3.5 1.59c-.78.36-.78 1.47 0 1.82L7 14.5 8.59 18c.36.78 1.47.78 1.82 0L12 14.5l3.5-1.59c.78-.36.78-1.47 0-1.82L12 9.5zm7.04 6.5l-.79 1.75-1.75.79a.5.5 0 0 0 0 .91l1.75.79.79 1.76a.5.5 0 0 0 .91 0l.79-1.75 1.76-.79a.5.5 0 0 0 0-.91l-1.75-.79-.79-1.76a.508.508 0 0 0-.92 0z"/></svg>