<svg width="22" height="24" viewBox="0 0 22 24" fill="#1B0F0F" xmlns="http://www.w3.org/2000/svg">
<path d="M19.9353 1.74811C17.6041 -0.583029 13.8115 -0.583029 11.4804 1.74811L2.57827 10.6501C2.30354 10.9249 2.30354 11.37 2.57827 11.6447C2.85301 11.9194 3.29809 11.9194 3.57282 11.6447L12.4749 2.74266C14.2029 1.01597 17.2126 1.01597 18.9407 2.74266C20.723 4.52499 20.723 7.42552 18.9407 9.20785L6.5102 21.7783C5.44698 22.8415 3.59457 22.8415 2.5314 21.7783C1.43452 20.6814 1.43452 18.897 2.5314 17.8002L14.4646 5.72625C14.863 5.32791 15.5581 5.32791 15.9564 5.72625C16.3678 6.13763 16.3678 6.80733 15.9564 7.21875L4.52115 18.7947C4.28396 19.0319 4.28396 19.552 4.52115 19.7892C4.79588 20.064 5.24096 20.064 5.5157 19.7892L16.9509 8.21325C17.9112 7.25302 17.9112 5.69189 16.9509 4.73171C16.021 3.80175 14.3986 3.80311 13.4701 4.73171L1.53685 16.8056C-0.0956172 18.438 -0.0956172 21.1403 1.53685 22.7728C2.33429 23.5703 3.39404 23.9998 4.5211 23.9998C5.64816 23.9998 6.70801 23.5703 7.50474 22.7729L19.9352 10.2023C22.2664 7.8712 22.2664 4.07921 19.9353 1.74811Z" />
</svg>
