<svg xmlns="http://www.w3.org/2000/svg" width="30" height="30" fill="none" viewBox="0 0 30 30"><path fill="current-color" fill-rule="evenodd" d="M19.423 7.047h-1.079v1.7A1.25 1.25 0 0 1 17.097 10a1.251 1.251 0 0 1-1.247-1.255V7.047h-4.852v1.7A1.25 1.25 0 0 1 9.752 10a1.251 1.251 0 0 1-1.247-1.255V7.047H7.426A2.434 2.434 0 0 0 5 9.49v12.685a2.434 2.434 0 0 0 2.426 2.442h9.136a5.561 5.561 0 0 1-1.49-3.799c0-3.072 2.473-5.563 5.525-5.563.431 0 .85.052 1.252.145V9.49a2.434 2.434 0 0 0-2.426-2.443zM12.076 20.53H6.888a.575.575 0 0 1-.574-.576c0-.32.257-.577.574-.577h5.188c.317 0 .573.258.573.576a.575.575 0 0 1-.573.577zm0-3.713H6.888a.575.575 0 0 1-.574-.577c0-.319.257-.577.574-.577h5.188c.317 0 .573.258.573.577a.575.575 0 0 1-.573.577zm7.886-3.97H6.888a.575.575 0 0 1-.574-.576c0-.318.257-.576.574-.576h13.074c.316 0 .573.257.573.576a.575.575 0 0 1-.573.577z" clip-rule="evenodd"/><path fill="current-color" fill-rule="evenodd" d="M10.493 8.506a.744.744 0 0 1-.741.746.744.744 0 0 1-.742-.746v-2.51c0-.412.333-.746.742-.746.41 0 .741.334.741.746v2.51zm7.346 0a.744.744 0 0 1-.741.746.743.743 0 0 1-.741-.746v-2.51c0-.412.331-.746.74-.746.41 0 .742.334.742.746v2.51zm2.758 7.88c-2.432 0-4.403 1.984-4.403 4.432 0 2.448 1.97 4.432 4.403 4.432 2.432 0 4.403-1.984 4.403-4.432 0-2.447-1.971-4.432-4.403-4.432zm1.686 5.285h-2.027a.503.503 0 0 1-.19-.037c-.002-.002-.005-.002-.007-.003a.531.531 0 0 1-.074-.04l-.012-.007c-.017-.011-.032-.026-.047-.04-.01-.007-.02-.013-.028-.022-.009-.009-.015-.02-.023-.028-.013-.016-.027-.03-.039-.048l-.006-.012a.47.47 0 0 1-.04-.075c-.002-.002-.002-.005-.003-.007a.515.515 0 0 1-.037-.19v-2.04c0-.282.227-.51.506-.51.28 0 .507.228.507.51v1.53h1.52a.51.51 0 0 1 0 1.02z" clip-rule="evenodd"/></svg>