<svg xmlns="http://www.w3.org/2000/svg" width="20" height="21" fill="none" viewBox="0 0 20 21"><path fill="#000" d="M13 9a.5.5 0 0 1 .5-.5h1a.5.5 0 0 1 .5.5v1a.5.5 0 0 1-.5.5h-1a.5.5 0 0 1-.5-.5V9zm-3 0a.5.5 0 0 1 .5-.5h1a.5.5 0 0 1 .5.5v1a.5.5 0 0 1-.5.5h-1a.5.5 0 0 1-.5-.5V9zm-5 3a.5.5 0 0 1 .5-.5h1a.5.5 0 0 1 .5.5v1a.5.5 0 0 1-.5.5h-1A.5.5 0 0 1 5 13v-1zm3 0a.5.5 0 0 1 .5-.5h1a.5.5 0 0 1 .5.5v1a.5.5 0 0 1-.5.5h-1A.5.5 0 0 1 8 13v-1z"/><path fill="#000" d="M5.5 2.5A.5.5 0 0 1 6 3v.5h8V3a.5.5 0 0 1 1 0v.5h1a2 2 0 0 1 2 2v11a2 2 0 0 1-2 2H4a2 2 0 0 1-2-2v-11a2 2 0 0 1 2-2h1V3a.5.5 0 0 1 .5-.5zM3 6.5v10a1 1 0 0 0 1 1h12a1 1 0 0 0 1-1v-10H3z"/></svg>