<svg xmlns="http://www.w3.org/2000/svg" width="22" height="22" fill="#fff" viewBox="0 0 22 22"><path fill-rule="evenodd" d="M10.748.5c2.873 0 5.573 1.117 7.601 3.146 4.192 4.192 4.192 11.012 0 15.204a10.783 10.783 0 0 1-7.625 3.144c-1.528 0-3.066-.323-4.505-.989-.424-.17-.82-.33-1.106-.33-.328.002-.769.154-1.195.301-.874.3-1.962.674-2.767-.128-.802-.803-.432-1.888-.134-2.761.147-.43.298-.874.298-1.21 0-.276-.133-.628-.337-1.135-1.873-4.045-1.007-8.92 2.17-12.095A10.674 10.674 0 0 1 10.748.5zM10.75 2a9.186 9.186 0 0 0-6.54 2.708C1.473 7.44.73 11.635 2.354 15.148c.234.579.46 1.143.46 1.729 0 .585-.2 1.174-.378 1.694-.146.428-.367 1.074-.225 1.216.14.144.79-.083 1.218-.23.515-.176 1.1-.378 1.678-.382.58 0 1.127.22 1.706.453 3.547 1.64 7.742.894 10.475-1.838 3.606-3.608 3.606-9.477 0-13.083A9.186 9.186 0 0 0 10.75 2zm3.947 8.663a1 1 0 1 1 0 2 1.003 1.003 0 0 1-1.004-1c0-.553.443-1 .995-1h.01zm-4.008 0a1 1 0 1 1 0 2 1.003 1.003 0 0 1-1.004-1c0-.553.442-1 .995-1h.008zm-4.01 0a1 1 0 1 1 0 2 1.003 1.003 0 0 1-1.004-1c0-.553.443-1 .995-1h.01z" clip-rule="evenodd"/></svg>