<svg xmlns="http://www.w3.org/2000/svg" width="30" height="30" fill="none" viewBox="0 0 30 30"><path fill="#102B5C" d="M20 13.75A3.734 3.734 0 0 0 23.738 10 3.734 3.734 0 0 0 20 6.25 3.745 3.745 0 0 0 16.25 10 3.745 3.745 0 0 0 20 13.75zm-10 0A3.734 3.734 0 0 0 13.738 10 3.734 3.734 0 0 0 10 6.25 3.745 3.745 0 0 0 6.25 10 3.745 3.745 0 0 0 10 13.75zm0 2.5c-2.912 0-8.75 1.462-8.75 4.375V22.5c0 .688.563 1.25 1.25 1.25h15c.688 0 1.25-.563 1.25-1.25v-1.875c0-2.913-5.838-4.375-8.75-4.375zm10 0c-.363 0-.775.025-1.212.063.024.012.037.037.05.05 1.424 1.037 2.412 2.425 2.412 4.262V22.5c0 .438-.087.863-.225 1.25H27.5c.688 0 1.25-.563 1.25-1.25v-1.875c0-2.913-5.837-4.375-8.75-4.375z"/></svg>