<svg xmlns="http://www.w3.org/2000/svg" width="16" height="16" fill="none" viewBox="0 0 16 16"><g clip-path="url(#clip0)"><path fill="#000" d="M7.077-.019c-1.205 0-2.173 1.001-2.173 2.212v.269H2.46a.616.616 0 0 0-.615.615v.615H1.23v1.231h1.231v9.23c0 1.013.834 1.847 1.846 1.847h7.385a1.856 1.856 0 0 0 1.846-1.846v-9.23h1.23V3.691h-.615v-.615a.616.616 0 0 0-.615-.615h-2.442v-.27c0-1.21-.968-2.211-2.173-2.211H7.077zm0 1.269h1.846c.495 0 .904.404.904.942v.27H6.172v-.27c0-.538.41-.942.904-.942zM3.692 4.923h3.154c.076.008.152.02.23.02h1.847c.079 0 .154-.012.23-.02h3.154v9.23a.607.607 0 0 1-.615.616H4.307a.607.607 0 0 1-.615-.615v-9.23zm1.23 1.23v7.386h1.232V6.154H4.923zm2.462 0v7.386h1.231V6.154h-1.23zm2.462 0v7.386h1.23V6.154h-1.23z"/></g><defs><clipPath id="clip0"><path fill="#fff" d="M0 0h16v16H0z"/></clipPath></defs></svg>