<svg xmlns="http://www.w3.org/2000/svg" width="16" height="16" fill="none" viewBox="0 0 16 16"><path fill="#000" d="M13.143 8a.571.571 0 0 0-.572.572v5.714a.571.571 0 0 1-.571.571H1.714a.571.571 0 0 1-.571-.571V2.857c0-.315.256-.571.571-.571h6.857a.571.571 0 1 0 0-1.143H1.714C.768 1.143 0 1.911 0 2.857v11.429C0 15.233.768 16 1.714 16H12c.947 0 1.714-.768 1.714-1.714V8.572A.571.571 0 0 0 13.143 8z"/><path fill="#000" d="M15.358.641a2.187 2.187 0 0 0-3.094 0L4.739 8.168a.578.578 0 0 0-.138.223l-1.143 3.428a.571.571 0 0 0 .722.723L7.608 11.4a.571.571 0 0 0 .223-.138l7.527-7.526a2.187 2.187 0 0 0 0-3.094z"/></svg>