<svg xmlns="http://www.w3.org/2000/svg" width="22" height="22" fill="none" viewBox="0 0 22 22"><path fill="#000" d="M4.103 11.86v.004a.687.687 0 0 1-.841.488c-.593-.157-.488-.84-.488-.84l.023-.086s.036-.115.065-.2a9.212 9.212 0 0 1 1.536-2.724C5.634 6.997 7.708 5.5 11 5.5c3.293 0 5.368 1.497 6.602 3.002a9.212 9.212 0 0 1 1.536 2.725c.03.085.057.17.082.257l.004.018.003.005v.003a.688.688 0 0 1-1.328.355l-.002-.006-.01-.034a6.715 6.715 0 0 0-.276-.715 7.84 7.84 0 0 0-1.072-1.737C15.517 8.13 13.81 6.875 11 6.875c-2.81 0-4.518 1.254-5.538 2.498a7.84 7.84 0 0 0-1.3 2.302l-.048.15-.01.034z"/><path fill="#000" d="M11 9.625a3.438 3.438 0 1 0 0 6.875 3.438 3.438 0 0 0 0-6.875zm-2.063 3.438a2.063 2.063 0 1 1 4.126 0 2.063 2.063 0 0 1-4.126 0z"/></svg>