<svg xmlns="http://www.w3.org/2000/svg" width="20" height="21" fill="none" viewBox="0 0 20 21"><path fill="#000" d="M17.483 2.633a3.211 3.211 0 0 0-4.094-.35 8.933 8.933 0 0 1 4.555 4.25 3.183 3.183 0 0 0-.46-3.9zM6.345 2.406a3.206 3.206 0 0 0-4.245.227 3.178 3.178 0 0 0-.211 4.245 8.933 8.933 0 0 1 4.456-4.472z"/><path fill="#000" d="M9.111 2.772A7.778 7.778 0 0 0 4.506 15.99l-1.417 1.417a.56.56 0 1 0 .8.783l1.478-1.478a7.721 7.721 0 0 0 9.378-.044l1.522 1.522a.556.556 0 0 0 .783-.783l-1.494-1.473A7.778 7.778 0 0 0 9.11 2.773zm1.767 14.34a6.666 6.666 0 1 1-1.732-13.22 6.666 6.666 0 0 1 1.732 13.22z"/><path fill="#000" d="M13.844 11.8l-3.367-1.667V5.778a.5.5 0 1 0-1 0v5l3.923 1.944a.5.5 0 1 0 .439-.9l.005-.022z"/></svg>