<svg xmlns="http://www.w3.org/2000/svg" width="32" height="33" fill="#959494" viewBox="0 0 32 33"><path d="M16.08 23.499c-.547 0-1-.454-1-1v-6.667c0-.547.453-1 1-1 .547 0 1 .453 1 1v6.667c0 .546-.453 1-1 1z"/><path d="M19.333 20.168h-6.667c-.547 0-1-.453-1-1 0-.547.453-1 1-1h6.667c.546 0 1 .453 1 1 0 .547-.454 1-1 1z"/><path d="M22.666 30.835H9.333c-5.88 0-7.667-1.787-7.667-7.667V9.835c0-5.88 1.787-7.667 7.667-7.667h2c2.333 0 3.066.76 4 2l2 2.667c.44.586.506.666 1.333.666h4c5.88 0 7.667 1.787 7.667 7.667v8c0 5.88-1.787 7.667-7.667 7.667zM9.333 4.168c-4.76 0-5.667.907-5.667 5.667v13.333c0 4.76.907 5.667 5.667 5.667h13.333c4.76 0 5.667-.907 5.667-5.667v-8c0-4.76-.907-5.667-5.667-5.667h-4c-1.707 0-2.267-.586-2.933-1.466l-2-2.667c-.694-.92-.894-1.2-2.4-1.2h-2z"/></svg>