<svg xmlns="http://www.w3.org/2000/svg" width="16" height="16" fill="none" viewBox="0 0 16 16"><path fill="#000" d="M15 4.167V12.5c0 .663-.296 1.299-.824 1.768a3 3 0 0 1-1.989.732H2.813a3 3 0 0 1-1.99-.732C.297 13.798 0 13.163 0 12.5V4.167c0-.663.296-1.3.824-1.768a3 3 0 0 1 1.989-.732h2.812c0-.442.198-.866.55-1.179A2 2 0 0 1 7.5 0a2 2 0 0 1 1.326.488c.351.313.549.737.549 1.179h2.813a3 3 0 0 1 1.988.732c.528.469.824 1.105.824 1.768zm-.938 0a1.58 1.58 0 0 0-.55-1.178 2.002 2.002 0 0 0-1.325-.489h-.937a.79.79 0 0 1-.275.59 1 1 0 0 1-.662.243H4.686a1 1 0 0 1-.662-.244.79.79 0 0 1-.275-.589h-.938c-.497 0-.973.176-1.325.489a1.58 1.58 0 0 0-.55 1.178V12.5c.001.442.199.866.55 1.178.352.312.828.488 1.325.489h9.376c.497 0 .973-.177 1.325-.489a1.58 1.58 0 0 0 .55-1.178V4.167zm-6.985 7.498a.512.512 0 0 0 .195-.058.452.452 0 0 0 .15-.126l3.75-5a.372.372 0 0 0 .003-.466.446.446 0 0 0-.131-.115.503.503 0 0 0-.354-.062.502.502 0 0 0-.17.064.444.444 0 0 0-.129.117l-3.433 4.577-2.408-2.14a.502.502 0 0 0-.33-.118.5.5 0 0 0-.327.122.395.395 0 0 0-.137.291.393.393 0 0 0 .131.294l2.813 2.5a.519.519 0 0 0 .331.122l.046-.002z"/></svg>