<svg xmlns="http://www.w3.org/2000/svg" width="16" height="17" fill="#1B0F0F" viewBox="0 0 16 17"><path d="M10.227 16.001a.56.56 0 01-.476-.848l.781-1.303a.558.558 0 11.96.573l-.201.335a4.667 4.667 0 003.592-4.532c0-.305.253-.558.558-.558.305 0 .558.253.558.558-.007 3.185-2.596 5.775-5.772 5.775zM.558 6.326A.562.562 0 010 5.768 5.776 5.776 0 015.765 0a.56.56 0 01.476.848L5.46 2.151a.555.555 0 01-.766.186.555.555 0 01-.186-.767l.2-.335a4.659 4.659 0 00-3.592 4.533.562.562 0 01-.558.558zM10.079 8.467v2.188c0 1.823-.73 2.552-2.552 2.552H5.34c-1.822 0-2.55-.73-2.55-2.552V8.467c0-1.824.728-2.553 2.55-2.553h2.187c1.823 0 2.552.73 2.552 2.553z"/><path d="M10.65 2.79H8.465c-1.793 0-2.522.713-2.544 2.47h1.607c2.187 0 3.198 1.02 3.198 3.2v1.607c1.763-.022 2.47-.751 2.47-2.545v-2.18c.007-1.824-.722-2.553-2.544-2.553z"/></svg>