<svg xmlns="http://www.w3.org/2000/svg" width="20" height="20" fill="#001E6C" viewBox="0 0 20 20"><circle cx="10" cy="10" r="10"/><path fill="#fff" d="M11.134 9.94l4.05-4.05a.59.59 0 0 0 .173-.42.588.588 0 0 0-.173-.418l-.355-.355a.588.588 0 0 0-.419-.173.587.587 0 0 0-.419.173l-4.05 4.05-4.051-4.05a.587.587 0 0 0-.419-.173.587.587 0 0 0-.419.173l-.355.355a.593.593 0 0 0 0 .838l4.05 4.05-4.05 4.051a.589.589 0 0 0-.173.42c0 .158.062.307.173.418l.355.355c.112.112.26.173.419.173a.587.587 0 0 0 .419-.173l4.05-4.05 4.051 4.05c.112.112.26.173.419.173a.588.588 0 0 0 .419-.173l.355-.355a.589.589 0 0 0 .173-.419.589.589 0 0 0-.173-.419l-4.05-4.05z"/></svg>