<svg xmlns="http://www.w3.org/2000/svg" width="16" height="16" fill="none" viewBox="0 0 16 16"><path fill="#000" d="M6.668.966h2.674v.45h.966V.903A.903.903 0 0 0 9.406 0H6.604a.904.904 0 0 0-.902.903v.513h.966v-.45zm5.87 4.276H3.472a.425.425 0 0 0-.424.46l.758 9.372c.042.523.479.926 1.003.926h6.392c.524 0 .96-.403 1.003-.926l.758-9.372a.425.425 0 0 0-.424-.46zM5.668 15l-.03.001a.483.483 0 0 1-.482-.453L4.68 6.854a.483.483 0 0 1 .964-.06l.475 7.695a.483.483 0 0 1-.453.511zm2.825-.482a.483.483 0 0 1-.965 0V6.824a.483.483 0 1 1 .965 0v7.694zm2.837-7.665l-.454 7.694a.483.483 0 1 1-.964-.057l.454-7.694a.482.482 0 1 1 .964.057zm2.878-3.1l-.317-.95a.614.614 0 0 0-.583-.42H2.702a.614.614 0 0 0-.583.42l-.317.95a.398.398 0 0 0 .378.525h11.65a.398.398 0 0 0 .378-.524z"/></svg>