<svg xmlns="http://www.w3.org/2000/svg" width="16" height="16" fill="none" viewBox="0 0 16 16"><g fill="#000" clip-path="url(#clip0)"><path d="M13.143 8.002a.571.571 0 0 0-.572.571v5.714a.571.571 0 0 1-.571.572H1.714a.571.571 0 0 1-.571-.572V2.86c0-.316.256-.572.571-.572h6.857a.571.571 0 1 0 0-1.142H1.714A1.713 1.713 0 0 0 0 2.859v11.428c0 .947.768 1.714 1.714 1.714H12c.947 0 1.714-.767 1.714-1.714V8.573a.571.571 0 0 0-.571-.571z"/><path d="M15.36.64a2.187 2.187 0 0 0-3.095.001L4.74 8.167a.578.578 0 0 0-.138.224l-1.143 3.428a.571.571 0 0 0 .722.723L7.61 11.4a.571.571 0 0 0 .223-.138l7.527-7.527a2.187 2.187 0 0 0 0-3.093z"/></g><defs><clipPath id="clip0"><path fill="#fff" d="M0 0h16v16H0z"/></clipPath></defs></svg>