<svg xmlns="http://www.w3.org/2000/svg" width="20" height="20" fill="none" viewBox="0 0 20 20"><path fill="#000" d="M3.73 10.781v.004a.624.624 0 0 1-.765.444c-.539-.143-.444-.764-.444-.764l.021-.078s.033-.104.06-.18c.32-.9.792-1.738 1.395-2.478C5.121 6.36 7.007 5 10 5c2.994 0 4.88 1.361 6 2.729a8.374 8.374 0 0 1 1.396 2.477c.027.078.052.155.075.234l.004.016.003.005v.003a.625.625 0 0 1-1.208.322l-.001-.005-.01-.031a6.157 6.157 0 0 0-.25-.65 7.135 7.135 0 0 0-.975-1.579C14.106 7.39 12.555 6.25 10 6.25S5.892 7.39 4.965 8.521a7.126 7.126 0 0 0-1.181 2.093c-.016.045-.03.09-.044.136l-.01.031z"/><path fill="#000" d="M6.875 11.875a3.125 3.125 0 1 1 6.25 0 3.125 3.125 0 0 1-6.25 0z"/></svg>