<svg xmlns="http://www.w3.org/2000/svg" width="26" height="26" fill="none" viewBox="0 0 26 26"><path fill="#102B5C" d="M25.072 23.727a.95.95 0 1 1-1.343 1.343l-4.56-4.56a.95.95 0 1 1 1.343-1.343l4.56 4.56zM10.72 20.788C5.16 20.788.65 16.28.65 10.718.65 5.157 5.16.648 10.72.648c5.562 0 10.07 4.509 10.07 10.07 0 5.562-4.508 10.07-10.07 10.07zm0-1.9a8.17 8.17 0 1 0 0-16.34 8.17 8.17 0 0 0 0 16.34zm-4.686-8.93a.633.633 0 0 1-1.267 0A5.193 5.193 0 0 1 9.96 4.765a.633.633 0 1 1 0 1.267 3.927 3.927 0 0 0-3.926 3.926z"/></svg>