<svg xmlns="http://www.w3.org/2000/svg" width="28" height="27" fill="#959494" viewBox="0 0 28 27"><path fill-rule="evenodd" d="M19.737.168c2.144 0 3.994.716 5.347 2.072 1.415 1.416 2.19 3.476 2.188 5.801l.002 9.329a.994.994 0 0 1 .001.108l-.003 1.423c0 4.708-3.03 7.872-7.541 7.872H8.203c-4.507 0-7.535-3.164-7.535-7.872V8.04C.668 3.332 3.696.168 8.203.168h11.534zm.37 14.443c-.785 0-1.705 1.297-2.52 2.443-1.117 1.573-2.273 3.201-4.014 3.201-1.178 0-2.256-.453-3.207-.855-1.512-.637-2.197-.841-2.868-.289-1.342 1.106-2.669 3.12-3.279 4.112.963.992 2.33 1.55 3.984 1.55H19.73c3.366 0 5.541-2.304 5.541-5.872v-1.065l-.03-.032c-1.168-1.203-3.184-3.193-5.136-3.193zm-.37-12.443H8.203c-3.362 0-5.535 2.305-5.535 5.872v10.861c0 .892.136 1.704.392 2.422.771-1.165 1.936-2.742 3.167-3.756 1.67-1.373 3.467-.619 4.915-.01.852.36 1.657.698 2.43.698.71 0 1.6-1.253 2.386-2.359 1.092-1.541 2.332-3.285 4.148-3.285 1.993 0 3.798 1.225 5.167 2.44l-.001-7.011c.003-1.817-.552-3.335-1.603-4.387-.97-.972-2.329-1.485-3.932-1.485zM9.811 5.754a3.468 3.468 0 0 1 3.461 3.46v.001a3.464 3.464 0 0 1-3.461 3.46 3.464 3.464 0 0 1-3.462-3.46 3.464 3.464 0 0 1 3.462-3.461zm-.002 2a1.462 1.462 0 1 0 .003 2.923 1.462 1.462 0 0 0-.003-2.923z" clip-rule="evenodd"/></svg>