<svg xmlns="http://www.w3.org/2000/svg" width="32" height="33" fill="#959494" viewBox="0 0 32 33"><path d="M20 30.835h-8c-7.24 0-10.334-3.094-10.334-10.334v-8c0-7.24 3.093-10.333 10.333-10.333h8c7.24 0 10.334 3.093 10.334 10.333v8c0 7.24-3.094 10.334-10.334 10.334zM12 4.168c-6.147 0-8.334 2.187-8.334 8.333v8c0 6.147 2.187 8.334 8.333 8.334h8c6.147 0 8.334-2.187 8.334-8.334v-8c0-6.146-2.187-8.333-8.334-8.333h-8z"/><path d="M28.64 10.98H3.36c-.547 0-1-.453-1-1 0-.546.44-1 1-1h25.28c.546 0 1 .454 1 1 0 .547-.44 1-1 1z"/><path d="M11.36 10.793c-.547 0-1-.454-1-1v-6.48c0-.547.453-1 1-1 .546 0 1 .453 1 1v6.48c0 .546-.454 1-1 1zM20.64 10.193c-.546 0-1-.454-1-1v-5.88c0-.547.454-1 1-1 .547 0 1 .453 1 1v5.88c0 .56-.44 1-1 1zM14.787 24.662c-.48 0-.934-.12-1.347-.347-.907-.533-1.44-1.6-1.44-2.947v-3.2c0-1.346.533-2.426 1.453-2.96.92-.533 2.12-.453 3.28.227l2.774 1.6c1.16.667 1.84 1.667 1.84 2.733 0 1.067-.68 2.067-1.854 2.734l-2.773 1.6c-.64.373-1.307.56-1.933.56zm.013-7.8a.702.702 0 00-.347.08c-.28.16-.453.613-.453 1.226v3.2c0 .6.173 1.054.453 1.227.28.16.76.08 1.28-.227l2.774-1.6c.52-.306.84-.68.84-1 0-.32-.307-.693-.84-1l-2.774-1.6c-.346-.2-.68-.306-.933-.306z"/></svg>