<svg xmlns="http://www.w3.org/2000/svg" width="30" height="30" fill="none" viewBox="0 0 30 30"><path fill="#102B5C" d="M3 9a3 3 0 0 1 3-3h18a3 3 0 0 1 3 3v2.544A5.25 5.25 0 1 0 18.825 18c-1.224 0-2.191.618-2.796 1.296A4.017 4.017 0 0 0 15 21.93v.57H6a3 3 0 0 1-3-3V9zm14.151 11.294c.392-.442.977-.794 1.674-.794h7.35c.697 0 1.282.352 1.674.794.39.436.651 1.029.651 1.636v.48c0 2.451-2.45 4.59-6 4.59s-6-2.139-6-4.59v-.48c0-.607.262-1.2.651-1.636zM22.5 18a3.75 3.75 0 1 0 0-7.5 3.75 3.75 0 0 0 0 7.5z"/></svg>