<svg xmlns="http://www.w3.org/2000/svg" width="30" height="30" fill="none" viewBox="0 0 30 30"><path fill="#102B5C" fill-rule="evenodd" d="M17.652 14.041h3.46a.946.946 0 0 0 .936-.957.938.938 0 0 0-.937-.956h-3.46a.938.938 0 0 0-.936.956c0 .523.412.957.937.957zm7.569-6.632c.762 0 1.261.268 1.76.855.5.587.588 1.429.475 2.193l-1.186 8.367c-.225 1.61-1.574 2.794-3.16 2.794H9.483c-1.661 0-3.035-1.3-3.173-2.983L5.161 4.728l-1.886-.331A.959.959 0 0 1 2.513 3.3.956.956 0 0 1 3.6 2.51l2.979.458a.956.956 0 0 1 .774.867l.238 2.858c.037.41.362.715.762.715H25.22zM9.283 23.634c-1.05 0-1.899.868-1.899 1.94 0 1.058.85 1.925 1.899 1.925 1.037 0 1.886-.867 1.886-1.926 0-1.071-.85-1.939-1.886-1.939zm14.051 0c-1.049 0-1.898.868-1.898 1.94 0 1.058.85 1.925 1.898 1.925 1.037 0 1.887-.867 1.887-1.926 0-1.071-.85-1.939-1.887-1.939z" clip-rule="evenodd"/></svg>