<svg xmlns="http://www.w3.org/2000/svg" width="30" height="30" fill="none" viewBox="0 0 30 30"><path fill="#102B5C" fill-rule="evenodd" d="M25.499 11.431l.9.9c.713.7 1.1 1.65 1.1 2.65a3.718 3.718 0 0 1-1.1 2.688l-.012.012-.888.888c-.35.35-.55.825-.55 1.326v1.286a3.768 3.768 0 0 1-3.764 3.764h-1.288c-.5 0-.975.198-1.325.549l-.9.9a3.752 3.752 0 0 1-2.664 1.1 3.788 3.788 0 0 1-2.664-1.087l-.913-.913a1.873 1.873 0 0 0-1.325-.55H8.818a3.768 3.768 0 0 1-3.764-3.763v-1.286c0-.501-.2-.976-.55-1.339l-.9-.887a3.777 3.777 0 0 1-.013-5.324l.913-.914c.35-.35.55-.824.55-1.337V8.819a3.766 3.766 0 0 1 3.764-3.761h1.288c.5 0 .975-.201 1.325-.551l.9-.9c1.464-1.474 3.852-1.474 5.328-.012l.913.912c.35.35.825.55 1.325.55h1.288a3.766 3.766 0 0 1 3.764 3.762v1.289c0 .498.2.973.55 1.323zm-13.717 7.875c.3 0 .575-.112.775-.325l6.427-6.423a1.103 1.103 0 0 0 0-1.551 1.09 1.09 0 0 0-1.538 0L11.02 17.43a1.101 1.101 0 0 0 0 1.55c.2.213.475.325.762.325zm5.339-1.1a1.094 1.094 0 1 0 2.188.013 1.094 1.094 0 0 0-2.188-.013zm-5.327-7.512c.6 0 1.088.487 1.088 1.087 0 .614-.488 1.1-1.088 1.1a1.1 1.1 0 0 1-1.1-1.1c0-.6.5-1.087 1.1-1.087z" clip-rule="evenodd"/></svg>