<svg xmlns="http://www.w3.org/2000/svg" width="30" height="30" fill="none" viewBox="0 0 30 30"><path fill="#102B5C" fill-rule="evenodd" d="M15.891 22.68c-2.544 0-5.13-1.604-6.638-3.729-7.24 0-7.458 10.988-7.458 10.988h28.191s.568-11.037-7.572-11.037c-1.507 2.151-3.978 3.778-6.523 3.778zm6.064-13.174c0 3.16-2.716 9.206-6.069 9.206-3.348 0-6.065-6.047-6.065-9.206 0-3.16 2.716-5.725 6.065-5.725 3.353.002 6.069 2.567 6.069 5.725z" clip-rule="evenodd"/><path fill="#102B5C" fill-rule="evenodd" d="M24.662 6.778c0-.593-.776-1.07-1.74-1.074V4.483c0-.182.065-4.44-7.015-4.44-7.076 0-7.01 4.258-7.01 4.44v1.264c-.018 0-.033-.006-.048-.006-.959 0-1.73.47-1.73 1.054v5.164c0 .579.773 1.052 1.73 1.052.956 0 1.732-.473 1.732-1.052V6.795c0-.08-.047-.154-.075-.229V5.158c0-.13-.509-3.343 5.401-3.343 5.912 0 5.298 3.214 5.298 3.343v1.483c-.01.047-.044.088-.044.137v5.282c0 .594.782 1.076 1.75 1.076.022 0 .038-.007.059-.007v1.929h-1.737v1.819h3.447l-.018-10.099z" clip-rule="evenodd"/></svg>