<svg xmlns="http://www.w3.org/2000/svg" width="30" height="30" fill="none" viewBox="0 0 30 30"><path fill="#EC3A35" d="M15 1.875A10.325 10.325 0 0 0 4.688 12.188a10.208 10.208 0 0 0 2.077 6.187s.281.37.327.424L15 28.125l7.912-9.33c.04-.05.323-.42.323-.42v-.003a10.205 10.205 0 0 0 2.078-6.184A10.324 10.324 0 0 0 15 1.874zm.938 15h-1.876V15h1.876v1.875zm0-3.75h-1.876V11.25h1.876v1.875zm3.75 3.75h-1.875v-7.5h-5.625v7.5h-1.876v-7.5A1.877 1.877 0 0 1 12.188 7.5h5.624a1.877 1.877 0 0 1 1.875 1.875v7.5z"/></svg>