<svg xmlns="http://www.w3.org/2000/svg" width="30" height="30" fill="none" viewBox="0 0 30 30"><path fill="#102B5C" fill-rule="evenodd" d="M9.762 2.5H20.24c3.861 0 6.011 2.225 6.011 6.037V21.45c0 3.875-2.15 6.05-6.011 6.05H9.762c-3.8 0-6.012-2.175-6.012-6.05V8.537C3.75 4.725 5.963 2.5 9.762 2.5zm.338 5.825v-.013h3.736c.539 0 .976.438.976.974a.98.98 0 0 1-.976.989H10.1a.975.975 0 0 1 0-1.95zm0 7.6h9.8a.976.976 0 0 0 0-1.952h-9.8a.976.976 0 0 0 0 1.952zm0 5.712h9.8a.978.978 0 0 0 .875-.975.98.98 0 0 0-.875-.988h-9.8a.994.994 0 0 0-.938 1.512c.2.313.563.5.938.45z" clip-rule="evenodd"/></svg>