<svg xmlns="http://www.w3.org/2000/svg" width="30" height="30" fill="none" viewBox="0 0 30 30"><path fill="#102B5C" d="M11.25 15a5.625 5.625 0 1 0 0-11.25 5.625 5.625 0 0 0 0 11.25zM1.875 26.25S0 26.25 0 24.375s1.875-7.5 11.25-7.5 11.25 5.625 11.25 7.5-1.875 1.875-1.875 1.875H1.875zm18.75-19.688a.938.938 0 0 1 .938-.937h7.5a.937.937 0 0 1 0 1.875h-7.5a.937.937 0 0 1-.938-.938zm.938 4.688a.938.938 0 0 0 0 1.875h7.5a.938.938 0 0 0 0-1.875h-7.5zm3.75 5.625a.938.938 0 0 0 0 1.875h3.75a.938.938 0 0 0 0-1.875h-3.75zm0 5.625a.938.938 0 0 0 0 1.875h3.75a.938.938 0 0 0 0-1.875h-3.75z"/></svg>