<svg xmlns="http://www.w3.org/2000/svg" width="30" height="30" fill="none" viewBox="0 0 30 30"><path fill="#EC3A35" d="M26.25 9.999a2.5 2.5 0 0 1 2.5 2.5v5a2.5 2.5 0 0 1-2.5 2.5h-1.328A10 10 0 0 1 15 28.749v-2.5a7.5 7.5 0 0 0 7.5-7.5v-7.5a7.5 7.5 0 0 0-15 0v8.75H3.75a2.5 2.5 0 0 1-2.5-2.5v-5a2.5 2.5 0 0 1 2.5-2.5h1.327a10.001 10.001 0 0 1 19.845 0h1.328zM9.7 19.729l1.325-2.12A7.465 7.465 0 0 0 15 18.75a7.465 7.465 0 0 0 3.975-1.14l1.325 2.12a9.954 9.954 0 0 1-5.3 1.52 9.954 9.954 0 0 1-5.3-1.52z"/></svg>