<svg xmlns="http://www.w3.org/2000/svg" width="550" height="550" fill="none" viewBox="0 0 550 550"><path fill="#EBEBEB" d="M550 420.64H0v.275h550v-.275zM94.138 438.339H57.706v.275h36.432v-.275zM197.813 441.331h-9.559v.275h9.559v-.275zM123.2 428.131H95.238v.275H123.2v-.275zM494.89 429.979H464.2v.275h30.69v-.275zM454.41 429.979h-23.793v.275h23.793v-.275zM361.526 434.621h-56.595v.275h56.595v-.275zM260.7 371.58H48.301a6.28 6.28 0 01-6.27-6.281V66.726a6.281 6.281 0 016.27-6.226H260.7a6.28 6.28 0 016.281 6.281v298.518a6.28 6.28 0 01-6.281 6.281zM48.301 60.72a6.006 6.006 0 00-5.995 6.006v298.573a6.006 6.006 0 005.995 6.006H260.7a6.021 6.021 0 004.244-1.762 6.021 6.021 0 001.762-4.244V66.726a6.02 6.02 0 00-6.006-6.006H48.301zM498.641 371.58h-212.41a6.293 6.293 0 01-6.281-6.281V66.726a6.289 6.289 0 016.281-6.226h212.41a6.283 6.283 0 016.259 6.226v298.573a6.284 6.284 0 01-6.259 6.281zM286.231 60.72a6.018 6.018 0 00-6.006 6.006v298.573a6.021 6.021 0 001.762 4.244 6.021 6.021 0 004.244 1.762h212.41a6.021 6.021 0 004.244-1.762 6.021 6.021 0 001.762-4.244V66.726a6.02 6.02 0 00-6.006-6.006h-212.41z"/><path fill="#E6E6E6" d="M77.022 194.623h5.28l3.355-48.587h-6.864l-1.771 48.587z"/><path fill="#F5F5F5" d="M80.091 194.623h5.28l3.355-48.587h-5.29l-3.345 48.587z"/><path fill="#E6E6E6" d="M213.884 194.623h5.28l3.355-48.587h-6.864l-1.771 48.587z"/><path fill="#F5F5F5" d="M216.953 194.623h5.28l3.355-48.587h-5.291l-3.344 48.587z"/><path fill="#E6E6E6" d="M63.954 146.036h35.244v-8.239H63.954v8.239z"/><path fill="#F5F5F5" d="M245.069 137.797H99.198v8.239h145.871v-8.239z"/><path fill="#E6E6E6" d="M63.954 182.182h35.244v-8.239H63.954v8.239z"/><path fill="#F5F5F5" d="M245.069 173.932H99.198v8.239h145.871v-8.239z"/><path fill="#E0E0E0" d="M166.463 92.752h-42.801c-5.619 0-10.175 4.556-10.175 10.175v24.684c0 5.619 4.556 10.175 10.175 10.175h42.801c5.62 0 10.175-4.556 10.175-10.175v-24.684c0-5.62-4.555-10.175-10.175-10.175z"/><path fill="#E0E0E0" d="M169.873 132.847h-42.812a10.725 10.725 0 0 1-10.714-10.725V97.427a10.734 10.734 0 0 1 10.714-10.725h42.812a10.735 10.735 0 0 1 10.725 10.725V122.1a10.746 10.746 0 0 1-3.137 7.595 10.746 10.746 0 0 1-7.588 3.152zm-42.812-45.045a9.637 9.637 0 0 0-9.614 9.625V122.1a9.636 9.636 0 0 0 9.614 9.625h42.812a9.645 9.645 0 0 0 9.625-9.625V97.427a9.647 9.647 0 0 0-9.625-9.625h-42.812z"/><path fill="#F0F0F0" d="M176.374 92.752h-42.801c-5.62 0-10.175 4.556-10.175 10.175v24.684c0 5.619 4.555 10.175 10.175 10.175h42.801c5.619 0 10.175-4.556 10.175-10.175v-24.684c0-5.62-4.556-10.175-10.175-10.175z"/><path fill="#E0E0E0" d="M186.549 115.28H120.45v1.507h66.099v-1.507zM186.549 123.068H120.45v1.507h66.099v-1.507z"/><path fill="#E0E0E0" d="M168.886 130.501c7.092-.999 12.032-7.559 11.032-14.652-.999-7.092-7.559-12.032-14.651-11.032-7.093.999-12.032 7.559-11.033 14.651.999 7.093 7.559 12.032 14.652 11.033z"/><path fill="#F5F5F5" d="M175.753 127.151c5.721-4.311 6.863-12.442 2.553-18.162-4.311-5.721-12.442-6.864-18.163-2.553-5.72 4.311-6.863 12.442-2.552 18.162 4.31 5.721 12.442 6.864 18.162 2.553z"/><path fill="#EBEBEB" d="M175.63 124.467c4.24-4.24 4.24-11.114 0-15.354-4.24-4.24-11.114-4.24-15.354 0-4.24 4.24-4.24 11.114 0 15.354 4.24 4.24 11.114 4.24 15.354 0z"/><path fill="#F0F0F0" d="M109.318 269.687h-28.82v146.751h28.82V269.687zM228.151 416.438H86.031v4.191h142.12v-4.191z"/><path fill="#F5F5F5" d="M109.318 416.449h124.366V269.698H109.318v146.751z"/><path fill="#E0E0E0" d="M222.365 287.738v48.136H120.648v-48.136H157.3v.946a2.663 2.663 0 0 0 2.651 2.64h23.177a2.655 2.655 0 0 0 1.864-.776 2.655 2.655 0 0 0 .776-1.864v-.946h36.597z"/><path fill="#EBEBEB" d="M232.903 286.077l-10.538 49.797H120.648l10.549-49.797h36.63l-.198.979a2.103 2.103 0 00.33 1.883 2.12 2.12 0 001.716.845h23.188a3.502 3.502 0 003.212-2.728l.198-.979h36.63zM120.648 398.376h101.706v-48.125H120.648v48.125z"/><path fill="#F5F5F5" d="M183.084 347.226h-23.177a2.64 2.64 0 0 0-2.64 2.64v1.32a2.64 2.64 0 0 0 2.64 2.64h23.177a2.64 2.64 0 0 0 2.64-2.64v-1.32a2.64 2.64 0 0 0-2.64-2.64z"/><path fill="#EBEBEB" d="M198.308 234.212H176.33v5.951h21.978v-5.951z"/><path fill="#E0E0E0" d="M198.308 232.672h-65.241v1.54h65.241v-1.54z"/><path fill="#F0F0F0" d="M209.858 240.152H100.232v29.535h109.626v-29.535z"/><path fill="#E0E0E0" d="M201.465 238.656h-92.829v1.507h92.829v-1.507z"/><path fill="#E0E0E0" d="M129.767 240.152h-29.535v29.535h29.535v-29.535zM136.015 238.656l.924-4.444h-1.837l.913 4.444z"/><path fill="#E6E6E6" d="M460.559 84.953H317.636v313.434h142.923V84.953z"/><path fill="#F5F5F5" d="M467.236 84.953H319.44v313.434h147.796V84.953z"/><path fill="#fff" d="M454.399 385.55V97.78H332.255v287.77h122.144z"/><path fill="#F0F0F0" d="M434.765 160.953c5.766-22.886-8.113-46.114-31-51.88-22.887-5.765-46.114 8.114-51.88 31.001-5.766 22.887 8.113 46.114 31 51.88 22.887 5.765 46.115-8.114 51.88-31.001z"/><path fill="#E0E0E0" d="M393.338 191.257c22.502 0 40.744-18.242 40.744-40.744s-18.242-40.744-40.744-40.744-40.744 18.242-40.744 40.744 18.242 40.744 40.744 40.744z"/><path fill="#fff" d="M393.338 162.338c6.531 0 11.825-5.294 11.825-11.825s-5.294-11.825-11.825-11.825-11.825 5.294-11.825 11.825 5.294 11.825 11.825 11.825z"/><path fill="#F5F5F5" d="M388.663 197.45h-25.421v25.421h25.421V197.45z"/><path fill="#E6E6E6" d="M423.434 197.45h-25.421v25.421h25.421V197.45z"/><path fill="#F0F0F0" d="M434.886 306.14c5.514-22.949-8.62-46.022-31.569-51.536-22.949-5.514-46.022 8.62-51.536 31.569-5.514 22.949 8.62 46.022 31.569 51.536 22.949 5.514 46.022-8.62 51.536-31.569z"/><path fill="#E6E6E6" d="M433.564 302.802c3.648-22.204-11.395-43.162-33.599-46.81-22.205-3.648-43.163 11.395-46.811 33.599-3.648 22.205 11.395 43.163 33.6 46.811 22.204 3.648 43.162-11.395 46.81-33.6z"/><path fill="#fff" d="M393.338 307.989c6.531 0 11.825-5.294 11.825-11.825s-5.294-11.825-11.825-11.825-11.825 5.294-11.825 11.825 5.294 11.825 11.825 11.825z"/><path fill="#F5F5F5" d="M398.024 368.522h25.421v-25.421h-25.421v25.421z"/><path fill="#E6E6E6" d="M363.242 368.522h25.421v-25.421h-25.421v25.421z"/><path fill="#F5F5F5" d="M275 470.316c117.791 0 213.279-5.575 213.279-12.452S392.791 445.412 275 445.412s-213.28 5.575-213.28 12.452S157.21 470.316 275 470.316z"/><g fill="#1B0F0F" opacity=".4"><path d="M157.443 192.016a120.997 120.997 0 0 1-62.326-16.841.439.439 0 0 1 .11-.796.421.421 0 0 1 .33.048c59.994 35.002 121.066 8.151 180.147-17.809 57.09-25.091 116.138-51.018 174.295-21.318a.418.418 0 0 1 .216.249.424.424 0 0 1-.023.328.442.442 0 0 1-.249.216.432.432 0 0 1-.329-.023c-57.805-29.48-116.6-3.608-173.569 21.395-38.94 17.061-78.749 34.551-118.602 34.551z" opacity=".4"/><path d="M157.443 209.22A120.7 120.7 0 0 1 96.8 193.314a.43.43 0 0 1-.165-.583.44.44 0 0 1 .594-.165c59.4 33.572 119.9 6.974 178.497-18.755 57.64-25.3 117.249-51.524 176-20.515a.437.437 0 0 1 .13.561.443.443 0 0 1-.537.209c-58.3-30.8-117.7-4.708-175.208 20.537-39.006 17.116-78.826 34.617-118.668 34.617z" opacity=".4"/><path d="M157.432 226.413a120.662 120.662 0 0 1-59.004-14.982.44.44 0 0 1 .091-.802.432.432 0 0 1 .327.043c58.894 32.175 118.855 5.819 176.847-19.668 58.19-25.564 118.36-52.008 177.617-19.624a.44.44 0 0 1 .176.583.433.433 0 0 1-.422.225.413.413 0 0 1-.161-.049c-58.894-32.175-118.866-5.83-176.858 19.657-38.94 17.116-78.771 34.617-118.613 34.617z" opacity=".4"/><path d="M157.421 243.606a120.48 120.48 0 0 1-57.321-14.091.452.452 0 0 1-.187-.594.44.44 0 0 1 .594-.176c58.3 30.8 117.755 4.708 175.208-20.548 58.718-25.806 119.449-52.492 179.3-18.7a.43.43 0 0 1 .165.583.44.44 0 0 1-.594.165c-59.4-33.572-119.966-6.974-178.497 18.7-38.973 17.16-78.815 34.661-118.668 34.661z" opacity=".4"/><path d="M157.421 260.81a120.438 120.438 0 0 1-55.682-13.2.44.44 0 0 1-.187-.583.436.436 0 0 1 .252-.216.436.436 0 0 1 .331.029c57.794 29.469 116.6 3.608 173.569-21.406 59.268-26.037 120.549-52.976 180.917-17.754a.416.416 0 0 1 .202.265.438.438 0 0 1-.474.54.424.424 0 0 1-.157-.057c-59.994-35.046-121.077-8.228-180.092 17.754-38.984 17.116-78.837 34.628-118.679 34.628z" opacity=".4"/></g><path fill="#1B0F0F" d="M140.536 222.2a6.905 6.905 0 00-2.706-3.949 6.533 6.533 0 01-2.739-4.741l.231-.638a.436.436 0 00-.59-.542.435.435 0 00-.224.245l-8.866 25.025a4.928 4.928 0 00-1.177-1.617 8.932 8.932 0 00-4.4-2.112c-3.663-.715-7.018.649-7.48 3.036-.407 2.057 1.463 4.213 4.323 5.236.477.168.966.3 1.463.396a8.902 8.902 0 004.851-.308 3.836 3.836 0 002.607-2.662l6.226-17.501a6.909 6.909 0 002.728 4.059 6.606 6.606 0 012.783 5.038.336.336 0 00.209.264h.077a.312.312 0 00.341-.209l2.2-6.182c.341-.908.391-1.9.143-2.838zM386.43 173.877a6.876 6.876 0 00-4.543-1.606 6.597 6.597 0 01-5.027-2.2l-.198-.66a.437.437 0 00-.209-.258.437.437 0 00-.33-.039.437.437 0 00-.258.209.437.437 0 00-.039.33l7.579 25.575a4.978 4.978 0 00-1.914-.627 8.91 8.91 0 00-4.807.88c-3.399 1.584-5.324 4.675-4.29 6.897.891 1.914 3.696 2.563 6.6 1.694.485-.146.959-.326 1.419-.539a8.906 8.906 0 003.762-3.124 3.884 3.884 0 00.55-3.718l-5.313-17.919a6.963 6.963 0 004.631 1.683 6.67 6.67 0 015.236 2.453.337.337 0 00.33.088h.077a.33.33 0 00.154-.374l-1.881-6.325a4.596 4.596 0 00-1.529-2.42zM216.095 217.415a8.463 8.463 0 014.928 5.423.383.383 0 00.341.264.153.153 0 00.099 0 .427.427 0 00.244-.119.427.427 0 00.119-.244l.583-5.335a5.977 5.977 0 00-.671-3.498 8.801 8.801 0 00-4.521-4.103 8.346 8.346 0 01-4.785-5.082l.088-.869a.547.547 0 10-1.089-.11l-3.663 33.583a6.244 6.244 0 00-1.925-1.65 11.344 11.344 0 00-6.061-1.342 11.467 11.467 0 00-5.929 1.815 4.398 4.398 0 00-2.529 4.163 4.397 4.397 0 002.859 3.944 10.395 10.395 0 004.092 1.265c.65.077 1.305.099 1.958.066 4.708-.187 8.437-2.816 8.382-5.885l1.562-14.366a8.906 8.906 0 004.587 4.235c1.804.88 3.498 1.727 4.928 5.423.032.07.081.13.143.176a.447.447 0 00.209.088h.099a.397.397 0 00.352-.374l.583-5.324a5.834 5.834 0 00-.671-3.509 8.801 8.801 0 00-4.521-4.103 8.304 8.304 0 01-4.785-5.082l.407-3.685a8.801 8.801 0 004.587 4.235zM185.361 201.806l.913-19.063.341-7.106v-.407l-19.415-.924v.396l-.341 7.117-.825 17.435a6.975 6.975 0 00-5.929-1.837c-3.432.352-6.039 2.464-5.819 4.708.198 1.925 2.431 3.3 5.247 3.476.465.038.932.038 1.397 0 3.41-.341 5.995-2.409 5.819-4.631l.781-16.379 17.831.847-.693 14.729a4.568 4.568 0 00-1.474-1.1 8.296 8.296 0 00-4.455-.704c-3.432.352-6.039 2.453-5.819 4.697.198 1.936 2.431 3.3 5.247 3.487.465.038.932.038 1.397 0 3.377-.44 5.973-2.519 5.797-4.741zm-17.809-18.051l.088-1.903 17.831.858-.088 1.892-17.831-.847zM445.302 165.132l1.87-15.29.693-5.698v-.319L432.3 141.9v.33l-.704 5.698-1.716 13.992a5.604 5.604 0 00-4.664-1.826c-2.783.066-5.005 1.617-4.961 3.432 0 1.562 1.76 2.838 4.015 3.113a7.48 7.48 0 001.1 0c2.761-.077 4.972-1.595 4.961-3.388l1.606-13.134 14.3 1.749-1.441 11.814a3.545 3.545 0 00-1.1-.99 6.603 6.603 0 00-3.531-.825c-2.794.077-5.016 1.617-4.972 3.432 0 1.562 1.76 2.838 4.015 3.113a7.48 7.48 0 001.1 0c2.794.033 4.994-1.485 4.994-3.278zm-13.255-15.598l.176-1.518 14.3 1.749-.176 1.518-14.3-1.749zM388.069 129.965l-9.295-19.096-3.465-7.128-.209-.341-19.459 9.471.187.396 3.476 7.128 8.492 17.468c-1.793-.693-4.4-.231-6.754 1.375-3.179 2.2-4.598 5.621-3.179 7.7 1.221 1.782 4.158 1.969 6.974.605a9.438 9.438 0 001.353-.792c3.135-2.145 4.554-5.5 3.201-7.634l-9.295-19.096 17.875-8.701 8.503 17.38c-1.793-.693-4.4-.231-6.765 1.375a9.301 9.301 0 00-3.3 3.795 3.599 3.599 0 003.718 5.412 8.433 8.433 0 003.3-.902c.477-.23.937-.495 1.375-.792 3.201-2.134 4.598-5.588 3.267-7.623z"/><path fill="#035397" d="M323.983 226.523c-.913 0-1.881 0-2.882-.11-6.666-.528-12.529-3.949-17.446-10.153-14.773-18.7-16.555-56.452-15.103-65.89l.594.088c-1.441 9.383.319 46.904 14.982 65.428 4.807 6.072 10.527 9.405 17.017 9.9 10.065.803 17.358-2.607 21.087-9.845 5.885-11.429 1.397-30.701-10.461-44.825-3.806-4.532-5.093-9.438-3.531-13.453a8.649 8.649 0 0 1 7.018-5.5c4.268-.572 8.701 1.782 12.1 6.446l-.484.352c-3.3-4.477-7.513-6.743-11.572-6.204a8.04 8.04 0 0 0-6.534 5.115c-1.485 3.817-.231 8.503 3.432 12.859 12.199 14.531 16.621 33.66 10.527 45.485-2.442 4.884-7.689 10.307-18.744 10.307z"/><path fill="#1B0F0F" d="M265.65 112.376c-7.7 3.652-18.007 6.303-14.74 20.141 3.267 13.838-5.434 17.93 1.1 23.331 6.534 5.401 29.359 4.906 38.137 1.507 9.9-3.839 21.351-16.808 10.186-23.441-8.712-5.17-12.496-11.858-13.761-15.928-2.585-8.305-11.484-13.002-20.922-5.61z"/><path fill="#1B0F0F" d="M308.715 133.375c-8.481-1.727-16.984-4.873-21.67-16.06-1.881-4.488-4.862-7.315-8.415-7.953-4.015-.715-8.514 1.32-12.639 5.742l-.44-.418c4.268-4.565 8.943-6.677 13.2-5.907 3.762.671 6.908 3.619 8.866 8.305 4.576 10.923 12.914 14.003 21.241 15.697l-.143.594z"/><path fill="#FFB573" d="M305.492 174.603l.407.429.539.55c.385.363.759.748 1.177 1.1.803.748 1.672 1.463 2.552 2.2a64.46 64.46 0 0 0 5.5 4.026c1.936 1.265 3.96 2.42 5.995 3.553 1.1.528 2.068 1.1 3.135 1.606l2.464 1.177c.354.133.745.133 1.1 0a7.431 7.431 0 0 0 2.079-1.166 26.544 26.544 0 0 0 4.499-4.576 94.3 94.3 0 0 0 7.821-11.88l4.609 1.881a64.454 64.454 0 0 1-6.281 14.3 31.268 31.268 0 0 1-5.225 6.6 15.752 15.752 0 0 1-4.158 2.838 10.387 10.387 0 0 1-6.204.836 9.906 9.906 0 0 1-1.606-.429l-1.012-.374-1.826-.704c-1.232-.462-2.42-1.023-3.619-1.54a72.22 72.22 0 0 1-7.007-3.696 69.036 69.036 0 0 1-6.6-4.521 42.079 42.079 0 0 1-3.102-2.662 37.486 37.486 0 0 1-1.507-1.463l-.737-.792c-.264-.297-.462-.517-.836-.968l7.843-6.325z"/><path fill="#035397" d="M297.44 165.407c4.07-.99 14.41 12.386 14.41 12.386l-6.281 11.957s-17.369-9.801-16.709-15.202c.682-5.621 2.64-7.689 8.58-9.141z"/><path fill="#fff" d="M297.44 165.407c4.07-.99 14.41 12.386 14.41 12.386l-6.281 11.957s-17.369-9.801-16.709-15.202c.682-5.621 2.64-7.689 8.58-9.141z" opacity=".2"/><path fill="#1B0F0F" d="M300.124 170.038l-.99 15.653a101.658 101.658 0 0 0 6.435 4.059l1.309-2.508-6.754-17.204z" opacity=".2"/><path fill="#FFB573" d="M341.88 174.174l3.784-10.505 5.379 8.426s-3.014 5.5-7.106 5.5l-2.057-3.421zM351.131 158.807l5.533 6.303-5.621 6.974-5.379-8.415 5.467-4.862zM288.431 442.739l9.801.385 1.749-22.77-9.801-.385-1.749 22.77zM192.962 307.967l-1.936 9.636 21.714 7.579 1.925-9.647-21.703-7.568z"/><path fill="#1B0F0F" d="M192.698 319l3.74-10.395a.772.772 0 00-.363-.968l-7.788-4.147a1.58 1.58 0 00-1.303-.055 1.564 1.564 0 00-.897.946c-1.254 3.641-1.672 5.5-3.3 10.032-1.023 2.816-3.509 8.041-4.906 11.913-1.397 3.872 2.365 5.5 3.3 3.993 4.18-6.688 7.458-8.283 10.384-9.977a2.649 2.649 0 001.133-1.342zM298.562 442.541l-10.637-2.981a.769.769 0 00-.935.44l-3.575 8.074a1.595 1.595 0 001.1 2.112c3.718.968 5.566 1.254 10.252 2.563 2.871.803 11.286 4.598 15.4 4.928 4.114.33 4.653-3.729 2.97-4.235a23.34 23.34 0 01-13.112-9.9 2.548 2.548 0 00-1.463-1.001z"/><g fill="#1B0F0F" opacity=".2"><path d="M299.981 420.354l-.902 11.737-9.801-.374.891-11.737 9.812.374zM214.665 315.535l-1.936 9.647-11.187-3.916 1.936-9.636 11.187 3.905z" opacity=".2"/></g><path fill="#035397" d="M302.577 169.499c.946 5.566 1.859 19.602-2.2 52.294l-39.853 2.464c-.308-15.279-1.1-27.599-9.383-57.2a5.072 5.072 0 0 1 4.565-6.446c3.036-.176 6.853-.297 10.747-.132 6.144.134 12.27.693 18.337 1.672 5.17.924 10.835 2.354 14.124 3.245a5.079 5.079 0 0 1 3.663 4.103z"/><path fill="#fff" d="M302.577 169.499c.946 5.566 1.859 19.602-2.2 52.294l-39.853 2.464c-.308-15.279-1.1-27.599-9.383-57.2a5.072 5.072 0 0 1 4.565-6.446c3.036-.176 6.853-.297 10.747-.132 6.144.134 12.27.693 18.337 1.672 5.17.924 10.835 2.354 14.124 3.245a5.079 5.079 0 0 1 3.663 4.103z" opacity=".2"/><path fill="#035397" d="M300.3 221.793s12.419 75.13 13.618 105.094c1.254 31.174-12.76 102.058-12.76 102.058h-13.255s4.851-67.672 1.793-98.175c-3.3-33.253-18.535-107.173-18.535-107.173l29.139-1.804z"/><path fill="#1B0F0F" d="M286.748 429.429h15.609l1.144-4.983-17.479-.605.726 5.588z"/><path fill="#1B0F0F" d="M284.317 241.67c11 19.085 5.401 55.495 2.761 69.08-3.014-19.965-7.524-44.319-11-62.194.891-10.285 3.168-15.686 8.239-6.886z" opacity=".2"/><path fill="#035397" d="M289.828 222.453s-.286 79.2-12.408 102.432c-14.399 27.5-74.118-.836-74.118-.836l2.64-13.2s39.6 8.921 49.951 1.54c11.132-34.496-9.328-63.8 4.598-88.176l29.337-1.76z"/><path fill="#1B0F0F" d="M206.162 309.331l-3.267 16.302 4.774 2.772 4.708-19.019-6.215-.055z"/><path fill="#FFB573" d="M260.535 173.877a787.95 787.95 0 0 0-5.313 14.894c-1.716 4.994-3.3 9.999-4.697 14.993l-.253.935-.121.473c0 .154-.099.363-.077.242v-.517a2.523 2.523 0 0 0 0-.275 3.024 3.024 0 0 0-.11-.506 1.659 1.659 0 0 0-.099-.253 2.42 2.42 0 0 0-.165-.363 3.794 3.794 0 0 0-.484-.726 3.298 3.298 0 0 0-.759-.704 3.72 3.72 0 0 0-.814-.451 4.907 4.907 0 0 0-.704-.209 4.476 4.476 0 0 0-.539-.11 2.784 2.784 0 0 0-.847.099c-.198.077-.066.055.088 0a6.32 6.32 0 0 0 .583-.275c.44-.242.935-.539 1.43-.869 2.013-1.331 4.125-2.926 6.182-4.532 4.136-3.234 8.294-6.6 12.463-9.955l3.531 3.509a154.151 154.151 0 0 1-10.901 12.188 78.751 78.751 0 0 1-6.237 5.698c-.583.462-1.188.924-1.881 1.397-.363.231-.726.473-1.177.715a8.222 8.222 0 0 1-1.76.748c-.6.173-1.224.251-1.848.231a4.813 4.813 0 0 1-.803-.088 4.273 4.273 0 0 1-.946-.275 4.994 4.994 0 0 1-1.034-.572 5.034 5.034 0 0 1-.946-.869 5.172 5.172 0 0 1-.825-1.419l-.132-.374a6.61 6.61 0 0 1-.165-.748 4.228 4.228 0 0 1 0-.528 5.73 5.73 0 0 1 0-.869v-.649c.066-.451.099-.561.132-.737l.099-.506.209-1.023c1.1-5.5 2.563-10.725 4.18-15.939 1.617-5.214 3.355-10.318 5.401-15.455l9.339 3.674z"/><path fill="#035397" d="M252.505 161.128c-3.916 1.463-7.865 15.51-7.865 15.51l16.181 10.12s5.148-13.552 3.146-18.612c-2.079-5.269-6.985-8.646-11.462-7.018z"/><path fill="#fff" d="M252.505 161.128c-3.916 1.463-7.865 15.51-7.865 15.51l16.181 10.12s5.148-13.552 3.146-18.612c-2.079-5.269-6.985-8.646-11.462-7.018z" opacity=".2"/><path fill="#035397" d="M189.739 323.4v.121a1.335 1.335 0 0 0 1.034.781.794.794 0 0 0 .77-.22c.88-.891.077-4.4 0-4.752a.227.227 0 0 0-.065-.118.225.225 0 0 0-.122-.058.246.246 0 0 0-.129.017.248.248 0 0 0-.102.082c-.671 1.1-1.749 3.047-1.386 4.147zm1.496-3.41c.286 1.397.484 3.3 0 3.773a.35.35 0 0 1-.352.077.884.884 0 0 1-.693-.506c-.231-.583.11-1.815 1.045-3.311v-.033z"/><path fill="#035397" d="M191.202 319.814c.363 1.166 1.595 3.124 2.596 3.3a.826.826 0 00.88-.517 1.216 1.216 0 000-1.034c-.528-1.331-3.19-2.299-3.3-2.343a.225.225 0 00-.115-.033.226.226 0 00-.116.033.256.256 0 00-.064.101c-.013.038-.018.079-.013.119.036.127.081.252.132.374zm3.113 1.969a.73.73 0 01-.055.583c-.132.264-.275.275-.385.264-.682-.099-1.804-1.694-2.2-2.827.869.374 2.288 1.1 2.607 1.914a.164.164 0 00.033.066zM301.653 445.192c.79.301 1.659.324 2.464.066a1.296 1.296 0 00.704-.979.75.75 0 00-.209-.704c-.979-.968-5.302-.099-5.786 0a.254.254 0 00-.187.198.234.234 0 00.029.137c.024.041.06.074.103.094.922.484 1.887.881 2.882 1.188zm2.2-1.485a.84.84 0 01.396.198.303.303 0 01.083.131.302.302 0 01.005.155.879.879 0 01-.462.649c-.715.352-2.299 0-4.301-.935a12.729 12.729 0 014.312-.198h-.033z"/><path fill="#035397" d="M298.815 444.037h.088c1.276-.187 4.081-1.606 4.202-2.728 0-.264-.055-.627-.66-.869a1.66 1.66 0 0 0-1.353 0c-1.463.649-2.398 3.146-2.442 3.245a.257.257 0 0 0 0 .231.229.229 0 0 0 .165.121zm3.3-3.212h.143c.396.165.374.33.363.385-.066.682-2.035 1.859-3.377 2.2a5.283 5.283 0 0 1 2.024-2.585c.279-.108.59-.108.869 0h-.022z"/><path fill="#fff" d="M259.754 221.958l-.803 3.63c-.121.286.22.55.682.517l41.019-2.53c.363 0 .649-.22.66-.44l.143-3.597c0-.242-.319-.44-.715-.407l-40.359 2.486a.714.714 0 0 0-.627.341z"/><path fill="#035397" d="M265.452 226.138l-1.1.066c-.209 0-.385-.088-.374-.22l.22-4.675c0-.132.187-.253.407-.264l1.1-.077c.209 0 .385.088.374.231l-.22 4.664c-.011.132-.198.264-.407.275zM297.638 224.147l-1.1.066c-.209 0-.385-.088-.374-.22l.22-4.664c0-.143.187-.264.396-.275l1.1-.066c.209 0 .385.088.374.22l-.22 4.664c0 .143-.176.264-.396.275zM281.6 225.137l-1.1.077c-.22 0-.385-.088-.385-.231l.22-4.664c0-.143.187-.264.407-.275l1.1-.066c.22 0 .385.088.385.22l-.22 4.675a.534.534 0 01-.407.264z"/><path fill="#fff" d="M266.42 160.6c6.143.131 12.27.686 18.337 1.661 2.2.385 4.51.88 6.677 1.375 1.155 3.575 1.958 10.879-1.265 16.907a9.121 9.121 0 0 0-5.071-5.148 15.405 15.405 0 0 0-4.004 6.083c-4.279-.77-15.796-10.769-21.054-18.821l-1.364-2.079a62.84 62.84 0 0 1 7.744.022z"/><path fill="#FFB573" d="M266.981 140.393c1.518 5.907 3.3 16.643-.561 20.141 0 0 1.98 6.039 12.936 7.029 12.1 1.1 5.401-5.357 5.401-5.357-6.677-2.2-6.798-6.93-5.929-11.341l-11.847-10.472z"/><path fill="#FFB573" d="M266.431 160.6c6.14.12 12.264.675 18.326 1.661l1.199.22c1.639 2.86 2.134 6.105-1.001 11.935 0 0-16.335-6.831-20.9-13.882l2.376.066z"/><path fill="#1B0F0F" d="M271.81 144.672l7.007 6.193a17.063 17.063 0 0 0-.363 3.146c-2.541-.583-6.721-3.102-7.15-5.72a9 9 0 0 1 .506-3.619z" opacity=".2"/><path fill="#FFB573" d="M259.204 133.265c3.487 9.119 4.763 13.057 11 16.357 9.317 4.961 19.8-1.309 19.063-11.275-.616-8.976-6.204-22.374-16.5-23.232a13.313 13.313 0 0 0-14.378 11.497 13.31 13.31 0 0 0 .815 6.653z"/><path fill="#1B0F0F" d="M273.504 133.958l-.814-.088a4.755 4.755 0 011.606-2.728 1.45 1.45 0 012.126.033c.179.198.3.442.349.704l-.781.253a.793.793 0 00-.462-.583.853.853 0 00-.726.231 4.025 4.025 0 00-1.298 2.178zM282.7 129.69a1.573 1.573 0 011.529-1.881 2.064 2.064 0 012.035 1.166l-.715.396a1.261 1.261 0 00-1.254-.748.907.907 0 00-.638.286.89.89 0 00-.143.326.89.89 0 000 .356l-.814.099z"/><path fill="#ED893E" d="M281.149 130.603a21.047 21.047 0 0 0 4.213 3.993 3.45 3.45 0 0 1-2.541 1.353l-1.672-5.346z"/><path fill="#1B0F0F" d="M279.62 140.206a6.808 6.808 0 0 0 1.1-.275.219.219 0 0 0 .143-.286.242.242 0 0 0-.286-.154 6.218 6.218 0 0 1-5.621-.814.233.233 0 0 0-.33.033.233.233 0 0 0 .033.33 6.588 6.588 0 0 0 4.961 1.166z"/><path fill="#FFB573" d="M258.984 141.57a7.182 7.182 0 0 0 4.741 2.695c2.486.286 3.3-2.024 2.321-4.169-.913-1.925-3.3-4.4-5.643-3.696a3.204 3.204 0 0 0-2.14 3.773c.12.518.368.999.721 1.397z"/><path fill="#1B0F0F" d="M275 115.071c7.194 5.313-1.881 5.995-6.435 9.9-4.4 3.751-1.001 9.9-8.459 12.364a29.12 29.12 0 0 1-6.952.803s3.454-6.754 2.354-10.813c-1.1-4.059 11.253-18.425 19.492-12.254z"/><path fill="#1B0F0F" d="M273.768 114.301c1.529 3.3 5.335 2.629 8.382 5.995 1.87 2.057 4.895-4.884.077-7.282-4.818-2.398-10.857-3.883-8.459 1.287z"/><path fill="#035397" d="M265.947 138.985c1.023 3.883.583 7.37-3.3 8.393a7.294 7.294 0 0 1-5.522-.761 7.291 7.291 0 0 1-3.366-4.442 7.29 7.29 0 0 1 .761-5.521 7.282 7.282 0 0 1 4.442-3.367c3.872-1.012 5.962 1.804 6.985 5.698z"/><path fill="#035397" d="M266.112 112.024l-4.763 2.31c-9.229 7.491-3.949 21.219-3.949 21.219l3.597-1.639s-4.114-14.41 5.115-21.89z"/><path fill="#035397" d="M257.4 135.85h-.121a.307.307 0 0 1-.165-.165c-.055-.143-5.247-14.025 4.037-21.56l4.829-2.354a.3.3 0 0 1 .214-.02.301.301 0 0 1 .171.13.306.306 0 0 1-.055.396c-8.976 7.282-5.06 21.428-5.016 21.571a.331.331 0 0 1-.165.363l-3.608 1.639h-.121zm7.04-22.682l-2.959 1.441c-8.151 6.6-4.598 18.491-3.916 20.537l3.08-1.408c-.462-1.837-2.97-13.387 3.795-20.57z"/><path fill="#fff" d="M261.8 140.063c.781 3.003.671 5.643-1.65 6.248-2.321.605-4.829-1.342-5.621-4.345-.792-3.003.451-5.94 2.772-6.6 2.321-.66 3.74 1.694 4.499 4.697z" opacity=".3"/><path fill="#1B0F0F" d="M269.577 130.779a.452.452 0 00.341-.418c.132-2.2 2.486-3.63 2.508-3.641a.463.463 0 00-.133-.847.464.464 0 00-.351.055c-.121.066-2.783 1.749-2.948 4.4a.458.458 0 00.254.448.465.465 0 00.175.047l.154-.044zM285.219 123.057c.081 0 .16-.021.23-.061a.459.459 0 00.166-.17.46.46 0 00-.165-.638 4.645 4.645 0 00-4.246-.286.466.466 0 00-.209.627.469.469 0 00.627.209 3.657 3.657 0 013.355.264.652.652 0 00.242.055z"/><path fill="#FFB573" d="M265.1 187.88l-1.584-10.505 8.514 5.225s-.297 6.314-3.982 8.063l-2.948-2.783zM266.552 172.062l7.953 2.882-2.442 7.656-8.514-5.225 3.003-5.313z"/><path fill="#035397" d="M348.104 158.059l-4.994 3.754a.627.627 0 0 0-.125.878l8.381 11.15a.628.628 0 0 0 .878.124l4.994-3.754a.627.627 0 0 0 .125-.878l-8.381-11.15a.628.628 0 0 0-.878-.124z"/><path fill="#fff" d="M348.518 159.458l-4.176 3.14a.505.505 0 0 0-.101.708l4.389 5.839a.506.506 0 0 0 .708.1l4.177-3.139a.506.506 0 0 0 .1-.708l-4.388-5.839a.508.508 0 0 0-.709-.101z"/><path fill="#FFB573" d="M349.668 172.15l-.066-1.375 1.397-.825a8.785 8.785 0 0 0 1.947-1.551l.484-.506-.308-.451a1.365 1.365 0 0 0-1.562-.517l-1.177.396-5.907.803v2.508l1.892 2.585 3.3-1.067z"/></svg>