<svg xmlns="http://www.w3.org/2000/svg" width="33" height="25" fill="none" viewBox="0 0 33 25"><g clip-path="url(#clip0)"><path fill="#959494" d="M26.403 3.5h-15c-.69 0-1.23.35-1.59.88l-5.04 7.57c-.22.34-.22.77 0 1.11l5.04 7.56c.36.52.9.88 1.59.88h15c1.1 0 2-.9 2-2v-14c0-1.1-.9-2-2-2zm-3.7 13.3a.996.996 0 0 1-1.41 0l-2.89-2.89-2.89 2.89a.996.996 0 1 1-1.41-1.41l2.89-2.89-2.89-2.89a.996.996 0 1 1 1.41-1.41l2.89 2.89 2.89-2.89a.996.996 0 1 1 1.41 1.41l-2.89 2.89 2.89 2.89c.38.38.38 1.02 0 1.41z"/></g><defs><clipPath id="clip0"><path fill="#fff" d="M0 0h24v24H0z" transform="translate(4.403 .5)"/></clipPath></defs></svg>