<svg xmlns="http://www.w3.org/2000/svg" width="24" height="24" fill="#070005" viewBox="0 0 24 24"><path fill-rule="evenodd" d="M15.538 5.438h-.863v1.358a1 1 0 0 1-.997 1.005 1 1 0 0 1-.998-1.005V5.437H8.798v1.36A1 1 0 0 1 7.801 7.8a1 1 0 0 1-.997-1.005V5.437H5.94A1.947 1.947 0 0 0 4 7.391V17.54c0 1.079.869 1.953 1.941 1.953h7.309a4.45 4.45 0 0 1-1.193-3.039c0-2.457 1.979-4.45 4.42-4.45.345 0 .68.041 1.002.116V7.391a1.947 1.947 0 0 0-1.94-1.954zM9.661 16.223H5.51a.46.46 0 0 1-.458-.461.46.46 0 0 1 .458-.462h4.151a.46.46 0 0 1 .459.462.46.46 0 0 1-.459.461zm0-2.97H5.51a.46.46 0 0 1-.458-.462.46.46 0 0 1 .458-.462h4.151a.46.46 0 0 1 .459.462.46.46 0 0 1-.459.461zm6.308-3.176H5.51a.46.46 0 0 1-.458-.461.46.46 0 0 1 .458-.461h10.46a.46.46 0 0 1 .458.46.46.46 0 0 1-.459.462z" clip-rule="evenodd"/><path fill-rule="evenodd" d="M8.395 6.605c0 .33-.266.597-.594.597a.595.595 0 0 1-.593-.597V4.597c0-.33.266-.597.593-.597.328 0 .594.267.594.597v2.008zm5.876 0c0 .33-.265.597-.593.597a.595.595 0 0 1-.593-.597V4.597c0-.33.266-.597.593-.597.328 0 .593.267.593.597v2.008zm2.206 6.305c-1.945 0-3.522 1.588-3.522 3.546 0 1.958 1.577 3.546 3.522 3.546 1.946 0 3.523-1.588 3.523-3.546 0-1.958-1.577-3.546-3.523-3.546zm1.35 4.229h-1.622a.403.403 0 0 1-.152-.03l-.006-.003a.425.425 0 0 1-.059-.032l-.01-.005a.368.368 0 0 1-.037-.032c-.008-.006-.016-.01-.023-.018l-.018-.023c-.01-.012-.022-.024-.031-.037l-.005-.01a.381.381 0 0 1-.032-.06l-.003-.006a.413.413 0 0 1-.03-.152v-1.633a.407.407 0 1 1 .811 0v1.225h1.216c.224 0 .406.182.406.408a.407.407 0 0 1-.406.407z" clip-rule="evenodd"/></svg>