<svg xmlns="http://www.w3.org/2000/svg" width="24" height="24" fill="#070005" viewBox="0 0 24 24"><path d="M4.32 4.5c0-.796.303-1.559.843-2.121A2.823 2.823 0 0 1 7.2 1.5a2.82 2.82 0 0 1 2.036.879c.54.562.844 1.325.844 2.121s-.304 1.559-.844 2.121A2.823 2.823 0 0 1 7.2 7.5a2.823 2.823 0 0 1-2.037-.879A3.065 3.065 0 0 1 4.32 4.5zm9.762 2.378l.06.048a2.794 2.794 0 0 0 2.129.558 2.861 2.861 0 0 0 1.888-1.166 3.09 3.09 0 0 0 .55-2.214 3.027 3.027 0 0 0-1.107-1.975 2.796 2.796 0 0 0-2.121-.588 2.857 2.857 0 0 0-1.903 1.14 3.091 3.091 0 0 0-.579 2.207 3.031 3.031 0 0 0 1.083 1.99zM9.026 9.001c.18-.356.429-.671.73-.926a2.83 2.83 0 0 1 1.018-.555 2.77 2.77 0 0 1 2.238.284c.335.202.628.472.861.794.233.322.401.69.495 1.082a3.12 3.12 0 0 1-.357 2.318 2.89 2.89 0 0 1-1.745 1.316 2.78 2.78 0 0 1-2.133-.313 2.984 2.984 0 0 1-1.328-1.767A3.113 3.113 0 0 1 9.025 9zM3.6 9h3.845c-.159.47-.245.975-.245 1.5a4.59 4.59 0 0 0 1.1 3h-.38c-.742 0-1.467.239-2.074.684a3.738 3.738 0 0 0-1.317 1.803 5.33 5.33 0 0 1-1.344-.815c-1.083-.907-1.745-2.248-1.745-3.922 0-.597.228-1.169.633-1.591A2.117 2.117 0 0 1 3.6 9zm11.52 4.5c1.562 0 2.893 1.037 3.39 2.487.49-.209.943-.48 1.345-.815 1.082-.907 1.745-2.248 1.745-3.922 0-.597-.228-1.169-.633-1.591A2.117 2.117 0 0 0 19.44 9h-3.845c.159.47.245.975.245 1.5a4.593 4.593 0 0 1-1.1 3h.38zm1.997 2.892c.105.264.163.555.163.858 0 1.674-.661 3.015-1.746 3.922-1.067.893-2.498 1.328-4.014 1.328s-2.948-.435-4.015-1.328c-1.083-.907-1.745-2.248-1.745-3.922a2.304 2.304 0 0 1 .631-1.592c.2-.21.439-.375.701-.488A2.08 2.08 0 0 1 7.92 15h7.2a2.1 2.1 0 0 1 1.201.38c.356.248.633.6.796 1.012z"/></svg>