<svg xmlns="http://www.w3.org/2000/svg" width="24" height="24" fill="#070005" viewBox="0 0 24 24"><path d="M20.16 7.999c.51 0 .997.21 1.358.586.36.375.562.883.562 1.414v4c0 .53-.202 1.04-.562 1.414-.36.375-.849.586-1.358.586h-1.02a8.108 8.108 0 0 1-2.54 5 7.506 7.506 0 0 1-5.08 2v-2a5.646 5.646 0 0 0 4.073-1.757 6.13 6.13 0 0 0 1.687-4.243v-6a6.13 6.13 0 0 0-1.687-4.243A5.646 5.646 0 0 0 11.52 3a5.646 5.646 0 0 0-4.073 1.757A6.13 6.13 0 0 0 5.76 9v7H2.88c-.51 0-.998-.21-1.358-.586A2.043 2.043 0 0 1 .96 14v-4c0-.53.202-1.04.562-1.414C1.882 8.211 2.371 8 2.88 8H3.9a8.108 8.108 0 0 1 2.54-5 7.507 7.507 0 0 1 5.08-2c1.87 0 3.677.711 5.08 2a8.108 8.108 0 0 1 2.54 4.999h1.02zM7.45 15.784l1.017-1.696a5.564 5.564 0 0 0 6.106 0l1.017 1.696a7.42 7.42 0 0 1-8.14 0z"/></svg>