<svg xmlns="http://www.w3.org/2000/svg" width="24" height="24" fill="#070005" viewBox="0 0 24 24"><path fill-rule="evenodd" d="M7.497 2h8.046c2.966 0 4.617 1.78 4.617 4.83v10.33c0 3.1-1.651 4.84-4.617 4.84H7.497C4.58 22 2.88 20.26 2.88 17.16V6.83C2.88 3.78 4.58 2 7.497 2zm.26 4.66v-.01h2.87c.413 0 .749.35.749.779 0 .441-.336.791-.75.791h-2.87c-.413 0-.748-.35-.748-.78 0-.43.335-.78.749-.78zm0 6.08h7.526c.413 0 .749-.35.749-.78 0-.43-.336-.781-.749-.781H7.757c-.414 0-.75.351-.75.781 0 .43.336.78.75.78zm0 4.57h7.526c.383-.04.672-.381.672-.78 0-.41-.289-.75-.672-.79H7.757a.744.744 0 0 0-.72.37.823.823 0 0 0 0 .84c.153.25.432.4.72.36z" clip-rule="evenodd"/></svg>