<svg xmlns="http://www.w3.org/2000/svg" width="24" height="24" fill="#070005" viewBox="0 0 24 24"><path fill-rule="evenodd" d="M13.556 11.233h2.658c.402 0 .719-.347.719-.765 0-.429-.317-.766-.72-.766h-2.657c-.402 0-.72.337-.72.766 0 .418.317.765.72.765zm5.813-5.306c.586 0 .97.215 1.353.684.384.47.45 1.143.364 1.754l-.91 6.695c-.173 1.287-1.21 2.235-2.428 2.235H7.283c-1.276 0-2.331-1.04-2.437-2.387L3.964 3.783l-1.449-.265c-.383-.071-.652-.47-.585-.878a.739.739 0 0 1 .835-.631l2.288.366a.754.754 0 0 1 .594.694l.183 2.286c.028.328.278.572.585.572h12.954zM7.13 18.907c-.806 0-1.458.695-1.458 1.552 0 .847.652 1.541 1.458 1.541.796 0 1.449-.694 1.449-1.541 0-.857-.653-1.551-1.449-1.551zm10.792 0c-.806 0-1.458.695-1.458 1.552 0 .847.652 1.541 1.458 1.541.796 0 1.448-.694 1.448-1.541 0-.857-.652-1.551-1.448-1.551z" clip-rule="evenodd"/></svg>