<svg xmlns="http://www.w3.org/2000/svg" width="22" height="22" fill="#1B0F0F" viewBox="0 0 22 22"><path d="M11 0c6.072 0 11 4.928 11 11s-4.928 11-11 11C4.917 22 0 17.072 0 11S4.917 0 11 0zm4.928 9.681c-.737 0-1.32.593-1.32 1.319s.583 1.32 1.32 1.32c.726 0 1.309-.594 1.309-1.32 0-.726-.583-1.319-1.309-1.319zm-4.928 0c-.726 0-1.32.593-1.32 1.319s.594 1.32 1.32 1.32c.726 0 1.309-.594 1.309-1.32 0-.726-.583-1.319-1.309-1.319zm-4.928 0c-.726 0-1.32.593-1.32 1.319s.594 1.32 1.32 1.32c.726 0 1.309-.594 1.309-1.32 0-.726-.583-1.319-1.309-1.319z"/></svg>