<svg xmlns="http://www.w3.org/2000/svg" width="24" height="24" fill="#070005" viewBox="0 0 24 24"><path d="M15.36 11c1.594 0 2.87-1.34 2.87-3s-1.276-3-2.87-3-2.88 1.34-2.88 3 1.286 3 2.88 3zm-7.68 0c1.594 0 2.87-1.34 2.87-3S9.274 5 7.68 5 4.8 6.34 4.8 8s1.286 3 2.88 3zm0 2C5.443 13 .96 14.17.96 16.5V18c0 .55.432 1 .96 1h11.52c.528 0 .96-.45.96-1v-1.5c0-2.33-4.483-3.5-6.72-3.5zm7.68 0c-.278 0-.595.02-.931.05.019.01.029.03.038.04 1.095.83 1.853 1.94 1.853 3.41V18c0 .35-.067.69-.173 1h4.973c.528 0 .96-.45.96-1v-1.5c0-2.33-4.483-3.5-6.72-3.5z"/></svg>