<svg xmlns="http://www.w3.org/2000/svg" width="20" height="20" viewBox="0 0 20 20"><path d="M10 19.044a1.483 1.483 0 0 0 1.434-1.267H8.51A1.483 1.483 0 0 0 10 19.044zm8.25-3.416l-.189-.167a7.978 7.978 0 0 1-1.394-1.627 7.014 7.014 0 0 1-.75-2.673V8.417a6.072 6.072 0 0 0-.09-.995A4.167 4.167 0 0 1 12.5 3.334v-.35a5.872 5.872 0 0 0-1.845-.556v-.7a.742.742 0 1 0-1.483 0v.728a6.006 6.006 0 0 0-5.167 5.96v2.745a7.016 7.016 0 0 1-.75 2.673 7.997 7.997 0 0 1-1.372 1.627l-.189.167v1.567H18.25v-1.567zm-1.584-9.517a2.778 2.778 0 1 0 0-5.555 2.778 2.778 0 0 0 0 5.555z" opacity=".5"/></svg>