<svg xmlns="http://www.w3.org/2000/svg" width="20" height="12" fill="none" viewBox="0 0 20 12"><path fill="#0F1318" d="M10 .04c3.821 0 7.287 2.09 9.843 5.485a.792.792 0 0 1 0 .945c-2.556 3.4-6.022 5.49-9.843 5.49-3.821 0-7.286-2.09-9.844-5.485a.792.792 0 0 1 0-.946C2.714 2.13 6.18.04 10 .04zm-.274 10.158a4.209 4.209 0 0 0 4.472-4.472 4.216 4.216 0 0 0-3.924-3.924 4.21 4.21 0 0 0-4.472 4.472 4.23 4.23 0 0 0 3.924 3.924zm.127-1.94a2.261 2.261 0 0 0 2.405-2.405 2.275 2.275 0 0 0-2.115-2.115 2.261 2.261 0 0 0-2.405 2.405 2.275 2.275 0 0 0 2.115 2.115z"/></svg>