<svg xmlns="http://www.w3.org/2000/svg" width="33" height="32" fill="none" viewBox="0 0 33 32"><path fill="#38AE0E" d="M25.258 32H7.743a1.406 1.406 0 0 1-.96-.377 1.251 1.251 0 0 1-.4-.906V18.493c0-.705.613-1.282 1.36-1.282h1.645v-1.976c0-3.7 3.191-6.71 7.112-6.71 3.92 0 7.112 3.011 7.112 6.71v1.976h1.645c.747 0 1.36.577 1.36 1.282v12.224c-.002.34-.145.666-.4.906s-.6.376-.96.377h.001zm-7.87-6.763c.347-.184.619-.472.774-.818a1.61 1.61 0 0 0 .083-1.094 1.696 1.696 0 0 0-.644-.914 1.871 1.871 0 0 0-1.101-.352 1.87 1.87 0 0 0-1.1.354c-.314.229-.54.55-.641.913-.101.363-.072.747.082 1.093.154.345.426.633.771.818v1.656c0 .11.023.22.068.32.045.102.11.195.192.272.083.078.18.14.288.182a.934.934 0 0 0 .968-.182.835.835 0 0 0 .192-.271.797.797 0 0 0 .068-.32v-1.657zm-3.92-8.026h6.066v-1.976c0-1.578-1.36-2.862-3.033-2.862-1.672 0-3.033 1.284-3.033 2.862v1.976zm-7.501-1.822H1.74a1.28 1.28 0 0 1-.878-.342 1.138 1.138 0 0 1-.363-.828c0-.31.13-.609.363-.828a1.28 1.28 0 0 1 .878-.343h4.226c.329 0 .644.123.877.343.233.22.364.517.364.828 0 .31-.131.608-.364.828a1.28 1.28 0 0 1-.877.342zm2.977-6.272a1.274 1.274 0 0 1-.787-.266L4.815 6.257a1.188 1.188 0 0 1-.307-.353 1.127 1.127 0 0 1 .137-1.295 1.293 1.293 0 0 1 1.748-.16L9.734 7.04c.197.154.34.36.408.594a1.11 1.11 0 0 1-.03.706 1.181 1.181 0 0 1-.454.562 1.293 1.293 0 0 1-.715.213v.001zM16.5 6.36c-.163 0-.324-.03-.475-.09a1.248 1.248 0 0 1-.402-.253 1.167 1.167 0 0 1-.27-.38 1.113 1.113 0 0 1-.094-.448V1.171c0-.31.13-.609.364-.828A1.28 1.28 0 0 1 16.5 0c.33 0 .645.123.877.343.233.22.364.517.364.828v4.018c0 .31-.13.609-.364.828a1.28 1.28 0 0 1-.877.343zm7.555 2.757a1.292 1.292 0 0 1-.716-.211 1.18 1.18 0 0 1-.455-.563 1.106 1.106 0 0 1-.029-.707c.069-.233.212-.44.41-.593l3.343-2.594a1.293 1.293 0 0 1 1.747.161c.21.24.31.548.277.858a1.152 1.152 0 0 1-.447.79l-3.342 2.594c-.222.172-.5.267-.788.267v-.002zm7.204 6.272h-4.267a1.28 1.28 0 0 1-.877-.342 1.138 1.138 0 0 1-.363-.828c0-.31.13-.609.363-.828a1.28 1.28 0 0 1 .877-.343h4.267c.33 0 .645.123.878.343.232.22.363.517.363.828 0 .31-.13.608-.363.828a1.28 1.28 0 0 1-.878.342z"/></svg>