<svg xmlns="http://www.w3.org/2000/svg" width="24" height="24" fill="none" viewBox="0 0 24 24"><path fill="#1B1B1B" d="M23.966 13.359L19.435 1.98a.471.471 0 0 0-.613-.264L.44 9.037a.462.462 0 0 0-.189.15.466.466 0 0 0-.251.409v12.25c0 .26.21.47.471.47h19.787c.26 0 .472-.21.472-.47v-6.69l2.973-1.185a.471.471 0 0 0 .263-.612zm-4.179 8.015H.942V10.067h18.845v11.307zM7.861 9.127l7.888-3.143c.704.74 1.68 1.16 2.701 1.164l.787 1.98H7.861zm12.869 5.016V9.596a.471.471 0 0 0-.472-.471h-.007l-.998-2.508a.39.39 0 0 0-.04-.059.465.465 0 0 0-.491-.363 2.817 2.817 0 0 1-2.47-1.063.467.467 0 0 0-.605-.106.533.533 0 0 0-.066.012L5.95 8.873a.465.465 0 0 0-.259.252H2.766l15.968-6.358 4.183 10.504-2.187.872z"/><path fill="#1B1B1B" d="M2.22 18.194c.914.27 1.63.985 1.901 1.9.06.199.243.336.451.336a.434.434 0 0 0 .073-.011c.021.006.043.01.065.013h11.307a.419.419 0 0 0 .057-.012.439.439 0 0 0 .53-.322v-.003a2.816 2.816 0 0 1 1.902-1.902.465.465 0 0 0 .324-.518.483.483 0 0 0 .013-.07v-3.769a.424.424 0 0 0-.014-.07.465.465 0 0 0-.323-.518 2.814 2.814 0 0 1-1.901-1.902.465.465 0 0 0-.522-.323.443.443 0 0 0-.066-.014H4.71a.442.442 0 0 0-.07.015.465.465 0 0 0-.519.323 2.817 2.817 0 0 1-1.902 1.901.465.465 0 0 0-.323.519.477.477 0 0 0-.013.07v3.768a.433.433 0 0 0 .013.066c-.039.23.1.454.323.523zm.605-4.166a3.739 3.739 0 0 0 2.076-2.076h10.924a3.74 3.74 0 0 0 2.076 2.075v3.387a3.743 3.743 0 0 0-2.076 2.076H4.901a3.743 3.743 0 0 0-2.076-2.076v-3.387z"/><path fill="#1B1B1B" d="M10.366 18.547a2.827 2.827 0 1 0 0-5.653 2.827 2.827 0 0 0 0 5.653zm0-4.71a1.885 1.885 0 1 1 0 3.768 1.885 1.885 0 0 1 0-3.769zm-5.183 2.59a.707.707 0 1 0 0-1.413.707.707 0 0 0 0 1.413zm0-.942a.236.236 0 1 1 0 .471.236.236 0 0 1 0-.47zm10.363.942a.707.707 0 1 0 0-1.413.707.707 0 0 0 0 1.413zm0-.942a.236.236 0 1 1 0 .471.236.236 0 0 1 0-.47z"/></svg>