<svg xmlns="http://www.w3.org/2000/svg" width="24" height="24" fill="none" viewBox="0 0 24 24"><g fill="#1B1B1B" clip-path="url(#clip0_2833:12024)"><path d="M24 1.635a1.617 1.617 0 0 0-.476-1.159 1.638 1.638 0 0 0-2.317.007 10.8 10.8 0 0 0-.5.573.389.389 0 1 0 .598.497c.204-.247.373-.44.452-.52a.866.866 0 0 1 .611-.255h.004a.845.845 0 0 1 .85.854.86.86 0 0 1-.255.611c-.147.147-.652.547-1.374 1.052a2.463 2.463 0 0 0-2.127-1.223h-5.694c-.768 0-1.49.3-2.034.843L.357 14.295a1.21 1.21 0 0 0-.357.862c0 .325.127.631.357.861l7.625 7.625a1.215 1.215 0 0 0 1.723 0l11.38-11.38a2.859 2.859 0 0 0 .843-2.035V4.534c0-.168-.017-.332-.049-.49.823-.567 1.427-1.04 1.637-1.25.31-.31.482-.722.484-1.16zm-2.85 8.593a2.09 2.09 0 0 1-.614 1.485L9.155 23.093a.441.441 0 0 1-.623 0L.907 15.47a.438.438 0 0 1 0-.624l11.38-11.38a2.086 2.086 0 0 1 1.485-.615h5.694c.64 0 1.197.358 1.482.884-.46.304-.974.627-1.52.945a1.635 1.635 0 0 0-2.362-.055 1.635 1.635 0 0 0 0 2.31c.32.318.737.477 1.156.477a1.634 1.634 0 0 0 1.578-2.05c.474-.276.93-.558 1.35-.831v5.697zm-3.276-4.275a.389.389 0 0 0 .523.173c.227-.115.455-.234.68-.356a.856.856 0 1 1-1.46-.596.853.853 0 0 1 1.099-.093c-.22.12-.444.237-.669.35a.389.389 0 0 0-.173.522z"/><path d="M11.584 7.92a.389.389 0 0 0-.389.389v8.211a.389.389 0 0 0 .778 0V8.31a.389.389 0 0 0-.389-.389zM9.81 11.26a1.635 1.635 0 0 0-2.309 0 1.635 1.635 0 0 0 0 2.31 1.63 1.63 0 0 0 1.155.477 1.628 1.628 0 0 0 1.633-1.632c0-.437-.17-.847-.479-1.155zm-.55 1.76a.856.856 0 0 1-1.21-1.21.853.853 0 0 1 1.21 0 .85.85 0 0 1 .251.604.85.85 0 0 1-.25.605zm6.414-1.76a1.635 1.635 0 0 0-2.31 0 1.635 1.635 0 0 0 1.155 2.787 1.63 1.63 0 0 0 1.155-.477 1.635 1.635 0 0 0 0-2.31zm-.55 1.76a.856.856 0 0 1-1.21-1.21.853.853 0 0 1 1.21 0 .856.856 0 0 1 0 1.21z"/></g><defs><clipPath id="clip0_2833:12024"><path fill="#fff" d="M0 0h24v24H0z"/></clipPath></defs></svg>