<svg xmlns="http://www.w3.org/2000/svg" width="24" height="24" fill="none" viewBox="0 0 24 24"><g fill="#1B1B1B" clip-path="url(#clip0_2833:12076)"><path d="M11.998 7.5l-.002 5.247c0 .2.08.39.22.53l3.754 3.753 1.06-1.06-3.534-3.534.002-4.936h-1.5z"/><path d="M13.5 1.5c-5.28 0-9.648 3.92-10.38 9H0l3.75 3.75L7.5 10.5H4.635C5.353 6.25 9.05 3 13.5 3c4.963 0 9 4.037 9 9s-4.037 9-9 9a8.953 8.953 0 0 1-7.097-3.465l-1.182.923A10.445 10.445 0 0 0 13.5 22.5C19.29 22.5 24 17.789 24 12c0-5.79-4.71-10.5-10.5-10.5z"/></g><defs><clipPath id="clip0_2833:12076"><path fill="#fff" d="M0 0h24v24H0z"/></clipPath></defs></svg>