<svg xmlns="http://www.w3.org/2000/svg" width="24" height="24" fill="none" viewBox="0 0 24 24"><path fill="#1B1B1B" d="M5.8 23.297H4.265a.821.821 0 0 1-.82-.82V1.523a.82.82 0 0 1 .82-.82h6.09a.352.352 0 0 0 0-.703h-6.09c-.84 0-1.524.683-1.524 1.523v20.954c0 .84.684 1.523 1.524 1.523h1.533a.352.352 0 0 0 0-.703zM21.153 4.955L16.3.103A.357.357 0 0 0 16.053 0h-4.058a.352.352 0 1 0 0 .703h3.706v3.328c0 .84.683 1.524 1.523 1.524h3.328v16.922a.82.82 0 0 1-.82.82H7.438a.352.352 0 1 0 0 .703h12.294c.84 0 1.524-.683 1.524-1.523V5.203a.356.356 0 0 0-.103-.248zm-3.929-.103a.821.821 0 0 1-.82-.82V1.2l3.651 3.652h-2.83z"/><path fill="#1B1B1B" d="M18.094 7.724H5.906a.352.352 0 0 0 0 .703h12.188a.352.352 0 0 0 0-.703zm0 3.125H5.906a.352.352 0 1 0 0 .703h12.188a.352.352 0 0 0 0-.703zm0 3.125H5.906a.352.352 0 1 0 0 .703h12.188a.352.352 0 0 0 0-.703zm0 3.125H5.906a.352.352 0 1 0 0 .703h12.188a.352.352 0 0 0 0-.703z"/></svg>