<svg xmlns="http://www.w3.org/2000/svg" width="44" height="44" fill="none" viewBox="0 0 44 44"><circle cx="22" cy="22" r="22" fill="#EEE"/><path fill="#1B1B1B" d="M30.485 25.515a11.954 11.954 0 0 0-4.56-2.86 6.935 6.935 0 0 0 3.012-5.718A6.945 6.945 0 0 0 22 10a6.945 6.945 0 0 0-6.938 6.938 6.935 6.935 0 0 0 3.013 5.716 11.954 11.954 0 0 0-4.56 2.86A11.921 11.921 0 0 0 10 34h1.875c0-5.583 4.542-10.125 10.125-10.125S32.125 28.417 32.125 34H34c0-3.205-1.248-6.219-3.515-8.485zM22 22a5.068 5.068 0 0 1-5.063-5.063A5.068 5.068 0 0 1 22 11.875a5.068 5.068 0 0 1 5.063 5.063A5.068 5.068 0 0 1 22 22z"/></svg>