<svg xmlns="http://www.w3.org/2000/svg" width="24" height="24" fill="none" viewBox="0 0 24 24"><path fill="#1B1B1B" d="M24 7.64V6.376a2.625 2.625 0 0 0-2.625-2.625H2.625A2.625 2.625 0 0 0 0 6.375v1.266c0 .13.105.234.234.234h23.532A.234.234 0 0 0 24 7.641zM0 9.61v8.015a2.625 2.625 0 0 0 2.625 2.625h18.75A2.625 2.625 0 0 0 24 17.625V9.609a.234.234 0 0 0-.234-.234H.234A.234.234 0 0 0 0 9.609zm6 6.14a.75.75 0 0 1-.75.75H4.5a.75.75 0 0 1-.75-.75V15a.75.75 0 0 1 .75-.75h.75A.75.75 0 0 1 6 15v.75z"/></svg>