<svg xmlns="http://www.w3.org/2000/svg" width="24" height="24" fill="none" viewBox="0 0 24 24"><path fill="#03A9F4" d="M19.943 5.52a.5.5 0 0 0-.75.376 5.52 5.52 0 0 1-.081.5C18.132 10.84 16.167 13 13.1 13H8.6a.5.5 0 0 0-.49.4l-1.5 7.031-.267 1.79a1.5 1.5 0 0 0 1.467 1.78h3.01a1.493 1.493 0 0 0 1.455-1.14l1.216-4.86H16.1c3.079 0 5.207-2.456 5.992-6.914a5.226 5.226 0 0 0-2.15-5.568z"/><path fill="#283593" d="M19 1.782A5.262 5.262 0 0 0 15.1 0H6.82a2.487 2.487 0 0 0-2.474 2.126L1.775 19.277A1.5 1.5 0 0 0 3.26 21H7.1a.5.5 0 0 0 .489-.4L9.004 14h4.1c3.558 0 5.909-2.487 6.989-7.4.043-.196.076-.394.1-.593A5.163 5.163 0 0 0 19 1.782z"/></svg>