<svg xmlns="http://www.w3.org/2000/svg" width="56" height="40" fill="none" viewBox="0 0 56 40"><rect width="54" height="39" x="1.301" y=".5" fill="#fff" stroke="#B1B1B1" rx="3.5"/><path fill="#172B85" fill-rule="evenodd" d="M18.192 26.43H14.86l-2.5-10.11c-.118-.464-.37-.876-.74-1.07a10.421 10.421 0 0 0-3.055-1.07v-.389h5.368c.74 0 1.296.585 1.389 1.264l1.296 7.293 3.33-8.556h3.24L18.192 26.43zm6.85 0h-3.148l2.591-12.639h3.147l-2.59 12.64zm6.661-9.137c.093-.68.648-1.07 1.296-1.07a5.572 5.572 0 0 1 3.055.583l.555-2.721a7.568 7.568 0 0 0-2.869-.585c-3.054 0-5.276 1.75-5.276 4.18 0 1.849 1.574 2.82 2.685 3.404 1.202.583 1.665.972 1.573 1.555 0 .875-.926 1.264-1.85 1.264-1.112 0-2.223-.291-3.24-.778l-.556 2.722c1.112.486 2.314.681 3.425.681 3.424.096 5.553-1.653 5.553-4.278 0-3.306-4.35-3.5-4.35-4.957zm15.363 9.137l-2.499-12.639h-2.684c-.555 0-1.11.39-1.296.973L35.96 26.43h3.24l.646-1.846h3.98l.37 1.846h2.87zm-4.719-9.235l.925 4.764H40.68l1.667-4.764z" clip-rule="evenodd"/></svg>