<svg xmlns="http://www.w3.org/2000/svg" width="24" height="24" fill="none" viewBox="0 0 24 24"><path fill="#1B1B1B" d="M20.538 2.077H3.462A3.465 3.465 0 0 0 0 5.538v12.923a3.466 3.466 0 0 0 3.462 3.462h17.076A3.465 3.465 0 0 0 24 18.461V5.538a3.465 3.465 0 0 0-3.462-3.461zm2.077 12H17.54A2.08 2.08 0 0 1 15.46 12a2.08 2.08 0 0 1 2.077-2.077h5.077v4.154zm0-5.539H17.54A3.466 3.466 0 0 0 14.076 12a3.465 3.465 0 0 0 3.461 3.461h5.077v3a2.08 2.08 0 0 1-2.076 2.077H3.461a2.08 2.08 0 0 1-2.077-2.077V5.538a2.08 2.08 0 0 1 2.077-2.077h17.076a2.08 2.08 0 0 1 2.077 2.077v3z"/><path fill="#1B1B1B" d="M18.46 11.308h-.924a.692.692 0 0 0 0 1.384h.923a.692.692 0 1 0 0-1.384z"/></svg>