<svg xmlns="http://www.w3.org/2000/svg" width="48" height="48" fill="none" viewBox="0 0 48 48"><g clip-path="url(#clip0_3002:11874)"><path fill="#A86A3F" d="M3.75 7.903h37.5a3.761 3.761 0 0 1 3.75 3.75v4.5a3.761 3.761 0 0 1-3.75 3.75H3.75A3.761 3.761 0 0 1 0 16.153v-4.5a3.761 3.761 0 0 1 3.75-3.75z"/><path fill="#3DB39E" d="M11.963 11.916L35.438 5.69c.787-.225 1.612.262 1.837 1.05l3.9 14.4c.225.787-.262 1.612-1.05 1.837L9.563 31.116c-.788.225-1.613-.263-1.838-1.05L4.875 19.49l7.088-7.575z"/><path fill="#78CABB" d="M37.086 20.69l-5.063 1.35c-.412.113-.825-.113-.9-.525-.112-.412.113-.825.525-.9l4.35-1.162-2.325-8.7-4.35 1.162c-.412.113-.825-.112-.9-.525-.112-.412.113-.825.526-.9l5.062-1.35c.412-.112.825.113.9.525l2.7 10.125c.112.413-.113.825-.525.9zm-21 5.663l-5.063 1.35c-.412.112-.825-.113-.9-.525l-2.7-10.125c-.112-.413.113-.825.525-.9l5.063-1.35c.412-.113.825.112.9.525.112.412-.113.825-.525.9l-4.35 1.162 2.325 8.7 4.35-1.162c.412-.113.825.112.9.525a.727.727 0 0 1-.525.9z"/><path fill="#5ABEAC" d="M.3 17.166C6.973 13.34 24.973 2.803 24.973 2.803c.713-.412 1.65-.187 2.063.525l7.5 12.9c.412.713.15 1.613-.563 2.025l-27.45 15.75c-.712.413-1.65.188-2.062-.525 0 0-2.1-4.275-4.2-7.875 0-8.437.037-5.662.037-8.437z"/><path fill="#8CD2C5" d="M30.712 15.815l-5.25-9.075c-.225-.375-.675-.487-1.012-.262l-4.538 2.625c-.375.225-.487.675-.262 1.012.225.375.675.488 1.012.263l3.9-2.25 4.5 7.8-3.9 2.25c-.375.225-.487.675-.262 1.012.225.375.675.488 1.012.263l4.538-2.625a.727.727 0 0 0 .262-1.013zM10.837 26.428l-3.9 2.25-4.5-7.8 3.9-2.25c.375-.225.488-.675.263-1.013-.225-.375-.675-.487-1.013-.262L1.05 19.978c-.375.225-.488.675-.263 1.012l5.25 9.075c.225.375.675.488 1.013.263l4.537-2.625c.375-.225.488-.675.263-1.013a.727.727 0 0 0-1.013-.262zM12.75 13.19c-2.888 1.65-3.863 5.325-2.213 8.213a6.018 6.018 0 0 0 8.213 2.212c2.887-1.65 3.862-5.325 2.212-8.212-1.687-2.85-5.325-3.863-8.212-2.213zm17.962 2.625l-5.25-9.075c-.225-.375-.675-.487-1.012-.262l-4.538 2.625c-.375.225-.487.675-.262 1.012.225.375.675.488 1.012.263l3.9-2.25 4.5 7.8-3.9 2.25c-.375.225-.487.675-.262 1.012.225.375.675.488 1.012.263l4.538-2.625a.727.727 0 0 0 .262-1.013zM10.837 26.428l-3.9 2.25-4.5-7.8 3.9-2.25c.375-.225.488-.675.263-1.013-.225-.375-.675-.487-1.013-.262L1.05 19.978c-.375.225-.488.675-.263 1.012l5.25 9.075c.225.375.675.488 1.013.263l4.537-2.625c.375-.225.488-.675.263-1.013a.727.727 0 0 0-1.013-.262zM12.75 13.19c-2.888 1.65-3.863 5.325-2.213 8.213a6.018 6.018 0 0 0 8.213 2.212c2.887-1.65 3.862-5.325 2.212-8.212-1.687-2.85-5.325-3.863-8.212-2.213z"/><path fill="#C47E4D" d="M42.75 45.402h-39A3.761 3.761 0 0 1 0 41.652v-27h42.75a3.761 3.761 0 0 1 3.75 3.75v23.25a3.761 3.761 0 0 1-3.75 3.75zM3 14.652H0v-3c0 1.65 1.35 3 3 3z"/><path fill="#A86A3F" d="M46.5 36.028h-6c-2.888 0-5.25-2.362-5.25-5.25 0-2.887 2.362-5.25 5.25-5.25h6c.825 0 1.5.675 1.5 1.5v7.5c0 .825-.675 1.5-1.5 1.5z"/><path fill="#EFC75E" d="M40.5 27.777c1.65 0 3 1.35 3 3s-1.35 3-3 3-3-1.35-3-3 1.35-3 3-3z"/><path fill="#D7B354" d="M41.25 33.028c-1.65 0-3-1.35-3-3 0-.638.188-1.238.525-1.725-.788.525-1.275 1.425-1.275 2.475 0 1.65 1.35 3 3 3 1.013 0 1.913-.525 2.475-1.275a3.024 3.024 0 0 1-1.725.525z"/><path fill="#B27245" d="M42.75 43.902h-39A3.761 3.761 0 0 1 0 40.152v1.5a3.761 3.761 0 0 0 3.75 3.75h39a3.761 3.761 0 0 0 3.75-3.75v-1.5a3.761 3.761 0 0 1-3.75 3.75z"/><path fill="#CA8B5F" d="M42.75 14.652H3c-1.65 0-3-1.35-3-3v1.5c0 1.65 1.35 3 3 3h39.75a3.761 3.761 0 0 1 3.75 3.75v-1.5a3.761 3.761 0 0 0-3.75-3.75z"/></g><defs><clipPath id="clip0_3002:11874"><path fill="#fff" d="M0 0h48v48H0z"/></clipPath></defs></svg>