<svg xmlns="http://www.w3.org/2000/svg" width="28" height="17" fill="none" viewBox="0 0 28 17"><path fill="#9B5C8F" d="M2.599.25H25.39A2.606 2.606 0 0 1 28 2.853v8.678a2.606 2.606 0 0 1-2.61 2.604h-8.173l1.122 2.74-4.934-2.74H2.61A2.606 2.606 0 0 1 0 11.53V2.853A2.596 2.596 0 0 1 2.6.25z"/><path fill="#fff" d="M1.594 2.623c.16-.216.399-.33.717-.352.58-.045.91.227.99.818.353 2.372.74 4.382 1.15 6.028l2.493-4.734c.228-.432.512-.659.854-.681.5-.034.808.284.933.953.284 1.51.649 2.793 1.081 3.883.296-2.884.797-4.961 1.503-6.244.17-.318.42-.477.75-.5a.99.99 0 0 1 .718.227.89.89 0 0 1 .353.648.984.984 0 0 1-.114.544c-.444.818-.808 2.192-1.104 4.099-.285 1.85-.387 3.292-.319 4.326a1.35 1.35 0 0 1-.136.749.733.733 0 0 1-.604.409c-.296.022-.603-.114-.899-.42-1.058-1.079-1.9-2.691-2.515-4.837a212.7 212.7 0 0 0-1.64 3.27c-.67 1.283-1.24 1.941-1.718 1.975-.307.023-.569-.238-.797-.783-.58-1.487-1.206-4.36-1.878-8.617a.965.965 0 0 1 .182-.76zm24.46 1.783c-.409-.716-1.012-1.147-1.82-1.317a2.995 2.995 0 0 0-.615-.069c-1.093 0-1.98.568-2.675 1.703a6.004 6.004 0 0 0-.887 3.202c0 .874.182 1.623.546 2.248.41.715 1.013 1.147 1.821 1.317.216.045.421.068.615.068 1.104 0 1.991-.568 2.674-1.703a6.072 6.072 0 0 0 .888-3.213c.012-.885-.182-1.623-.546-2.236zM24.622 7.55c-.16.75-.444 1.306-.865 1.68-.33.296-.638.42-.922.364-.273-.057-.501-.295-.672-.738a2.875 2.875 0 0 1-.205-1.033c0-.284.023-.568.08-.829.103-.465.296-.92.603-1.35.376-.557.774-.784 1.184-.705.273.057.5.295.672.738.136.352.205.704.205 1.033 0 .295-.023.58-.08.84zM18.93 4.406c-.41-.716-1.025-1.147-1.821-1.317a2.996 2.996 0 0 0-.615-.069c-1.093 0-1.98.568-2.675 1.703a6.004 6.004 0 0 0-.888 3.202c0 .874.183 1.623.547 2.248.41.715 1.013 1.147 1.82 1.317.217.045.422.068.615.068 1.104 0 1.992-.568 2.675-1.703a6.072 6.072 0 0 0 .888-3.213c0-.885-.182-1.623-.546-2.236zM17.484 7.55c-.16.75-.444 1.306-.865 1.68-.33.296-.637.42-.922.364-.273-.057-.5-.295-.671-.738a2.875 2.875 0 0 1-.205-1.033c0-.284.023-.568.08-.829.102-.465.295-.92.603-1.35.375-.557.774-.784 1.183-.705.274.057.501.295.672.738.137.352.205.704.205 1.033a3.35 3.35 0 0 1-.08.84z"/></svg>