<svg xmlns="http://www.w3.org/2000/svg" width="123" height="123" fill="none" viewBox="0 0 123 123"><path fill="#fff" d="M55.613 50.623a14.152 14.152 0 0 1 24.203 9.307L64.934 74.812a14.154 14.154 0 0 1-9.321-24.19zm35.183 25.115l16.312 16.312a4.737 4.737 0 0 1 0 6.697l-3.348 3.349a4.738 4.738 0 0 1-6.698 0L80.755 85.788l-10.051-10.05L80.75 65.69l10.046 10.047zm-3.51 9.885l3.35-3.35-9.886-9.884-3.349 3.349 9.885 9.885zm9.768-34.488a.309.309 0 0 1 .108-.1A.29.29 0 0 1 97.3 51h2.834a.3.3 0 0 1 .281.202l3.086 8.466 3.085-8.466a.315.315 0 0 1 .111-.147.288.288 0 0 1 .17-.055h2.833c.048 0 .096.012.138.036a.31.31 0 0 1 .108.1.33.33 0 0 1 .035.29l-4.693 13.367-.001.001a.3.3 0 0 1-.035.068l-.006.008c-.005.008-.013.015-.018.022a.46.46 0 0 1-.04.041.2.2 0 0 1-.025.018c-.016.01-.033.018-.05.026l-.025.01a.28.28 0 0 1-.083.013h-3.012a.28.28 0 0 1-.083-.013l-.025-.01a.352.352 0 0 1-.075-.044.269.269 0 0 1-.041-.041.253.253 0 0 1-.018-.022c-.002-.002-.005-.004-.006-.008a.344.344 0 0 1-.034-.068v-.001l-4.694-13.368a.338.338 0 0 1 .037-.29zM94.71 51H82.29c-.16 0-.29.133-.29.297v2.389c0 .165.13.297.29.297h4.498v10.72c0 .164.13.297.29.297h2.843a.294.294 0 0 0 .291-.297v-10.72h4.497a.293.293 0 0 0 .291-.297v-2.389a.294.294 0 0 0-.29-.297z"/><path fill="#fff" d="M23.131 101.399l.51-81.187c2.023-1.766 2.262-2.055 5.18-4.45 2.918-2.394 7.44-4.522 7.44-4.522v60.106l12.911-12.911s-1.167 5.69.511 9.337c1.678 3.647 4.158 5.543 4.158 5.543L36.26 89.392l-13.13 12.007zm71.374-86.067L66.276 43.488s3.98.5 7.164 2.092c3.184 1.592 5.572 5.572 5.572 5.572l25.337-26.268s-3.59-3.839-4.665-4.957c-1.823-1.896-5.178-4.595-5.178-4.595z"/><path stroke="#fff" stroke-width="10" d="M61.28 116.78c30.652 0 55.5-24.848 55.5-55.5s-24.848-55.5-55.5-55.5-55.5 24.848-55.5 55.5 24.848 55.5 55.5 55.5z"/></svg>